<?xml version="1.0" encoding="UTF-8" standalone="no"?>
<!DOCTYPE svg PUBLIC "-//W3C//DTD SVG 1.1//EN" "http://www.w3.org/Graphics/SVG/1.1/DTD/svg11.dtd">
<svg width="100%" height="100%" viewBox="0 0 200 200" version="1.1" xmlns="http://www.w3.org/2000/svg" xmlns:xlink="http://www.w3.org/1999/xlink" xml:space="preserve" xmlns:serif="http://www.serif.com/" style="fill-rule:evenodd;clip-rule:evenodd;stroke-linejoin:round;stroke-miterlimit:2;">
    <g transform="matrix(0.307608,0,0,0.307608,-3.74907,-23.9047)">
        <g transform="matrix(3.47282,0,0,3.44111,-124.38,383.512)">
            <ellipse cx="87.535" cy="37.67" rx="3.114" ry="3.027" style="fill:rgb(255,0,0);"/>
        </g>
        <g transform="matrix(3.47282,0,0,3.44111,4.95285,444.804)">
            <ellipse cx="87.535" cy="37.67" rx="3.114" ry="3.027" style="fill:rgb(255,0,0);"/>
        </g>
        <g transform="matrix(3.47282,0,0,3.44111,87.2758,-24.8854)">
            <ellipse cx="87.535" cy="37.67" rx="3.114" ry="3.027" style="fill:rgb(255,0,0);"/>
        </g>
        <g transform="matrix(3.47282,0,0,3.44111,140.471,561.774)">
            <ellipse cx="87.535" cy="37.67" rx="3.114" ry="3.027" style="fill:rgb(255,0,0);"/>
        </g>
        <g transform="matrix(3.47282,0,0,3.44111,53.087,350.335)">
            <ellipse cx="87.535" cy="37.67" rx="3.114" ry="3.027" style="fill:rgb(255,0,0);"/>
        </g>
        <g transform="matrix(3.47282,0,0,3.44111,176.347,285.107)">
            <ellipse cx="87.535" cy="37.67" rx="3.114" ry="3.027" style="fill:rgb(255,0,0);"/>
        </g>
        <g transform="matrix(3.47282,0,0,3.44111,-4.94387,30.0404)">
            <ellipse cx="87.535" cy="37.67" rx="3.114" ry="3.027" style="fill:rgb(255,0,0);"/>
        </g>
        <g transform="matrix(3.47282,0,0,3.44111,-57.5766,116.818)">
            <ellipse cx="87.535" cy="37.67" rx="3.114" ry="3.027" style="fill:rgb(255,0,0);"/>
        </g>
    </g>
</svg>
