<?xml version="1.0" encoding="UTF-8" standalone="no"?>
<!DOCTYPE svg PUBLIC "-//W3C//DTD SVG 1.1//EN" "http://www.w3.org/Graphics/SVG/1.1/DTD/svg11.dtd">
<svg width="100%" height="100%" viewBox="0 0 512 512" version="1.1" xmlns="http://www.w3.org/2000/svg" xmlns:xlink="http://www.w3.org/1999/xlink" xml:space="preserve" xmlns:serif="http://www.serif.com/" style="fill-rule:evenodd;clip-rule:evenodd;stroke-linejoin:round;stroke-miterlimit:2;">
    <g>
        <rect x="224" y="312" width="16" height="16" style="fill:rgb(254,36,78);fill-rule:nonzero;"/>
        <rect x="256" y="312" width="16" height="16" style="fill:rgb(254,36,78);fill-rule:nonzero;"/>
        <rect x="192" y="312" width="16" height="16" style="fill:rgb(254,36,78);fill-rule:nonzero;"/>
        <path d="M456,280L456,248L464,248C486.056,248 504,230.056 504,208L504,200L480,200C470.96,200 462.704,203.128 456,208.208L456,183.184C483.088,178.168 504,148.208 504,112.008C504,72.304 478.872,40.008 448,40.008C417.128,40.008 392,72.304 392,112.008C392,148.208 412.912,178.168 440,183.184L440,280L384,280L384,216L414.44,216L364.44,136L328,136L328,102.448C330.576,103.36 333.232,104 335.992,104C344.376,104 352.264,99.536 356.576,92.352C363.384,81 359.696,66.224 348.48,59.504L275.04,13.48C263.616,6.312 248.376,6.312 236.968,13.472L163.64,59.424C152.296,66.232 148.608,81 155.416,92.352C159.728,99.536 167.616,104 176,104C178.76,104 181.424,103.36 184,102.44L184,136L147.56,136L97.56,216L128,216L128,280L72,280L72,248L72,240L72,183.176C99.088,178.16 120,148.2 120,112C120,72.296 94.872,40 64,40C33.128,40 8,72.296 8,112C8,148.2 28.912,178.16 56,183.176L56,208.2C49.296,203.128 41.04,200 32,200L8,200L8,208C8,230.056 25.944,248 48,248L56,248L56,280L6.856,280L8.064,289.056C24.416,411.592 131,504 256,504C381,504 487.584,411.592 503.928,289.056L505.144,280L456,280ZM480,216L486.632,216C483.328,225.312 474.432,232 464,232L457.368,232C460.672,222.688 469.568,216 480,216ZM408,112C408,81.128 425.944,56 448,56C470.056,56 488,81.128 488,112C488,139.04 474.232,161.664 456,166.872L456,88L440,88L440,166.872C421.768,161.664 408,139.04 408,112ZM48,232C37.568,232 28.672,225.312 25.368,216L32,216C42.432,216 51.328,222.688 54.632,232L48,232ZM24,112C24,81.128 41.944,56 64,56C86.056,56 104,81.128 104,112C104,139.04 90.232,161.664 72,166.872L72,88L56,88L56,166.872C37.768,161.664 24,139.04 24,112ZM264,152L248,152L248,120L264,120L264,152ZM232,104L232,152L200,152L200,93.584L256,59.984L312,93.592L312,152L280,152L280,104L232,104ZM169.136,84.12C166.872,80.336 168.096,75.408 172.008,73.064L245.48,27.024C251.776,23.072 260.224,23.064 266.536,27.032L340.12,73.144C343.904,75.408 345.128,80.336 342.864,84.12C340.688,87.752 335.528,89.064 331.888,86.864L256,41.328L180.112,86.856C176.456,89.064 171.312,87.752 169.136,84.12ZM156.44,152L184,152L184,168L328,168L328,152L355.56,152L385.56,200L126.44,200L156.44,152ZM144,216L368,216L368,280L352,280L352,232L304,232L304,280L288,280L288,232L224,232L224,280L208,280L208,232L160,232L160,280L144,280L144,216ZM256,488C230.416,488 206.624,449.968 191.752,392L320.248,392C305.376,449.968 281.584,488 256,488ZM187.992,376C182.784,351.808 179.072,324.776 177.28,296L334.72,296C332.92,324.776 329.208,351.808 324.008,376L187.992,376ZM192,280L176,280L176,248L192,248L192,280ZM272,280L240,280L240,248L272,248L272,280ZM336,280L320,280L320,248L336,248L336,280ZM161.256,296C163,324.832 166.56,351.744 171.632,376L55.64,376C40.88,351.92 30.368,324.952 25.32,296L161.256,296ZM66.384,392L175.288,392C185.64,433.544 200.648,465.912 218.464,484.944C156.592,474.96 102.184,440.768 66.384,392ZM293.536,484.944C311.352,465.912 326.368,433.544 336.712,392L445.616,392C409.816,440.768 355.408,474.96 293.536,484.944ZM456.36,376L340.376,376C345.448,351.744 349,324.832 350.752,296L486.688,296C481.632,324.952 471.12,351.92 456.36,376Z" style="fill:rgb(254,36,78);fill-rule:nonzero;"/>
        <path d="M356.712,429.336L364.648,443.224C369.408,440.512 374.152,437.568 378.744,434.464L369.792,421.2C365.528,424.08 361.128,426.816 356.712,429.336Z" style="fill:rgb(254,36,78);fill-rule:nonzero;"/>
        <path d="M328.912,442.504L334.648,457.44C339.808,455.464 344.944,453.264 349.912,450.904L343.056,436.448C338.456,438.632 333.696,440.664 328.912,442.504Z" style="fill:rgb(254,36,78);fill-rule:nonzero;"/>
        <path d="M382.216,412.112L392.12,424.672C396.408,421.288 400.656,417.656 404.752,413.88L393.912,402.112C390.12,405.616 386.184,408.976 382.216,412.112Z" style="fill:rgb(254,36,78);fill-rule:nonzero;"/>
    </g>
</svg>
