<?xml version="1.0" encoding="UTF-8" standalone="no"?>
<!DOCTYPE svg PUBLIC "-//W3C//DTD SVG 1.1//EN" "http://www.w3.org/Graphics/SVG/1.1/DTD/svg11.dtd">
<svg width="100%" height="100%" viewBox="0 0 512 512" version="1.1" xmlns="http://www.w3.org/2000/svg" xmlns:xlink="http://www.w3.org/1999/xlink" xml:space="preserve" xmlns:serif="http://www.serif.com/" style="fill-rule:evenodd;clip-rule:evenodd;stroke-linejoin:round;stroke-miterlimit:2;">
    <g id="Out_line">
        <path d="M416,440L416,448C416,448.001 416,448.001 416,448.002C416,452.39 412.39,456 408.002,456C408.001,456 408.001,456 408,456L408,440L416,440Z" style="fill-rule:nonzero;"/>
        <rect x="408" y="440" width="24" height="16" style="fill:rgb(254,36,78);"/>
        <path d="M447.69,50.2C448.488,47.409 447.709,44.395 445.66,42.34L421.66,18.34C420.16,16.843 418.125,16.002 416.006,16.002C412.445,16.002 409.292,18.377 408.31,21.8C398.393,56.32 377.188,86.541 348.1,107.61L256.84,173.52L245.66,162.34C242.552,159.241 237.448,159.241 234.34,162.34L186.34,210.34C183.241,213.448 183.241,218.552 186.34,221.66L235.72,271.03C236.09,271.4 236.45,271.77 236.81,272.15C210.37,272.89 185.78,276.2 166.61,281.68C140.99,289 128,299.2 128,312L128,376C127.988,384.773 120.773,391.988 112,392C94.453,392.02 80.02,406.453 80,424L80,440L64,440L64,456L128,456L128,472C128,472.001 128,472.001 128,472.002C128,476.39 131.61,480 135.998,480C135.999,480 135.999,480 136,480L208,480C208.001,480 208.001,480 208.002,480C212.39,480 216,476.39 216,472.002C216,472.001 216,472.001 216,472L216,464C216.006,459.614 219.614,456.006 224,456L257.38,456C260.767,465.559 269.858,471.99 280,472C284.386,472.006 287.994,475.614 288,480L288,488C288,488.001 288,488.001 288,488.002C288,492.39 291.61,496 295.998,496C295.999,496 295.999,496 296,496L368,496C368.001,496 368.001,496 368.002,496C372.39,496 376,492.39 376,488.002C376,488.001 376,488.001 376,488L376,456L408,456L408,440L416,440L416,424C415.98,406.453 401.547,392.02 384,392C375.227,391.988 368.012,384.773 368,376L368,312C368,296.96 349.69,287.64 330.51,282.01C339.702,270.126 346.828,256.779 351.59,242.53C351.862,241.714 352.001,240.859 352.001,239.999C352.001,235.611 348.39,232 344.002,232C344.002,232 344.001,232 344,232C325.63,232.052 307.984,224.744 295.03,211.72L292.3,208.99L381.47,144.58C413.463,121.407 436.784,88.168 447.69,50.2ZM384,408C392.773,408.012 399.988,415.227 400,424L400,440L371.7,440C365.991,430.118 355.413,424.008 344,424C335.227,423.988 328.012,416.773 328,408L328,384L312,384L312,408C312.02,425.547 326.453,439.98 344,440C352.773,440.012 359.988,447.227 360,456L360,480L304,480C303.983,466.841 293.159,456.017 280,456C275.614,455.994 272.006,452.386 272,448L272,408L256,408L256,440L246.62,440C247.539,437.433 248.006,434.726 248,432L248,392L232,392L232,432C231.994,436.386 228.386,439.994 224,440C210.841,440.017 200.017,450.841 200,464L144,464L144,440C144.012,431.227 151.227,424.012 160,424C177.547,423.98 191.98,409.547 192,392L192,368L176,368L176,392C175.988,400.773 168.773,407.988 160,408C142.453,408.02 128.02,422.453 128,440L96,440L96,424C96.012,415.227 103.227,408.012 112,408C129.547,407.98 143.98,393.547 144,376L144,333.38C151.166,337.223 158.753,340.223 166.61,342.32C188.46,348.56 217.36,352 248,352C278.64,352 307.54,348.56 329.39,342.32C337.247,340.223 344.834,337.223 352,333.38L352,376C352.02,393.547 366.453,407.98 384,408ZM352,312C352,313.87 347.04,320.64 325,326.94C304.54,332.78 277.19,336 248,336C218.81,336 191.46,332.78 171,326.94C148.96,320.64 144,313.87 144,312C144,310.13 148.96,303.36 171,297.06C191.46,291.22 218.81,288 248,288L248.2,288C253.349,297.878 256.026,308.86 256,320C256,320.001 256,320.002 256,320.003C256,324.39 259.61,328 263.997,328C263.998,328 263.999,328 264,328C264.86,327.997 265.714,327.859 266.53,327.59C286.164,321.013 304.019,309.993 318.7,295.39C346.21,302.08 352,310.12 352,312ZM271.26,308.65C270.891,305.825 270.374,303.021 269.71,300.25C292.69,287.609 311.609,268.69 324.25,245.71C327.021,246.374 329.825,246.891 332.65,247.26C320.627,274.699 298.699,296.627 271.26,308.65ZM308.84,240.46C298.154,258.856 282.856,274.154 264.46,284.84C260.217,275.482 254.311,266.97 247.03,259.72L203.31,216L240,179.31L283.72,223.03C290.97,230.311 299.482,236.217 308.84,240.46ZM280.84,197.52L268.3,184.99L357.47,120.58C385.778,100.075 407.382,71.631 419.54,38.86L430.96,50.27C420.527,82.966 399.895,111.478 372.1,131.61L280.84,197.52Z" style="fill:rgb(254,36,78);fill-rule:nonzero;"/>
    </g>
</svg>
