<?xml version="1.0" encoding="UTF-8" standalone="no"?>
<!DOCTYPE svg PUBLIC "-//W3C//DTD SVG 1.1//EN" "http://www.w3.org/Graphics/SVG/1.1/DTD/svg11.dtd">
<svg width="100%" height="100%" viewBox="0 0 512 512" version="1.1" xmlns="http://www.w3.org/2000/svg" xmlns:xlink="http://www.w3.org/1999/xlink" xml:space="preserve" xmlns:serif="http://www.serif.com/" style="fill-rule:evenodd;clip-rule:evenodd;stroke-linejoin:round;stroke-miterlimit:2;">
    <g>
        <path d="M156.282,397.994C142.655,397.994 131.569,409.08 131.569,422.707C131.569,436.334 142.655,447.42 156.282,447.42C169.909,447.42 180.995,436.334 180.995,422.707C180.995,409.08 169.909,397.994 156.282,397.994ZM156.282,432.42C150.927,432.42 146.569,428.063 146.569,422.707C146.569,417.351 150.926,412.994 156.282,412.994C161.638,412.994 165.995,417.351 165.995,422.707C165.995,428.063 161.638,432.42 156.282,432.42Z" style="fill:rgb(255,33,77);fill-rule:nonzero;"/>
        <path d="M354.762,447.42C368.389,447.42 379.475,436.334 379.475,422.707C379.475,409.08 368.389,397.994 354.762,397.994C341.135,397.994 330.049,409.08 330.049,422.707C330.049,436.334 341.135,447.42 354.762,447.42ZM354.762,412.994C360.118,412.994 364.475,417.351 364.475,422.707C364.475,428.063 360.118,432.42 354.762,432.42C349.406,432.42 345.049,428.063 345.049,422.707C345.049,417.351 349.406,412.994 354.762,412.994Z" style="fill:rgb(255,33,77);fill-rule:nonzero;"/>
        <path d="M484.801,457.606L390.38,457.606C399.205,448.601 404.66,436.282 404.66,422.707C404.66,408.664 398.82,395.966 389.452,386.89C415.819,367.74 433.396,347.876 441.923,337.155C445.618,332.503 448.341,327.029 449.796,321.332C451.604,314.277 453.265,307.029 454.732,299.789C455.555,295.729 452.93,291.771 448.871,290.949C444.808,290.127 440.854,292.751 440.031,296.81C438.614,303.801 437.011,310.798 435.264,317.614C434.327,321.284 432.569,324.815 430.181,327.821C421.703,338.482 403.7,358.751 376.412,377.754C369.86,374.586 362.515,372.808 354.763,372.808C338.651,372.808 324.306,380.491 315.177,392.379L195.869,392.379C186.74,380.491 172.395,372.808 156.283,372.808C148.531,372.808 141.186,374.586 134.634,377.754C107.345,358.744 89.347,338.478 80.867,327.815C78.453,324.786 76.74,321.349 75.778,317.61C60.896,259.444 61.561,208.3 62.403,190.383L448.652,190.383C449.25,202.925 449.771,231.741 444.918,267.717C444.364,271.822 447.243,275.599 451.348,276.152C451.688,276.198 452.026,276.22 452.36,276.22C456.057,276.22 459.276,273.486 459.783,269.722C464.742,232.963 464.321,203.895 463.686,190.382L468.655,190.382C481.158,190.382 491.33,180.21 491.33,167.707L491.33,158.967C491.33,146.464 481.158,136.292 468.655,136.292L451.989,136.292L415.374,51.689C413.768,47.977 409.505,46.206 405.742,47.69L366.417,63.19L319.354,16.118C317.172,13.935 313.875,13.312 311.045,14.549L272.058,31.602L222.195,1.103C218.876,-0.928 214.553,-0.082 212.245,3.05L169.029,61.655L123.776,44.974C120.438,43.744 116.697,45.027 114.816,48.045L94.106,81.285C91.916,84.801 92.99,89.426 96.506,91.617C100.021,93.808 104.647,92.733 106.838,89.218L117.09,72.763L127.869,136.296L77.491,136.296L90.966,114.679C93.157,111.164 92.084,106.538 88.569,104.347C85.054,102.155 80.428,103.23 78.237,106.744L59.817,136.295L42.39,136.295C29.887,136.295 19.715,146.467 19.715,158.97L19.715,167.71C19.715,180.213 29.887,190.385 42.39,190.385L47.358,190.385C46.427,209.857 45.923,261.435 61.248,321.341C62.743,327.149 65.396,332.474 69.131,337.16C77.653,347.875 95.226,367.734 121.593,386.891C112.225,395.967 106.385,408.665 106.385,422.708C106.385,436.282 111.84,448.601 120.665,457.607L27.197,457.607C12.201,457.607 0.001,469.807 0.001,484.804C0.001,499.801 12.201,512.001 27.197,512.001L484.801,512.001C499.797,512.001 511.997,499.801 511.997,484.804C511.997,469.807 499.798,457.606 484.801,457.606ZM240.059,71.525L229.39,23.088L260.735,42.26L240.059,71.525ZM227.273,83.205L196.469,86.695L181.41,70.139L214.509,25.254L227.273,83.205ZM197.781,101.642L237.232,97.173C239.343,96.934 241.254,95.81 242.489,94.082C242.495,94.073 242.5,94.064 242.506,94.055C242.508,94.053 242.511,94.051 242.512,94.049L276.407,46.073L301.814,34.96L280.802,100.264C280.129,102.355 280.407,104.636 281.562,106.505C282.717,108.374 284.634,109.642 286.805,109.975L339.845,118.104L333.233,136.296L174.367,136.296L197.781,101.642ZM345.071,103.728L297.777,96.48L317.428,35.407L355.913,73.899L345.071,103.728ZM370.489,77.708L398.606,66.628L385.476,136.295L349.194,136.295L370.489,77.708ZM411.329,80.109L435.645,136.294L400.74,136.294L411.329,80.109ZM130.737,63.527L167.415,77.047L183.986,95.265L156.263,136.295L143.082,136.295L130.737,63.527ZM34.715,167.709L34.715,158.969C34.715,154.737 38.158,151.294 42.39,151.294L468.656,151.294C472.888,151.294 476.331,154.737 476.331,158.969L476.331,167.709C476.331,171.941 472.888,175.384 468.656,175.384L42.39,175.384C38.158,175.383 34.715,171.941 34.715,167.709ZM354.762,387.808C374.005,387.808 389.66,403.464 389.66,422.707C389.66,441.95 374.005,457.606 354.762,457.606C335.519,457.606 319.863,441.95 319.863,422.707C319.863,403.464 335.519,387.808 354.762,387.808ZM307.282,407.379C305.718,412.212 304.863,417.36 304.863,422.707C304.863,436.281 310.318,448.6 319.143,457.606L191.901,457.606C200.726,448.601 206.181,436.282 206.181,422.707C206.181,417.36 205.326,412.212 203.762,407.379L307.282,407.379ZM121.384,422.707C121.384,403.464 137.039,387.808 156.282,387.808C175.525,387.808 191.181,403.464 191.181,422.707C191.181,441.95 175.525,457.606 156.282,457.606C137.039,457.606 121.384,441.95 121.384,422.707ZM484.801,496.999L27.197,496.999C20.472,496.999 15.001,491.528 15.001,484.802C15.001,478.076 20.472,472.605 27.197,472.605L484.801,472.605C491.526,472.605 496.997,478.076 496.997,484.802C496.997,491.528 491.527,496.999 484.801,496.999Z" style="fill:rgb(255,33,77);fill-rule:nonzero;"/>
    </g>
</svg>
