<?xml version="1.0" encoding="UTF-8" standalone="no"?>
<!DOCTYPE svg PUBLIC "-//W3C//DTD SVG 1.1//EN" "http://www.w3.org/Graphics/SVG/1.1/DTD/svg11.dtd">
<svg width="100%" height="100%" viewBox="0 0 512 512" version="1.1" xmlns="http://www.w3.org/2000/svg" xmlns:xlink="http://www.w3.org/1999/xlink" xml:space="preserve" xmlns:serif="http://www.serif.com/" style="fill-rule:evenodd;clip-rule:evenodd;stroke-linejoin:round;stroke-miterlimit:2;">
    <g>
        <path d="M256.069,151.655C256.601,151.655 257.142,151.598 257.683,151.479L276.164,147.426C280.21,146.539 282.771,142.54 281.883,138.494C280.996,134.448 276.994,131.89 272.951,132.775L254.47,136.828C250.424,137.715 247.863,141.714 248.751,145.76C249.52,149.265 252.623,151.655 256.069,151.655Z" style="fill:rgb(254,36,78);fill-rule:nonzero;"/>
        <path d="M189.506,145.76C190.394,141.714 187.833,137.715 183.787,136.828L165.305,132.775C161.262,131.887 157.26,134.448 156.373,138.494C155.485,142.54 158.046,146.539 162.092,147.426L180.574,151.479C181.115,151.598 181.656,151.655 182.188,151.655C185.634,151.655 188.737,149.265 189.506,145.76Z" style="fill:rgb(254,36,78);fill-rule:nonzero;"/>
        <path d="M504.046,318.423C502.124,307.975 494.044,298.544 481.987,299.119L480.286,289.931C478.673,281.23 470.282,275.46 461.587,277.071L427.1,283.41C422.894,284.188 419.234,286.568 416.792,290.11C414.345,293.659 413.427,297.932 414.207,302.141L415.869,311.118L397.156,314.577C386.055,285.174 360.8,263.528 329.254,256.459C325.932,239.551 314.895,224.213 299.207,214.801C306.615,205.363 312.634,195.129 316.755,184.651L320.947,184.651C340.191,184.651 350.574,166.792 350.574,149.988C350.574,142.647 348.628,135.784 345.095,130.662C340.701,124.292 334.063,120.785 326.402,120.785L322.962,120.785L322.962,105.078C322.962,105.043 322.957,105.009 322.957,104.974C322.957,104.94 322.96,104.907 322.959,104.873C322.066,72.205 309.873,44.824 287.699,25.692C268.069,8.753 242.088,-0.393 214.587,0.013C187.499,0.386 162.311,9.972 143.661,27.005C122.593,46.246 111.46,73.4 111.467,105.534L111.467,120.784L108.884,120.784C101.22,120.784 94.58,124.29 90.184,130.656C86.648,135.777 84.701,142.639 84.701,149.98C84.701,166.788 95.089,184.652 114.339,184.652L117.492,184.652C121.551,195.096 127.436,205.287 134.666,214.677C118.515,224.192 107.182,239.788 103.905,256.926C82.378,263.732 63.997,277.915 51.779,297.291C49.57,300.794 50.618,305.426 54.122,307.635C55.364,308.419 56.748,308.792 58.115,308.792C60.605,308.792 63.04,307.553 64.466,305.292C73.778,290.525 87.324,279.348 103.219,273.088C106.229,304.182 132.508,328.572 164.387,328.572L209.452,328.547C209.721,328.552 209.988,328.572 210.258,328.572L223.455,328.572C223.816,328.572 224.172,328.549 224.531,328.539L268.816,328.515C301.025,328.515 327.512,303.642 330.08,272.118C353.838,278.713 372.859,295.25 382.114,317.359L335.207,326.029L335.206,326.029L274.856,337.16C274.854,337.16 274.852,337.16 274.851,337.161L153.784,359.51C143.814,361.367 141.575,370.916 140.378,376.02L139.198,380.974L52.026,397.06L52.026,348.472C52.026,343.256 52.536,338.008 53.543,332.874C54.34,328.809 51.69,324.868 47.626,324.071C43.56,323.271 39.62,325.924 38.823,329.988C37.631,336.07 37.026,342.29 37.026,348.472L37.026,399.827L17.303,403.467C11.041,404.632 6.782,410.596 7.607,417.041L17.52,494.8C18.053,498.957 21.001,502.867 24.857,504.53C26.181,505.101 27.561,505.384 28.922,505.384C30.96,505.384 32.959,504.751 34.671,503.505L81.832,468.665L149.258,468.665C149.476,479.284 148.063,490.172 144.252,499.824C143.167,502.536 143.549,505.593 145.276,508.001C147.043,510.466 150.09,512 153.071,512C153.226,512 153.381,511.996 153.535,511.987L188.315,510.499C190.83,510.367 193.232,509.222 194.908,507.357C196.582,505.494 197.43,503.096 197.299,500.69L195.927,468.663L261.426,468.663C267.522,482.778 274.007,495.149 279.567,502.424C279.596,502.461 279.625,502.498 279.653,502.535C282.417,506.015 285.452,506.875 287.777,506.875C289.059,506.875 290.125,506.613 290.809,506.386C290.841,506.375 290.872,506.365 290.904,506.353L329.542,492.912C332.437,491.912 334.748,489.592 335.729,486.7C336.646,483.996 336.28,481.109 334.73,478.786C332.839,475.945 330.832,472.52 328.768,468.663L361.213,468.663C366.542,471.086 373.445,472.432 380.658,472.432C390.798,472.432 401.527,469.787 409.262,463.795C415.558,458.918 425.307,447.485 419.858,425.718L411.931,394.035C413.996,392.354 415.838,390.37 417.392,388.111C421.657,381.913 423.258,374.448 421.899,367.089L420.122,357.477L487.266,345.058C501.033,342.524 506.128,329.741 504.046,318.423ZM322.963,153.231L322.963,135.783L326.403,135.783C329.134,135.783 331.151,136.862 332.748,139.178C334.544,141.782 335.575,145.721 335.575,149.987C335.575,157.806 331.758,169.391 321.286,169.639C322.384,164.291 322.963,158.663 322.963,153.231ZM99.7,149.979C99.7,145.716 100.73,141.779 102.526,139.178C104.125,136.862 106.145,135.784 108.883,135.784L111.466,135.784L111.466,155.315C111.466,159.979 111.975,164.773 112.973,169.577C103.27,168.621 99.7,157.541 99.7,149.979ZM128.061,168.329C127.003,163.9 126.467,159.521 126.467,155.314L126.467,118.942L204.004,118.942C208.146,118.942 211.504,115.584 211.504,111.442C211.504,107.3 208.146,103.942 204.004,103.942L126.485,103.942C127.259,43.685 172.614,15.593 214.794,15.011C258.156,14.413 305.554,42.008 307.915,103.942L238.882,103.942C234.74,103.942 231.382,107.3 231.382,111.442C231.382,115.584 234.74,118.942 238.882,118.942L307.964,118.942L307.964,153.231C307.964,158.249 307.361,163.471 306.22,168.328C306.116,168.768 305.992,169.21 305.88,169.65L256.877,169.65C251.659,169.65 246.228,166.934 240.477,164.058C233.355,160.497 225.289,156.462 216.049,157.14C209.224,157.643 203.374,161.231 198.211,164.397C193.807,167.098 189.647,169.65 186.093,169.65L128.398,169.65C128.287,169.21 128.164,168.77 128.061,168.329ZM133.739,184.65L186.093,184.65C193.88,184.65 200.347,180.683 206.053,177.184C210.119,174.69 213.96,172.334 217.15,172.1C222.266,171.716 227.852,174.517 233.767,177.475C240.493,180.838 248.117,184.651 256.876,184.651L300.402,184.651C288.359,210.111 263.355,233.777 236.683,243.424C229.12,246.146 222.726,247.575 216.599,247.91C210.495,247.576 204.109,246.147 196.556,243.429C180.279,237.541 164.876,226.56 152.649,213.026C152.276,212.468 151.831,211.978 151.339,211.549C144.119,203.29 138.088,194.142 133.739,184.65ZM164.384,313.57C138.767,313.57 117.926,292.733 117.926,267.122C117.926,250.859 128.714,234.686 144.677,226.282C150.117,231.929 156.043,237.126 162.312,241.726L162.312,270.804C162.312,287.735 168.39,302.987 178.054,313.563L164.384,313.57ZM224.454,313.537L209.535,313.545C191.995,313.024 177.311,293.671 177.311,270.804L177.311,251.195C181.934,253.664 186.665,255.801 191.466,257.537C200.622,260.832 208.496,262.539 216.242,262.909C216.362,262.915 216.481,262.918 216.6,262.918C216.719,262.918 216.839,262.915 216.958,262.909C224.727,262.538 232.609,260.83 241.774,257.532C246.74,255.736 251.629,253.528 256.403,250.985L256.403,270.803C256.403,293.951 242.16,312.848 224.454,313.537ZM268.813,313.513L255.7,313.52C265.342,302.946 271.403,287.712 271.403,270.804L271.403,241.588C277.689,237.026 283.629,231.889 289.087,226.321C302.774,233.659 315.304,248.273 315.304,267.093C315.304,292.689 294.45,313.513 268.813,313.513ZM428.955,299.408C428.892,299.072 429.021,298.796 429.141,298.623C429.241,298.478 429.462,298.227 429.821,298.16L464.308,291.821C464.368,291.81 464.427,291.805 464.486,291.805C464.979,291.805 465.446,292.172 465.538,292.662L467.198,301.629L430.619,308.39L428.955,299.408ZM271.056,356.154C272.601,353.91 274.914,352.403 277.57,351.909L277.577,351.908C277.579,351.908 277.58,351.907 277.582,351.907L330.566,342.135L332.971,355.092C324.838,357.765 319.687,366.136 321.257,374.812L321.852,378.027L273.713,386.919L269.422,363.748C268.93,361.095 269.511,358.398 271.056,356.154ZM75.194,454.92C74.98,455.062 74.773,455.214 74.575,455.377L31.657,487.082L22.813,417.703L45.913,413.44C45.973,413.429 46.033,413.42 46.092,413.407L135.395,396.928L131.486,413.334L75.194,454.92ZM102.138,453.664L131.215,432.184C131.636,432.85 132.097,433.491 132.644,434.075C135.097,436.689 138.519,438.088 142.29,438.088C142.883,438.088 143.487,438.04 144.095,437.97C145.67,442.709 146.98,448.028 147.89,453.665L102.138,453.665L102.138,453.664ZM161.036,496.654C164.043,485.266 164.714,473.017 163.816,461.404C163.819,461.324 163.828,461.245 163.828,461.164C163.828,460.625 163.768,460.099 163.66,459.592C162.863,450.913 161.203,442.639 159.002,435.406L179.336,431.853L180.592,461.162L180.592,461.163C180.592,461.168 180.593,461.172 180.593,461.177L182.074,495.752L161.036,496.654ZM147.658,422.175L144.677,422.688L152.684,389.088C152.685,389.084 152.686,389.081 152.687,389.077L154.976,379.471C155.312,378.039 155.992,375.139 156.628,374.239L254.936,356.089C254.13,359.456 254.025,362.98 254.673,366.48L259.184,390.841L245.732,395.884C245.702,395.895 245.674,395.91 245.644,395.922L200.138,412.994L147.658,422.175ZM195.285,453.664L194.239,429.25L203.41,427.648C203.868,427.568 204.317,427.446 204.752,427.282L242.715,413.039C245.48,425.286 250.048,439.735 255.347,453.663L195.285,453.663L195.285,453.664ZM289.733,490.881C284.666,483.448 278.833,471.692 273.405,458.611C273.331,458.406 273.248,458.204 273.157,458.008C266.239,441.249 260.007,422.405 256.9,407.719L269.737,402.907L286.278,399.854C287.695,405.519 289.49,411.667 291.552,418.026L283.289,420.573C279.331,421.793 277.111,425.991 278.331,429.949C279.324,433.172 282.291,435.242 285.496,435.242C286.227,435.242 286.972,435.134 287.707,434.908L296.466,432.209C297.993,436.363 299.595,440.522 301.249,444.618L293.512,447.007C289.554,448.229 287.336,452.428 288.559,456.385C289.553,459.606 292.519,461.674 295.722,461.674C296.455,461.674 297.2,461.566 297.937,461.338L307.153,458.493C310.923,466.89 314.774,474.601 318.42,480.903L289.733,490.881ZM321.425,453.664C320.396,451.395 319.37,449.065 318.354,446.692C318.276,446.486 318.19,446.286 318.097,446.091C314.657,438.014 311.341,429.455 308.417,421.09C308.385,420.962 308.359,420.834 308.32,420.706C308.226,420.402 308.11,420.112 307.982,419.829C305.225,411.851 302.838,404.085 301.061,397.121L325.607,392.587C329.359,400.227 336.409,405.724 344.597,407.605C344.457,411.253 344.286,414.705 344.128,417.892C343.411,432.383 342.823,444.395 346.491,453.663L321.425,453.663L321.425,453.664ZM400.077,451.938C390.566,459.306 373.61,458.411 366.525,454.577C366.514,454.571 366.503,454.565 366.492,454.559C358.003,449.966 357.967,441.737 359.11,418.634C359.285,415.112 359.474,411.272 359.623,407.177L397.983,400.086L405.307,429.361C407.921,439.802 406.211,447.187 400.077,451.938ZM405.037,379.608C403.914,381.239 402.471,382.554 400.818,383.517L351.419,393.295C344.99,393.576 339.148,389.091 337.948,382.588L337.944,382.581C337.94,382.559 337.938,382.536 337.934,382.514L336.01,372.112C335.774,370.808 336.673,369.502 337.966,369.261L343.05,368.319C343.052,368.319 343.053,368.318 343.055,368.318L402.328,357.367C402.33,357.367 402.331,357.365 402.333,357.365L402.347,357.363C403.657,357.13 404.967,358.023 405.207,359.31L407.149,369.813C407.782,373.233 407.031,376.711 405.037,379.608ZM484.544,330.308L410.309,344.038C407.035,342.479 403.313,341.958 399.651,342.61L347.691,352.209L347.632,351.891L345.316,339.411L425.922,324.513C425.938,324.51 425.954,324.509 425.971,324.506L477.302,315.029C477.386,315.014 477.466,314.989 477.549,314.971L481.552,314.231C487.633,313.114 489.142,320.312 489.294,321.138C489.444,321.959 490.595,329.193 484.544,330.308Z" style="fill:rgb(254,36,78);fill-rule:nonzero;"/>
    </g>
</svg>
