<?xml version="1.0" encoding="UTF-8" standalone="no"?>
<!DOCTYPE svg PUBLIC "-//W3C//DTD SVG 1.1//EN" "http://www.w3.org/Graphics/SVG/1.1/DTD/svg11.dtd">
<svg width="100%" height="100%" viewBox="0 0 512 512" version="1.1" xmlns="http://www.w3.org/2000/svg" xmlns:xlink="http://www.w3.org/1999/xlink" xml:space="preserve" xmlns:serif="http://www.serif.com/" style="fill-rule:evenodd;clip-rule:evenodd;stroke-linejoin:round;stroke-miterlimit:2;">
    <g id="_010-Panning" serif:id="010-Panning" transform="matrix(1,0,0,1,-8.53333,-8.53333)">
        <path id="Shape" d="M460.8,175.019L460.8,238.933C460.8,251.221 447.061,262.571 423.509,272.043C462.421,261.291 486.4,246.613 486.4,230.4L486.4,163.669C478.555,168.846 469.904,172.681 460.8,175.019Z" style="fill:white;fill-rule:nonzero;"/>
        <path id="Shape1" serif:id="Shape" d="M452.608,176.981C455.424,176.384 458.155,175.787 460.8,175.019L460.8,172.203C458.191,173.995 455.453,175.592 452.608,176.981Z" style="fill:rgb(202,217,252);fill-rule:nonzero;"/>
        <path id="Shape2" serif:id="Shape" d="M460.8,175.019L460.8,238.933C460.8,251.221 447.061,262.571 423.509,272.043C371.514,284.877 318.082,290.957 264.533,290.133C141.995,290.133 42.667,263.424 42.667,230.4L42.667,163.669C83.115,191.573 167.253,179.2 264.533,179.2C339.797,179.2 407.211,186.624 452.608,176.981C455.424,176.384 458.155,175.787 460.8,175.019Z" style="fill:white;fill-rule:nonzero;"/>
        <path id="Shape3" serif:id="Shape" d="M469.333,160L458.24,151.808C462.253,154.083 465.978,156.834 469.333,160Z" style="fill:rgb(202,217,252);fill-rule:nonzero;"/>
        <path id="Shape4" serif:id="Shape" d="M449.024,145.067L458.24,151.808C450.733,147.648 442.982,143.944 435.029,140.715C417.303,133.416 399.046,127.483 380.416,122.965L336.896,116.565L309.504,112.555C295.083,111.531 280.064,110.933 264.533,110.933C260.437,110.933 256.341,110.933 252.331,111.104C236.8,111.36 221.696,112.213 207.445,113.664L158.72,120.832C121.429,128.427 93.184,154.197 80.128,167.851L80.043,145.408L80.043,145.067C40.875,131.499 17.067,113.493 17.067,93.867C17.067,52.821 120.917,19.285 251.648,17.152L251.819,17.152C256,17.067 260.267,17.067 264.533,17.067C401.237,17.067 512,51.456 512,93.867C512,113.493 488.192,131.499 449.024,145.067Z" style="fill:white;fill-rule:nonzero;"/>
        <path id="Shape5" serif:id="Shape" d="M443.733,160L432.64,151.808C436.653,154.083 440.378,156.834 443.733,160Z" style="fill:rgb(202,217,252);fill-rule:nonzero;"/>
        <path id="Shape6" serif:id="Shape" d="M435.029,140.715C431.36,142.165 427.435,143.701 423.424,145.067L432.64,151.808C408.01,138.97 381.864,129.28 354.816,122.965L311.296,116.565L283.904,112.555C273.664,111.787 263.168,111.275 252.331,111.104C247.893,111.019 243.456,110.933 238.933,110.933C219.051,110.933 199.851,111.872 181.845,113.664L133.12,120.832C113.877,125.143 95.779,133.522 80.043,145.408L80.043,145.067C40.875,131.499 17.067,113.493 17.067,93.867C17.067,52.821 120.917,19.285 251.648,17.152L251.819,17.152C382.549,19.285 486.4,52.821 486.4,93.867C486.4,111.445 467.285,127.744 435.029,140.715Z" style="fill:white;fill-rule:nonzero;"/>
        <path id="Shape7" serif:id="Shape" d="M448.939,145.067C430.763,151.381 409.685,159.403 386.219,166.741C385.877,166.912 385.451,166.997 385.109,167.168C347.198,179.684 307.609,186.388 267.691,187.051C194.389,187.051 125.44,160.768 80.128,145.067C89.168,136.644 99.822,130.141 111.445,125.952C126.75,119.957 142.576,115.387 158.72,112.299L207.445,105.131C225.451,103.339 244.651,102.4 264.533,102.4C280.064,102.4 295.083,102.997 309.504,104.021L336.896,108.032L380.416,114.432C412.757,122.027 437.077,132.608 448.939,145.067Z" style="fill:white;fill-rule:nonzero;"/>
        <path id="Shape8" serif:id="Shape" d="M423.339,153.6C411.989,157.525 399.616,162.133 386.219,166.741C385.877,166.912 385.451,166.997 385.109,167.168C347.198,179.684 307.609,186.388 267.691,187.051C194.389,187.051 125.44,160.768 80.128,145.067C89.168,136.644 99.822,130.141 111.445,125.952C118.272,124.075 125.525,122.368 133.12,120.832L181.845,113.664C199.851,111.872 219.051,110.933 238.933,110.933C254.464,110.933 269.483,111.531 283.904,112.555L311.296,116.565L354.816,122.965C387.157,130.56 411.477,141.141 423.339,153.6Z" style="fill:white;fill-rule:nonzero;"/>
        <path id="Shape9" serif:id="Shape" d="M512,93.867L512,128C512,140.203 502.784,152.491 486.4,163.669C481.414,167.124 476.196,170.231 470.784,172.971C479.735,166.326 485.418,156.171 486.4,145.067L486.4,127.915C502.784,117.675 512,106.069 512,93.867Z" style="fill:white;fill-rule:nonzero;"/>
        <path id="Shape10" serif:id="Shape" d="M486.4,127.915L486.4,145.067C485.418,156.171 479.735,166.326 470.784,172.971C426.496,196.267 350.635,213.333 264.533,213.333C167.253,213.333 83.115,191.573 42.667,163.669C37.159,159.994 32.091,155.7 27.563,150.869C21.304,144.843 17.555,136.674 17.067,128L17.067,93.867C17.067,113.493 40.875,131.499 80.043,145.067L80.128,145.067C125.44,160.768 191.232,170.667 264.533,170.667C337.835,170.667 403.627,160.768 448.939,145.067L449.024,145.067C457.697,142.138 466.164,138.632 474.368,134.571C478.492,132.564 482.508,130.342 486.4,127.915Z" style="fill:white;fill-rule:nonzero;"/>
        <path id="Shape11" serif:id="Shape" d="M486.4,110.933L486.4,127.915C482.508,130.342 478.492,132.564 474.368,134.571C481.481,128.699 485.838,120.139 486.4,110.933Z" style="fill:white;fill-rule:nonzero;"/>
        <path id="Shape12" serif:id="Shape" d="M500.139,512L489.216,512L486.4,503.467L471.893,474.453C470.208,471.147 467.52,468.458 464.213,466.773L440.32,454.827C437.013,453.142 434.325,450.453 432.64,447.147L421.291,424.448C419.244,420.41 415.687,417.344 411.392,415.915L322.475,386.219C318.173,384.767 313.468,385.105 309.419,387.157L255.061,414.293C250.28,416.683 244.653,416.683 239.872,414.293L185.856,387.328C181.603,385.191 176.647,384.944 172.203,386.645L126.123,403.883L126.379,402.261C127.391,396.243 131.514,391.21 137.216,389.035L189.269,369.579C193.714,367.877 198.67,368.125 202.923,370.261L256.939,397.227C261.72,399.616 267.347,399.616 272.128,397.227L326.485,370.091C330.535,368.038 335.24,367.7 339.541,369.152L428.459,398.848C432.754,400.277 436.311,403.344 438.357,407.381L449.707,430.08C451.392,433.387 454.08,436.075 457.387,437.76L481.28,449.707C484.587,451.392 487.275,454.08 488.96,457.387L503.467,486.4L508.245,500.736C509.126,503.344 508.695,506.217 507.087,508.451C505.479,510.686 502.892,512.007 500.139,512Z" style="fill:white;fill-rule:nonzero;"/>
        <path id="Shape13" serif:id="Shape" d="M489.216,512L35.328,512C32.015,512.005 28.998,510.092 27.59,507.093C26.182,504.094 26.637,500.551 28.757,498.005L46.336,476.928L56.405,464.811C58.571,462.181 61.489,460.275 64.768,459.349L104.533,448L109.056,446.72C115.419,444.908 120.17,439.593 121.259,433.067L126.123,403.883L172.203,386.645C176.647,384.944 181.603,385.191 185.856,387.328L239.872,414.293C244.653,416.683 250.28,416.683 255.061,414.293L309.419,387.157C313.468,385.105 318.173,384.767 322.475,386.219L411.392,415.915C415.687,417.344 419.244,420.41 421.291,424.448L432.64,447.147C434.325,450.453 437.013,453.142 440.32,454.827L464.213,466.773C467.52,468.458 470.208,471.147 471.893,474.453L486.4,503.467L489.216,512Z" style="fill:white;fill-rule:nonzero;"/>
        <path id="Shape14" serif:id="Shape" d="M427.093,349.867L418.133,349.867C416.78,349.87 415.432,349.698 414.123,349.355C406.464,347.522 401.064,340.674 401.067,332.8L401.067,324.267C401.085,317.086 405.583,310.68 412.331,308.224C414.186,307.532 416.153,307.185 418.133,307.2L423.68,307.2C430.643,307.228 436.89,311.483 439.467,317.952L442.88,326.485C444.969,331.731 444.329,337.671 441.169,342.35C438.009,347.03 432.74,349.844 427.093,349.867Z" style="fill:white;fill-rule:nonzero;"/>
        <path id="Shape15" serif:id="Shape" d="M280.661,348.16L277.589,354.56C274.448,360.887 266.802,363.512 260.437,360.448L257.109,358.827L249.515,355.072C245.834,353.273 243.237,349.822 242.528,345.787C241.819,341.753 243.084,337.623 245.931,334.677L250.283,330.155C250.751,329.679 251.266,329.25 251.819,328.875C255.251,326.318 259.734,325.645 263.765,327.083L273.493,330.496C276.916,331.727 279.654,334.357 281.021,337.727C282.389,341.098 282.258,344.892 280.661,348.16Z" style="fill:white;fill-rule:nonzero;"/>
        <path id="Shape16" serif:id="Shape" d="M140.459,345.685L128.597,348.501C124.614,349.442 120.421,348.422 117.316,345.755C114.211,343.089 112.568,339.098 112.896,335.019L113.408,328.789C113.837,323.787 117.135,319.49 121.856,317.781L126.549,316.16L131.584,314.368C134.999,313.129 138.781,313.408 141.977,315.137C145.173,316.865 147.477,319.877 148.309,323.413L149.931,330.325C150.719,333.619 150.163,337.091 148.386,339.973C146.608,342.856 143.756,344.911 140.459,345.685Z" style="fill:white;fill-rule:nonzero;"/>
        <path id="Shape17" serif:id="Shape" d="M414.123,349.355C406.464,347.522 401.064,340.674 401.067,332.8L401.067,324.267C401.085,317.086 405.583,310.68 412.331,308.224C416.935,309.86 420.606,313.407 422.4,317.952L425.813,326.485C427.656,331.055 427.426,336.199 425.183,340.586C422.941,344.973 418.906,348.172 414.123,349.355Z" style="fill:white;fill-rule:nonzero;"/>
        <path id="Shape18" serif:id="Shape" d="M263.595,348.16L260.523,354.56C259.7,356.208 258.536,357.662 257.109,358.827L249.515,355.072C245.834,353.273 243.237,349.822 242.528,345.787C241.819,341.753 243.084,337.623 245.931,334.677L250.283,330.155C250.751,329.679 251.266,329.25 251.819,328.875L256.427,330.496C259.85,331.727 262.587,334.357 263.955,337.727C265.323,341.098 265.192,344.892 263.595,348.16Z" style="fill:white;fill-rule:nonzero;"/>
        <path id="Shape19" serif:id="Shape" d="M123.392,345.685L118.699,346.795C114.723,344.255 112.488,339.718 112.896,335.019L113.408,328.789C113.837,323.787 117.135,319.49 121.856,317.781L126.549,316.16C128.945,317.926 130.614,320.505 131.243,323.413L132.864,330.325C133.653,333.619 133.097,337.091 131.319,339.973C129.542,342.856 126.689,344.911 123.392,345.685Z" style="fill:white;fill-rule:nonzero;"/>
        <path id="Shape20" serif:id="Shape" d="M207.616,103.168L206.677,112.128C205.749,121.148 197.694,127.714 188.672,126.805L179.2,125.781L179.115,125.781L173.056,125.184C167.817,124.606 163.166,121.565 160.537,116.997C157.907,112.428 157.612,106.88 159.744,102.059L162.987,94.805C165.444,89.346 170.673,85.653 176.64,85.163C177.063,85.092 177.492,85.063 177.92,85.077L191.232,84.992C195.905,84.969 200.365,86.941 203.494,90.412C206.622,93.882 208.122,98.523 207.616,103.168Z" style="fill:white;fill-rule:nonzero;"/>
        <path id="Shape21" serif:id="Shape" d="M380.416,114.432C376.88,120.575 370.578,124.617 363.52,125.269L342.955,127.403C342.19,127.502 341.421,127.559 340.651,127.573L339.371,126.037L339.285,126.037L318.293,101.291L317.867,97.536C317.402,91.481 319.521,85.512 323.7,81.106C327.878,76.7 333.726,74.267 339.797,74.411L357.291,74.411C365.692,74.324 373.381,79.117 377.003,86.699L381.269,95.915C384.047,101.852 383.728,108.775 380.416,114.432Z" style="fill:white;fill-rule:nonzero;"/>
        <path id="Shape22" serif:id="Shape" d="M340.992,125.867C340.961,126.449 340.846,127.024 340.651,127.573C338.77,134.071 333.39,138.956 326.741,140.203L310.187,143.787C306.216,144.695 302.059,144.306 298.325,142.677C292.16,140.267 288.43,133.967 289.28,127.403L290.389,119.808C291.592,113.297 296.39,108.036 302.763,106.24L304.896,105.557L313.6,102.741L316.331,101.803C316.962,101.553 317.621,101.381 318.293,101.291C327.147,98.801 336.356,103.9 338.944,112.725L340.821,121.173C341.176,122.713 341.234,124.306 340.992,125.867Z" style="fill:white;fill-rule:nonzero;"/>
        <path id="Shape23" serif:id="Shape" d="M190.549,103.168L189.611,112.128C188.934,118.255 184.929,123.507 179.2,125.781L179.115,125.781L173.056,125.184C167.817,124.606 163.166,121.565 160.537,116.997C157.907,112.428 157.612,106.88 159.744,102.059L162.987,94.805C165.444,89.346 170.673,85.653 176.64,85.163C185.367,86.442 191.515,94.401 190.549,103.168Z" style="fill:white;fill-rule:nonzero;"/>
        <path id="Shape24" serif:id="Shape" d="M363.349,114.432C359.813,120.575 353.512,124.617 346.453,125.269L340.992,125.867L339.371,126.037L339.285,126.037L328.533,105.924L317.867,97.536C317.402,91.481 319.521,85.512 323.7,81.106C327.878,76.7 333.726,74.267 339.797,74.411L340.224,74.411C348.625,74.324 356.315,79.117 359.936,86.699L364.203,95.915C366.98,101.852 366.661,108.775 363.349,114.432Z" style="fill:white;fill-rule:nonzero;"/>
        <path id="Shape25" serif:id="Shape" d="M323.584,127.573C321.703,134.071 316.323,138.956 309.675,140.203L298.325,142.677C292.16,140.267 288.43,133.967 289.28,127.403L290.389,119.808C291.592,113.297 296.39,108.036 302.763,106.24L304.896,105.557L301.227,101.291C305.397,100.363 309.758,100.874 313.6,102.741C317.792,104.561 320.866,108.269 321.877,112.725L323.755,121.173C324.211,123.29 324.153,125.484 323.584,127.573Z" style="fill:white;fill-rule:nonzero;"/>
        <path id="Shape26" serif:id="Shape" d="M42.667,163.669L42.667,230.4C42.667,263.424 141.995,290.133 264.533,290.133C268.16,290.133 271.684,290.031 275.268,289.988C159.667,287.923 68.267,262.076 68.267,230.4L68.267,163.669C62.759,159.994 57.691,155.7 53.163,150.869C46.904,144.843 43.155,136.674 42.667,128L42.667,93.867C42.667,52.907 146.278,19.371 276.796,17.161C272.734,17.098 268.646,17.067 264.533,17.067C260.267,17.067 256,17.067 251.819,17.152L251.648,17.152C120.917,19.285 17.067,52.821 17.067,93.867L17.067,128C17.555,136.674 21.304,144.843 27.563,150.869C32.091,155.7 37.159,159.994 42.667,163.669Z" style="fill:white;fill-rule:nonzero;"/>
        <path id="Shape27" serif:id="Shape" d="M104.533,448L64.768,459.349C61.489,460.275 58.571,462.181 56.405,464.811L46.336,476.928L28.757,498.005C26.637,500.551 26.182,504.094 27.59,507.093C28.998,510.092 32.015,512.005 35.328,512L60.928,512C57.615,512.005 54.598,510.092 53.19,507.093C51.782,504.094 52.237,500.551 54.357,498.005L71.936,476.928L82.005,464.811C84.171,462.181 87.089,460.275 90.368,459.349L130.133,448L134.656,446.72C141.019,444.908 145.77,439.593 146.859,433.067L151.723,403.883L151.979,402.261C152.991,396.243 157.114,391.21 162.816,389.035L207.258,372.42L202.923,370.261C198.67,368.125 193.714,367.877 189.269,369.579L137.216,389.035C131.514,391.21 127.391,396.243 126.379,402.261L126.123,403.883L121.259,433.067C120.17,439.593 115.419,444.908 109.056,446.72L104.533,448Z" style="fill:white;fill-rule:nonzero;"/>
        <path id="Shape28" serif:id="Shape" d="M8.533,93.867C9.198,82.182 14.627,71.281 23.552,63.71C31.01,56.96 39.36,51.267 48.367,46.788C65.543,38.364 83.564,31.785 102.127,27.162C155.281,14.245 209.835,7.988 264.533,8.533L264.533,25.6C211.301,25.045 158.205,31.096 106.462,43.614C89.11,47.944 72.264,54.091 56.201,61.952C48.625,65.7 41.593,70.457 35.294,76.092C29.809,80.476 26.316,86.881 25.6,93.867L8.533,93.867Z" style="fill:white;fill-rule:nonzero;"/>
        <path id="Shape29" serif:id="Shape" d="M41.199,60.757C39.89,58.797 37.806,57.489 35.472,57.163C33.137,56.837 30.775,57.524 28.979,59.051C23.733,63.008 19.138,67.762 15.36,73.139C11.064,79.211 8.686,86.43 8.533,93.867L25.6,93.867C26.856,85.009 31.967,77.161 39.561,72.431C42.95,69.497 43.65,64.511 41.199,60.757Z" style="fill:white;fill-rule:nonzero;"/>
        <path id="Shape30" serif:id="Shape" d="M264.533,25.6L264.533,8.533C209.828,7.972 155.266,14.215 102.101,27.119C99.294,27.895 96.478,28.578 93.687,29.44C91.485,30.056 89.626,31.538 88.534,33.548C87.442,35.557 87.211,37.924 87.893,40.107C89.296,44.539 93.949,47.071 98.432,45.841C101.077,44.988 103.791,44.373 106.47,43.622C158.21,31.102 211.303,25.049 264.533,25.6Z" style="fill:white;fill-rule:nonzero;"/>
        <path id="Shape31" serif:id="Shape" d="M60.501,41.105C58.364,42.04 56.671,43.764 55.774,45.918L55.364,47.539C55.272,48.103 55.257,48.678 55.322,49.246C55.3,49.791 55.369,50.336 55.526,50.859C55.682,51.41 55.879,51.949 56.115,52.471C57.124,54.471 58.825,56.036 60.902,56.875C61.937,57.232 63.025,57.405 64.119,57.387C67.43,57.298 70.391,55.302 71.714,52.267C72.109,51.222 72.311,50.115 72.311,48.998C72.347,47.884 72.165,46.774 71.774,45.73C70.935,43.622 69.306,41.926 67.234,41.003C65.063,40.153 62.645,40.19 60.501,41.105Z" style="fill:white;fill-rule:nonzero;"/>
        <path id="Shape32" serif:id="Shape" d="M8.533,93.867C9.198,82.182 14.627,71.281 23.552,63.71C31.01,56.96 39.36,51.267 48.367,46.788C65.543,38.364 83.564,31.785 102.127,27.162C155.281,14.245 209.835,7.988 264.533,8.533L264.533,25.6C211.301,25.045 158.205,31.096 106.462,43.614C89.11,47.944 72.264,54.091 56.201,61.952C48.625,65.7 41.593,70.457 35.294,76.092C29.809,80.476 26.316,86.881 25.6,93.867L8.533,93.867Z" style="fill:white;fill-rule:nonzero;"/>
        <path id="Shape33" serif:id="Shape" d="M41.199,60.757C39.89,58.797 37.806,57.489 35.472,57.163C33.137,56.837 30.775,57.524 28.979,59.051C23.733,63.008 19.138,67.762 15.36,73.139C11.064,79.211 8.686,86.43 8.533,93.867L25.6,93.867C26.856,85.009 31.967,77.161 39.561,72.431C42.95,69.497 43.65,64.511 41.199,60.757Z" style="fill:rgb(254,36,78);fill-rule:nonzero;"/>
        <path id="Shape34" serif:id="Shape" d="M264.533,25.6L264.533,8.533C209.828,7.972 155.266,14.215 102.101,27.119C99.294,27.895 96.478,28.578 93.687,29.44C91.485,30.056 89.626,31.538 88.534,33.548C87.442,35.557 87.211,37.924 87.893,40.107C89.296,44.539 93.949,47.071 98.432,45.841C101.077,44.988 103.791,44.373 106.47,43.622C158.21,31.102 211.303,25.049 264.533,25.6Z" style="fill:rgb(254,36,78);fill-rule:nonzero;"/>
        <path id="Shape35" serif:id="Shape" d="M60.501,41.105C58.364,42.04 56.671,43.764 55.774,45.918L55.364,47.539C55.272,48.103 55.257,48.678 55.322,49.246C55.3,49.791 55.369,50.336 55.526,50.859C55.682,51.41 55.879,51.949 56.115,52.471C57.124,54.471 58.825,56.036 60.902,56.875C61.937,57.232 63.025,57.405 64.119,57.387C67.43,57.298 70.391,55.302 71.714,52.267C72.109,51.222 72.311,50.115 72.311,48.998C72.347,47.884 72.165,46.774 71.774,45.73C70.935,43.622 69.306,41.926 67.234,41.003C65.063,40.153 62.645,40.19 60.501,41.105Z" style="fill:rgb(254,36,78);fill-rule:nonzero;"/>
        <path id="Shape36" serif:id="Shape" d="M264.533,179.2C140.433,179.2 8.533,149.333 8.533,93.867C8.533,89.154 12.354,85.333 17.067,85.333C21.779,85.333 25.6,89.154 25.6,93.867C25.6,126.157 123.733,162.133 264.533,162.133C405.333,162.133 503.467,126.157 503.467,93.867C503.467,61.577 405.333,25.6 264.533,25.6C259.821,25.6 256,21.779 256,17.067C256,12.354 259.821,8.533 264.533,8.533C388.634,8.533 520.533,38.443 520.533,93.867C520.533,149.291 388.634,179.2 264.533,179.2Z" style="fill:rgb(254,36,78);fill-rule:nonzero;"/>
        <path id="Shape37" serif:id="Shape" d="M512,102.4C507.287,102.4 503.467,98.579 503.467,93.867C503.467,61.577 405.333,25.6 264.533,25.6C259.821,25.6 256,21.779 256,17.067C256,12.354 259.821,8.533 264.533,8.533C388.634,8.533 520.533,38.443 520.533,93.867C520.533,98.579 516.713,102.4 512,102.4Z" style="fill:rgb(254,36,78);fill-rule:nonzero;"/>
        <path id="Shape38" serif:id="Shape" d="M264.533,221.867C125.764,221.867 8.533,178.876 8.533,128C8.533,123.287 12.354,119.467 17.067,119.467C21.779,119.467 25.6,123.287 25.6,128C25.6,162.79 132.181,204.8 264.533,204.8C396.885,204.8 503.467,162.79 503.467,128C503.467,123.287 507.287,119.467 512,119.467C516.713,119.467 520.533,123.287 520.533,128C520.533,178.876 403.302,221.867 264.533,221.867Z" style="fill:rgb(254,36,78);fill-rule:nonzero;"/>
        <path id="Shape39" serif:id="Shape" d="M207.437,113.664C202.724,113.9 198.712,110.27 198.477,105.557C198.241,100.845 201.871,96.833 206.583,96.597C240.994,93.318 275.619,92.939 310.093,95.462C314.806,95.799 318.353,99.893 318.016,104.606C317.679,109.319 313.585,112.866 308.873,112.529C275.366,110.066 241.711,110.428 208.265,113.613C208,113.647 207.718,113.664 207.437,113.664Z" style="fill:rgb(254,36,78);fill-rule:nonzero;"/>
        <path id="Shape40" serif:id="Shape" d="M449.024,153.6C446.698,153.6 444.473,152.651 442.863,150.972C432.384,140.041 409.515,130.014 378.479,122.743C375.449,122.109 372.999,119.883 372.079,116.927C371.159,113.971 371.912,110.749 374.047,108.507C376.182,106.264 379.364,105.355 382.362,106.129C406.579,111.795 438.861,122.129 455.185,139.162C457.551,141.63 458.215,145.271 456.874,148.416C455.532,151.56 452.443,153.6 449.024,153.6Z" style="fill:rgb(254,36,78);fill-rule:nonzero;"/>
        <path id="Shape41" serif:id="Shape" d="M80.043,153.6C76.622,153.6 73.531,151.558 72.191,148.41C70.851,145.263 71.519,141.619 73.89,139.153C92.015,120.32 129.101,109.611 157.013,103.936C160.001,103.326 163.087,104.357 165.109,106.639C167.131,108.922 167.781,112.11 166.816,115.002C165.85,117.894 163.414,120.052 160.427,120.661C124.843,127.889 97.792,138.94 86.187,150.98C84.58,152.652 82.362,153.598 80.043,153.6Z" style="fill:rgb(254,36,78);fill-rule:nonzero;"/>
        <path id="Shape42" serif:id="Shape" d="M512,136.533C507.287,136.533 503.467,132.713 503.467,128L503.467,93.867C503.467,89.154 507.287,85.333 512,85.333C516.713,85.333 520.533,89.154 520.533,93.867L520.533,128C520.533,132.713 516.713,136.533 512,136.533Z" style="fill:rgb(254,36,78);fill-rule:nonzero;"/>
        <path id="Shape43" serif:id="Shape" d="M17.067,136.533C12.354,136.533 8.533,132.713 8.533,128L8.533,93.867C8.533,89.154 12.354,85.333 17.067,85.333C21.779,85.333 25.6,89.154 25.6,93.867L25.6,128C25.6,132.713 21.779,136.533 17.067,136.533Z" style="fill:rgb(254,36,78);fill-rule:nonzero;"/>
        <path id="Shape44" serif:id="Shape" d="M486.4,238.933C481.687,238.933 477.867,235.113 477.867,230.4L477.867,163.669C477.867,158.957 481.687,155.136 486.4,155.136C491.113,155.136 494.933,158.957 494.933,163.669L494.933,230.4C494.933,235.113 491.113,238.933 486.4,238.933Z" style="fill:rgb(254,36,78);fill-rule:nonzero;"/>
        <path id="Shape45" serif:id="Shape" d="M42.667,238.933C37.954,238.933 34.133,235.113 34.133,230.4L34.133,163.669C34.133,158.957 37.954,155.136 42.667,155.136C47.379,155.136 51.2,158.957 51.2,163.669L51.2,230.4C51.2,235.113 47.379,238.933 42.667,238.933Z" style="fill:rgb(254,36,78);fill-rule:nonzero;"/>
        <path id="Shape46" serif:id="Shape" d="M264.533,298.667C150.042,298.667 34.133,275.217 34.133,230.4C34.133,225.687 37.954,221.867 42.667,221.867C47.379,221.867 51.2,225.687 51.2,230.4C51.2,251.733 132.361,281.6 264.533,281.6C396.706,281.6 477.867,251.733 477.867,230.4C477.867,225.687 481.687,221.867 486.4,221.867C491.113,221.867 494.933,225.687 494.933,230.4C494.933,275.217 379.025,298.667 264.533,298.667Z" style="fill:rgb(254,36,78);fill-rule:nonzero;"/>
        <path id="Shape47" serif:id="Shape" d="M500.156,520.533L35.285,520.533C28.667,520.528 22.648,516.695 19.843,510.701C17.037,504.706 17.951,497.63 22.187,492.544L49.818,459.375C53.105,455.422 57.51,452.555 62.455,451.149L106.761,438.494C109.927,437.571 112.287,434.919 112.836,431.667L117.956,400.828C119.462,391.828 125.636,384.305 134.17,381.073L186.223,361.54C192.903,359.041 200.321,359.43 206.703,362.615L260.676,389.598C263.078,390.798 265.904,390.798 268.305,389.598L322.62,362.445C328.689,359.388 335.729,358.887 342.17,361.054L431.189,390.733C437.634,392.855 442.963,397.463 445.995,403.533L457.387,426.3C458.212,427.95 459.551,429.289 461.201,430.114L485.154,442.061C490.101,444.548 494.114,448.564 496.597,453.513L511.104,482.526C511.285,482.886 511.436,483.26 511.556,483.644L516.352,498.005C518.113,503.219 517.252,508.961 514.04,513.429C510.828,517.897 505.658,520.542 500.156,520.533ZM195.285,376.994C194.266,376.993 193.254,377.176 192.299,377.532L140.245,397.065C137.389,398.133 135.32,400.644 134.818,403.652L129.698,434.492C128.05,444.23 120.969,452.164 111.479,454.903L67.132,467.558C65.486,468.029 64.021,468.983 62.925,470.298L35.294,503.467L35.251,503.518L500.156,503.467L495.565,489.677L481.28,461.167C480.454,459.516 479.116,458.178 477.466,457.353L453.513,445.406C448.566,442.918 444.553,438.903 442.069,433.954L430.703,411.23C429.687,409.209 427.909,407.674 425.762,406.963L336.811,377.267C334.664,376.54 332.315,376.706 330.291,377.728L275.985,404.881C268.771,408.465 260.295,408.465 253.082,404.881L199.108,377.899C197.923,377.301 196.613,376.991 195.285,376.994Z" style="fill:rgb(254,36,78);fill-rule:nonzero;"/>
        <path id="Shape48" serif:id="Shape" d="M170.667,469.333C167.71,469.332 164.966,467.8 163.412,465.285C161.858,462.77 161.716,459.63 163.038,456.986L167.441,448.188C176.625,429.824 197.586,420.606 217.327,426.249L249.813,435.533C252.848,436.276 255.234,438.62 256.033,441.641C256.831,444.662 255.914,447.878 253.643,450.024C251.371,452.17 248.108,452.903 245.137,451.934L212.642,442.658C200.798,439.27 188.219,444.799 182.707,455.817L178.347,464.614C176.894,467.521 173.916,469.351 170.667,469.333Z" style="fill:rgb(254,36,78);fill-rule:nonzero;"/>
        <path id="Shape49" serif:id="Shape" d="M392.533,451.516C391.035,451.513 389.563,451.116 388.267,450.364L363.221,435.857C355.437,431.367 345.873,431.266 337.997,435.593L324.13,443.273C321.459,444.788 318.18,444.752 315.544,443.177C312.907,441.603 311.32,438.733 311.387,435.663C311.455,432.593 313.167,429.796 315.87,428.339L329.745,420.659C342.87,413.452 358.804,413.614 371.78,421.086L396.834,435.593C400.179,437.524 401.809,441.461 400.81,445.191C399.81,448.922 396.43,451.516 392.567,451.516L392.533,451.516Z" style="fill:rgb(254,36,78);fill-rule:nonzero;"/>
        <path id="Shape50" serif:id="Shape" d="M316.459,486.4C314.769,486.4 313.118,485.898 311.714,484.958L309.35,483.371C299.76,476.892 287.322,476.426 277.274,482.167C274.616,483.783 271.289,483.824 268.592,482.275C265.895,480.726 264.254,477.832 264.309,474.723C264.365,471.613 266.109,468.779 268.86,467.328C284.517,458.366 303.908,459.088 318.857,469.188L321.22,470.775C324.345,472.867 325.732,476.757 324.636,480.354C323.54,483.951 320.219,486.407 316.459,486.4Z" style="fill:rgb(254,36,78);fill-rule:nonzero;"/>
        <path id="Shape51" serif:id="Shape" d="M427.059,358.4L418.133,358.4C403.995,358.4 392.533,346.938 392.533,332.8L392.533,324.267C392.533,310.128 403.995,298.667 418.133,298.667L423.646,298.667C434.125,298.634 443.557,305.019 447.42,314.761L450.833,323.294C453.988,331.182 453.024,340.12 448.26,347.155C443.497,354.189 435.554,358.401 427.059,358.4ZM418.133,315.733C413.421,315.733 409.6,319.554 409.6,324.267L409.6,332.8C409.6,337.513 413.421,341.333 418.133,341.333L427.059,341.333C429.891,341.334 432.538,339.931 434.127,337.587C435.715,335.243 436.037,332.264 434.987,329.634L431.573,321.101C430.29,317.849 427.142,315.718 423.646,315.733L418.133,315.733Z" style="fill:rgb(254,36,78);fill-rule:nonzero;"/>
        <path id="Shape52" serif:id="Shape" d="M266.052,370.253C262.815,370.251 259.621,369.507 256.717,368.077L245.76,362.743C239.608,359.743 235.269,353.973 234.095,347.23C232.874,340.492 235.007,333.582 239.812,328.704L244.13,324.267C249.956,318.261 258.755,316.216 266.633,319.036L276.352,322.517C282.055,324.57 286.615,328.951 288.895,334.567C291.174,340.182 290.957,346.502 288.299,351.949L285.227,358.272C281.638,365.607 274.192,370.263 266.027,370.278L266.052,370.253ZM259.413,334.831C258.256,334.829 257.147,335.297 256.341,336.128L252.015,340.591C251.053,341.572 250.623,342.955 250.858,344.308C251.093,345.661 251.965,346.819 253.201,347.418L264.158,352.759C265.173,353.265 266.349,353.336 267.418,352.956C268.489,352.587 269.371,351.807 269.867,350.788L272.939,344.465C273.475,343.376 273.521,342.109 273.067,340.983C272.62,339.855 271.704,338.976 270.558,338.577L260.838,335.095C260.382,334.928 259.9,334.838 259.413,334.831Z" style="fill:rgb(254,36,78);fill-rule:nonzero;"/>
        <path id="Shape53" serif:id="Shape" d="M125.551,357.402C119.593,357.378 113.917,354.864 109.896,350.468C105.874,346.072 103.874,340.195 104.38,334.259L104.909,328.055C105.613,319.723 111.121,312.57 118.997,309.76L128.717,306.295C134.428,304.262 140.734,304.755 146.061,307.65C151.387,310.545 155.23,315.569 156.629,321.468L158.268,328.294C159.572,333.801 158.635,339.6 155.663,344.415C152.691,349.231 147.928,352.668 142.421,353.971L130.56,356.787C128.92,357.189 127.239,357.395 125.551,357.402ZM135.885,322.116C135.396,322.116 134.911,322.2 134.451,322.364L124.732,325.837C123.153,326.397 122.049,327.829 121.907,329.498L121.387,335.701C121.273,337.064 121.82,338.399 122.857,339.291C123.894,340.183 125.295,340.524 126.626,340.207L138.487,337.391C140.776,336.85 142.195,334.561 141.662,332.271L140.032,325.444C139.581,323.517 137.864,322.154 135.885,322.15L135.885,322.116Z" style="fill:rgb(254,36,78);fill-rule:nonzero;"/>
        <path id="Shape54" serif:id="Shape" d="M190.362,135.398C189.484,135.4 188.606,135.355 187.733,135.262L172.151,133.632C164.186,132.8 157.103,128.199 153.105,121.26C149.107,114.321 148.678,105.885 151.953,98.577L155.213,91.281C159.238,82.357 168.088,76.592 177.877,76.518L191.147,76.442L191.283,76.442C198.36,76.439 205.105,79.44 209.841,84.697C214.578,89.955 216.861,96.975 216.124,104.013L215.185,113.024C213.835,125.725 203.134,135.37 190.362,135.398ZM189.508,118.289C191.599,118.521 193.696,117.906 195.331,116.582C196.967,115.257 198.004,113.334 198.212,111.241L199.151,102.238C199.383,100.008 198.658,97.784 197.156,96.12C195.654,94.455 193.517,93.506 191.275,93.508L178.014,93.585C174.913,93.609 172.112,95.44 170.846,98.27L167.586,105.557C166.553,107.87 166.69,110.538 167.954,112.733C169.219,114.928 171.458,116.385 173.978,116.651L189.508,118.289Z" style="fill:rgb(254,36,78);fill-rule:nonzero;"/>
        <path id="Shape55" serif:id="Shape" d="M340.651,136.107C335.938,136.107 332.117,132.286 332.117,127.573C332.117,122.861 335.938,119.04 340.651,119.04C341.073,119.027 341.495,118.993 341.914,118.938L362.633,116.787C366.944,116.404 370.803,113.959 372.992,110.225C374.953,106.957 375.149,102.924 373.513,99.482L369.246,90.283C367.013,85.736 362.364,82.88 357.299,82.944L339.797,82.944C335.861,82.921 332.098,84.564 329.438,87.467C327.14,89.946 326.018,93.294 326.357,96.657L326.775,100.335C327.303,105.019 323.934,109.245 319.249,109.773C314.565,110.301 310.339,106.931 309.811,102.246L309.393,98.492C308.558,90.299 311.237,82.136 316.766,76.032C322.666,69.543 331.036,65.854 339.806,65.877L357.299,65.877C369.009,65.82 379.7,72.528 384.742,83.098L389.009,92.331C392.974,100.786 392.521,110.651 387.797,118.707C382.882,127.216 374.156,132.824 364.373,133.76L343.842,135.893C342.783,136.02 341.717,136.091 340.651,136.107Z" style="fill:rgb(254,36,78);fill-rule:nonzero;"/>
        <path id="Shape56" serif:id="Shape" d="M305.818,152.798C299.197,152.866 292.795,150.428 287.898,145.971C282.412,140.971 279.776,133.567 280.866,126.225L281.967,118.605C283.66,108.888 290.696,100.96 300.143,98.125L313.796,93.739C321.194,91.298 329.277,92.082 336.068,95.898C341.784,99.081 345.872,104.55 347.307,110.933L349.141,119.313C351.457,133.047 342.252,146.075 328.533,148.48L311.979,152.09C309.956,152.547 307.891,152.784 305.818,152.798ZM322.56,109.389C321.346,109.387 320.139,109.577 318.985,109.952L305.331,114.33C302.096,115.186 299.597,117.754 298.829,121.011L297.719,128.631C297.434,130.439 298.11,132.266 299.503,133.453C301.951,135.513 305.247,136.257 308.343,135.45L324.898,131.84C329.796,130.765 333.261,126.72 332.442,122.965L330.615,114.586C330.188,112.892 329.062,111.46 327.518,110.643C326.001,109.805 324.293,109.373 322.56,109.389Z" style="fill:rgb(254,36,78);fill-rule:nonzero;"/>
        <circle id="Oval" cx="349.867" cy="324.267" r="8.533" style="fill:rgb(254,36,78);"/>
        <circle id="Oval1" serif:id="Oval" cx="469.333" cy="366.933" r="8.533" style="fill:rgb(254,36,78);"/>
        <circle id="Oval2" serif:id="Oval" cx="76.8" cy="366.933" r="8.533" style="fill:rgb(254,36,78);"/>
        <circle id="Oval3" serif:id="Oval" cx="196.267" cy="324.267" r="8.533" style="fill:rgb(254,36,78);"/>
        <circle id="Oval4" serif:id="Oval" cx="187.733" cy="256" r="8.533" style="fill:rgb(254,36,78);"/>
        <circle id="Oval5" serif:id="Oval" cx="238.933" cy="136.533" r="8.533" style="fill:rgb(254,36,78);"/>
        <path id="Shape57" serif:id="Shape" d="M17.067,298.667C12.879,298.67 9.307,295.633 8.637,291.499C7.967,287.365 10.396,283.356 14.37,282.035L39.97,273.502C44.447,272.013 49.284,274.435 50.773,278.912C52.263,283.389 49.84,288.226 45.363,289.715L19.763,298.249C18.893,298.532 17.982,298.673 17.067,298.667Z" style="fill:rgb(254,36,78);fill-rule:nonzero;"/>
        <path id="Shape58" serif:id="Shape" d="M42.667,332.8C39.216,332.799 36.105,330.72 34.785,327.532C33.464,324.344 34.194,320.674 36.634,318.234L53.7,301.167C57.049,297.933 62.371,297.979 65.662,301.271C68.954,304.562 69,309.885 65.766,313.233L48.7,330.3C47.1,331.9 44.93,332.8 42.667,332.8Z" style="fill:rgb(254,36,78);fill-rule:nonzero;"/>
        <path id="Shape59" serif:id="Shape" d="M512,298.667C511.084,298.667 510.173,298.52 509.303,298.231L483.703,289.698C480.807,288.735 478.645,286.299 478.031,283.31C477.417,280.32 478.445,277.229 480.728,275.203C483.01,273.176 486.2,272.521 489.097,273.485L514.697,282.018C518.699,283.319 521.155,287.344 520.482,291.498C519.809,295.652 516.208,298.696 512,298.667Z" style="fill:rgb(254,36,78);fill-rule:nonzero;"/>
        <path id="Shape60" serif:id="Shape" d="M486.4,332.8C484.137,332.8 481.967,331.9 480.367,330.3L463.3,313.233C460.066,309.885 460.113,304.562 463.404,301.271C466.696,297.979 472.018,297.933 475.366,301.167L492.433,318.234C494.873,320.674 495.603,324.344 494.282,327.532C492.962,330.72 489.851,332.799 486.4,332.8Z" style="fill:rgb(254,36,78);fill-rule:nonzero;"/>
        <path id="Shape61" serif:id="Shape" d="M153.6,256C153.128,256.002 152.657,255.962 152.192,255.881C122.257,250.238 92.998,241.466 64.896,229.709C60.565,227.847 58.563,222.827 60.425,218.496C62.286,214.165 67.306,212.163 71.637,214.025C98.495,225.198 126.429,233.584 154.999,239.053C159.369,239.792 162.446,243.752 162.081,248.169C161.716,252.586 158.032,255.988 153.6,256Z" style="fill:rgb(254,36,78);fill-rule:nonzero;"/>
    </g>
</svg>
