<?xml version="1.0" encoding="UTF-8" standalone="no"?>
<!DOCTYPE svg PUBLIC "-//W3C//DTD SVG 1.1//EN" "http://www.w3.org/Graphics/SVG/1.1/DTD/svg11.dtd">
<svg width="100%" height="100%" viewBox="0 0 512 512" version="1.1" xmlns="http://www.w3.org/2000/svg" xmlns:xlink="http://www.w3.org/1999/xlink" xml:space="preserve" xmlns:serif="http://www.serif.com/" style="fill-rule:evenodd;clip-rule:evenodd;stroke-linejoin:round;stroke-miterlimit:2;">
    <path d="M344,488L344,288C344,276.633 337.943,266.087 328.124,260.359L224,199.62L144,199.62L39.876,260.359C30.057,266.087 24,276.633 24,288L24,488L344,488Z" style="fill:white;fill-rule:nonzero;"/>
    <path d="M472,488C480.777,488 488,480.777 488,472L488,192C488,183.223 480.777,176 472,176L356.347,176C352.307,176 348.413,177.53 345.453,180.281L269.106,251.253C265.851,254.279 264,258.528 264,262.972L264,488L472,488Z" style="fill:white;fill-rule:nonzero;"/>
    <path d="M184,248L216,288L274.766,229.234L224,199.62L184,199.62L184,248Z" style="fill:white;fill-rule:nonzero;"/>
    <path d="M112,488C63.725,488 24,448.275 24,400L24,488L112,488Z" style="fill:white;fill-rule:nonzero;"/>
    <path d="M350.06,177.29L350.06,240C350.06,240.001 350.06,240.003 350.06,240.004C350.06,248.779 342.839,256 334.064,256C334.063,256 334.061,256 334.06,256L265.6,256C266.461,254.21 267.652,252.599 269.11,251.25L345.45,180.28C346.8,179.022 348.361,178.01 350.06,177.29Z" style="fill:white;fill-rule:nonzero;"/>
    <path d="M240,432L289.583,396.583C293.525,393.768 298.72,393.36 303.053,395.526C308.319,398.16 311.193,404.035 310.038,409.809L304,440L317.385,446.693C329.481,452.741 343.189,454.802 356.529,452.579L376.504,449.249C380.947,448.509 385.384,450.768 387.399,454.797C388.113,456.226 388.485,457.801 388.485,459.399C388.485,463.29 386.277,466.861 382.797,468.601L357.513,481.243C348.627,485.686 338.827,488 328.892,488L240,488L240,432Z" style="fill:white;fill-rule:nonzero;"/>
    <path d="M184,248L152,288L93.234,229.234L144,199.62L184,199.62L184,248Z" style="fill:white;fill-rule:nonzero;"/>
    <path d="M256,64L256,176C256,215.498 223.498,248 184,248L184,248C144.502,248 112,215.498 112,176L112,88L136,64L256,64Z" style="fill:white;fill-rule:nonzero;"/>
    <path d="M216,40L232,40C245.166,40 256,50.834 256,64L256,96L249.298,96C234.229,96 220.765,86.296 216,72L216,40Z" style="fill:white;fill-rule:nonzero;"/>
    <path d="M224,48C224,34.834 213.166,24 200,24L168,24C137.279,24 112,49.279 112,80L112,96L176,96C202.332,96 224,74.332 224,48L224,48Z" style="fill:white;fill-rule:nonzero;"/>
    <rect x="136" y="120" width="32" height="16" style="fill:rgb(254,36,78);fill-rule:nonzero;"/>
    <path d="M168,208L176,208C189.16,207.985 199.985,197.16 200,184L200,168L184,168L184,184C183.995,188.387 180.387,191.995 176,192L168,192L168,208Z" style="fill:rgb(254,36,78);fill-rule:nonzero;"/>
    <circle cx="152" cy="152" r="8" style="fill:rgb(254,36,78);"/>
    <rect x="200" y="120" width="32" height="16" style="fill:rgb(254,36,78);fill-rule:nonzero;"/>
    <circle cx="216" cy="152" r="8" style="fill:rgb(254,36,78);"/>
    <path d="M472,168L356.347,168C350.285,167.993 344.441,170.289 340.006,174.422L284.744,225.793L256.661,209.411C261.503,198.939 264.007,187.537 264,176L264,64C263.98,46.453 249.547,32.02 232,32L227.695,32C221.987,22.119 211.411,16.009 200,16L168,16C132.906,16.04 104.04,44.906 104,80L104,176C103.993,187.537 106.497,198.939 111.339,209.411L35.845,253.449C23.591,260.629 16.027,273.798 16,288L16,488C16,492.389 19.611,496 24,496L472,496C485.16,495.985 495.985,485.16 496,472L496,192C495.985,178.84 485.16,168.015 472,168ZM256,410.74L238.083,423.538L192,415.406L192,270.807L209.753,292.998C211.174,294.774 213.287,295.862 215.558,295.987C215.706,295.996 215.853,296 216,296C218.121,296 220.157,295.157 221.657,293.657L256.345,258.969C256.117,260.291 256.002,261.63 256,262.972L256,410.74ZM120,176L120,104L176,104C190.807,104.009 205.026,98.126 215.498,87.657C223.383,97.628 235.294,103.61 248,103.98L248,176C248,211.109 219.109,240 184,240C148.891,240 120,211.109 120,176ZM261.771,230.915L216.664,276.023L199.438,254.491C219.144,250.587 236.68,239.412 248.54,223.197L261.771,230.915ZM248,64L248,87.948C238.618,87.51 230.113,82.213 225.583,73.986C229.804,65.976 232.007,57.055 232,48C240.774,48.01 247.99,55.226 248,64ZM120,80C120.03,53.679 141.679,32.03 168,32L200,32C208.774,32.01 215.99,39.226 216,48C215.975,69.934 197.934,87.975 176,88L120,88L120,80ZM168.562,254.491L151.336,276.023L106.229,230.915L119.46,223.197C131.32,239.412 148.855,250.587 168.562,254.491ZM32,480L32,453.003C39.117,463.705 48.295,472.883 58.997,480L32,480ZM232,480L112,480C68.132,479.951 32.049,443.868 32,400L32,288C32.016,279.479 36.555,271.577 43.907,267.27L91.938,239.251L146.343,293.657C147.843,295.157 149.879,296 152,296C152.147,296 152.294,295.996 152.442,295.987C154.713,295.862 156.826,294.774 158.247,292.998L176,270.807L176,412.583L131.83,404.788C120.401,402.785 111.987,392.755 112,381.152L112,336L96,336L96,381.152C95.977,400.491 110.001,417.206 129.049,420.544L232,438.712L232,480ZM248,480L248,436.117L294.233,403.094C295.097,402.476 296.134,402.144 297.196,402.144C299.992,402.144 302.292,404.444 302.292,407.24C302.292,407.576 302.259,407.91 302.193,408.239L296.155,438.431C295.45,441.957 297.205,445.547 300.422,447.155L313.808,453.848C327.406,460.681 342.837,463.001 357.844,460.47L377.818,457.141C378.808,456.971 379.798,457.475 380.243,458.375C380.402,458.693 380.485,459.043 380.485,459.399C380.485,460.264 379.994,461.059 379.219,461.446L353.936,474.088C346.156,477.966 337.584,479.99 328.892,480L248,480ZM480,472C479.995,476.387 476.387,479.995 472,480L377.888,480L386.374,475.757C392.561,472.664 396.485,466.315 396.485,459.398C396.485,449.365 388.228,441.109 378.195,441.109C377.188,441.109 376.182,441.192 375.189,441.357L355.214,444.687C343.542,446.656 331.54,444.852 320.963,439.537L313.043,435.577L317.883,411.378C318.155,410.016 318.293,408.63 318.293,407.24C318.293,395.667 308.769,386.144 297.196,386.144C292.799,386.144 288.511,387.518 284.934,390.073L272,399.312L272,262.972C272.003,260.75 272.928,258.627 274.553,257.112L342.059,194.359L342.059,240C342.054,244.387 338.446,247.995 334.059,248L304,248L304,264L334.059,264C347.219,263.985 358.044,253.16 358.059,240L358.059,184L472,184C476.387,184.005 479.995,187.613 480,192L480,472Z" style="fill:rgb(254,36,78);fill-rule:nonzero;"/>
    <rect x="297.941" y="296" width="16" height="16" style="fill:rgb(254,36,78);fill-rule:nonzero;"/>
    <rect x="328" y="296" width="57.941" height="16" style="fill:rgb(254,36,78);fill-rule:nonzero;"/>
    <rect x="401.941" y="296" width="54.059" height="16" style="fill:rgb(254,36,78);fill-rule:nonzero;"/>
    <rect x="297.941" y="328" width="38.059" height="16" style="fill:rgb(254,36,78);fill-rule:nonzero;"/>
    <rect x="352" y="328" width="73.941" height="16" style="fill:rgb(254,36,78);fill-rule:nonzero;"/>
    <rect x="441.941" y="328" width="14.059" height="16" style="fill:rgb(254,36,78);fill-rule:nonzero;"/>
    <rect x="328" y="360" width="56" height="16" style="fill:rgb(254,36,78);fill-rule:nonzero;"/>
    <rect x="400" y="360" width="56" height="16" style="fill:rgb(254,36,78);fill-rule:nonzero;"/>
    <rect x="408" y="440" width="48" height="16" style="fill:rgb(254,36,78);fill-rule:nonzero;"/>
    <rect x="400" y="408" width="56" height="16" style="fill:rgb(254,36,78);fill-rule:nonzero;"/>
    <rect x="368" y="408" width="16" height="16" style="fill:rgb(254,36,78);fill-rule:nonzero;"/>
    <rect x="392" y="208" width="16" height="16" style="fill:rgb(254,36,78);fill-rule:nonzero;"/>
    <rect x="424" y="208" width="32" height="16" style="fill:rgb(254,36,78);fill-rule:nonzero;"/>
    <rect x="440" y="240" width="16" height="16" style="fill:rgb(254,36,78);fill-rule:nonzero;"/>
    <rect x="392" y="240" width="32" height="16" style="fill:rgb(254,36,78);fill-rule:nonzero;"/>
</svg>
