<?xml version="1.0" encoding="UTF-8" standalone="no"?>
<!DOCTYPE svg PUBLIC "-//W3C//DTD SVG 1.1//EN" "http://www.w3.org/Graphics/SVG/1.1/DTD/svg11.dtd">
<svg width="100%" height="100%" viewBox="0 0 436 436" version="1.1" xmlns="http://www.w3.org/2000/svg" xmlns:xlink="http://www.w3.org/1999/xlink" xml:space="preserve" xmlns:serif="http://www.serif.com/" style="fill-rule:evenodd;clip-rule:evenodd;stroke-linejoin:round;stroke-miterlimit:2;">
    <path d="M367.876,297.69L68.124,297.69C65.212,297.69 62.624,295.838 61.68,293.086L16.871,162.393C15.655,158.83 17.549,154.959 21.108,153.735C22.2,153.365 23.338,153.271 24.395,153.458C26.858,153.603 29.154,155.092 30.218,157.509C35.758,170.088 55.463,210.699 78.45,210.699C78.735,210.699 79.023,210.691 79.316,210.675C93.181,210.059 114.867,194.058 139.437,121.365C140.376,118.597 142.968,116.734 145.888,116.734C148.812,116.734 151.404,118.597 152.343,121.365C160.732,146.153 188.849,210.297 218.047,210.297C218.125,210.297 218.199,210.293 218.28,210.293C232.123,210.126 253.407,194.592 276.199,121.517C277.092,118.668 279.723,116.734 282.705,116.734L282.771,116.734C285.781,116.765 288.412,118.761 289.246,121.65C296.212,145.639 320.919,208.473 351.223,211.096C368.928,212.554 388.559,192.518 407.941,152.94C409.516,149.708 413.344,148.254 416.669,149.638C419.986,151.014 421.67,154.733 420.508,158.14L374.323,293.086C373.376,295.842 370.788,297.69 367.876,297.69ZM72.989,284.066L363.003,284.066L389.694,206.079C376.795,219.731 363.697,225.82 350.038,224.674C316.475,221.754 293.444,173.39 282.736,144.96C263.822,197.757 242.706,223.629 218.436,223.913C218.304,223.913 218.179,223.921 218.047,223.921C184.129,223.921 157.945,171.924 146.083,143.241C125.844,196.65 104.123,223.204 79.92,224.288C67.512,224.767 56.706,218.585 47.401,209.412L72.989,284.066Z" style="fill:rgb(254,36,78);fill-rule:nonzero;"/>
    <path d="M367.876,352.19L68.124,352.19C64.358,352.19 61.314,349.141 61.314,345.376L61.314,290.876C61.314,287.11 64.358,284.066 68.124,284.066C71.89,284.066 74.938,287.11 74.938,290.876L74.938,338.566L361.062,338.566L361.062,290.876C361.062,287.11 364.11,284.066 367.876,284.066C371.641,284.066 374.686,287.11 374.686,290.876L374.686,345.376C374.686,349.141 371.641,352.19 367.876,352.19Z" style="fill:rgb(254,36,78);fill-rule:nonzero;"/>
    <path d="M148.702,130.358C135.85,130.358 125.392,119.899 125.392,107.043C125.392,94.191 135.85,83.732 148.702,83.732C161.559,83.732 172.017,94.195 172.017,107.047C172.017,119.899 161.559,130.358 148.702,130.358ZM148.702,97.36C143.362,97.36 139.016,101.707 139.016,107.047C139.016,112.391 143.362,116.734 148.702,116.734C154.047,116.734 158.389,112.388 158.389,107.047C158.389,101.703 154.047,97.36 148.702,97.36Z" style="fill:rgb(254,36,78);fill-rule:nonzero;"/>
    <path d="M280.694,130.358C267.841,130.358 257.383,119.899 257.383,107.043C257.383,94.191 267.841,83.732 280.694,83.732C293.55,83.732 304.008,94.195 304.008,107.047C304.008,119.899 293.55,130.358 280.694,130.358ZM280.694,97.36C275.353,97.36 271.007,101.707 271.007,107.047C271.007,112.391 275.353,116.734 280.694,116.734C286.038,116.734 290.384,112.391 290.384,107.047C290.384,101.707 286.038,97.36 280.694,97.36Z" style="fill:rgb(254,36,78);fill-rule:nonzero;"/>
    <path d="M412.689,163.356C399.833,163.356 389.374,152.897 389.374,140.045C389.374,127.193 399.833,116.734 412.689,116.734C425.541,116.734 436,127.193 436,140.045C436,152.897 425.541,163.356 412.689,163.356ZM412.689,130.358C407.344,130.358 403.002,134.701 403.002,140.045C403.002,145.389 407.344,149.732 412.689,149.732C418.029,149.732 422.376,145.389 422.376,140.045C422.376,134.701 418.029,130.358 412.689,130.358Z" style="fill:rgb(254,36,78);fill-rule:nonzero;"/>
    <path d="M23.311,163.356C10.459,163.356 0,152.897 0,140.045C0,127.193 10.459,116.734 23.311,116.734C36.167,116.734 46.626,127.193 46.626,140.045C46.626,152.897 36.163,163.356 23.311,163.356ZM23.311,130.358C17.97,130.358 13.624,134.701 13.624,140.045C13.624,145.389 17.97,149.732 23.311,149.732C28.655,149.732 33.002,145.389 33.002,140.045C33.002,134.701 28.655,130.358 23.311,130.358Z" style="fill:rgb(254,36,78);fill-rule:nonzero;"/>
</svg>
