<?xml version="1.0" encoding="UTF-8" standalone="no"?>
<!DOCTYPE svg PUBLIC "-//W3C//DTD SVG 1.1//EN" "http://www.w3.org/Graphics/SVG/1.1/DTD/svg11.dtd">
<svg width="100%" height="100%" viewBox="0 0 512 512" version="1.1" xmlns="http://www.w3.org/2000/svg" xmlns:xlink="http://www.w3.org/1999/xlink" xml:space="preserve" xmlns:serif="http://www.serif.com/" style="fill-rule:evenodd;clip-rule:evenodd;stroke-linejoin:round;stroke-miterlimit:2;">
    <g transform="matrix(-0.999999,0.00112602,-0.00112602,-0.999999,512.288,511.712)">
        <g transform="matrix(-0.999994,0.00353636,-0.00353636,-0.999994,512.904,511.093)">
            <path d="M161.456,451.552L140.272,448.528L129.28,434.784C115.656,417.76 95.344,408 73.544,408C60.616,408 47.92,411.512 36.832,418.168L30.376,422.04C16.576,430.328 8,445.472 8,461.576C8,469.984 10.464,478.12 15.128,485.112C23.016,496.936 36.2,504 50.424,504L200,504L200,496C200,473.8 183.432,454.688 161.456,451.552ZM50.424,488C41.576,488 33.352,483.6 28.44,476.232C25.528,471.88 24,466.816 24,461.576C24,451.064 29.6,441.168 38.616,435.752L45.072,431.88C53.672,426.728 63.512,424 73.544,424C90.448,424 106.208,431.576 116.768,444.776L121.536,450.736L96.512,455.744L74.528,448.416L69.464,463.592L95.48,472.264L136.216,464.112L159.184,467.392C170.6,469.024 179.744,477.344 182.856,488L50.424,488Z" style="fill:rgb(254,36,78);fill-rule:nonzero;"/>
        </g>
        <g transform="matrix(-0.999994,0.00353636,-0.00353636,-0.999994,512.904,511.093)">
            <path d="M473.136,380.08L467.536,379.144C459.112,377.736 452.016,371.896 449.016,363.896L438.296,335.304C433.056,321.328 420.6,311.504 405.792,309.656L389.024,307.56C377.04,306.072 368,295.832 368,283.752L368,227.88C368.992,228.656 369.984,229.448 370.992,230.248C381.4,238.568 393.184,248 416,248L424,248L424,104L416,104C398.808,104 390.544,97.4 380.992,89.752C370.584,81.432 358.8,72 335.984,72C313.168,72 301.376,81.432 290.968,89.752C281.416,97.4 273.16,104 255.96,104C238.784,104 230.528,97.4 220.984,89.752C213.072,83.424 204.32,76.472 190.56,73.496C196.36,66.552 200,57.736 200,48C200,25.944 182.056,8 160,8C137.944,8 120,25.944 120,48C120,61.016 126.344,72.488 136,79.792L136,176L128,176C105.944,176 88,193.944 88,216L88,228L48.2,257.848C33.048,269.216 24,287.312 24,306.256C24,322.416 30.288,337.608 41.72,349.04L72.968,380.288C80.52,387.84 90.568,392 101.256,392L167.016,392C178.048,392 187.624,399.48 190.304,410.176L194.928,428.688C198.8,444.208 207.272,457.912 219.432,468.328L239.504,485.528C253.392,497.44 271.12,504 289.424,504C300.232,504 310.704,501.776 320.584,497.384L377.696,472L450.424,472L487.56,447.248C497.848,440.376 504,428.888 504,416.512C504,398.384 491.024,383.064 473.136,380.08ZM255.96,120C278.768,120 290.56,110.568 300.968,102.248C310.52,94.6 318.784,88 335.984,88C353.176,88 361.44,94.6 370.992,102.248C380.112,109.536 390.288,117.68 408,119.584L408,231.456C395.976,229.736 388.928,224.104 380.992,217.752C370.584,209.432 358.8,200 335.984,200C313.168,200 301.376,209.432 290.968,217.752C281.416,225.4 273.16,232 255.96,232C238.784,232 230.528,225.4 220.984,217.752C211.88,210.464 201.704,202.328 184,200.416L184,88.608C195.968,90.344 203.072,95.904 210.984,102.24C221.384,110.568 233.168,120 255.96,120ZM160,24C173.232,24 184,34.768 184,48C184,61.232 173.232,72 160,72C146.768,72 136,61.232 136,48C136,34.768 146.768,24 160,24ZM84.28,368.976L53.032,337.728C44.624,329.32 40,318.144 40,306.256C40,292.32 46.656,279.008 57.8,270.648L104,236L104,216C104,202.768 114.768,192 128,192L136,192L136,376L101.256,376C94.84,376 88.816,373.504 84.28,368.976ZM152,376L152,87.192C154.584,87.72 157.264,88 160,88C162.736,88 165.416,87.72 168,87.192L168,376.08C167.664,376.072 167.352,376 167.016,376L152,376ZM478.68,433.936L445.576,456L374.304,456L314.08,482.768C293.024,492.112 267.4,488.376 249.912,473.384L229.84,456.184C220.224,447.944 213.52,437.096 210.448,424.816L205.824,406.304C202.832,394.336 194.608,384.904 184,379.912L184,216.608C195.968,218.344 203.072,223.904 210.984,230.24C221.384,238.56 233.16,247.992 255.96,247.992C278.768,247.992 290.56,238.56 300.968,230.24C310.52,222.6 318.784,216 335.984,216C342.384,216 347.544,216.92 352,218.464L352,283.752C352,303.888 367.064,320.952 387.04,323.44L403.808,325.536C412.688,326.648 420.168,332.536 423.312,340.92L434.032,369.512C439.04,382.848 450.864,392.584 464.912,394.92L470.504,395.856C480.64,397.552 488,406.24 488,416.512C488,423.528 484.512,430.04 478.68,433.936Z" style="fill:rgb(254,36,78);fill-rule:nonzero;"/>
        </g>
    </g>
</svg>
