<?xml version="1.0" encoding="UTF-8" standalone="no"?>
<!DOCTYPE svg PUBLIC "-//W3C//DTD SVG 1.1//EN" "http://www.w3.org/Graphics/SVG/1.1/DTD/svg11.dtd">
<svg width="100%" height="100%" viewBox="0 0 512 512" version="1.1" xmlns="http://www.w3.org/2000/svg" xmlns:xlink="http://www.w3.org/1999/xlink" xml:space="preserve" xmlns:serif="http://www.serif.com/" style="fill-rule:evenodd;clip-rule:evenodd;stroke-linejoin:round;stroke-miterlimit:2;">
    <g>
        <path d="M494.5,313.521L430.117,117.471C427.421,109.261 419.757,103.711 411.115,103.711L379.518,103.711C372.403,103.711 365.824,99.931 362.24,93.784L317.721,17.426C314.138,11.28 307.559,7.5 300.444,7.5L236.783,7.5C229.861,7.5 223.432,11.079 219.785,16.961L197.315,53.203C193.578,59.23 186.929,62.828 179.84,62.659L145.873,61.849C137.854,61.658 130.496,66.276 127.182,73.581L87.606,160.823C85.949,164.476 83.232,167.546 79.808,169.634L52.765,186.131C48.158,188.942 44.882,193.495 43.682,198.756L17.5,313.521L494.5,313.521Z" style="fill:white;fill-rule:nonzero;"/>
        <path d="M179.84,62.66L145.873,61.85C137.854,61.659 130.496,66.277 127.182,73.582L87.606,160.824C85.949,164.477 83.232,167.547 79.808,169.635L52.765,186.132C48.158,188.943 44.882,193.496 43.682,198.757L17.5,313.521L242,313.521L242,134.467C242,123.421 233.046,114.467 222,114.467L199.528,114.467C184.765,114.467 175.09,99.02 181.534,85.738L197.316,53.204C193.579,59.231 186.93,62.829 179.84,62.66Z" style="fill:white;fill-rule:nonzero;"/>
        <rect x="189.34" y="175" width="133.32" height="138.521" style="fill:white;fill-rule:nonzero;"/>
        <path d="M484.5,504.5L27.5,504.5C16.454,504.5 7.5,495.546 7.5,484.5L7.5,313.521C7.5,302.475 16.454,293.521 27.5,293.521L484.5,293.521C495.546,293.521 504.5,302.475 504.5,313.521L504.5,484.5C504.5,495.546 495.546,504.5 484.5,504.5Z" style="fill:white;fill-rule:nonzero;"/>
        <path d="M134.131,293.521L96,504.5L416,504.5L377.869,293.521L134.131,293.521Z" style="fill:white;fill-rule:nonzero;"/>
        <path d="M374.333,373.521L137.667,373.521C126.621,373.521 117.667,364.567 117.667,353.521C117.667,342.475 126.621,333.521 137.667,333.521L374.333,333.521C385.379,333.521 394.333,342.475 394.333,353.521C394.333,364.567 385.379,373.521 374.333,373.521Z" style="fill:white;fill-rule:nonzero;"/>
        <path d="M398,464.5L114,464.5C102.954,464.5 94,455.546 94,444.5C94,433.454 102.954,424.5 114,424.5L398,424.5C409.046,424.5 418,433.454 418,444.5C418,455.546 409.046,464.5 398,464.5Z" style="fill:white;fill-rule:nonzero;"/>
        <path d="M205.72,292.34L205.52,293.52L169.76,504.5L129.19,504.5L164.95,293.52L166.28,285.66C168.13,274.77 178.46,267.44 189.34,269.28C200.23,271.13 207.56,281.45 205.72,292.34Z" style="fill:white;fill-rule:nonzero;"/>
        <path d="M382.81,504.5L342.24,504.5L306.48,293.52L306.28,292.34C304.44,281.45 311.77,271.13 322.66,269.28C333.54,267.44 343.87,274.77 345.72,285.66L347.05,293.52L382.81,504.5Z" style="fill:white;fill-rule:nonzero;"/>
        <path d="M336,195L176,195C164.954,195 156,186.046 156,175C156,163.954 164.954,155 176,155L336,155C347.046,155 356,163.954 356,175C356,186.046 347.046,195 336,195Z" style="fill:white;fill-rule:nonzero;"/>
        <path d="M493.908,287.68L437.243,115.132C433.526,103.816 423.026,96.212 411.115,96.212L379.518,96.212C375.088,96.212 370.951,93.835 368.72,90.008L354.953,66.397C352.865,62.818 348.272,61.61 344.696,63.695C341.117,65.782 339.908,70.374 341.994,73.952L355.761,97.563C360.669,105.982 369.772,111.212 379.518,111.212L411.115,111.212C416.529,111.212 421.303,114.668 422.991,119.812L477.574,286.022L353.388,286.022L353.115,284.405C351.082,272.435 341.553,263.584 330.161,261.826L330.161,202.5L336,202.5C351.163,202.5 363.5,190.163 363.5,175C363.5,159.837 351.163,147.5 336,147.5L249.5,147.5L249.5,134.467C249.5,119.304 237.163,106.967 222,106.967L199.527,106.967C195.13,106.967 191.268,104.829 188.934,101.103C186.599,97.375 186.361,92.968 188.281,89.011L203.895,56.824L226.159,20.913C228.455,17.211 232.427,15 236.783,15L300.444,15C304.874,15 309.011,17.377 311.242,21.204L326.876,48.017C328.964,51.596 333.558,52.804 337.133,50.719C340.712,48.632 341.921,44.04 339.835,40.462L324.201,13.649C319.293,5.23 310.19,0 300.444,0L236.783,0C227.199,0 218.462,4.863 213.411,13.009L190.943,49.25C190.941,49.253 190.939,49.256 190.937,49.259C188.612,53.005 184.432,55.285 180.019,55.162L146.052,54.352C145.83,54.347 145.61,54.344 145.388,54.344C134.603,54.344 124.826,60.622 120.352,70.483L80.777,157.725C79.737,160.017 78.051,161.922 75.903,163.233L48.86,179.73C42.563,183.572 38.011,189.899 36.371,197.089L15.446,288.811C6.308,293.286 0,302.679 0,313.521L0,484.5C0,499.664 12.336,512 27.5,512L484.5,512C499.664,512 512,499.664 512,484.5L512,313.521C512,301.661 504.453,291.531 493.908,287.68ZM378.128,432L398,432C404.893,432 410.5,437.607 410.5,444.5C410.5,451.393 404.893,457 398,457L382.366,457L378.128,432ZM362.708,341.021L374.333,341.021C381.226,341.021 386.833,346.628 386.833,353.521C386.833,360.414 381.226,366.021 374.333,366.021L366.945,366.021L362.708,341.021ZM338.325,286.912L373.932,497L348.575,497L313.675,291.09C312.526,284.295 317.12,277.828 323.91,276.675C330.707,275.534 337.172,280.12 338.325,286.912ZM138.068,497L173.675,286.916C174.828,280.12 181.293,275.518 188.084,276.675C194.879,277.828 199.474,284.295 198.325,291.085L163.425,497L138.068,497ZM145.053,366.021L137.667,366.021C130.774,366.021 125.167,360.414 125.167,353.521C125.167,346.628 130.774,341.021 137.667,341.021L149.291,341.021L145.053,366.021ZM129.634,457L114,457C107.107,457 101.5,451.393 101.5,444.5C101.5,437.607 107.107,432 114,432L133.871,432L129.634,457ZM271,432L322.344,432L326.581,457L185.418,457L189.655,432L241,432C245.143,432 248.5,428.643 248.5,424.5C248.5,420.357 245.143,417 241,417L192.198,417L198.296,381.021L313.704,381.021L319.802,417L271,417C266.857,417 263.5,420.357 263.5,424.5C263.5,428.643 266.857,432 271,432ZM311.162,366.021L200.838,366.021L205.075,341.021L306.924,341.021L311.162,366.021ZM300.145,301.021L304.382,326.021L207.618,326.021L211.855,301.021L300.145,301.021ZM182.876,472L329.125,472L333.362,497L178.638,497L182.876,472ZM315.16,263.732C306.06,267.64 299.745,276.223 298.669,286.021L213.331,286.021C212.256,276.225 205.941,267.642 196.84,263.733L196.84,202.5L315.16,202.5L315.16,263.732ZM348.5,175C348.5,181.893 342.893,187.5 336,187.5L176,187.5C169.107,187.5 163.5,181.893 163.5,175C163.5,168.107 169.107,162.5 176,162.5L336,162.5C342.893,162.5 348.5,168.107 348.5,175ZM50.995,200.425C51.74,197.156 53.809,194.28 56.672,192.534L83.715,176.037C88.442,173.154 92.149,168.965 94.437,163.922L134.012,76.68C136.087,72.106 140.639,69.192 145.695,69.348L179.661,70.158C180.03,70.165 180.396,70.151 180.763,70.143L174.786,82.465C170.625,91.042 171.163,100.986 176.223,109.066C181.284,117.145 189.996,121.968 199.529,121.968L222,121.968C228.893,121.968 234.5,127.575 234.5,134.468L234.5,147.5L176,147.5C160.837,147.5 148.5,159.837 148.5,175C148.5,190.163 160.837,202.5 176,202.5L181.84,202.5L181.84,261.824C170.451,263.581 160.919,272.436 158.886,284.408L158.613,286.021L31.467,286.021L50.995,200.425ZM15,484.5L15,313.521C15,306.628 20.607,301.021 27.5,301.021L156.07,301.021L151.833,326.021L137.667,326.021C122.504,326.021 110.167,338.358 110.167,353.521C110.167,368.684 122.504,381.021 137.667,381.021L142.511,381.021L136.413,417L114,417C98.837,417 86.5,429.337 86.5,444.5C86.5,459.663 98.837,472 114,472L127.091,472L122.854,497L27.5,497C20.607,497 15,491.393 15,484.5ZM497,484.5C497,491.393 491.393,497 484.5,497L389.146,497L384.909,472L398,472C413.163,472 425.5,459.663 425.5,444.5C425.5,429.337 413.163,417 398,417L375.586,417L369.488,381.021L374.333,381.021C389.496,381.021 401.833,368.684 401.833,353.521C401.833,338.358 389.496,326.021 374.333,326.021L360.165,326.021L355.928,301.021L484.5,301.021C491.393,301.021 497,306.628 497,313.521L497,484.5Z" style="fill:rgb(254,36,78);fill-rule:nonzero;"/>
    </g>
</svg>
