<?xml version="1.0" encoding="UTF-8" standalone="no"?>
<!DOCTYPE svg PUBLIC "-//W3C//DTD SVG 1.1//EN" "http://www.w3.org/Graphics/SVG/1.1/DTD/svg11.dtd">
<svg width="100%" height="100%" viewBox="0 0 512 512" version="1.1" xmlns="http://www.w3.org/2000/svg" xmlns:xlink="http://www.w3.org/1999/xlink" xml:space="preserve" xmlns:serif="http://www.serif.com/" style="fill-rule:evenodd;clip-rule:evenodd;stroke-linejoin:round;stroke-miterlimit:2;">
    <g>
        <path d="M325.77,394.866L253.684,394.866C242.611,394.866 233.634,403.82 233.634,414.866C233.634,425.916 242.618,434.873 253.695,434.866L325.769,434.824L325.769,394.866L325.77,394.866Z" style="fill:white;fill-rule:nonzero;"/>
        <path d="M320.717,474.5L468.717,474.5L468.717,298.952C468.717,290.115 461.554,282.952 452.717,282.952L342.717,282.952C330.567,282.952 320.717,292.802 320.717,304.952L320.717,474.5Z" style="fill:white;fill-rule:nonzero;"/>
        <path d="M452.717,282.952L422.717,282.952C431.554,282.952 438.717,290.115 438.717,298.952L438.717,474.5L468.717,474.5L468.717,298.952C468.717,290.116 461.554,282.952 452.717,282.952Z" style="fill:white;fill-rule:nonzero;"/>
        <g transform="matrix(-1,0,0,-1,801.435,465.683)">
            <rect x="370.717" y="192.067" width="60" height="81.548" style="fill:white;fill-rule:nonzero;"/>
        </g>
        <rect x="400.717" y="192.067" width="30" height="81.548" style="fill:white;fill-rule:nonzero;"/>
        <path d="M378.568,282.952L451.717,282.952L451.717,252.952L397.663,252.952C387.117,252.952 378.567,261.501 378.567,272.048L378.567,282.952L378.568,282.952Z" style="fill:white;fill-rule:nonzero;"/>
        <path d="M378.568,282.952L345.362,282.952L345.362,252.952L359.472,252.952C370.018,252.952 378.568,261.501 378.568,272.048L378.568,282.952Z" style="fill:white;fill-rule:nonzero;"/>
        <path d="M454.043,153.734L454.043,98.966C454.043,60.275 422.678,28.91 383.987,28.91L375.235,28.91C336.544,28.91 305.179,60.275 305.179,98.966L305.179,153.734C305.179,194.732 338.414,227.968 379.413,227.968L379.811,227.968C420.807,227.968 454.043,194.732 454.043,153.734Z" style="fill:white;fill-rule:nonzero;"/>
        <path d="M383.987,28.91L375.235,28.91C371.623,28.91 368.076,29.184 364.611,29.711C398.26,34.83 424.043,63.887 424.043,98.966L424.043,153.734C424.043,189.663 398.516,219.627 364.611,226.488C369.394,227.456 374.343,227.968 379.412,227.968L379.81,227.968C420.808,227.968 454.043,194.733 454.043,153.735L454.043,98.966C454.043,60.275 422.678,28.91 383.987,28.91Z" style="fill:white;fill-rule:nonzero;"/>
        <path d="M454.322,135.817C466.994,117.458 469.964,99.646 470.672,97.458C477.148,77.457 478.79,13.048 431.022,13.663C297.639,-10.029 278.066,40.702 285.3,62.586C294.069,89.113 321.249,86.967 400.842,80.535C408.218,79.939 397.981,150.931 400.842,157.048C403.703,163.164 416.103,164.19 416.103,164.19C416.103,164.19 421.862,141.862 429.388,130.814C435.89,121.269 449.725,142.477 454.322,135.817Z" style="fill:white;fill-rule:nonzero;"/>
        <path d="M431.022,13.663C399.536,8.07 374.399,6.628 354.452,7.971C368.173,8.758 383.62,10.572 401.022,13.663C448.79,13.048 447.148,77.457 440.672,97.458C439.964,99.646 433.825,93.718 421.154,112.077C417.031,118.05 410.333,130.814 401.619,128.792C400.586,142.646 399.737,154.685 400.842,157.047C403.703,163.163 416.103,164.189 416.103,164.189C416.103,164.189 421.861,141.861 429.388,130.813C435.89,121.268 449.725,142.477 454.322,135.816C466.994,117.457 469.964,99.644 470.672,97.457C477.149,77.457 478.79,13.048 431.022,13.663Z" style="fill:white;fill-rule:nonzero;"/>
        <g transform="matrix(-1,0,0,-1,789.435,979)">
            <rect x="320.717" y="474.5" width="148" height="30" style="fill:white;fill-rule:nonzero;"/>
        </g>
        <rect x="438.717" y="474.5" width="30" height="30" style="fill:white;fill-rule:nonzero;"/>
        <path d="M425.565,145.388C425.565,160.207 436.288,172.22 449.515,172.22C462.743,172.22 470.427,158.424 470.427,143.605C470.427,128.786 462.743,118.555 449.515,118.555C436.288,118.556 425.565,130.569 425.565,145.388Z" style="fill:white;fill-rule:nonzero;"/>
        <path d="M191.283,474.5L43.283,474.5L43.283,298.952C43.283,290.115 50.446,282.952 59.283,282.952L169.283,282.952C181.433,282.952 191.283,292.802 191.283,304.952L191.283,474.5Z" style="fill:white;fill-rule:nonzero;"/>
        <path d="M161.283,282.952L161.283,474.5L191.283,474.5L191.283,304.952C191.283,292.802 181.433,282.952 169.283,282.952L161.283,282.952Z" style="fill:white;fill-rule:nonzero;"/>
        <rect x="81.283" y="192.067" width="60" height="81.548" style="fill:white;fill-rule:nonzero;"/>
        <rect x="111.283" y="192.067" width="30" height="81.548" style="fill:white;fill-rule:nonzero;"/>
        <path d="M133.432,282.952L60.283,282.952L60.283,252.952L114.337,252.952C124.883,252.952 133.433,261.501 133.433,272.048L133.433,282.952L133.432,282.952Z" style="fill:white;fill-rule:nonzero;"/>
        <path d="M133.432,282.952L166.638,282.952L166.638,252.952L152.528,252.952C141.982,252.952 133.432,261.501 133.432,272.048L133.432,282.952Z" style="fill:white;fill-rule:nonzero;"/>
        <path d="M57.957,153.734L57.957,98.966C57.957,60.275 89.322,28.91 128.013,28.91L136.765,28.91C175.456,28.91 206.821,60.275 206.821,98.966L206.821,153.734C206.821,194.732 173.586,227.968 132.587,227.968L132.189,227.968C91.192,227.968 57.957,194.732 57.957,153.734Z" style="fill:white;fill-rule:nonzero;"/>
        <path d="M136.684,28.91L128.096,28.91C124.456,28.91 120.881,29.187 117.39,29.721C151.045,34.864 176.822,63.871 176.822,98.885L176.822,153.821C176.822,189.684 151.301,219.598 117.39,226.478C122.2,227.454 127.179,227.968 132.278,227.968L132.502,227.968C173.548,227.968 206.822,194.771 206.822,153.821L206.822,98.884C206.822,60.239 175.42,28.91 136.684,28.91Z" style="fill:white;fill-rule:nonzero;"/>
        <path d="M57.678,135.817C45.006,117.458 42.036,99.646 41.328,97.458C34.852,77.457 33.21,13.048 80.978,13.663C214.361,-10.029 233.934,40.702 226.7,62.586C217.931,89.113 190.751,86.967 111.158,80.535C103.782,79.939 114.019,150.931 111.158,157.048C108.297,163.164 95.897,164.19 95.897,164.19C95.897,164.19 90.139,141.862 82.612,130.814C76.11,121.269 62.275,142.477 57.678,135.817Z" style="fill:white;fill-rule:nonzero;"/>
        <g>
            <path d="M109.326,82.742C100.783,82.11 83.64,81.846 80.038,92.461C78.572,96.78 78.851,106.813 80.494,128.842C81.26,129.241 81.973,129.874 82.612,130.813C90.138,141.861 95.897,164.189 95.897,164.189C95.897,164.189 108.296,163.163 111.158,157.047C113.705,151.602 105.869,94.73 109.326,82.742Z" style="fill:white;fill-rule:nonzero;"/>
            <path d="M127.611,7.968C192.207,12.301 202.338,45.864 196.81,62.586C192.175,76.606 182.394,82.615 162.454,84.217C203.429,86.191 220.171,82.337 226.701,62.586C232.989,43.561 219.001,2.746 127.611,7.968Z" style="fill:white;fill-rule:nonzero;"/>
        </g>
        <rect x="43.283" y="474.5" width="148" height="30" style="fill:white;fill-rule:nonzero;"/>
        <rect x="161.283" y="474.5" width="30" height="30" style="fill:white;fill-rule:nonzero;"/>
        <path d="M424,504.5L384,504.5L384,302.952C384,291.906 392.954,282.952 404,282.952C415.046,282.952 424,291.906 424,302.952L424,504.5Z" style="fill:white;fill-rule:nonzero;"/>
        <path d="M424,332.952L384,332.952L384,302.952C384,291.906 392.954,282.952 404,282.952C415.046,282.952 424,291.906 424,302.952L424,332.952Z" style="fill:white;fill-rule:nonzero;"/>
        <path d="M274,414.872C274,425.919 265.016,434.873 253.939,434.866L104.812,434.779C94.42,434.773 86,426.371 86,416.009L86,303.414C86,293.243 93.43,284.331 103.555,283.108C110.069,282.321 116.065,284.658 120.235,288.817C123.865,292.437 126.111,297.437 126.111,302.957L126.111,392.058C126.111,393.615 127.377,394.878 128.939,394.878L253.95,394.878C265.023,394.878 274,403.83 274,414.872Z" style="fill:white;fill-rule:nonzero;"/>
        <path d="M126.111,351.571L126.111,302.957C126.111,297.437 123.865,292.437 120.235,288.817C116.065,284.659 110.07,282.321 103.555,283.108C93.43,284.331 86,293.244 86,303.414L86,351.571L126.111,351.571Z" style="fill:white;fill-rule:nonzero;"/>
        <path d="M86.435,145.388C86.435,160.207 75.712,172.22 62.485,172.22C49.258,172.22 41.573,158.424 41.573,143.605C41.573,128.786 49.257,118.555 62.485,118.555C75.713,118.555 86.435,130.569 86.435,145.388Z" style="fill:white;fill-rule:nonzero;"/>
        <g>
            <path d="M457.8,178.359C469.857,174.187 477.966,160.854 477.966,143.622C477.966,134.467 475.439,126.726 470.996,121.092C474.989,111.808 476.78,104.276 477.596,100.84C477.713,100.346 477.799,99.968 477.868,99.719C482.805,84.387 485.13,46.562 468.551,24.077C459.911,12.359 447.185,6.182 431.712,6.182L431.689,6.182C390.068,-1.154 355.8,-1.935 329.821,3.856C325.778,4.757 323.231,8.766 324.133,12.809C325.035,16.851 329.036,19.394 333.088,18.496C357.259,13.106 389.779,13.972 429.743,21.07C430.207,21.152 430.676,21.197 431.151,21.184C442.221,21.065 450.52,24.899 456.476,32.977C469.078,50.067 467.82,82.059 463.574,95.166C463.388,95.739 463.243,96.356 463.001,97.378C462.366,100.054 461.057,105.551 458.366,112.375C455.642,111.524 452.693,111.074 449.552,111.074C438.626,111.074 428.987,117.188 423.346,126.443C423.305,126.499 423.26,126.55 423.221,126.608C417.737,134.657 413.261,147.561 410.835,155.467C409.538,155.029 408.472,154.532 407.898,154.064C407.583,150.03 408.543,137.19 409.257,127.641C411.987,91.11 412.023,80.519 407.076,75.602C405.257,73.795 402.776,72.876 400.265,73.079C320.288,79.539 299.091,80.398 292.43,60.252C290.33,53.9 290.883,40.267 306.274,29.455C309.664,27.074 310.481,22.396 308.1,19.007C305.719,15.618 301.04,14.802 297.65,17.182C277.883,31.067 273.631,51.183 278.186,64.96C281.857,76.06 288.276,83.264 298.679,87.449C298.088,91.209 297.754,95.026 297.689,98.858C297.688,98.9 297.688,98.943 297.688,98.985L297.688,153.75C297.688,193.274 325.896,226.328 363.239,233.863L363.239,245.733C362.014,245.56 360.765,245.464 359.493,245.464L345.38,245.464C341.237,245.464 337.879,248.821 337.879,252.964L337.879,275.868C323.914,278.192 313.232,290.349 313.232,304.96L313.232,387.376L253.682,387.376C253.63,387.376 253.579,387.383 253.527,387.384L198.77,387.384L198.77,304.96C198.77,290.349 188.088,278.192 174.123,275.868L174.123,252.964C174.123,248.822 170.765,245.464 166.622,245.464L152.509,245.464C151.237,245.464 149.988,245.559 148.763,245.733L148.763,233.863C186.107,226.328 214.314,193.274 214.314,153.75L214.314,98.984C214.314,95.1 214.019,91.222 213.445,87.398C223.775,83.206 230.16,76.016 233.816,64.96C237.052,55.174 236.33,39.894 224.602,26.353C208.96,8.291 171.226,-9.839 80.312,6.182L80.29,6.182C64.818,6.182 52.09,12.359 43.45,24.077C26.871,46.562 29.197,84.388 34.132,99.718C34.2,99.966 34.287,100.344 34.404,100.837C35.226,104.298 37.01,111.813 41.003,121.095C36.561,126.729 34.035,134.469 34.035,143.622C34.035,160.859 42.147,174.193 54.209,178.362C58.151,190.886 64.942,201.957 73.752,210.942L73.752,245.464L60.248,245.464C56.105,245.464 52.747,248.821 52.747,252.964L52.747,276.382C42.939,279.209 35.742,288.257 35.742,298.96L35.742,319.471C35.742,323.613 39.1,326.971 43.243,326.971C47.386,326.971 50.744,323.614 50.744,319.471L50.744,298.96C50.744,294.274 54.558,290.46 59.245,290.46L81.598,290.462C79.598,294.351 78.468,298.765 78.468,303.423L78.468,416.013C78.468,430.49 90.272,442.275 104.78,442.282L183.766,442.328L183.766,467.002L50.745,467.002L50.745,351.578C50.745,347.436 47.387,344.078 43.244,344.078C39.101,344.078 35.743,347.435 35.743,351.578L35.743,474.501C35.743,474.514 35.745,474.527 35.745,474.54L35.745,504.5C35.745,508.642 39.103,512 43.246,512L191.271,512C195.414,512 198.772,508.643 198.772,504.5L198.772,474.501C198.772,474.488 198.77,474.475 198.77,474.462L198.77,442.336L253.618,442.368C253.645,442.368 253.672,442.372 253.699,442.372L253.705,442.372L313.229,442.328L313.229,504.5C313.229,508.642 316.587,512 320.73,512L468.755,512C472.898,512 476.256,508.643 476.256,504.5L476.256,447.157C476.256,443.015 472.898,439.657 468.755,439.657C464.612,439.657 461.254,443.014 461.254,447.157L461.254,467.002L431.53,467.002L431.53,302.961C431.53,298.461 430.436,294.215 428.512,290.462L452.754,290.46C457.441,290.46 461.255,294.273 461.255,298.96L461.255,416.082C461.255,420.224 464.613,423.582 468.756,423.582C472.899,423.582 476.257,420.225 476.257,416.082L476.257,298.96C476.257,288.257 469.06,279.208 459.252,276.382L459.252,252.964C459.252,248.822 455.894,245.464 451.751,245.464L438.249,245.464L438.249,210.905C447.059,201.922 453.861,190.864 457.8,178.359ZM183.77,497.001L50.747,497.001L50.747,482.002L183.77,482.002L183.77,497.001ZM449.549,126.073C461.657,126.073 462.963,138.346 462.963,143.622C462.963,153.858 458.262,164.736 449.549,164.736C440.477,164.736 433.096,156.064 433.096,145.404C433.096,134.744 440.477,126.073 449.549,126.073ZM312.687,153.75L312.687,99.05C312.735,96.379 312.955,93.723 313.314,91.096C314.095,91.202 314.886,91.304 315.696,91.393C333.469,93.361 358.608,91.485 396.01,88.469C396.512,96.818 395.159,114.928 394.292,126.522C392.535,150.036 392.284,156.419 394.072,160.24C398.549,169.81 412.717,171.447 415.511,171.678C415.72,171.696 415.927,171.703 416.134,171.703C419.524,171.703 422.531,169.41 423.392,166.078C423.481,165.734 423.584,165.348 423.697,164.93C427.956,171.625 434.334,176.597 441.767,178.669C431.728,203.644 407.314,220.479 379.83,220.479L379.431,220.479C342.629,220.481 312.687,190.546 312.687,153.75ZM359.49,260.463C365.885,260.463 371.088,265.665 371.088,272.058L371.088,275.46L352.879,275.46L352.879,260.463L359.49,260.463ZM328.232,304.959C328.232,296.964 334.738,290.46 342.734,290.46L379.538,290.462C377.613,294.215 376.52,298.462 376.52,302.961L376.52,467.002L328.231,467.002L328.231,304.959L328.232,304.959ZM159.121,260.463L159.121,275.46L140.912,275.46L140.912,272.058C140.912,265.665 146.115,260.463 152.51,260.463L159.121,260.463ZM199.312,98.984L199.312,153.75C199.312,190.545 169.37,220.48 132.567,220.48L132.168,220.48C104.62,220.48 80.258,203.664 70.228,178.671C77.662,176.599 84.041,171.627 88.301,164.932C88.414,165.348 88.517,165.734 88.605,166.077C89.465,169.411 92.472,171.704 95.864,171.704C96.07,171.704 96.278,171.696 96.487,171.679C99.281,171.448 113.449,169.811 117.926,160.241C119.714,156.419 119.463,150.036 117.706,126.523C116.839,114.929 115.486,96.819 115.988,88.47C153.391,91.485 178.531,93.36 196.302,91.394C197.152,91.3 197.98,91.193 198.798,91.08C199.129,93.696 199.312,96.336 199.312,98.984ZM55.526,32.977C61.376,25.043 69.471,21.18 80.261,21.18C80.456,21.18 80.654,21.182 80.851,21.184C81.322,21.198 81.795,21.152 82.259,21.07C171.184,5.275 202.507,23.752 213.262,36.172C220.879,44.965 221.515,54.376 219.573,60.252C212.913,80.401 191.718,79.541 111.738,73.08C109.227,72.882 106.745,73.797 104.927,75.603C99.98,80.52 100.016,91.111 102.746,127.642C103.46,137.19 104.42,150.031 104.105,154.065C103.531,154.534 102.464,155.03 101.168,155.469C98.743,147.562 94.266,134.658 88.782,126.609C88.743,126.551 88.697,126.5 88.657,126.443C83.016,117.188 73.378,111.074 62.452,111.074C59.31,111.074 56.361,111.524 53.637,112.375C50.947,105.556 49.641,100.07 49.003,97.375C48.761,96.356 48.615,95.74 48.429,95.166C44.182,82.059 42.924,50.067 55.526,32.977ZM62.451,126.073C71.523,126.073 78.904,134.744 78.904,145.404C78.904,156.064 71.523,164.736 62.451,164.736C53.738,164.736 49.037,153.858 49.037,143.622C49.037,138.346 50.343,126.073 62.451,126.073ZM88.753,223.006C101.439,230.951 116.372,235.48 132.169,235.48L132.568,235.48C132.968,235.48 133.363,235.456 133.762,235.45L133.762,253.213C133.643,253.332 133.528,253.455 133.411,253.576C128.572,248.58 121.801,245.465 114.312,245.465L88.753,245.465L88.753,223.006ZM114.311,260.463C120.706,260.463 125.909,265.665 125.909,272.058L125.909,275.46L67.75,275.46L67.75,260.463L114.311,260.463ZM169.265,290.46C177.261,290.46 183.767,296.965 183.767,304.959L183.767,387.383L133.59,387.383L133.59,302.966C133.59,298.545 132.544,294.287 130.58,290.462L169.265,290.46ZM118.588,344.079L93.472,344.079L93.472,303.424C93.472,296.847 98.182,291.319 104.428,290.565C104.956,290.501 105.482,290.469 106.004,290.469C109.352,290.469 112.533,291.764 114.914,294.139C117.283,296.499 118.587,299.635 118.587,302.967L118.587,344.079L118.588,344.079ZM93.472,416.013L93.472,359.078L118.588,359.078L118.588,392.064C118.588,397.754 123.222,402.383 128.917,402.383L191.231,402.383C191.244,402.383 191.257,402.385 191.27,402.385C191.283,402.385 191.296,402.383 191.309,402.383L253.951,402.383C260.872,402.383 266.503,407.987 266.503,414.877C266.503,418.212 265.199,421.347 262.831,423.707C260.46,426.07 257.307,427.371 253.952,427.371L253.943,427.371L104.79,427.284C98.549,427.279 93.472,422.224 93.472,416.013ZM278.509,427.355C280.463,423.537 281.504,419.288 281.504,414.876C281.504,410.375 280.408,406.128 278.478,402.375L313.229,402.375L313.229,427.33L278.509,427.355ZM328.232,482.001L376.521,482.001L376.521,497L328.232,497L328.232,482.001ZM391.523,497.001L391.523,340.46L416.527,340.46L416.527,497.001L391.523,497.001ZM461.255,482.001L461.255,497L431.53,497L431.53,482.001L461.255,482.001ZM416.528,302.961L416.528,325.46L391.524,325.46L391.524,302.961C391.524,296.069 397.132,290.462 404.026,290.462C410.92,290.462 416.528,296.069 416.528,302.961ZM444.25,275.461L386.091,275.461L386.091,272.059C386.091,265.666 391.294,260.464 397.689,260.464L444.251,260.464L444.251,275.461L444.25,275.461ZM397.688,245.464C390.199,245.464 383.428,248.579 378.589,253.575C378.472,253.454 378.358,253.331 378.238,253.212L378.238,235.45C378.637,235.456 379.031,235.48 379.432,235.48L379.831,235.48C395.606,235.48 410.547,230.938 423.247,222.976L423.247,245.464L397.688,245.464Z" style="fill:rgb(254,36,78);fill-rule:nonzero;"/>
            <path d="M332.201,119.947C328.058,119.947 324.7,123.304 324.7,127.447L324.7,134.214C324.7,138.356 328.058,141.714 332.201,141.714C336.344,141.714 339.702,138.357 339.702,134.214L339.702,127.447C339.703,123.304 336.345,119.947 332.201,119.947Z" style="fill:rgb(254,36,78);fill-rule:nonzero;"/>
            <path d="M179.798,119.947C175.655,119.947 172.297,123.304 172.297,127.447L172.297,134.214C172.297,138.356 175.655,141.714 179.798,141.714C183.941,141.714 187.299,138.357 187.299,134.214L187.299,127.447C187.3,123.304 183.942,119.947 179.798,119.947Z" style="fill:rgb(254,36,78);fill-rule:nonzero;"/>
        </g>
    </g>
</svg>
