<?xml version="1.0" encoding="UTF-8" standalone="no"?>
<!DOCTYPE svg PUBLIC "-//W3C//DTD SVG 1.1//EN" "http://www.w3.org/Graphics/SVG/1.1/DTD/svg11.dtd">
<svg width="100%" height="100%" viewBox="0 0 512 512" version="1.1" xmlns="http://www.w3.org/2000/svg" xmlns:xlink="http://www.w3.org/1999/xlink" xml:space="preserve" xmlns:serif="http://www.serif.com/" style="fill-rule:evenodd;clip-rule:evenodd;stroke-linejoin:round;stroke-miterlimit:2;">
    <g id="_116---Scales" serif:id="116---Scales">
        <path id="Shape" d="M384,477.867L128,477.867C123.287,477.867 119.467,481.687 119.467,486.4L119.467,494.933C119.467,504.359 127.108,512 136.533,512L375.467,512C384.892,512 392.533,504.359 392.533,494.933L392.533,486.4C392.533,481.687 388.713,477.867 384,477.867Z" style="fill:rgb(254,36,78);fill-rule:nonzero;"/>
        <path id="Shape1" serif:id="Shape" d="M162.133,460.8L349.867,460.8C349.867,432.523 326.944,409.6 298.667,409.6L213.333,409.6C185.056,409.6 162.133,432.523 162.133,460.8Z" style="fill:rgb(254,36,78);fill-rule:nonzero;"/>
        <path id="Shape2" serif:id="Shape" d="M273.067,85.333L273.067,17.067C273.091,12.539 271.273,8.196 268.032,5.035C264.871,1.793 260.528,-0.024 256,0C246.586,0.028 238.961,7.653 238.933,17.067L238.933,392.533L273.067,392.533L273.067,85.333Z" style="fill:rgb(254,36,78);fill-rule:nonzero;"/>
        <path id="Shape3" serif:id="Shape" d="M25.6,85.333L60.757,85.333C66.906,91.307 74.32,95.822 82.449,98.543L20.053,238.933L38.741,238.933L93.867,114.859L148.992,238.933L167.68,238.933L105.498,99.029C113.879,96.528 121.422,91.794 127.317,85.333L221.867,85.333L221.867,51.2L119.467,51.2C114.099,51.217 109.048,53.743 105.813,58.027C103.509,61.099 98.987,66.304 94.891,66.389L94.805,66.389C89.646,65.239 85.072,62.271 81.92,58.027C78.685,53.743 73.634,51.217 68.267,51.2L25.6,51.2C16.174,51.2 8.533,58.841 8.533,68.267C8.533,77.692 16.174,85.333 25.6,85.333Z" style="fill:rgb(254,36,78);fill-rule:nonzero;"/>
        <path id="Shape4" serif:id="Shape" d="M406.502,99.029L344.32,238.933L363.008,238.933L418.133,114.859L473.259,238.933L491.947,238.933L429.551,98.543C437.68,95.822 445.094,91.307 451.243,85.333L486.4,85.333C495.826,85.333 503.467,77.692 503.467,68.267C503.467,58.841 495.826,51.2 486.4,51.2L443.733,51.2C438.366,51.217 433.315,53.743 430.08,58.027C426.928,62.271 422.354,65.239 417.195,66.389L417.109,66.389C413.013,66.304 408.491,61.099 406.187,58.027C402.952,53.743 397.901,51.217 392.533,51.2L290.133,51.2L290.133,85.333L384.683,85.333C390.578,91.794 398.121,96.528 406.502,99.029Z" style="fill:rgb(254,36,78);fill-rule:nonzero;"/>
        <path id="Shape5" serif:id="Shape" d="M179.2,298.667L179.2,264.533C179.2,259.821 175.379,256 170.667,256L17.067,256C12.354,256 8.533,259.821 8.533,264.533L8.533,298.667C8.533,309.983 13.029,320.835 21.03,328.837C29.032,336.838 39.884,341.333 51.2,341.333L136.533,341.333C160.097,341.333 179.2,322.231 179.2,298.667Z" style="fill:rgb(254,36,78);fill-rule:nonzero;"/>
        <path id="Shape6" serif:id="Shape" d="M494.933,256L341.333,256C336.621,256 332.8,259.821 332.8,264.533L332.8,298.667C332.8,322.231 351.903,341.333 375.467,341.333L460.8,341.333C484.364,341.333 503.467,322.231 503.467,298.667L503.467,264.533C503.467,259.821 499.646,256 494.933,256Z" style="fill:rgb(254,36,78);fill-rule:nonzero;"/>
    </g>
</svg>
