<?xml version="1.0" encoding="UTF-8" standalone="no"?>
<!DOCTYPE svg PUBLIC "-//W3C//DTD SVG 1.1//EN" "http://www.w3.org/Graphics/SVG/1.1/DTD/svg11.dtd">
<svg width="100%" height="100%" viewBox="0 0 480 480" version="1.1" xmlns="http://www.w3.org/2000/svg" xmlns:xlink="http://www.w3.org/1999/xlink" xml:space="preserve" xmlns:serif="http://www.serif.com/" style="fill-rule:evenodd;clip-rule:evenodd;stroke-linejoin:round;stroke-miterlimit:2;">
    <path d="M344,232L344,192L320,192L278.48,230.32L280,232L344,232Z" style="fill:rgb(254,254,254);fill-rule:nonzero;"/>
    <path d="M448,232L380.426,232L344,272.961L344,288L216,288L192,264L166.879,279.121L128,248L104.961,265.281L96,272L80,264L68.961,271.359L32,264L24,280L40,312L216,312L212.16,344.48L208,344L27.762,344L40,448L56,448C56,434.746 66.746,424 80,424C93.254,424 104,434.746 104,448L136,448C136,434.746 146.746,424 160,424C173.254,424 184,434.746 184,448L200,448L208.48,376L288,376L288,472L352,472L352,408L408,408L408,472L472,472L472,288L448,288L448,232ZM352,352L320,352L320,320L352,320L352,352ZM440,352L408,352L408,320L440,320L440,352Z" style="fill:rgb(254,254,254);fill-rule:nonzero;"/>
    <path d="M192,112L200,80L120,80L128,112L192,112Z" style="fill:rgb(254,254,254);fill-rule:nonzero;"/>
    <g>
        <path d="M472,280L456,280L456,192C456,187.582 452.418,184 448,184L416,184C413.719,184 411.543,184.977 410.023,186.68L352,251.93L352,192C352,187.582 348.418,184 344,184L320,184C317.988,184 316.055,184.758 314.574,186.121L224.297,269.457L200.152,112.383L207.762,81.984C208.375,79.59 207.844,77.043 206.328,75.09C204.809,73.137 202.473,71.996 200,72L120,72C117.535,72 115.211,73.137 113.691,75.078C112.176,77.02 111.641,79.555 112.238,81.945L119.84,112.344L96.246,261.816L95.16,262.617L83.574,256.801C81.012,255.523 77.961,255.715 75.574,257.305L67.258,262.848L33.602,256.16C30.063,255.449 26.488,257.195 24.871,260.426L16.871,276.426C15.746,278.676 15.746,281.324 16.871,283.574L27.055,304L24,304C21.715,304 19.539,304.977 18.023,306.684C16.504,308.391 15.789,310.668 16.055,312.938L32.055,448.938C32.531,452.965 35.945,456 40,456L49.137,456C49.898,458.809 51.039,461.5 52.527,464L0,464L0,480L472,480C476.418,480 480,476.418 480,472L480,288C480,283.582 476.418,280 472,280ZM419.594,200L440,200L440,224L398.246,224L419.594,200ZM352,276L384,240L440,240L440,280L352,280L352,276ZM323.129,200L336,200L336,224L297.129,224L323.129,200ZM280,239.809L280,240L336,240L336,280L236.465,280L280,239.809ZM220.281,296L280,296L280,368L217.465,368L223.945,312.938C224.211,310.668 223.496,308.391 221.977,306.684C220.461,304.977 218.285,304 216,304L214.945,304L220.281,296ZM224,464L187.473,464C188.961,461.5 190.102,458.809 190.863,456L200,456C204.055,456 207.469,452.965 207.945,448.938L215.586,384L224,384L224,464ZM144,448C144,439.164 151.164,432 160,432C168.836,432 176,439.164 176,448C176,456.836 168.836,464 160,464C151.164,464 144,456.836 144,448ZM189.754,88L185.754,104L134.246,104L130.246,88L189.754,88ZM134.832,120L144,120L144,136L160,136L160,120L168,120L168,152L184,152L184,120L185.137,120L208,268.68L197.664,258.344C195.066,255.746 191.035,255.254 187.887,257.145L167.52,269.367L133.008,241.754C130.156,239.469 126.121,239.406 123.199,241.602L114.617,248L134.832,120ZM205.703,289.016L195.719,304L165.77,304L161.602,291.559L190.742,274.07L205.703,289.016ZM127.84,258.121L152.879,278.121L147.879,281.121C144.668,283.051 143.227,286.949 144.406,290.504L148.895,304L120,304L120,280C120.016,276.953 118.301,274.16 115.574,272.801L111.152,270.594L127.84,258.121ZM64,284.281L80.574,273.23L104,284.945L104,304L64,304L64,284.281ZM36.426,273.078L49.367,275.672C48.5,276.949 48.023,278.453 48,280L48,304L44.945,304L32.945,280L36.426,273.078ZM33,320L207,320L205.121,336L34.879,336L33,320ZM47.113,440L36.801,352L203.281,352L192.887,440L190.863,440C187.273,425.887 174.563,416.008 160,416.008C145.438,416.008 132.727,425.887 129.137,440L110.863,440C107.273,425.887 94.563,416.008 80,416.008C65.438,416.008 52.727,425.887 49.137,440L47.113,440ZM132.527,464L107.473,464C108.961,461.5 110.102,458.809 110.863,456L129.137,456C129.898,458.809 131.039,461.5 132.527,464ZM64,448C64,439.164 71.164,432 80,432C88.836,432 96,439.164 96,448C96,456.836 88.836,464 80,464C71.164,464 64,456.836 64,448ZM240,464L240,384L280,384L280,400L264,400L264,416L280,416L280,432L264,432L264,448L280,448L280,464L240,464ZM400,464L360,464L360,416L400,416L400,464ZM464,464L416,464L416,408C416,403.582 412.418,400 408,400L352,400C347.582,400 344,403.582 344,408L344,464L296,464L296,296L464,296L464,464Z" style="fill:rgb(254,36,78);fill-rule:nonzero;"/>
        <path d="M352,312L320,312C315.582,312 312,315.582 312,320L312,352C312,356.418 315.582,360 320,360L352,360C356.418,360 360,356.418 360,352L360,320C360,315.582 356.418,312 352,312ZM344,344L328,344L328,328L344,328L344,344Z" style="fill:rgb(254,36,78);fill-rule:nonzero;"/>
        <path d="M408,360L440,360C444.418,360 448,356.418 448,352L448,320C448,315.582 444.418,312 440,312L408,312C403.582,312 400,315.582 400,320L400,352C400,356.418 403.582,360 408,360ZM416,328L432,328L432,344L416,344L416,328Z" style="fill:rgb(254,36,78);fill-rule:nonzero;"/>
        <path d="M168,48L168,64L184,64L184,56L200,56C204.418,56 208,52.418 208,48L208,32L192,32L192,40L176,40C171.582,40 168,43.582 168,48Z" style="fill:rgb(254,36,78);fill-rule:nonzero;"/>
        <path d="M152,48L152,32L168,32C172.418,32 176,28.418 176,24L176,0L160,0L160,16L144,16C139.582,16 136,19.582 136,24L136,64L152,64L152,48Z" style="fill:rgb(254,36,78);fill-rule:nonzero;"/>
        <rect x="192" y="0" width="16" height="16" style="fill:rgb(254,36,78);fill-rule:nonzero;"/>
    </g>
</svg>
