<?xml version="1.0" encoding="UTF-8" standalone="no"?>
<!DOCTYPE svg PUBLIC "-//W3C//DTD SVG 1.1//EN" "http://www.w3.org/Graphics/SVG/1.1/DTD/svg11.dtd">
<svg width="100%" height="100%" viewBox="0 0 512 512" version="1.1" xmlns="http://www.w3.org/2000/svg" xmlns:xlink="http://www.w3.org/1999/xlink" xml:space="preserve" xmlns:serif="http://www.serif.com/" style="fill-rule:evenodd;clip-rule:evenodd;stroke-linejoin:round;stroke-miterlimit:2;">
    <g>
        <path d="M486.926,25.074C463.494,1.642 425.505,1.642 402.073,25.074L212.313,214.834C195.334,208.165 176.845,204.501 157.499,204.501C74.656,204.501 7.499,271.658 7.499,354.501C7.499,437.344 74.656,504.501 157.499,504.501C240.342,504.501 307.499,437.344 307.499,354.501C307.499,335.156 303.835,316.666 297.166,299.687L486.926,109.927C510.358,86.495 510.358,48.505 486.926,25.074Z" style="fill:white;fill-rule:nonzero;"/>
        <path d="M444.5,47.5C441.406,47.5 435.455,48.261 430.358,53.358L377.671,106.045L405.955,134.329L458.643,81.641C463.74,76.544 464.501,70.593 464.501,67.499C464.501,64.405 463.74,58.454 458.643,53.357C453.545,48.261 447.594,47.5 444.5,47.5Z" style="fill:white;fill-rule:nonzero;"/>
        <path d="M137.5,484.5C137.5,473.454 146.454,464.5 157.5,464.5L157.5,244.5C146.454,244.5 137.5,235.546 137.5,224.5C137.5,213.454 146.454,204.5 157.5,204.5C74.657,204.5 7.5,271.657 7.5,354.5C7.5,437.343 74.657,504.5 157.5,504.5C146.454,504.5 137.5,495.546 137.5,484.5Z" style="fill:white;fill-rule:nonzero;"/>
        <path d="M408.5,103.5C400.69,95.69 388.026,95.69 380.216,103.5L219.812,263.904C201.08,250.98 178.166,243.702 153.545,244.57C96.021,246.599 49.422,293.336 47.558,350.866C45.5,414.387 97.613,466.5 161.134,464.441C218.664,462.577 265.401,415.978 267.429,358.454C268.297,333.834 261.02,310.92 248.095,292.188L408.5,131.784C416.31,123.974 416.31,111.31 408.5,103.5Z" style="fill:white;fill-rule:nonzero;"/>
        <path d="M198,424C137.346,424 88,374.654 88,314C88,294.047 93.341,275.319 102.667,259.167C69.721,278.191 47.5,313.799 47.5,354.5C47.5,415.154 96.846,464.5 157.5,464.5C198.201,464.5 233.809,442.279 252.833,409.333C236.681,418.659 217.953,424 198,424Z" style="fill:rgb(254,36,78);fill-rule:nonzero;"/>
        <g>
            <path d="M512,67.5C512,49.47 504.979,32.52 492.229,19.771C479.479,7.022 462.53,0 444.5,0C426.47,0 409.52,7.021 396.771,19.771L210.424,206.116C193.472,200.064 175.693,197 157.5,197C70.654,197 0,267.654 0,354.5C0,390.767 12.627,426.169 35.556,454.186C38.18,457.392 42.906,457.864 46.11,455.24C49.316,452.616 49.787,447.891 47.164,444.686C26.423,419.342 15,387.313 15,354.5C15,275.925 78.925,212 157.5,212C175.473,212 192.992,215.302 209.572,221.814C212.348,222.905 215.508,222.246 217.617,220.136L407.377,30.377C417.293,20.461 430.477,15 444.5,15C458.523,15 471.707,20.461 481.623,30.377C491.539,40.293 497,53.477 497,67.5C497,81.523 491.539,94.707 481.623,104.623L291.864,294.383C289.755,296.492 289.096,299.652 290.186,302.428C296.698,319.008 300,336.528 300,354.5C300,433.075 236.075,497 157.5,497C124.765,497 92.796,485.626 67.482,464.974C64.273,462.355 59.547,462.835 56.93,466.044C54.311,469.253 54.79,473.978 58,476.596C85.983,499.427 121.319,512 157.5,512C244.346,512 315,441.346 315,354.5C315,336.307 311.936,318.528 305.884,301.576L492.23,115.23C504.979,102.48 512,85.53 512,67.5Z" style="fill:rgb(254,36,78);fill-rule:nonzero;"/>
            <path d="M362.756,166.922C359.827,169.851 359.827,174.6 362.756,177.528C365.685,180.457 370.434,180.457 373.362,177.528L463.945,86.945C470.954,79.937 472,71.754 472,67.5C472,63.246 470.954,55.063 463.945,48.055C456.937,41.046 448.754,40 444.5,40C440.246,40 432.063,41.046 425.055,48.055L218.81,254.3C199.125,242.193 176.604,236.253 153.282,237.075C91.787,239.243 42.056,289.12 40.063,350.623C39,383.439 51.212,414.31 74.451,437.548C96.757,459.854 126.092,472.001 157.431,472.001C158.742,472.001 160.059,471.98 161.377,471.937C222.88,469.944 272.756,420.213 274.925,358.718C275.748,335.398 269.807,312.875 257.7,293.191L352.148,198.742C355.077,195.813 355.077,191.064 352.148,188.136C349.219,185.207 344.47,185.207 341.542,188.136L242.793,286.886C240.233,289.446 239.867,293.469 241.923,296.449C254.488,314.661 260.716,336.011 259.935,358.192C258.043,411.831 214.538,455.209 160.892,456.947C132.25,457.874 105.333,447.22 85.058,426.944C64.783,406.669 54.128,379.737 55.056,351.111C56.794,297.465 100.172,253.96 153.811,252.068C175.991,251.289 197.341,257.514 215.555,270.08C218.534,272.136 222.557,271.769 225.117,269.21L382.975,111.352L385.521,108.806C390.395,103.932 398.325,103.932 403.198,108.806C405.559,111.167 406.859,114.306 406.859,117.645C406.859,120.983 405.559,124.123 403.198,126.483L362.756,166.922ZM402.831,91.492L435.661,58.662C438.847,55.476 442.566,55 444.5,55C446.434,55 450.153,55.476 453.338,58.661C456.524,61.847 457,65.566 457,67.5C457,69.434 456.524,73.153 453.339,76.338L420.522,109.155C419.201,105.068 416.928,101.321 413.803,98.196C410.622,95.015 406.846,92.785 402.831,91.492Z" style="fill:rgb(254,36,78);fill-rule:nonzero;"/>
        </g>
    </g>
</svg>
