<?xml version="1.0" encoding="UTF-8" standalone="no"?>
<!DOCTYPE svg PUBLIC "-//W3C//DTD SVG 1.1//EN" "http://www.w3.org/Graphics/SVG/1.1/DTD/svg11.dtd">
<svg width="100%" height="100%" viewBox="0 0 512 512" version="1.1" xmlns="http://www.w3.org/2000/svg" xmlns:xlink="http://www.w3.org/1999/xlink" xml:space="preserve" xmlns:serif="http://www.serif.com/" style="fill-rule:evenodd;clip-rule:evenodd;stroke-linejoin:round;stroke-miterlimit:2;">
    <path d="M349.748,217.372L349.748,187.552C349.669,121.582 322.068,58.549 273.644,13.748L260.744,1.844C258.078,-0.615 253.918,-0.615 251.252,1.844L238.352,13.748C189.931,58.551 162.331,121.583 162.248,187.552L162.248,217.372C162.249,219.126 162.909,220.817 164.096,222.108L189.2,249.424L167.3,255.776C164.317,256.642 162.249,259.394 162.248,262.5L162.248,287.492C162.248,289.006 162.741,290.479 163.652,291.688L185.284,320.54L168.688,321.876C165.071,322.166 162.249,325.223 162.248,328.852L162.248,364.4C162.288,385.806 174.784,405.335 194.204,414.34L233.004,432.244L233.004,505C233.006,508.838 236.162,511.996 240,512L272,512C275.84,512 279,508.84 279,505L279,432.232L317.8,414.328C337.212,405.322 349.704,385.799 349.748,364.4L349.748,328.852C349.749,325.224 346.928,322.166 343.312,321.876L326.72,320.54L348.352,291.688C349.258,290.477 349.747,289.004 349.748,287.492L349.748,262.5C349.749,259.394 347.683,256.642 344.7,255.776L322.8,249.424L347.908,222.108C349.091,220.815 349.748,219.125 349.748,217.372ZM265,498L247,498L247,227.356C247,225.175 247.047,223 247.14,220.832C247.796,205.685 250.785,190.728 256,176.492C261.968,192.785 265.014,210.004 265,227.356L265,498ZM335.748,214.644L304.852,248.264C303.662,249.555 303.002,251.248 303.002,253.004C303.002,256.109 305.069,258.86 308.052,259.724L335.744,267.76L335.744,285.16L307.896,322.3C306.986,323.512 306.493,324.987 306.493,326.502C306.493,330.13 309.315,333.187 312.932,333.476L335.732,335.312L335.732,364.4C335.705,380.357 326.389,394.916 311.912,401.628L278.984,416.828L278.984,227.356C278.997,206.733 275.059,186.297 267.384,167.156L262.472,154.856C261.412,152.203 258.829,150.454 255.972,150.454C253.115,150.454 250.532,152.203 249.472,154.856L244.556,167.156C236.881,186.297 232.943,206.733 232.956,227.356L232.956,416.8L200.028,401.6C185.576,394.88 176.28,380.338 176.248,364.4L176.248,335.312L199.048,333.476C202.665,333.185 205.487,330.127 205.487,326.499C205.487,324.985 204.996,323.511 204.088,322.3L176.248,285.16L176.248,267.76L203.948,259.724C206.93,258.858 208.995,256.107 208.995,253.002C208.995,251.247 208.336,249.556 207.148,248.264L176.244,214.644L176.244,187.552C176.321,125.488 202.288,66.186 247.844,24.036L256,16.512L264.152,24.036C309.708,66.186 335.675,125.488 335.752,187.552L335.748,214.644Z" style="fill:rgb(254,36,78);fill-rule:nonzero;"/>
</svg>
