<?xml version="1.0" encoding="UTF-8" standalone="no"?>
<!DOCTYPE svg PUBLIC "-//W3C//DTD SVG 1.1//EN" "http://www.w3.org/Graphics/SVG/1.1/DTD/svg11.dtd">
<svg width="100%" height="100%" viewBox="0 0 512 512" version="1.1" xmlns="http://www.w3.org/2000/svg" xmlns:xlink="http://www.w3.org/1999/xlink" xml:space="preserve" xmlns:serif="http://www.serif.com/" style="fill-rule:evenodd;clip-rule:evenodd;stroke-linejoin:round;stroke-miterlimit:2;">
    <path d="M255.877,59.771L220.467,59.771C210.774,59.78 201.909,54.293 197.6,45.607L179.083,8.575L322.858,8.575C351.135,8.575 374.054,31.494 374.054,59.771L255.877,59.771Z" style="fill:white;fill-rule:nonzero;"/>
    <path d="M234.46,217.625C242.25,226.968 252.745,233.675 264.495,236.823L264.41,237.164L264.41,264.554C264.41,283.403 279.692,298.684 298.54,298.684C317.389,298.684 332.67,283.402 332.67,264.554L332.67,236.055C341.697,233.197 349.897,228.196 356.561,221.464L366.8,221.891C370.785,226.541 374.172,231.669 376.868,237.164C376.868,237.249 376.953,237.335 376.953,237.42L383.523,258.752C383.856,260.672 384.052,262.609 384.12,264.554C385.554,287.328 376.193,309.444 358.863,324.282C358.607,324.453 358.436,324.709 358.18,324.794C356.96,325.886 355.68,326.919 354.34,327.866C335.355,341.732 324.134,363.831 324.134,387.338L324.134,503.467L272.938,503.467L272.938,387.338C272.938,363.831 261.718,341.731 242.733,327.866C241.393,326.919 240.113,325.886 238.893,324.794C238.637,324.709 238.466,324.453 238.21,324.282C213.61,303.215 205.923,268.419 219.353,238.956C222.194,232.795 225.872,227.053 230.275,221.891L234.46,217.625Z" style="fill:white;fill-rule:nonzero;"/>
    <g>
        <path d="M220.466,162.162L220.466,59.771L374.053,59.771L374.053,162.162C373.712,167.273 373.712,172.41 374.053,177.521L374.053,179.228C374.096,195.073 367.799,210.287 356.561,221.464C349.897,228.196 341.697,233.196 332.67,236.055C326.748,237.975 320.554,238.956 314.325,238.956L280.195,238.956C274.888,238.947 269.606,238.231 264.495,236.823C252.746,233.674 242.25,226.968 234.46,217.625C225.629,207.121 220.688,193.887 220.467,180.167L220.466,162.162ZM246.064,123.766C246.064,130.831 251.798,136.565 258.863,136.565C265.928,136.565 271.662,130.831 271.662,123.766C271.662,116.701 265.928,110.967 258.863,110.967C251.798,110.967 246.064,116.701 246.064,123.766ZM348.456,123.766C348.456,116.701 342.722,110.967 335.657,110.967C328.592,110.967 322.858,116.701 322.858,123.766C322.858,130.831 328.592,136.565 335.657,136.565C342.722,136.565 348.456,130.831 348.456,123.766Z" style="fill:white;fill-rule:nonzero;"/>
        <path d="M264.409,264.554L264.409,237.164L264.494,236.823C269.605,238.231 274.887,238.948 280.194,238.956L314.324,238.956C320.553,238.956 326.748,237.975 332.669,236.055L332.669,264.554C332.669,283.403 317.387,298.684 298.539,298.684C279.691,298.684 264.409,283.403 264.409,264.554Z" style="fill:white;fill-rule:nonzero;"/>
    </g>
    <g>
        <path d="M400.931,315.75L400.931,503.468L358.268,503.468L358.268,324.88L358.183,324.795C358.439,324.71 358.61,324.454 358.866,324.283C376.196,309.445 385.556,287.328 384.123,264.555C384.524,264.538 384.925,264.572 385.318,264.64L400.931,315.75Z" style="fill:white;fill-rule:nonzero;"/>
        <path d="M186.165,270.953L179.083,238.956L219.357,238.956C205.927,268.419 213.615,303.215 238.214,324.282C238.47,324.453 238.641,324.709 238.897,324.794L238.812,324.879L238.812,503.467L196.149,503.467L196.149,315.75L186.165,270.953Z" style="fill:white;fill-rule:nonzero;"/>
    </g>
    <g>
        <path d="M443.594,324.282L443.594,503.467L400.931,503.467L400.931,315.75L385.316,264.64C417.732,265.356 443.628,291.858 443.594,324.282Z" style="fill:white;fill-rule:nonzero;"/>
        <path d="M354.343,327.866C355.683,326.919 356.963,325.886 358.183,324.794L358.268,324.879L358.268,503.467L324.138,503.467L324.138,387.338C324.138,363.831 335.358,341.732 354.343,327.866Z" style="fill:white;fill-rule:nonzero;"/>
        <path d="M238.811,503.467L238.811,324.88L238.896,324.795C240.116,325.887 241.396,326.92 242.736,327.867C261.721,341.733 272.941,363.832 272.941,387.339L272.941,503.468L238.811,503.467Z" style="fill:white;fill-rule:nonzero;"/>
        <path d="M196.148,315.75L196.148,503.468L153.485,503.468L153.485,324.282C153.502,301.781 166.122,281.184 186.165,270.953L196.148,315.75Z" style="fill:white;fill-rule:nonzero;"/>
    </g>
    <path d="M179.083,238.956L186.165,270.953C166.122,281.184 153.502,301.781 153.485,324.282L153.485,503.467L76.691,503.467L76.691,315.75C76.554,273.471 110.711,239.093 152.99,238.956L179.083,238.956Z" style="fill:white;fill-rule:nonzero;"/>
    <circle cx="119.355" cy="187.718" r="17.065" style="fill:white;"/>
    <path d="M119.355,136.565C147.632,136.514 170.593,159.398 170.636,187.675C170.679,210.133 156.071,229.997 134.628,236.652C129.688,238.196 124.534,238.973 119.355,238.956C91.078,238.956 68.159,216.037 68.159,187.76C68.159,159.483 91.077,136.565 119.355,136.565ZM136.42,187.76C136.42,178.331 128.783,170.695 119.355,170.695C109.927,170.695 102.29,178.332 102.29,187.76C102.29,197.188 109.927,204.825 119.355,204.825C128.766,204.8 136.394,197.172 136.42,187.76Z" style="fill:white;fill-rule:nonzero;"/>
    <path d="M220.466,162.162L220.466,180.166C220.688,193.886 225.628,207.121 234.459,217.624L230.278,221.89C225.875,227.052 222.198,232.795 219.356,238.955L153.484,238.955C147.477,238.938 141.496,239.621 135.651,241.003L134.627,236.651C161.633,228.263 176.718,199.577 168.331,172.571C161.667,151.12 141.812,136.521 119.354,136.563L186.335,136.563C186.292,143.355 189.006,149.882 193.844,154.652C198.639,159.456 205.141,162.161 211.933,162.161L220.466,162.161L220.466,162.162Z" style="fill:white;fill-rule:nonzero;"/>
    <g>
        <path d="M382.586,110.967C396.725,110.967 408.184,122.426 408.184,136.565C408.227,143.357 405.513,149.884 400.675,154.654C395.88,159.458 389.378,162.163 382.586,162.163L374.053,162.163L374.053,110.967L382.586,110.967Z" style="fill:white;fill-rule:nonzero;"/>
        <path d="M220.466,110.967L220.466,162.163L211.933,162.163C205.141,162.163 198.639,159.458 193.844,154.654C189.006,149.884 186.293,143.357 186.335,136.565C186.335,122.426 197.794,110.967 211.933,110.967L220.466,110.967Z" style="fill:white;fill-rule:nonzero;"/>
    </g>
    <g>
        <circle cx="335.674" cy="123.766" r="12.799" style="fill:rgb(2,0,0);"/>
        <circle cx="258.863" cy="123.766" r="12.799" style="fill:rgb(2,0,0);"/>
    </g>
    <path d="M298.54,215.107L298.472,215.107C286.612,215.133 275.238,210.397 266.901,201.967L279,189.936C284.145,195.141 291.159,198.059 298.471,198.042C305.835,198.068 312.9,195.141 318.096,189.919L330.161,201.984C321.791,210.406 310.409,215.124 298.54,215.107Z" style="fill:white;fill-rule:nonzero;"/>
    <circle cx="335.674" cy="123.766" r="12.799" style="fill:rgb(254,36,78);"/>
    <circle cx="258.863" cy="123.766" r="12.799" style="fill:rgb(254,36,78);"/>
    <path d="M452.127,503.467L452.127,324.282C451.965,289.699 426.085,260.654 391.75,256.533C390.564,248.743 388.235,241.174 384.83,234.067C384.745,233.82 384.642,233.589 384.523,233.359C381.511,227.216 377.731,221.482 373.277,216.294L368.959,219.997C377.824,208.239 382.62,193.913 382.611,179.185L382.611,176.907C382.466,174.859 382.423,172.769 382.406,170.653L382.628,170.653C401.477,170.653 416.758,155.371 416.758,136.523C416.758,117.675 401.476,102.393 382.628,102.393L382.628,59.728C382.586,26.758 355.87,0.043 322.9,0L179.083,0C174.373,0 170.55,3.814 170.55,8.533C170.55,9.856 170.857,11.17 171.446,12.347L189.962,49.379C194.339,58.236 202.36,64.738 211.934,67.178L211.934,102.435C196.422,102.495 182.897,113.007 179.015,128.033L119.355,128.033C86.368,128.17 59.738,155.022 59.874,188.009C59.985,215.22 78.475,238.915 104.849,245.638C81.828,261.551 68.108,287.764 68.159,315.751L68.159,503.469C68.159,508.179 71.982,512.002 76.692,512.002L443.595,512.002C448.304,512 452.127,508.177 452.127,503.467ZM392.398,317.021L392.398,494.935L366.8,494.935L366.8,328.463C375.58,320.28 382.449,310.254 386.911,299.102L392.398,317.021ZM204.476,313.89L189.723,247.489L207.24,247.489C199.296,276.688 208.162,307.891 230.278,328.549L230.278,494.935L204.68,494.935L204.68,315.75C204.681,315.127 204.613,314.504 204.476,313.89ZM247.344,343.566C258.308,355.614 264.392,371.314 264.409,387.611L264.409,494.934L247.344,494.934L247.344,343.566ZM247.788,320.997C246.713,320.246 245.689,319.427 244.708,318.557C244.375,318.25 244.025,317.96 243.65,317.704C222.105,299.077 215.373,268.505 227.097,242.549C229.187,238.138 231.764,233.965 234.776,230.117C240.979,235.595 248.13,239.895 255.877,242.805L255.877,264.555C255.877,288.114 274.982,307.218 298.54,307.218C322.099,307.218 341.203,288.113 341.203,264.555L341.203,241.9C348.635,238.743 355.427,234.272 361.263,228.692C364.249,232.318 366.826,236.252 368.942,240.441L375.162,260.783C375.384,262.208 375.529,263.65 375.589,265.092C376.912,285.152 368.686,304.658 353.404,317.713C353.029,317.969 352.679,318.259 352.346,318.566C351.373,319.436 350.349,320.247 349.283,320.998C328.088,336.57 315.579,361.298 315.605,387.595L315.605,494.935L281.475,494.935L281.475,387.338C281.432,361.117 268.932,336.484 247.788,320.98L247.788,320.997ZM272.942,246.994C275.348,247.293 277.771,247.455 280.195,247.489L314.325,247.489C317.61,247.472 320.887,247.216 324.138,246.721L324.138,264.554C324.138,278.693 312.679,290.152 298.54,290.152C284.401,290.152 272.942,278.693 272.942,264.554L272.942,246.994ZM332.67,387.338C332.73,371.135 338.813,355.528 349.735,343.566L349.735,494.935L332.67,494.935L332.67,387.338ZM399.651,136.565C399.685,141.096 397.876,145.447 394.642,148.622C391.451,151.839 387.108,153.639 382.585,153.631L382.585,119.501C392.006,119.499 399.651,127.136 399.651,136.565ZM365.521,68.304L365.521,161.6C365.163,166.899 365.163,172.223 365.521,177.522L365.521,179.229C365.555,192.839 360.145,205.885 350.487,215.476C344.77,221.227 337.748,225.51 330.009,227.942C324.932,229.589 319.625,230.425 314.292,230.425L280.162,230.425C265.059,230.365 250.75,223.693 240.997,212.165C233.463,203.18 229.231,191.892 229,180.168L229,68.304L365.521,68.304ZM205.227,41.793L192.889,17.108L322.858,17.108C343.123,17.134 360.589,31.392 364.668,51.238L345.768,51.238L331.263,29.437L317.039,38.951L325.264,51.281L303.079,51.281L288.574,29.48L274.376,38.951L282.601,51.281L260.416,51.281L245.91,29.48L231.712,38.951L239.937,51.281L220.466,51.281C213.99,51.29 208.077,47.604 205.227,41.793ZM211.934,119.499L211.934,153.629C207.378,153.638 203.017,151.812 199.826,148.561C196.618,145.395 194.826,141.069 194.869,136.564C194.868,127.136 202.505,119.499 211.934,119.499ZM178.989,145.097C180.44,151.002 183.486,156.394 187.803,160.678C194.185,167.112 202.872,170.712 211.933,170.695L211.933,180.328C212.189,193.366 216.157,206.062 223.367,216.924C219.92,221.113 216.891,225.636 214.322,230.423L161.223,230.423C184.747,207.291 185.063,169.474 161.931,145.959C161.649,145.669 161.359,145.379 161.069,145.097L178.989,145.097ZM76.691,187.76C76.7,164.201 95.813,145.105 119.38,145.122C142.947,145.139 162.035,164.244 162.018,187.811C162.009,206.472 149.868,222.965 132.051,228.52C127.938,229.808 123.663,230.448 119.354,230.431C95.805,230.398 76.717,211.31 76.691,187.76ZM85.224,315.75C85.105,278.172 115.464,247.608 153.041,247.489L172.257,247.489L176.523,266.824C156.855,279.307 144.944,300.989 144.952,324.283L144.952,494.935L85.224,494.935L85.224,315.75ZM162.018,324.282C162.027,309.068 168.827,294.648 180.559,284.955L187.615,316.688L187.615,494.934L162.017,494.934L162.017,324.282L162.018,324.282ZM435.062,494.935L409.464,494.935L409.464,315.75C409.464,314.905 409.336,314.069 409.089,313.258L397.391,275.015C419.55,281.167 434.935,301.287 435.063,324.282L435.062,494.935Z" style="fill:rgb(254,36,78);fill-rule:nonzero;"/>
    <path d="M144.952,187.76C144.952,173.621 133.493,162.162 119.354,162.162C105.215,162.162 93.756,173.621 93.756,187.76C93.756,201.899 105.215,213.358 119.354,213.358C133.493,213.358 144.952,201.899 144.952,187.76ZM110.822,187.76C110.822,183.05 114.645,179.227 119.355,179.227C124.065,179.227 127.888,183.05 127.888,187.76C127.888,192.47 124.065,196.293 119.355,196.293C114.645,196.293 110.822,192.47 110.822,187.76Z" style="fill:rgb(254,36,78);fill-rule:nonzero;"/>
    <path d="M298.437,215.107L298.539,215.107C310.425,215.141 321.825,210.414 330.204,201.984L318.139,189.919C312.943,195.141 305.878,198.068 298.514,198.042C291.202,198.059 284.188,195.141 279.043,189.936L266.944,201.967C275.263,210.38 286.603,215.116 298.437,215.107Z" style="fill:rgb(254,36,78);fill-rule:nonzero;"/>
</svg>
