<?xml version="1.0" encoding="UTF-8" standalone="no"?>
<!DOCTYPE svg PUBLIC "-//W3C//DTD SVG 1.1//EN" "http://www.w3.org/Graphics/SVG/1.1/DTD/svg11.dtd">
<svg width="100%" height="100%" viewBox="0 0 61 61" version="1.1" xmlns="http://www.w3.org/2000/svg" xmlns:xlink="http://www.w3.org/1999/xlink" xml:space="preserve" xmlns:serif="http://www.serif.com/" style="fill-rule:evenodd;clip-rule:evenodd;stroke-linejoin:round;stroke-miterlimit:2;">
    <g>
        <path d="M39.949,25.345C39.949,25.345 42.303,23.995 43.947,23.059L49.826,19.456C48.447,17.66 44.187,13.621 42.978,12.275C41.318,10.425 37.707,10.4 35.856,12.061C35.252,12.605 34.832,13.278 34.593,13.999C33.034,15.955 30.269,15.374 27.861,14.977C26.741,14.791 25.752,15.976 25.72,16.993C25.684,18.238 26.621,18.948 27.737,19.132C30.257,19.549 32.977,19.689 35.185,18.753C35.186,18.751 35.716,25.357 39.949,25.345Z" style="fill:rgb(254,36,78);fill-rule:nonzero;"/>
        <path d="M33.561,11.39C35.539,11.999 37.635,10.889 38.244,8.912C38.623,7.677 38.334,6.396 37.582,5.46L38.281,5.562C38.695,5.623 39.08,5.337 39.14,4.923C39.201,4.508 38.915,4.124 38.501,4.064L37.055,3.852L37.243,3.623C37.508,3.3 37.462,2.823 37.138,2.558C36.814,2.292 36.339,2.339 36.074,2.662L35.097,3.85C35.04,3.901 34.992,3.96 34.952,4.027L34.911,4.076C33.218,3.962 31.603,5.015 31.083,6.709C30.473,8.686 31.583,10.781 33.561,11.39Z" style="fill:rgb(254,36,78);fill-rule:nonzero;"/>
        <circle cx="3.059" cy="12.473" r="3.059" style="fill:rgb(254,36,78);"/>
        <path d="M15.741,28.584C15.345,28.26 14.868,28.086 14.4,28.11C14.296,28.046 14.182,27.989 14.056,27.943C12.664,27.431 11.18,27.266 9.717,27.398C9.7,27.146 9.666,26.892 9.598,26.639C9.338,25.673 9.077,24.706 8.818,23.74C10.573,23.224 12.155,22.252 13.451,20.855C14.989,19.197 12.304,16.955 10.778,18.6C9.956,19.487 8.984,20.051 7.909,20.367C7.767,19.84 7.626,19.314 7.484,18.787C9.695,18.148 11.852,17.359 13.936,16.345C15.901,15.389 14.183,12.466 12.225,13.417C9.621,14.685 6.868,15.516 4.056,16.181C3.851,16.208 3.651,16.255 3.462,16.327C1.84,16.937 1.302,18.589 1.723,20.154C2.493,23.012 3.263,25.87 4.032,28.727C4.167,29.224 4.46,29.633 4.842,29.944C6.129,33.175 5.911,36.254 4.457,39.649C3.571,41.72 6.77,43.13 7.658,41.057C9.108,37.665 9.595,34.308 8.836,30.982C10.292,30.621 11.713,30.681 13.157,31.212C13.361,31.286 13.55,31.313 13.729,31.315C14.549,32.035 15.275,32.819 15.848,33.696C16.352,34.467 17.339,34.787 18.167,34.302C18.933,33.853 19.282,32.757 18.775,31.983C17.935,30.701 16.927,29.554 15.741,28.584Z" style="fill:rgb(254,36,78);fill-rule:nonzero;"/>
        <path d="M8,6.09C8.026,5.999 8.046,5.904 8.064,5.797C8.119,5.78 8.174,5.762 8.229,5.743C8.591,6.203 9.078,6.529 9.642,6.69C10.146,6.834 10.668,6.832 11.165,6.687C10.846,7.474 10.912,8.341 11.314,9.066C10.474,9.535 9.921,10.438 9.895,11.402C9.222,11.222 8.511,11.3 7.89,11.627L8.008,11.853C8.585,11.551 9.244,11.482 9.866,11.66C9.891,11.667 9.915,11.676 9.939,11.684L10.158,11.759L10.152,11.574C10.117,10.597 10.677,9.664 11.55,9.231L11.675,9.168L11.601,9.049C11.132,8.293 11.082,7.343 11.523,6.526L11.693,6.211L11.362,6.348C10.832,6.567 10.261,6.6 9.712,6.445C9.172,6.291 8.711,5.968 8.377,5.514L8.319,5.434L8.227,5.471C8.128,5.511 8.025,5.544 7.921,5.572L7.836,5.594L7.825,5.678C7.807,5.81 7.784,5.918 7.755,6.02C7.51,6.883 6.814,7.555 5.94,7.772L6.002,8.02C6.964,7.78 7.73,7.041 8,6.09Z" style="fill:rgb(254,36,78);fill-rule:nonzero;"/>
        <path d="M59.958,47.697L59.958,42.076L54.542,42.076C55.562,41.519 56.065,40.301 55.679,39.166L50.604,24.355C50.654,23.518 50.726,21.833 50.291,21.058L44.937,24.584C42.665,25.8 38.782,28.38 38.604,28.539C37.741,29.307 37.54,30.574 38.122,31.57L43.393,40.614C43.712,41.162 44.212,41.539 44.775,41.711C45.4,41.903 46.1,41.846 46.711,41.489C47.867,40.813 48.258,39.33 47.584,38.174L43.326,30.871C44.228,30.118 45.246,29.304 46.199,28.598C46.436,28.593 46.674,28.566 46.91,28.523L51.096,40.739C51.301,41.335 51.714,41.798 52.226,42.077L33.574,42.077L33.574,49.818L36.013,49.818L36.013,53.688L39.075,53.688L39.075,57.64L60.026,57.64L60.026,47.698L59.958,47.697Z" style="fill:rgb(254,36,78);fill-rule:nonzero;"/>
    </g>
</svg>
