<?xml version="1.0" encoding="UTF-8" standalone="no"?>
<!DOCTYPE svg PUBLIC "-//W3C//DTD SVG 1.1//EN" "http://www.w3.org/Graphics/SVG/1.1/DTD/svg11.dtd">
<svg width="100%" height="100%" viewBox="0 0 320 320" version="1.1" xmlns="http://www.w3.org/2000/svg" xmlns:xlink="http://www.w3.org/1999/xlink" xml:space="preserve" xmlns:serif="http://www.serif.com/" style="fill-rule:evenodd;clip-rule:evenodd;stroke-linejoin:round;stroke-miterlimit:2;">
    <g transform="matrix(0.141837,0,0,0.140634,-170.447,-20.9322)">
        <path d="M2856,1160C2855,1164.82 2854.39,1169.76 2852.95,1174.44C2849.81,1184.6 2847.15,1195.05 2842.72,1204.66C2826.14,1240.66 2808.96,1276.31 2791.9,1312.05C2790.59,1314.75 2788.88,1317.23 2786.84,1319.43C2781.44,1325.31 2774.2,1326.43 2768.16,1321.23C2763.44,1317.05 2759.33,1312.22 2755.97,1306.89C2730.58,1268.06 2709.18,1227.08 2690.19,1184.77C2678.34,1158.35 2666,1132.14 2653.19,1106.14C2621,1040.3 2598.79,971 2582.16,899.83C2575.86,872.83 2569.04,846.17 2555.67,821.59C2552.53,815.84 2548.67,811.09 2543.19,807.68C2533.67,801.79 2526.88,804.3 2525.07,815.33C2523.35,825.81 2523.02,836.52 2522.01,847.12C2519.84,869.987 2517.63,892.853 2515.38,915.72C2515.29,916.62 2514.69,917.47 2513.58,920.16C2512.84,916.96 2512.22,915.4 2512.16,913.82C2510.84,880.21 2509.71,846.58 2508.28,812.97C2507.17,787.017 2505.85,761.077 2504.34,735.15C2503.02,712.58 2497.34,691.15 2486.34,671.28C2480.09,660.04 2473.72,648.87 2466.62,636.28C2474.28,639.07 2480.76,641.39 2487.2,643.78C2530.56,659.91 2574.01,675.78 2617.25,692.25C2656.92,707.35 2692.75,728.74 2722.66,759.25C2744.96,782.02 2761.21,808.51 2770.16,839.17C2777.8,865.37 2784.81,891.75 2792.25,918.01C2803.33,957.13 2817.7,995.11 2832.58,1032.92C2840.75,1053.69 2848.13,1074.72 2852.58,1096.67C2853.75,1102.44 2854.88,1108.21 2856.03,1113.98L2856,1160Z" style="fill-rule:nonzero;"/>
    </g>
    <g transform="matrix(0.141837,0,0,0.140634,-170.447,-20.9322)">
        <path d="M2496,200C2496.79,200.57 2497.51,201.49 2498.37,201.65C2513.52,204.55 2522.08,214.59 2526.49,228.46C2533.33,250.01 2541.38,271.46 2542.01,294.33C2543.17,336.63 2528.57,372.87 2495.59,400.1C2463.24,426.82 2429.9,452.35 2397.08,478.5C2390.34,483.88 2383.96,489.72 2376.76,495.9C2368.4,486.17 2360.34,475.74 2351.16,466.41C2341.83,456.914 2331.87,448.044 2321.37,439.86C2310.91,431.72 2299.47,424.86 2288.49,417.44C2288.49,416.87 2288.22,416.03 2288.49,415.67C2300.57,401.32 2307,384.31 2312.04,366.55C2318.58,343.5 2325.12,320.44 2332.4,297.63C2339.15,276.45 2349.71,257.29 2365.75,241.49C2378.36,229.07 2392.94,219.99 2410.22,215.93C2431.22,210.93 2452.42,206.58 2473.52,201.88C2475.07,201.391 2476.57,200.761 2478,200L2496,200Z" style="fill-rule:nonzero;"/>
    </g>
    <g transform="matrix(0.141837,0,0,0.140634,-170.447,-20.9322)">
        <path d="M1988,1800C1982,1787.74 1975.49,1775.71 1970.11,1763.19C1950.4,1717.22 1925.72,1673.55 1896.52,1632.94C1877.81,1606.94 1863.52,1578.87 1857.52,1547.23C1854.94,1533.56 1854.27,1519.51 1852.98,1505.6C1851.98,1495 1851.98,1484.29 1850.53,1473.77C1847.21,1449.49 1833.92,1432.13 1812.15,1421.19C1807.99,1419.08 1803.69,1417.27 1799.28,1415.76C1785.48,1411.3 1773.84,1401.83 1766.66,1389.23C1755.75,1370.53 1745.22,1351.61 1734.49,1332.8C1729.8,1324.59 1729.8,1316.52 1734.71,1308.16C1741.64,1308.56 1746.9,1311.24 1750.87,1316.79C1762.69,1333.32 1775.09,1349.44 1786.41,1366.3C1795.97,1380.55 1806.74,1393.55 1820.03,1404.3C1859.22,1436.11 1902.22,1461.09 1950.94,1475.2C1961.18,1478.2 1967.58,1484.09 1972.18,1493.2C1983.98,1516.73 1993.77,1541.22 2001.43,1566.4C2010.37,1595.37 2016.99,1625.01 2021.2,1655.03C2025.74,1687.62 2021.12,1719.54 2010.76,1750.55C2005.18,1767.25 1998.3,1783.55 1992.01,1799.98L1988,1800Z" style="fill-rule:nonzero;"/>
    </g>
    <g transform="matrix(0.127235,0,0,0.164283,121.272,108.797)">
        <path d="M144,590C147.82,587.25 150.17,581.27 156.42,583.79C162.99,586.42 161.5,592.45 161.52,597.59C161.587,631.91 161.587,666.243 161.52,700.59L161.52,711.13C169.66,713.3 292.23,713.88 305.82,711.9C305.95,708.57 306.22,705.02 306.23,701.48L306.23,598.48C306.082,595.475 306.202,592.463 306.59,589.48C307.34,585.4 310.12,583.04 314.38,583.28C317.86,583.274 320.853,585.84 321.38,589.28C321.703,591.598 321.803,593.942 321.68,596.28L321.68,846.17C321.777,848.172 321.707,850.179 321.47,852.17C320.76,856.29 318.07,858.84 314,858.91C309.93,858.98 307.18,856.36 306.54,852.25C306.245,849.594 306.152,846.92 306.26,844.25L306.26,741.3L306.26,730.71C298.26,728.06 172.26,727.71 161.53,730.26L161.53,842.81C161.53,845.14 161.66,847.49 161.48,849.81C160.78,858.81 155.43,861.3 148.11,856.26C146.781,855.435 145.409,854.681 144,854L144,590Z" style="fill-rule:nonzero;"/>
    </g>
    <g transform="matrix(0.127235,0,0,0.164283,121.272,108.797)">
        <path d="M144,1034C145.35,1030.72 147.3,1027.56 147.95,1024.15C158.61,968.46 203.14,924.22 258.95,914.27C297.8,907.34 333.79,914.54 366.69,936.51C369.233,938.098 371.603,939.948 373.76,942.03C377.55,945.92 377.76,950.83 374.68,954.68C371.6,958.53 366.94,959.3 362.13,956.55C359.54,955.07 357.24,953.09 354.76,951.41C302.53,916.27 231.89,925.85 192,973.48C137,1039.12 167.77,1138.32 251,1161.8C289.31,1172.6 325.6,1167.39 358.15,1143.03C359.711,1141.8 361.385,1140.73 363.15,1139.82C367.33,1137.82 370.9,1138.98 373.88,1142.31C377.09,1145.9 377.63,1150.54 374.88,1154.21C373.402,1156.01 371.658,1157.57 369.71,1158.84C291.01,1214.84 179.32,1179.03 151.32,1087.48C149.96,1083.03 149.32,1078.37 147.96,1073.92C146.96,1070.52 145.35,1067.3 144.01,1064L144,1034Z" style="fill-rule:nonzero;"/>
    </g>
    <g transform="matrix(0.141837,0,0,0.140634,-170.447,-20.9322)">
        <path d="M2336.28,1272.2C2339.07,1268.2 2341.83,1264.2 2344.67,1260.2C2366.39,1229.85 2387.98,1199.44 2404.99,1166.04C2429.28,1118.36 2444.99,1068.24 2450.71,1014.9C2457.21,954.553 2460.9,894.053 2461.78,833.4C2462.29,799.333 2457.05,765.423 2446.28,733.1C2426.58,673.93 2397.67,619.89 2354.28,574.47C2342.6,562.24 2329.95,550.53 2316.22,540.7C2263.81,503.2 2209.09,469.7 2148.39,446.79C2110.43,432.301 2071.4,420.751 2031.67,412.24C2012.51,408.24 1993.29,408.75 1974.02,411.6C1940.74,416.53 1907.48,421.55 1875.26,431.6C1865.05,434.66 1855.02,438.259 1845.19,442.38C1813.32,456.2 1779.81,462.69 1745.47,465.88C1707.25,469.44 1668.98,470.5 1630.67,467.64C1604.43,465.64 1578.21,463.35 1551.98,461.25C1520.76,458.743 1489.54,456.27 1458.33,453.83C1455.42,453.6 1452.52,453.35 1447.33,452.91C1451.11,449.19 1453.49,446.72 1456.01,444.39C1480.47,421.757 1504.94,399.133 1529.42,376.52C1531.48,374.836 1533.38,372.961 1535.09,370.92C1535.92,369.613 1536.09,367.986 1535.53,366.54C1534.92,365.48 1532.66,364.41 1531.53,364.75C1524.85,366.75 1517.99,368.51 1511.77,371.53C1475.9,388.97 1443.26,411.32 1413.02,437.25C1409.59,440.409 1405.94,443.326 1402.11,445.98C1394.11,451.07 1387.62,449.13 1383.05,440.77C1378.48,432.41 1379.78,426.15 1386.69,419.44C1429.69,377.66 1479.89,346.44 1533.21,319.79C1566.64,303.07 1600.62,287.89 1637.21,279.38C1673.46,270.95 1710.21,266.89 1747.3,269.64C1791.12,272.88 1834.93,276.93 1878.52,282.45C1917.05,287.267 1953.94,300.934 1986.31,322.38C1993.75,327.387 2000.46,333.401 2006.25,340.25C2019.68,355.93 2032.4,372.25 2045.25,388.4C2053.68,399 2064.25,405.4 2077.61,408.4C2116.89,417.31 2155.99,427.02 2195.19,436.27C2214.27,440.77 2231.95,448.52 2247.58,460.17C2288.72,490.82 2330.43,520.81 2370.2,553.17C2422.07,595.38 2454.46,650.64 2469.2,715.75C2476.69,748.84 2482.57,782.32 2488.36,815.75C2492.42,839.14 2492.28,862.89 2490.97,886.54C2488.69,927.46 2485.97,968.35 2483.61,1009.26C2481.37,1047.49 2470.32,1083.14 2452.69,1116.94C2441.14,1139.09 2429.71,1161.3 2418.4,1183.56C2410.97,1198.13 2401.55,1211.6 2390.4,1223.56C2377.5,1237.49 2364.34,1251.18 2350.93,1264.65C2347.28,1268.33 2342.47,1270.87 2338.2,1273.94L2336.28,1272.2Z" style="fill-rule:nonzero;"/>
    </g>
    <g transform="matrix(0.141837,0,0,0.140634,-170.447,-20.9322)">
        <path d="M2095.25,1368.14C2094.43,1368.62 2093.58,1369.04 2092.71,1369.41C2053.03,1383 2012.62,1392.32 1970.28,1389.54C1946.29,1388.02 1922.74,1382.33 1900.71,1372.71C1860.11,1354.98 1835.89,1323.89 1826.21,1281.08C1818.71,1247.89 1818.38,1214.21 1821.32,1180.61C1825.67,1130.84 1830.32,1081.06 1836.53,1031.5C1844.53,967.73 1853.26,904.03 1870.05,841.78C1885.05,786.04 1911.66,736.08 1944.76,689.11C1963.93,661.91 1989.41,644.33 2021.2,636.37C2044.4,630.54 2068.12,626.78 2091.67,622.37C2101.15,620.59 2110.83,619.83 2120.29,617.96C2123.94,617.25 2128.91,615.62 2130.29,612.88C2132.52,608.53 2129.45,603.99 2125.83,600.65C2104.91,581.39 2080.52,571.93 2051.83,574.42C2008.76,578.17 1972.83,595.99 1943.23,627.65C1909.3,663.9 1874.37,699.21 1840.09,735.14C1811.58,765.02 1790.45,799.37 1778.71,839.14C1767.79,876.14 1765.55,913.86 1770.89,951.95C1775.61,985.61 1780.41,1019.26 1780.89,1053.32C1781.23,1079.71 1777.89,1105.79 1773.65,1131.82C1769.86,1155.14 1767.27,1178.65 1763.85,1202.03C1762.89,1208.95 1761.3,1215.76 1759.08,1222.38C1758.01,1225.51 1755.08,1228.38 1752.23,1230.38C1748.6,1233 1744.01,1232.67 1741.66,1228.68C1738.52,1223.36 1735.17,1217.6 1734.2,1211.68C1729.84,1185.06 1726.05,1158.34 1722.5,1131.6C1717.98,1097.6 1713.5,1063.6 1709.7,1029.49C1704.07,978.69 1709.27,929.04 1727.7,881.13C1741.12,846.29 1756.08,812.13 1773.84,779.25C1795.02,740.207 1822.05,704.638 1854,673.78C1881,647.52 1908.7,622.03 1936.41,596.55C1942.47,590.825 1949.35,586.023 1956.81,582.3C1989.3,566.84 2023.43,557 2059.64,556.5C2069.64,556.334 2079.6,557.682 2089.19,560.5C2114.78,568.24 2139.32,578.73 2161.19,594.5C2168.71,599.94 2175.37,606.57 2182.37,612.71C2192.12,621.27 2200.88,631.35 2211.69,638.22C2255.94,666.35 2282.6,707.72 2301.96,754.84C2320.96,800.98 2327.66,849.09 2324.21,898.72C2320.01,962.063 2303.5,1023.98 2275.59,1081C2256.94,1119.15 2230.38,1150.32 2195,1174.54C2147.75,1206.89 2091.54,1193.92 2058.57,1166.09C2022.9,1135.97 2000.21,1098.12 1990.51,1052.53C1978.85,997.423 1985.59,944.603 2010.72,894.07C2013.19,889.07 2015.34,883.65 2021.79,882C2026.06,885.86 2026.15,890.88 2025.65,895.83C2024.16,910.41 2022.42,924.96 2020.78,939.52C2017.01,973.04 2015.02,1006.59 2019.78,1040.19C2022.47,1059.12 2027.65,1077.33 2036.36,1094.4C2053.26,1127.54 2080.15,1149.17 2114.67,1161.9C2125.94,1166.05 2137.16,1163.22 2148.21,1161.13C2168.21,1157.34 2185.92,1148.13 2201.8,1135.53C2228.36,1114.6 2249.72,1087.8 2264.2,1057.24C2286.7,1009.97 2298.78,960.07 2299.35,907.65C2299.99,849.82 2284.82,795.65 2259.46,744.14C2252.85,730.71 2245.71,717.48 2237.95,704.68C2214.36,665.75 2179.04,645.04 2134.34,639.68C2085.34,633.84 2042.83,648.35 2004.39,679.17C1946.72,725.41 1912.62,785.33 1895.9,856.36C1886.28,897.25 1879.2,938.57 1873.64,980.18C1869.14,1013.86 1864.9,1047.56 1860.26,1081.18C1853.74,1128.51 1865.76,1170.18 1897.13,1206.4C1931.85,1246.44 1966.45,1286.58 2000.94,1326.81C2019.02,1347.9 2041.26,1361.44 2068.94,1365.2C2077.36,1366.34 2085.94,1366.34 2094.43,1366.86L2095.25,1368.14ZM1875,1235.32C1870.68,1247.71 1871.48,1258.87 1873.58,1270.1C1876.63,1286.39 1882.58,1301.47 1893.41,1314.16C1904.76,1327.42 1919.41,1332.32 1936.41,1328.88C1945.51,1327.05 1948.65,1321 1945.11,1312.49C1942.43,1306.41 1939.16,1300.61 1935.33,1295.17C1920.27,1272.87 1900.55,1255 1880.05,1237.94C1878.89,1237 1877.3,1236.48 1875,1235.32ZM1748.42,1056.93C1759.42,1029.93 1753.83,989.74 1737.71,974.64C1733.05,1002.88 1735.32,1029.56 1748.43,1056.93L1748.42,1056.93Z" style="fill-rule:nonzero;"/>
    </g>
    <g transform="matrix(0.141837,0,0,0.140634,-170.447,-20.9322)">
        <path d="M2216.56,1258C2208.98,1257.44 2201.4,1256.7 2193.8,1256.33C2161.8,1254.74 2129.88,1253.54 2097.95,1251.63C2083.02,1250.73 2067.95,1249.51 2053.3,1246.73C2022.11,1240.84 1996.49,1224.67 1975.13,1201.43C1945.4,1169.1 1926.35,1131.18 1920.52,1087.86C1905.73,977.92 1929.29,876.63 1992.85,785.28C2012.56,756.582 2038.38,732.6 2068.46,715.06C2090.11,702.48 2113.26,694.33 2138.3,692.89C2165.63,691.32 2186.66,703.27 2201.53,725.75C2204.44,730.14 2205.01,736.29 2205.88,741.75C2206.66,746.75 2203.23,749.48 2198.7,749.18C2194.08,748.893 2189.55,747.793 2185.32,745.93C2178.4,742.633 2171.67,738.961 2165.15,734.93C2140.74,720.34 2116.51,721.27 2092.24,735.27C2067.34,749.665 2045.56,768.889 2028.18,791.81C1988.24,844.04 1962.18,902.65 1949.87,967.21C1941.09,1013.21 1940.58,1059.39 1950.02,1105.28C1961.02,1158.81 1990.54,1197.94 2042.02,1219.03C2055.62,1224.61 2070.16,1227.56 2084.86,1227.72C2123.49,1228.25 2162.14,1228.46 2200.77,1228.99C2207.43,1228.96 2214.08,1229.57 2220.63,1230.81C2235.54,1233.94 2247.72,1229.3 2257.63,1218.54C2279.12,1195.23 2299.32,1170.91 2315.37,1143.37C2340.71,1099.88 2359.72,1053.74 2370.53,1004.66C2375.15,983.66 2376.2,961.78 2377.61,940.21C2379.09,917.62 2378.93,894.92 2379.71,872.27C2382.46,792.27 2359.14,719.84 2316.71,652.9C2274.91,587 2216,541.84 2144.26,513C2113.74,500.74 2081.46,495.63 2048.67,493.7C2012.61,491.59 1976.75,492.57 1941.19,499.58C1914.38,504.891 1888.3,513.426 1863.54,525C1842.4,534.833 1821.25,544.643 1800.1,554.43C1797.18,555.78 1794.1,556.75 1789.82,558.43C1791.18,556.26 1791.52,555.31 1792.18,554.71C1844.48,508.18 1904.66,477.48 1974.03,466.71C2049.61,454.93 2121.72,467.36 2188.58,504.36C2298.06,564.94 2368.39,656.65 2400.31,777.6C2407.69,805.53 2408.7,834.26 2407.18,862.97C2405.18,900.9 2402.28,938.8 2395.7,976.26C2383.64,1044.91 2363.55,1110.98 2329.95,1172.38C2311.08,1206.85 2286.42,1236.98 2257.75,1263.81C2210.18,1308.3 2153.23,1324.36 2089.32,1318.98C2079.32,1318.15 2069.38,1317.28 2059.53,1315.71C2053.99,1314.78 2048.6,1313.08 2043.53,1310.66C2037.53,1307.83 2035.36,1303.17 2036.43,1297.74C2037.5,1292.31 2041.12,1288.98 2046.57,1288.11C2050.49,1287.37 2054.48,1287.04 2058.47,1287.11C2088.76,1288.5 2119.04,1290.17 2149.33,1291.56C2169.88,1292.5 2188,1285.81 2203.84,1272.92C2208.67,1268.99 2212.96,1264.4 2217.5,1260.12L2216.56,1258Z" style="fill-rule:nonzero;"/>
    </g>
    <g transform="matrix(0.141837,0,0,0.140634,-170.447,-20.9322)">
        <path d="M1254.26,1479.42C1257.18,1469.62 1258.75,1461.42 1261.99,1453.93C1282.43,1406.73 1306.23,1361.37 1337.57,1320.32C1343.23,1312.91 1349.25,1305.77 1355.2,1298.59C1391.92,1254.3 1440.26,1231.41 1496.01,1222.15C1523.11,1217.65 1550.42,1217.96 1577.75,1218C1589.39,1217.85 1601.02,1217.1 1612.58,1215.75C1622.45,1214.75 1624.7,1212.07 1624.36,1202.18C1623.48,1176.55 1622.24,1150.92 1621.23,1125.29C1620.73,1112.64 1620.13,1099.98 1620.12,1087.29C1620.12,1081.7 1621.2,1076.05 1622.27,1070.52C1623.01,1066.7 1625.44,1063.61 1629.73,1063.73C1634.19,1063.86 1637.15,1066.53 1638.02,1071.01C1638.85,1074.91 1639.46,1078.87 1639.83,1082.84C1643.97,1139.32 1648.7,1195.77 1651.83,1252.31C1653.57,1283.39 1663.95,1310.69 1681.32,1335.87C1694.56,1355.06 1707.63,1374.38 1721.38,1393.2C1726.21,1399.81 1732.85,1405.1 1738.65,1411C1741.1,1413.5 1743.53,1416 1746.4,1419C1732.57,1422.72 1702.31,1409.8 1688.84,1395.29C1678.55,1384.22 1674.39,1374.12 1664.71,1336.47C1657.27,1334.47 1649.79,1336.82 1642.38,1337.79C1593.94,1344.17 1546.74,1355.24 1502.31,1376.18C1483.93,1384.83 1465.97,1394.37 1447.49,1402.78C1405.97,1421.69 1364.26,1440.15 1322.61,1458.78C1301.54,1468.2 1279,1472.92 1254.26,1479.42Z" style="fill-rule:nonzero;"/>
    </g>
    <g transform="matrix(0.141837,0,0,0.140634,-170.447,-20.9322)">
        <path d="M2229.79,800.1C2231.59,803.58 2233.86,806.78 2234.98,810.33C2240.85,828.734 2244.39,847.804 2245.5,867.09C2246.94,893.35 2248.32,919.71 2247.62,945.96C2246.21,998.36 2231.62,1047.07 2201.44,1090.35C2195,1099.65 2187.28,1107.99 2178.52,1115.14C2156.83,1132.54 2131.44,1131.56 2109.86,1113.84C2100.93,1106.52 2094.56,1097.22 2089.32,1087.08C2078.98,1067.25 2072.1,1045.8 2068.97,1023.65C2060.97,966.06 2062.97,908.74 2076.19,852.01C2080.74,832.838 2088.77,814.663 2099.88,798.39C2110.51,782.64 2133.07,777.44 2149.51,786.92C2157.58,791.58 2161.43,799.19 2163.66,807.83C2167.48,822.62 2166.66,837.62 2165.09,852.53C2160.32,898.89 2155.4,945.223 2150.31,991.53C2148.24,1010.61 2153.61,1028.53 2158.93,1046.37C2160.69,1052.3 2165.65,1055.47 2171.06,1057.37C2173.55,1058.08 2176.22,1057.76 2178.47,1056.47C2181.52,1054.48 2184.17,1051.92 2186.25,1048.93C2203.98,1023.61 2214.1,995.37 2218.18,964.81C2221.76,937.335 2220.67,909.449 2214.94,882.34C2209.4,855.46 2213.86,830.12 2224.03,805.28C2224.52,804.064 2225.21,802.943 2226.09,801.97C2226.71,801.35 2227.78,801.11 2229.79,800.1ZM2138.32,1060.94C2138.32,1058.63 2138.66,1056.94 2138.26,1055.45C2136.12,1047.45 2134.26,1039.27 2131.46,1031.45C2116.91,991.09 2114.21,950.38 2126.09,908.81C2129.45,897.02 2131.34,884.76 2133.3,872.62C2134.4,865.035 2134.99,857.384 2135.06,849.72C2135.2,843.96 2130.89,838.33 2126.57,837.42C2121.91,836.42 2115.97,839.33 2113.13,844.24C2112.04,846.296 2111.12,848.44 2110.39,850.65C2087,913.82 2088.52,976.56 2113.88,1038.81C2115.73,1043.44 2118.12,1047.84 2121,1051.91C2124.9,1057.62 2131.41,1061.01 2138.32,1060.94Z" style="fill-rule:nonzero;"/>
    </g>
    <g transform="matrix(0.141837,0,0,0.140634,-170.447,-20.9322)">
        <path d="M1594.9,1059.68C1593.31,1043.89 1591.72,1028.11 1590.14,1012.33C1583.47,944.96 1599.84,882.78 1633.21,824.69C1660.77,776.69 1690.88,730.25 1725.21,686.88C1760.65,642.18 1802.5,604.22 1852.21,575.51C1857.07,572.679 1862.49,570.926 1868.09,570.37C1878.98,569.47 1884.3,577.92 1878.65,587.37C1875.51,592.6 1870.65,597.14 1865.65,600.83C1858.37,606.104 1850.73,610.878 1842.8,615.12C1786.38,646.12 1743.97,690.99 1711.46,746.12C1682.88,794.6 1659.35,845.05 1646.89,900.18C1643.59,914.78 1640.89,929.53 1638.34,944.28C1634.1,969.03 1626.63,992.77 1616.89,1015.85C1611.84,1027.85 1606.89,1039.79 1601.7,1051.71C1600.43,1054.71 1598.7,1057.41 1597.1,1060.24L1594.9,1059.68Z" style="fill-rule:nonzero;"/>
    </g>
    <g transform="matrix(0.127235,0,0,0.164283,121.272,108.797)">
        <path d="M785.55,959.32L785.55,1167.93C785.713,1171.27 785.565,1174.62 785.11,1177.93C784.24,1182.59 780.03,1185.87 775.88,1185.46C771.44,1185.02 768.35,1182.57 767.65,1178.07C767.145,1174.45 766.914,1170.8 766.96,1167.14C766.907,1087.81 766.873,1008.5 766.86,929.22C766.775,927.888 766.775,926.552 766.86,925.22C767.4,921.22 769.43,917.8 773.38,917.34C776.549,917.141 779.702,917.954 782.38,919.66C784.75,921.17 786.17,924.21 787.92,926.66C838.213,996.367 888.497,1066.08 938.77,1135.8C940.88,1138.72 943.12,1141.54 945.77,1144.98C948.77,1141.24 947.71,1137.53 947.71,1134.21C947.79,1068.21 947.81,1002.23 947.77,936.28C947.639,932.945 947.719,929.605 948.01,926.28C948.66,921.35 952.18,918.43 956.77,918.44C961.267,918.353 965.16,921.684 965.77,926.14C966.081,928.795 966.174,931.47 966.05,934.14L966.05,1173.06C965.84,1180.43 964.12,1183.64 959.43,1185.06C953.5,1186.89 949.88,1183.34 946.87,1179.18C931.037,1157.32 915.267,1135.42 899.56,1113.48C864.16,1064.25 828.753,1015.02 793.34,965.81C791.61,963.41 789.72,961.12 787.9,958.81L785.55,959.32Z" style="fill-rule:nonzero;"/>
    </g>
    <g transform="matrix(0.127235,0,0,0.164283,121.272,108.797)">
        <path d="M436,1038.16C436.63,1008.6 449.94,974.29 478.63,946.92C539.81,888.56 636.84,904.14 677.49,979.33C691.136,1004.58 697.315,1030.23 695.917,1055.79C694.761,1076.93 688.423,1098 676.84,1118.72C651.9,1163.35 612.75,1187.18 561.17,1185.17C509.74,1183.17 473.17,1156.24 450.06,1110.74C440,1091.05 435.92,1070.75 436,1038.16ZM557.62,1166.76C587.62,1166.76 608.05,1160.27 625.96,1147.68C678.64,1110.68 692.22,1034.97 655.96,980.29C614.37,917.51 526.8,913.23 480.48,972.63C450.48,1011.1 445.76,1054.47 465.22,1098.84C484.13,1142 518.51,1164.75 557.59,1166.76L557.62,1166.76Z" style="fill-rule:nonzero;"/>
    </g>
    <g transform="matrix(0.127235,0,0,0.164283,121.272,108.797)">
        <path d="M1058,933.89L1058,1044.89L1155.3,1044.89C1158.3,1044.78 1161.31,1044.87 1164.3,1045.15C1170.2,1045.97 1173.79,1050.05 1173.44,1055.05C1173.1,1059.82 1169.67,1063.05 1164.03,1063.59C1161.72,1063.82 1159.37,1063.68 1157.03,1063.68L1059.39,1063.68C1056.97,1071.23 1056.39,1152.54 1058.56,1166.37C1061.89,1166.53 1065.44,1166.85 1069,1166.85C1105.67,1166.89 1142.33,1166.89 1179,1166.85C1182,1166.71 1185.01,1166.82 1188,1167.17C1193,1167.98 1195.76,1171.29 1195.84,1176.01C1196.08,1180.53 1192.79,1184.52 1188.31,1185.16C1185.99,1185.48 1183.65,1185.58 1181.31,1185.46L1053.31,1185.46C1041.02,1185.46 1038.65,1183.14 1038.64,1170.95L1038.64,930.02C1038.64,917.69 1040.72,915.68 1053.32,915.67C1095.99,915.63 1138.65,915.63 1181.32,915.67C1183.66,915.57 1186,915.657 1188.32,915.93C1193.2,916.73 1195.98,920.22 1195.84,924.93C1195.9,929.436 1192.42,933.27 1187.93,933.65C1185.27,933.882 1182.6,933.939 1179.93,933.82L1058,933.82L1058,933.89Z" style="fill-rule:nonzero;"/>
    </g>
    <g transform="matrix(0.127235,0,0,0.164283,121.272,108.797)">
        <path d="M924.42,621.31C922.26,624.14 920.04,626.91 917.96,629.79C891.9,666.05 865.85,702.317 839.81,738.59C838.06,741.03 836.42,743.59 834.47,745.83C829.35,751.83 823.58,751.83 818.55,745.83C817.05,744.05 815.77,742.08 814.41,740.19C786.983,702.063 759.55,663.923 732.11,625.77C730.01,622.84 727.84,619.95 725.24,616.42C721.91,620.51 723.14,624.6 723.14,628.27C723.047,699.93 723.023,771.597 723.07,843.27C723.07,846.27 723.13,849.27 722.91,852.27C722.69,855.27 721.98,858.5 717.91,858.27C714.34,858.09 713.98,855.27 713.85,852.47C713.73,850.14 713.77,847.81 713.77,845.47L713.77,602.47C713.635,599.801 713.712,597.126 714,594.47C714.79,589.65 719.13,588.13 722.81,591.47C724.75,593.23 726.14,595.61 727.72,597.76C758.14,639.093 788.557,680.427 818.97,721.76C820.73,724.15 822.69,726.38 825.22,729.51C827.79,726.2 830.04,723.45 832.13,720.58C862.39,679.127 892.637,637.67 922.87,596.21C924.64,593.79 926.07,590.84 928.4,589.21C930.58,587.66 934.11,586.36 936.4,587.07C938.69,587.78 940.64,590.89 941.76,593.39C942.65,595.39 942.09,597.97 942.09,600.3L942.09,848.3C942.173,850.636 942.099,852.974 941.87,855.3C941.646,858.779 938.812,861.565 935.33,861.73C930.98,862.2 928.17,859.81 927.27,855.87C926.54,852.68 926.69,849.26 926.69,845.95L926.69,632.95L926.69,622L924.42,621.31Z" style="fill-rule:nonzero;"/>
    </g>
    <g transform="matrix(0.127235,0,0,0.164283,121.272,108.797)">
        <path d="M1257.55,616.06L1257.55,843.78C1257.55,846.78 1257.87,849.88 1257.2,852.78C1256.84,854.33 1254.38,856.72 1253.4,856.49C1251.33,855.896 1249.6,854.463 1248.63,852.54C1247.78,850.54 1248.29,847.95 1248.29,845.62C1248.29,763.62 1248.31,681.62 1248.36,599.62C1248.36,595.62 1246.36,590.14 1252.25,588.62C1257.25,587.34 1258.8,592.38 1261.04,595.41C1315.16,668.957 1369.24,742.53 1423.28,816.13C1425.42,819.06 1427.62,821.95 1430.28,825.45C1433.28,821.59 1432.28,817.87 1432.28,814.5C1432.41,743.833 1432.48,673.167 1432.51,602.5C1432.37,599.499 1432.44,596.491 1432.72,593.5C1433.36,588.88 1436.72,585.95 1440.78,586.27C1445.07,586.62 1447.34,589.27 1447.78,593.38C1447.95,595.709 1448.01,598.045 1447.94,600.38L1447.94,845.38C1448.1,848.049 1448.01,850.727 1447.68,853.38C1446.41,860.03 1439.83,862.22 1434.9,857.59C1432.75,855.59 1431.17,852.92 1429.42,850.49C1375.08,775.037 1320.75,699.583 1266.42,624.13C1264.32,621.21 1262.16,618.32 1260.03,615.42L1257.55,616.06Z" style="fill-rule:nonzero;"/>
    </g>
    <g transform="matrix(0.127235,0,0,0.164283,121.272,108.797)">
        <path d="M1098.49,785.73C1082.16,785.73 1065.83,785.67 1049.49,785.73C1035.49,785.79 1029.61,789.86 1024.68,802.87C1018.9,818.13 1013.24,833.44 1007.53,848.72C1006.71,850.91 1006.27,853.38 1004.93,855.17C1003.73,856.78 1001.41,858.76 999.79,858.6C996.62,858.28 995.79,855.43 996.68,852.47C997.33,850.24 998.22,848.07 999.04,845.89C1030.27,762.63 1061.52,679.393 1092.8,596.18C1094.21,592.45 1094.15,586.65 1099.8,586.45C1106.09,586.23 1106.29,592.27 1107.88,596.36C1139.49,677.693 1171.05,759.027 1202.56,840.36C1203.77,843.102 1204.77,845.93 1205.56,848.82C1206.51,852.191 1204.78,855.779 1201.56,857.15C1197.78,858.97 1194.21,858.01 1191.92,854.51C1190.41,851.928 1189.17,849.192 1188.24,846.35C1182.8,832.03 1177.55,817.64 1172.01,803.35C1166.67,789.57 1161.01,785.75 1146.47,785.69C1130.49,785.68 1114.49,785.73 1098.49,785.73ZM1159.25,769.49C1139.64,717.42 1120.41,666.33 1101.17,615.24L1098.72,615.24L1040.61,769.52L1159.25,769.49Z" style="fill-rule:nonzero;"/>
    </g>
    <g transform="matrix(0.127235,0,0,0.164283,121.272,108.797)">
        <path d="M420.28,675.53L420.28,599.53C420.28,589.04 421.55,585.53 425.22,586.53C432.43,588.4 429.58,594.7 429.59,599.13C429.8,648.13 430.31,697.13 429.59,746.06C428.9,789.97 458.96,836.78 513.53,845.29C547.23,850.55 575.9,838.56 598.65,813.29C615.65,794.46 623.86,771.94 623.94,746.63C624.1,697.32 623.99,648.01 624,598.7C623.927,595.697 624.021,592.693 624.28,589.7C624.7,585.87 627.28,583.78 630.92,583.34C635.15,582.83 638.1,585.11 639.26,588.96C640,591.44 639.74,594.24 639.74,596.9C639.74,646.9 639.91,696.9 639.74,746.83C639.51,808.66 592.17,858.02 530.37,859.07C466.98,860.15 427.91,815.37 422.15,767.32C420.42,752.84 420.65,738.09 420.4,723.46C420.07,707.51 420.28,691.52 420.28,675.53Z" style="fill-rule:nonzero;"/>
    </g>
    <g transform="matrix(0.127235,0,0,0.164283,121.272,108.797)">
        <path d="M1337.74,933.89L1262,933.89C1259.67,933.999 1257.33,933.942 1255,933.72C1250.53,933.187 1247.09,929.435 1246.94,924.94C1246.77,920.414 1250.15,916.471 1254.65,915.94C1256.97,915.673 1259.31,915.593 1261.65,915.7L1431.6,915.7C1434.27,915.567 1436.95,915.695 1439.6,916.08C1444.16,916.99 1446.3,920.25 1446.3,924.75C1446.3,929.25 1444.01,932.47 1439.6,933.49C1437.05,934.08 1434.29,933.83 1431.6,933.83L1368.6,933.83L1356.4,933.83C1356.21,938.26 1355.91,942.09 1355.91,945.93L1355.91,1167.85C1356.04,1170.85 1355.97,1173.86 1355.71,1176.85C1355,1182.22 1351.05,1185.62 1346.35,1185.35C1341.98,1185.11 1338.64,1181.93 1338.04,1176.92C1337.76,1173.6 1337.67,1170.26 1337.78,1166.92L1337.78,946.99L1337.74,933.89Z" style="fill-rule:nonzero;"/>
    </g>
    <g transform="matrix(0.141837,0,0,0.140634,-170.447,-20.9322)">
        <path d="M1875,1235.32C1877.29,1236.48 1878.88,1236.96 1880.06,1237.94C1900.56,1255 1920.28,1272.87 1935.34,1295.17C1939.17,1300.61 1942.44,1306.41 1945.12,1312.49C1948.66,1321 1945.52,1327.05 1936.42,1328.88C1919.42,1332.32 1904.76,1327.42 1893.42,1314.16C1882.55,1301.47 1876.64,1286.39 1873.59,1270.1C1871.49,1258.87 1870.69,1247.71 1875,1235.32Z" style="fill-rule:nonzero;"/>
    </g>
    <g transform="matrix(0.141837,0,0,0.140634,-170.447,-20.9322)">
        <path d="M1748.43,1056.93C1735.32,1029.56 1733.05,1002.88 1737.72,974.64C1753.84,989.74 1759.42,1029.91 1748.43,1056.93Z" style="fill-rule:nonzero;"/>
    </g>
    <g transform="matrix(0.141837,0,0,0.140634,-170.447,-20.9322)">
        <path d="M2138.32,1060.94C2131.41,1061.02 2124.91,1057.64 2121,1051.94C2118.12,1047.87 2115.73,1043.47 2113.88,1038.84C2088.52,976.59 2087,913.84 2110.39,850.68C2111.12,848.47 2112.04,846.326 2113.13,844.27C2115.97,839.36 2121.91,836.46 2126.57,837.45C2130.89,838.36 2135.2,843.99 2135.06,849.75C2134.99,857.414 2134.4,865.065 2133.3,872.65C2131.3,884.79 2129.45,897.05 2126.09,908.84C2114.21,950.41 2116.91,991.12 2131.46,1031.48C2134.28,1039.28 2136.12,1047.48 2138.26,1055.48C2138.66,1056.94 2138.32,1058.63 2138.32,1060.94Z" style="fill-rule:nonzero;"/>
    </g>
    <g transform="matrix(0.127235,0,0,0.164283,121.272,108.797)">
        <path d="M557.59,1166.76C518.51,1164.76 484.13,1141.99 465.22,1098.84C445.76,1054.47 450.48,1011.1 480.48,972.63C526.8,913.23 614.37,917.51 655.96,980.29C692.19,1034.97 678.61,1110.64 625.96,1147.68C608,1160.27 587.64,1166.76 557.59,1166.76Z" style="fill:white;fill-rule:nonzero;"/>
    </g>
    <g transform="matrix(0.127235,0,0,0.164283,121.272,108.797)">
        <path d="M1159.25,769.49L1040.61,769.49L1098.72,615.21L1101.17,615.21C1120.41,666.33 1139.64,717.42 1159.25,769.49Z" style="fill:white;fill-rule:nonzero;"/>
    </g>
</svg>
