<?xml version="1.0" encoding="UTF-8" standalone="no"?>
<!DOCTYPE svg PUBLIC "-//W3C//DTD SVG 1.1//EN" "http://www.w3.org/Graphics/SVG/1.1/DTD/svg11.dtd">
<svg width="100%" height="100%" viewBox="0 0 320 320" version="1.1" xmlns="http://www.w3.org/2000/svg" xmlns:xlink="http://www.w3.org/1999/xlink" xml:space="preserve" xmlns:serif="http://www.serif.com/" style="fill-rule:evenodd;clip-rule:evenodd;stroke-linejoin:round;stroke-miterlimit:2;">
    <g transform="matrix(1,0,0,1,-1340,-840)">
        <path d="M1340,1160L1340,840L1660,840L1660,1160L1340,1160ZM1436.67,1098.89C1434.81,1096.17 1431.97,1093.03 1430.31,1089.35C1427.63,1083.44 1428.31,1082.28 1434.31,1079.04C1435.04,1078.64 1436.42,1078.54 1436.52,1078.04C1436.85,1076.52 1437.44,1074.12 1436.69,1073.44C1431.63,1068.91 1426.32,1065.52 1429.89,1056.63C1431.77,1051.92 1434.49,1048.35 1437.2,1044.46C1437.44,1044.01 1437.66,1043.55 1437.84,1043.07L1435.23,1040.19C1436.39,1038.33 1437.34,1036.83 1438.49,1034.98L1426.7,1038.63C1427.15,1036.42 1427.41,1035.49 1427.51,1034.55C1427.61,1033.61 1427.51,1032.72 1427.51,1031.69C1420.87,1033.55 1420.87,1033.55 1423.12,1037.69L1415.86,1036.01L1415.21,1039.2L1412.15,1033.12L1410.9,1033.59C1411.08,1028.59 1415.43,1028.14 1418.76,1026.59C1418.76,1026.43 1418.76,1026.16 1418.66,1026.12C1413.59,1023.6 1412.27,1019.12 1412.66,1014.02C1412.77,1012.67 1414.85,1010.21 1415.33,1010.37C1421.5,1012.42 1423.53,1007.51 1426.89,1003.61C1422.59,1002.06 1424.21,999.51 1425.83,996.97C1427.83,993.87 1429.42,990.44 1431.83,987.75C1435.27,983.97 1439.32,980.75 1443.83,976.66L1443.09,982.11L1457.69,975.3L1459.13,976.2C1459.5,975.59 1459.84,974.95 1460.25,974.36C1461.6,972.144 1463.11,970.038 1464.79,968.06C1466.7,966.06 1469.34,965.47 1467.15,961.22C1464.66,956.41 1468.83,952.53 1475.58,951.53C1479.58,950.94 1483.51,949.58 1487.46,948.53L1492.06,947.36L1492.06,958.71C1489.88,945.6 1500.37,943.62 1508.89,939.97L1506.34,942.81C1508.6,942.206 1510.68,941.083 1512.43,939.53C1515.21,937.32 1517.66,934.01 1520.8,933.11C1524.32,932.11 1525.58,930.33 1526.53,927.35C1527.43,924.55 1528.66,921.85 1530.19,917.96C1531.42,920.315 1532.52,922.736 1533.49,925.21C1533.79,926.21 1533.09,927.39 1533.17,928.47C1533.44,932.33 1538.17,935.55 1540.76,933.36C1542.56,931.81 1543.3,929.03 1544.76,926.29L1547.34,934.29C1550.62,934.68 1553.53,935.87 1555.68,935.06C1558.4,934.06 1560.5,931.38 1562.91,929.39C1566.63,935.68 1567.77,935.74 1572.91,930.39C1573.55,929.72 1574.66,929.52 1575.4,928.92C1576.14,928.22 1576.83,927.464 1577.46,926.66C1576.53,925.86 1575.65,924.5 1574.64,924.39C1572.41,924.301 1570.18,924.401 1567.97,924.69L1568.12,922.95C1571.92,923.4 1575.91,923.3 1579.47,924.49C1582.47,925.49 1584.98,925.17 1585.03,922.06C1585.15,918.804 1584.92,915.544 1584.32,912.34C1583.58,908.86 1585.13,906.8 1587.97,906.27C1591.9,905.54 1592.88,903.01 1593.69,899.27C1590.22,899.27 1587.94,897.95 1589.46,893.4L1582.29,895.97C1582.54,893.77 1582.73,892.07 1582.92,890.37L1581.92,891.49C1581.28,890.31 1579.92,888.94 1580.12,887.98C1581.63,881.98 1578.97,880.98 1573.52,879.5C1569.25,878.35 1566.74,876.73 1563.8,881.03C1563.08,882.09 1560.94,882.17 1559.42,882.71L1559.42,889.58L1558.04,889.58C1558.04,887.26 1558.41,884.85 1557.89,882.65C1557.63,881.55 1555.48,879.89 1554.67,880.13C1552.74,880.7 1551.09,882.24 1549.29,883.42C1548.02,879.53 1545.44,875.95 1550.94,872.73C1553.01,871.51 1553.26,867.55 1550.2,864.78C1547.6,869.99 1545.2,874.78 1542.52,880.2C1545.32,881.53 1545.62,883.78 1542.46,886.29L1542.03,884.05C1540.9,884.86 1539.96,885.89 1538.81,886.23C1537.66,886.57 1536.1,886.23 1534.81,886.41C1533.55,886.73 1532.32,887.162 1531.13,887.7C1531.35,886.235 1531.65,884.783 1532.03,883.35C1532.42,882.347 1532.89,881.383 1533.46,880.47L1522.57,875.6C1522.57,876.6 1522.04,878.74 1522.74,880.29C1523.28,881.49 1525.36,881.99 1526.74,882.79C1519.89,891.25 1517.64,892.61 1514.3,889.67C1519.45,888.16 1520.72,884.99 1517.61,879.25L1508.85,883.25L1509.23,884.97L1514.81,887.07L1514.38,888.5C1511.78,887.96 1509.13,887.57 1506.6,886.82C1505.6,886.52 1504.04,885.34 1504.11,884.72C1504.61,880.46 1501.76,879.72 1499.45,878.94L1492.08,885.25C1491.83,882.66 1491.72,881.62 1491.62,880.57C1487.36,881.66 1487.71,876.81 1485.44,875.47L1479.24,879.41L1480.92,870.71C1477.16,870.14 1473.75,869.01 1470.44,869.27C1466.75,869.55 1463.15,871.1 1459.5,872.09L1459.8,873.43L1470.8,871.75C1470.48,873.75 1470.23,875.29 1470.01,876.64C1460.44,870.36 1454.38,879.86 1446.56,880.96L1455.56,874.96C1453.32,874.681 1451.05,875.002 1448.98,875.89C1427.71,884.467 1408.95,898.275 1394.44,916.03C1379.53,934.03 1371.23,954.66 1366.87,976.97C1362.63,998.143 1364.33,1020.08 1371.77,1040.35C1378.77,1059.71 1387.85,1077.55 1402.42,1092.35C1407.23,1097.22 1411.87,1102.23 1419.8,1099.57C1420.59,1099.32 1421.44,1099.45 1422.12,1099.92C1422.52,1100.32 1422.21,1101.42 1422.21,1101.92L1436.67,1098.89ZM1441.4,1092.77C1447.55,1090.41 1453,1087.9 1458.7,1086.24C1463.54,1084.83 1466.7,1082.24 1466.87,1077.24C1467.03,1071.98 1468.33,1065.59 1463.87,1062.02C1457.07,1056.63 1449.21,1052.57 1441.12,1047.52C1440.57,1057.21 1436.81,1065.92 1441.8,1074.52C1442.07,1075.28 1441.98,1076.12 1441.54,1076.8C1437.68,1081.87 1440.31,1086.85 1441.4,1092.77ZM1451.13,1039.52C1453.99,1038.14 1457.13,1037.15 1459.65,1035.26C1462.65,1032.98 1464.14,1023.8 1462.65,1020.26C1460.55,1015.19 1455.9,1013.21 1450.88,1015.26C1444.1,1018.01 1442.95,1021.73 1446.45,1030.15L1443.04,1033L1451.13,1039.52ZM1445.82,1101.43C1445.6,1102.94 1445.5,1104.46 1445.53,1105.99C1445.72,1107.72 1445.67,1110.32 1446.7,1110.99C1450.61,1113.36 1455.12,1114.63 1459.36,1111.99C1460.99,1110.99 1462.94,1108.17 1462.57,1106.75C1461.96,1104.37 1460.02,1101.48 1457.88,1100.54C1453.67,1098.67 1448.84,1097.3 1445.82,1101.43ZM1554.88,1062.92C1554.96,1055.04 1551.24,1050.64 1544.42,1050.58C1537.6,1050.52 1533.37,1055.06 1533.23,1062.98C1533.09,1070.69 1536.99,1075.53 1543.47,1075.7C1550.44,1075.89 1554.8,1071 1554.88,1062.92ZM1589.42,1026.27C1589.42,1018.33 1585.65,1014.02 1578.83,1014.12C1572.01,1014.22 1568.01,1018.75 1567.97,1026.79C1567.93,1034.83 1571.59,1039.12 1578.34,1039.18C1585.48,1039.24 1589.43,1034.64 1589.42,1026.27ZM1514.58,1050.84C1514.58,1058.68 1514.58,1065.97 1514.65,1073.25C1514.65,1073.89 1515.71,1074.51 1516.28,1075.13C1516.71,1074.53 1517.46,1073.95 1517.5,1073.32C1517.65,1071.05 1517.56,1068.77 1517.56,1066.63C1525.49,1064.18 1523.45,1076.29 1530.94,1075.02L1524.76,1065.75C1528.76,1062.62 1531.37,1058.67 1528.58,1054.07C1525.33,1048.71 1519.73,1051.34 1514.58,1050.84ZM1521.06,1018.51L1521.82,1017.39C1520.95,1016.55 1520.22,1015.28 1519.19,1014.95C1514.29,1013.39 1509.57,1013.77 1505.76,1017.61C1502.46,1020.93 1501.66,1028.92 1503.91,1033.69C1506.32,1038.83 1510.8,1039.44 1515.71,1039.07C1522.47,1038.56 1523.86,1035.7 1519.82,1027.98C1519.21,1031.27 1518.82,1033.47 1518.37,1035.77C1514.27,1036.77 1509.37,1037.94 1507.68,1033.48C1506.21,1029.54 1506.03,1023.96 1507.76,1020.26C1510.43,1014.54 1516.23,1017 1521.06,1018.51ZM1545.72,1039.3C1543.66,1033.11 1542.1,1027.89 1540.17,1022.8C1538.91,1019.91 1537.5,1017.09 1535.94,1014.35C1534.24,1017.1 1532.18,1019.71 1530.94,1022.65C1528.71,1027.83 1526.94,1033.22 1524.67,1039.47C1527.73,1037.86 1542.56,1037.82 1545.72,1039.3ZM1553.51,1030.6C1562.8,1029.6 1566.29,1026.13 1564.96,1019.68C1563.96,1014.68 1558.44,1012.92 1550.62,1014.97L1550.62,1038.84L1552.36,1039.04L1553.51,1030.6ZM1497.59,1067.42C1507.59,1065.49 1510.72,1062.34 1509.27,1055.99C1508.1,1050.86 1502.76,1049.28 1494.61,1051.7C1494.61,1058.62 1494.61,1065.57 1494.67,1072.52C1494.67,1073.41 1495.53,1074.28 1495.99,1075.16C1496.53,1074.34 1497.4,1073.56 1497.52,1072.68C1497.66,1070.93 1497.69,1069.17 1497.59,1067.42ZM1605.59,1054.26C1604.89,1050.58 1601.83,1050.77 1599.22,1050.72C1592.82,1050.62 1589.22,1054.25 1588.42,1061.33C1587.58,1068.72 1590.7,1074.33 1596.52,1075.33C1600.15,1075.97 1603.76,1075.91 1605.62,1071.82C1601.15,1072.9 1596.79,1074.71 1593.33,1070.06C1591.07,1067.06 1591,1059.25 1593.24,1056.18C1596.58,1051.53 1601,1053.17 1605.55,1054.26L1605.59,1054.26ZM1575.26,1073L1575.26,1064.37L1583.8,1063.46L1583.8,1061.95L1575.22,1061.14L1575.22,1053.73L1585.88,1052.73L1585.75,1051.26L1572.25,1051.26L1572.25,1074.41L1585.86,1074.41L1585.79,1072.97L1575.26,1073ZM1615.26,1053.58L1615.26,1075.06L1617.32,1075.22C1617.5,1071.81 1617.75,1068.41 1617.83,1065C1617.92,1061.11 1617.83,1057.21 1617.83,1053.72L1624.83,1052.45L1624.6,1051.45L1608.05,1051.45L1607.97,1052.82L1615.26,1053.58ZM1555.87,1078C1561.37,1078.43 1564.43,1076 1564.62,1071.7C1564.91,1064.96 1564.69,1058.19 1564.69,1050.82L1556.98,1051.36L1556.49,1052.87C1561.49,1052.61 1562.2,1055.37 1561.86,1059.09C1561.63,1061.57 1561.63,1064.06 1561.86,1066.54C1562.33,1071.08 1561.58,1075.06 1555.87,1078ZM1524.62,864.79C1521.52,867.6 1519.36,869.79 1516.95,871.68C1514.81,873.36 1509.95,872.85 1511.67,877.48L1521.39,875.58C1521.14,874.5 1520.88,873.39 1520.2,870.44C1523.84,874.44 1525.88,872.86 1526.53,870.17C1526.88,868.66 1525.39,866.75 1524.62,864.75L1524.62,864.79ZM1494.48,1039.23C1495.33,1039.09 1496.17,1038.86 1496.97,1038.55C1497.22,1030.96 1497.44,1023.37 1497.52,1015.77C1497.52,1015.35 1496.38,1014.92 1495.76,1014.49C1495.34,1015.11 1494.54,1015.73 1494.54,1016.36C1494.45,1023.76 1494.48,1031.2 1494.48,1039.19L1494.48,1039.23ZM1583.75,926.51C1586.47,930.03 1588.97,930.07 1590.75,927.81C1592.27,925.9 1594.75,923.39 1591.29,920.57C1589.91,921.73 1588.55,922.9 1587.15,924.02C1586.12,924.8 1585,925.54 1583.75,926.47L1583.75,926.51ZM1534.34,875.75C1541.07,876.92 1543.05,875.31 1542.54,869.43L1534.34,875.75ZM1454.34,1044.43L1459.69,1049.15L1462.69,1042.39L1462,1041.26L1454.34,1044.43Z" style="fill:white;fill-rule:nonzero;"/>
    </g>
    <g transform="matrix(1,0,0,1,-1340,-840)">
        <path d="M1436.67,1098.89L1422.26,1102.01C1422.26,1101.46 1422.57,1100.36 1422.17,1100.01C1421.49,1099.54 1420.63,1099.41 1419.85,1099.66C1411.92,1102.32 1407.28,1097.31 1402.47,1092.44C1387.9,1077.67 1378.82,1059.83 1371.82,1040.44C1364.38,1020.17 1362.68,998.233 1366.92,977.06C1371.28,954.75 1379.58,934.13 1394.49,916.12C1409,898.376 1427.75,884.575 1449,876C1451.07,875.112 1453.34,874.791 1455.58,875.07L1446.58,881.07C1454.4,879.97 1460.46,870.47 1470.03,876.75C1470.25,875.4 1470.5,873.83 1470.82,871.86L1459.82,873.54L1459.52,872.2C1463.17,871.2 1466.77,869.66 1470.46,869.38C1473.77,869.12 1477.18,870.25 1480.94,870.82L1479.26,879.52L1485.46,875.58C1487.73,876.92 1487.38,881.77 1491.64,880.68L1492.1,885.36L1499.47,879.05C1501.78,879.81 1504.63,880.57 1504.13,884.83C1504.06,885.45 1505.62,886.63 1506.62,886.93C1509.15,887.68 1511.8,888.07 1514.4,888.61L1514.83,887.18L1509.25,885.08L1508.87,883.36L1517.63,879.36C1520.74,885.1 1519.47,888.27 1514.32,889.78C1517.66,892.72 1519.91,891.36 1526.76,882.9C1525.37,882.1 1523.29,881.6 1522.76,880.4C1522.06,878.85 1522.59,876.74 1522.59,875.71L1533.48,880.58C1532.91,881.493 1532.44,882.457 1532.05,883.46C1531.67,884.893 1531.37,886.345 1531.15,887.81C1532.34,887.272 1533.57,886.84 1534.83,886.52C1536.15,886.29 1537.61,886.72 1538.83,886.34C1540.05,885.96 1540.92,884.97 1542.05,884.16L1542.48,886.4C1545.64,883.89 1545.34,881.64 1542.54,880.31C1545.21,874.94 1547.62,870.1 1550.22,864.89C1553.28,867.66 1553.03,871.62 1550.96,872.84C1545.46,876.06 1548.04,879.64 1549.31,883.53C1551.11,882.35 1552.76,880.81 1554.69,880.24C1555.5,880 1557.69,881.66 1557.91,882.76C1558.43,884.96 1558.06,887.37 1558.06,889.69L1559.44,889.69L1559.44,882.82C1560.96,882.28 1563.1,882.2 1563.82,881.14C1566.76,876.84 1569.27,878.46 1573.54,879.61C1578.99,881.09 1581.65,882.1 1580.14,888.09C1579.9,889.09 1581.3,890.42 1581.94,891.6L1582.94,890.48C1582.75,892.18 1582.56,893.88 1582.31,896.08L1589.48,893.51C1587.96,898.06 1590.24,899.34 1593.71,899.38C1592.9,903.14 1591.92,905.67 1587.99,906.38C1585.15,906.91 1583.6,908.97 1584.34,912.45C1584.94,915.654 1585.17,918.914 1585.05,922.17C1585.05,925.28 1582.54,925.61 1579.49,924.6C1575.93,923.41 1571.94,923.51 1568.14,923.06L1567.99,924.8C1570.2,924.511 1572.43,924.411 1574.66,924.5C1575.66,924.61 1576.55,925.97 1577.48,926.77C1576.85,927.574 1576.16,928.33 1575.42,929.03C1574.68,929.63 1573.57,929.83 1572.93,930.5C1567.82,935.81 1566.68,935.75 1562.93,929.5C1560.52,931.5 1558.42,934.15 1555.7,935.17C1553.55,935.98 1550.64,934.79 1547.36,934.4L1544.78,926.4C1543.28,929.14 1542.54,931.92 1540.78,933.47C1538.23,935.66 1533.46,932.47 1533.19,928.58C1533.11,927.5 1533.81,926.27 1533.51,925.32C1532.54,922.846 1531.44,920.425 1530.21,918.07C1528.68,921.96 1527.45,924.66 1526.55,927.46C1525.6,930.46 1524.34,932.21 1520.82,933.22C1517.68,934.12 1515.23,937.43 1512.45,939.64C1510.7,941.193 1508.62,942.316 1506.36,942.92L1508.91,940.08C1500.39,943.73 1489.91,945.71 1492.08,958.82L1492.08,947.42L1487.48,948.59C1483.48,949.59 1479.62,950.96 1475.6,951.59C1468.85,952.59 1464.68,956.47 1467.17,961.28C1469.36,965.53 1466.72,966.13 1464.81,968.12C1463.13,970.098 1461.62,972.204 1460.27,974.42C1459.86,975.01 1459.52,975.65 1459.15,976.26L1457.71,975.36L1443.11,982.17L1443.85,976.72C1439.39,980.8 1435.34,984.03 1431.85,987.81C1429.42,990.5 1427.85,993.93 1425.85,997.03C1424.23,999.57 1422.61,1002.12 1426.91,1003.67C1423.55,1007.57 1421.52,1012.48 1415.35,1010.43C1414.87,1010.27 1412.79,1012.73 1412.68,1014.08C1412.24,1019.16 1413.56,1023.66 1418.68,1026.18C1418.77,1026.18 1418.75,1026.49 1418.78,1026.65C1415.45,1028.22 1411.1,1028.65 1410.92,1033.65L1412.17,1033.18L1415.23,1039.26L1415.88,1036.07L1423.14,1037.75C1420.89,1033.61 1420.89,1033.61 1427.53,1031.75C1427.53,1032.75 1427.6,1033.75 1427.53,1034.61C1427.46,1035.47 1427.17,1036.48 1426.72,1038.69L1438.51,1035.04C1437.36,1036.89 1436.41,1038.39 1435.25,1040.25L1437.86,1043.13C1437.68,1043.61 1437.46,1044.07 1437.22,1044.52C1434.51,1048.41 1431.79,1051.98 1429.91,1056.69C1426.34,1065.58 1431.65,1068.97 1436.71,1073.5C1437.46,1074.18 1436.87,1076.58 1436.54,1078.1C1436.44,1078.56 1435.06,1078.66 1434.33,1079.1C1428.33,1082.34 1427.64,1083.5 1430.33,1089.41C1432,1093 1434.81,1096.17 1436.67,1098.89ZM1483.67,925.25C1476.09,927.32 1473.48,931.92 1474.85,940.55C1477.4,937.76 1479.4,935.55 1482.19,932.49L1478.07,932.49L1483.67,925.25ZM1477.16,946.94L1494.63,942.75C1485.79,938.5 1485.79,938.5 1477.21,946.94L1477.16,946.94ZM1488.52,936.54L1488.52,937.83C1491.13,938.21 1494.96,939.83 1496.05,938.67C1497.68,937.01 1497.39,933.46 1498.19,929.26L1488.52,936.54ZM1501.94,929.42C1500.24,934.69 1499.19,937.97 1498.09,941.36L1508,937L1501.94,929.42ZM1524.1,914.54L1522.51,914.05C1521.15,918.41 1519.78,922.77 1518.22,927.74C1523.62,923.92 1525.45,919.47 1524.15,914.54L1524.1,914.54ZM1465.51,957.47L1463.32,956.59C1462.59,958.5 1461.87,960.41 1461.2,962.18L1460.68,958.75C1456.51,961.9 1459.55,964.16 1460.34,966.53L1462.01,967.01L1465.51,957.47ZM1453.12,946.34L1445.78,955.85L1447.12,956.85C1451,955.26 1455.12,953.86 1453.17,946.34L1453.12,946.34ZM1423.46,1049.52L1422.46,1048.52L1416.24,1052.4L1420.61,1056.29L1423.46,1049.52ZM1556.7,902.87C1555.89,900.94 1557.12,897.32 1552.57,899.87C1551.75,900.167 1550.88,900.287 1550.01,900.22C1549.34,900.213 1548.67,900.163 1548.01,900.07C1548.01,900.82 1547.67,901.75 1548.01,902.26C1548.35,902.77 1549.32,902.81 1550.01,902.83C1551.93,902.92 1553.83,902.87 1556.75,902.87L1556.7,902.87ZM1570.7,912.11C1575.78,918.69 1575.78,918.69 1578.98,915.45L1570.7,912.11ZM1569.3,891.27C1568.71,893.53 1568.3,895.21 1567.82,896.9L1574.26,896.9L1574.26,895.43L1569.3,891.27Z" style="fill:rgb(71,98,178);fill-rule:nonzero;"/>
    </g>
    <g transform="matrix(1,0,0,1,-1340,-840)">
        <path d="M1441.4,1092.77C1440.31,1086.85 1437.68,1081.87 1441.5,1076.86C1441.94,1076.18 1442.03,1075.34 1441.76,1074.58C1436.76,1065.95 1440.53,1057.24 1441.08,1047.58C1449.17,1052.58 1457.08,1056.69 1463.83,1062.08C1468.33,1065.65 1467.03,1072.08 1466.83,1077.3C1466.67,1082.3 1463.5,1084.86 1458.66,1086.3C1453,1087.9 1447.55,1090.41 1441.4,1092.77ZM1462.98,1065.87C1459.91,1066.53 1457.04,1067.33 1454.11,1067.73C1449.24,1068.4 1448.57,1072.12 1448.41,1075.73C1448.25,1079.34 1450.89,1080.8 1454.31,1081.06C1457.1,1081.28 1459.86,1081.72 1463.81,1082.21C1463.52,1076.55 1463.25,1071.1 1463,1065.87L1462.98,1065.87Z" style="fill:rgb(71,98,178);fill-rule:nonzero;"/>
    </g>
    <g transform="matrix(1,0,0,1,-1340,-840)">
        <path d="M1451.13,1039.52L1443.04,1032.94L1446.45,1030.09C1442.95,1021.67 1444.1,1017.95 1450.88,1015.2C1455.88,1013.2 1460.55,1015.14 1462.65,1020.2C1464.14,1023.79 1462.65,1032.97 1459.65,1035.2C1457.15,1037.15 1454,1038.14 1451.13,1039.52Z" style="fill:rgb(71,98,178);fill-rule:nonzero;"/>
    </g>
    <g transform="matrix(1,0,0,1,-1340,-840)">
        <path d="M1445.82,1101.43C1448.82,1097.3 1453.67,1098.67 1457.88,1100.51C1460.02,1101.45 1461.96,1104.34 1462.57,1106.72C1462.94,1108.14 1460.99,1110.95 1459.36,1111.96C1455.12,1114.59 1450.61,1113.32 1446.7,1110.96C1445.7,1110.33 1445.7,1107.73 1445.53,1105.96C1445.51,1104.44 1445.6,1102.93 1445.82,1101.43Z" style="fill:rgb(71,98,178);fill-rule:nonzero;"/>
    </g>
    <g transform="matrix(1,0,0,1,-1340,-840)">
        <path d="M1554.88,1062.92C1554.83,1067.56 1553.38,1071.16 1550.83,1073.34C1548.93,1074.96 1546.44,1075.79 1543.47,1075.7C1536.99,1075.53 1533.09,1070.7 1533.23,1062.98C1533.37,1055.06 1537.48,1050.51 1544.42,1050.58C1551.36,1050.65 1555,1055 1554.88,1062.92ZM1551.7,1062.92C1551.6,1056.42 1548.78,1052.92 1543.78,1053.09C1539,1053.26 1536.51,1056.66 1536.53,1062.98C1536.53,1069.69 1539.09,1073.06 1544.1,1072.98C1549.11,1072.9 1551.8,1069.36 1551.7,1062.91L1551.7,1062.92Z" style="fill:rgb(71,98,178);fill-rule:nonzero;"/>
    </g>
    <g transform="matrix(1,0,0,1,-1340,-840)">
        <path d="M1589.42,1026.27C1589.42,1033.4 1586.56,1037.81 1581.3,1038.91C1580.39,1039.1 1579.4,1039.19 1578.34,1039.18C1571.59,1039.12 1567.93,1034.75 1567.97,1026.79C1568.01,1018.83 1571.89,1014.22 1578.83,1014.12C1585.77,1014.02 1589.41,1018.33 1589.42,1026.27ZM1586.76,1027.13L1586.21,1026.92C1586.21,1025.92 1586.21,1024.92 1586.04,1023.92C1585.53,1019.92 1583.77,1017.05 1579.28,1016.77C1574.79,1016.49 1571.92,1018.89 1571.46,1023.23C1571.07,1026.33 1571.35,1029.47 1572.27,1032.45C1573.93,1037.3 1580.98,1038.37 1584.01,1034.27C1585.48,1032.32 1585.88,1029.54 1586.76,1027.13Z" style="fill:rgb(71,98,178);fill-rule:nonzero;"/>
    </g>
    <g transform="matrix(1,0,0,1,-1340,-840)">
        <path d="M1514.58,1050.84C1519.73,1051.34 1525.33,1048.71 1528.58,1054.07C1531.37,1058.67 1528.8,1062.62 1524.76,1065.75L1530.94,1075.02C1523.45,1076.29 1525.49,1064.18 1517.56,1066.63C1517.56,1068.77 1517.65,1071.05 1517.5,1073.32C1517.5,1073.95 1516.71,1074.53 1516.28,1075.13C1515.71,1074.51 1514.66,1073.89 1514.65,1073.25C1514.53,1066 1514.58,1058.68 1514.58,1050.84ZM1517.77,1064.84C1521,1063.27 1523.85,1062.63 1525.4,1060.84C1526.4,1059.73 1526.18,1056.04 1525.1,1055.06C1523.49,1053.61 1520.64,1053.52 1517.77,1052.69L1517.77,1064.84Z" style="fill:rgb(71,98,178);fill-rule:nonzero;"/>
    </g>
    <g transform="matrix(1,0,0,1,-1340,-840)">
        <path d="M1521.06,1018.51C1516.23,1017.01 1510.43,1014.51 1507.76,1020.26C1506.03,1023.96 1506.21,1029.54 1507.68,1033.48C1509.33,1037.94 1514.27,1036.81 1518.37,1035.77C1518.8,1033.47 1519.21,1031.27 1519.82,1027.98C1523.82,1035.7 1522.47,1038.56 1515.71,1039.07C1510.8,1039.44 1506.32,1038.83 1503.91,1033.69C1501.66,1028.92 1502.46,1020.93 1505.76,1017.61C1509.57,1013.77 1514.29,1013.39 1519.19,1014.95C1520.19,1015.28 1520.95,1016.55 1521.82,1017.39L1521.06,1018.51Z" style="fill:rgb(71,98,178);fill-rule:nonzero;"/>
    </g>
    <g transform="matrix(1,0,0,1,-1340,-840)">
        <path d="M1545.72,1039.3C1542.56,1037.82 1527.72,1037.86 1524.64,1039.47C1526.94,1033.22 1528.64,1027.83 1530.91,1022.65C1532.18,1019.71 1534.24,1017.1 1535.91,1014.35C1537.47,1017.09 1538.88,1019.91 1540.14,1022.8C1542.1,1027.89 1543.66,1033.11 1545.72,1039.3ZM1535.62,1017.3C1533.91,1021.92 1532.62,1025.44 1531.11,1029.45L1539.45,1029.45C1538.26,1025.69 1537.18,1022.27 1535.62,1017.31L1535.62,1017.3Z" style="fill:rgb(71,98,178);fill-rule:nonzero;"/>
    </g>
    <g transform="matrix(1,0,0,1,-1340,-840)">
        <path d="M1553.51,1030.6L1552.36,1039.04L1550.62,1038.84L1550.62,1015C1558.44,1012.95 1563.93,1014.7 1564.96,1019.71C1566.29,1026.13 1562.8,1029.55 1553.51,1030.6ZM1553.38,1029C1556.54,1027.45 1559.38,1026.79 1560.96,1025C1561.96,1023.85 1562.05,1020.18 1561.04,1019.23C1559.34,1017.62 1556.45,1017.23 1553.38,1016.13L1553.38,1029Z" style="fill:rgb(71,98,178);fill-rule:nonzero;"/>
    </g>
    <g transform="matrix(1,0,0,1,-1340,-840)">
        <path d="M1497.59,1067.42C1497.69,1069.17 1497.66,1070.93 1497.52,1072.68C1497.4,1073.56 1496.52,1074.34 1495.99,1075.16C1495.53,1074.28 1494.69,1073.41 1494.67,1072.52C1494.56,1065.52 1494.61,1058.62 1494.61,1051.7C1502.76,1049.28 1508.1,1050.86 1509.27,1055.99C1510.72,1062.34 1507.59,1065.49 1497.59,1067.42ZM1497.87,1065.03C1500.87,1063.72 1503.87,1063.26 1505.32,1061.52C1506.38,1060.24 1506.32,1056.52 1505.17,1055.27C1503.77,1053.71 1500.78,1053.57 1497.87,1052.62L1497.87,1065.03Z" style="fill:rgb(71,98,178);fill-rule:nonzero;"/>
    </g>
    <g transform="matrix(1,0,0,1,-1340,-840)">
        <path d="M1605.55,1054.26C1600.96,1053.17 1596.55,1051.53 1593.2,1056.18C1592.59,1057.02 1592.15,1058.2 1591.88,1059.55C1591.16,1063.13 1591.65,1067.85 1593.29,1070.06C1596.75,1074.71 1601.11,1072.9 1605.58,1071.82C1603.72,1075.91 1600.11,1075.97 1596.48,1075.33C1590.66,1074.33 1587.54,1068.72 1588.38,1061.33C1589.2,1054.25 1592.78,1050.62 1599.18,1050.72C1601.79,1050.77 1604.85,1050.58 1605.55,1054.26Z" style="fill:rgb(71,98,178);fill-rule:nonzero;"/>
    </g>
    <g transform="matrix(1,0,0,1,-1340,-840)">
        <path d="M1575.26,1073L1585.75,1073L1585.82,1074.44L1572.21,1074.44L1572.21,1051.29L1585.71,1051.29L1585.84,1052.76L1575.18,1053.76L1575.18,1061.17L1583.76,1061.98L1583.76,1063.49L1575.22,1064.4L1575.26,1073Z" style="fill:rgb(71,98,178);fill-rule:nonzero;"/>
    </g>
    <g transform="matrix(1,0,0,1,-1340,-840)">
        <path d="M1615.25,1053.58L1607.99,1052.84L1608.07,1051.47L1624.62,1051.47L1624.85,1052.47L1617.85,1053.74C1617.85,1054.85 1617.86,1056.01 1617.87,1057.19C1617.88,1059.72 1617.9,1062.37 1617.85,1065.02C1617.77,1068.43 1617.52,1071.83 1617.34,1075.24L1615.28,1075.08L1615.25,1053.58Z" style="fill:rgb(71,98,178);fill-rule:nonzero;"/>
    </g>
    <g transform="matrix(1,0,0,1,-1340,-840)">
        <path d="M1555.87,1078C1561.58,1075.1 1562.33,1071.12 1561.87,1066.54C1561.64,1064.06 1561.64,1061.57 1561.87,1059.09C1562.21,1055.37 1561.55,1052.61 1556.5,1052.87L1556.99,1051.36L1564.7,1050.82C1564.7,1058.19 1564.92,1064.96 1564.63,1071.7C1564.43,1076 1561.37,1078.39 1555.87,1078Z" style="fill:rgb(71,98,178);fill-rule:nonzero;"/>
    </g>
    <g transform="matrix(1,0,0,1,-1340,-840)">
        <path d="M1524.62,864.75C1525.39,866.75 1526.88,868.66 1526.53,870.13C1525.88,872.82 1523.84,874.37 1520.2,870.4C1520.88,873.4 1521.14,874.46 1521.39,875.54L1511.67,877.44C1509.97,872.81 1514.81,873.32 1516.95,871.64C1519.36,869.75 1521.52,867.56 1524.62,864.75Z" style="fill:rgb(71,98,178);fill-rule:nonzero;"/>
    </g>
    <g transform="matrix(1,0,0,1,-1340,-840)">
        <path d="M1494.48,1039.19C1494.48,1031.19 1494.48,1023.76 1494.54,1016.32C1494.54,1015.69 1495.34,1015.07 1495.76,1014.45C1496.38,1014.88 1497.53,1015.31 1497.52,1015.73C1497.44,1023.33 1497.22,1030.92 1496.97,1038.51C1496.17,1038.82 1495.33,1039.05 1494.48,1039.19Z" style="fill:rgb(71,98,178);fill-rule:nonzero;"/>
    </g>
    <g transform="matrix(1,0,0,1,-1340,-840)">
        <path d="M1583.75,926.47C1585.03,925.54 1586.12,924.8 1587.16,923.98C1588.56,922.86 1589.92,921.69 1591.3,920.53C1594.74,923.35 1592.3,925.86 1590.76,927.77C1589,930 1586.47,930 1583.75,926.47Z" style="fill:rgb(71,98,178);fill-rule:nonzero;"/>
    </g>
    <g transform="matrix(1,0,0,1,-1340,-840)">
        <path d="M1534.34,875.71L1542.54,869.39C1543.05,875.27 1541.07,876.88 1534.34,875.71Z" style="fill:rgb(71,98,178);fill-rule:nonzero;"/>
    </g>
    <g transform="matrix(1,0,0,1,-1340,-840)">
        <path d="M1454.29,1044.39L1461.91,1041.22L1462.6,1042.35L1459.6,1049.11L1454.29,1044.39Z" style="fill:rgb(71,98,178);fill-rule:nonzero;"/>
    </g>
    <g transform="matrix(1,0,0,1,-1340,-840)">
        <path d="M1483.72,925.25L1478.12,932.49L1482.24,932.49C1479.45,935.56 1477.45,937.76 1474.9,940.55C1473.53,931.92 1476.14,927.32 1483.72,925.25Z" style="fill:rgb(71,98,178);fill-rule:nonzero;"/>
    </g>
    <g transform="matrix(1,0,0,1,-1340,-840)">
        <path d="M1477.21,946.94C1485.79,938.5 1485.79,938.5 1494.68,942.75L1477.21,946.94Z" style="fill:rgb(71,98,178);fill-rule:nonzero;"/>
    </g>
    <g transform="matrix(1,0,0,1,-1340,-840)">
        <path d="M1488.57,936.54L1498.28,929.26C1497.48,933.46 1497.77,937.01 1496.14,938.67C1495.05,939.79 1491.22,938.21 1488.61,937.83L1488.57,936.54Z" style="fill:rgb(71,98,178);fill-rule:nonzero;"/>
    </g>
    <g transform="matrix(1,0,0,1,-1340,-840)">
        <path d="M1502,929.42L1508,936.95L1498.19,941.36C1499.24,938 1500.29,934.69 1502,929.42Z" style="fill:rgb(71,98,178);fill-rule:nonzero;"/>
    </g>
    <g transform="matrix(1,0,0,1,-1340,-840)">
        <path d="M1524.15,914.54C1525.45,919.47 1523.62,923.92 1518.27,927.74C1519.83,922.74 1521.2,918.41 1522.56,914.05L1524.15,914.54Z" style="fill:rgb(71,98,178);fill-rule:nonzero;"/>
    </g>
    <g transform="matrix(1,0,0,1,-1340,-840)">
        <path d="M1465.56,957.47L1462.06,967.01L1460.39,966.53C1459.6,964.16 1456.56,961.9 1460.73,958.75L1461.25,962.18C1461.92,960.41 1462.64,958.5 1463.37,956.59L1465.56,957.47Z" style="fill:rgb(71,98,178);fill-rule:nonzero;"/>
    </g>
    <g transform="matrix(1,0,0,1,-1340,-840)">
        <path d="M1453.17,946.34C1455.12,953.86 1451,955.26 1447.17,956.87L1445.83,955.87L1453.17,946.34Z" style="fill:rgb(71,98,178);fill-rule:nonzero;"/>
    </g>
    <g transform="matrix(1,0,0,1,-1340,-840)">
        <path d="M1423.51,1049.52L1420.71,1056.34L1416.34,1052.45L1422.56,1048.57L1423.51,1049.52Z" style="fill:rgb(71,98,178);fill-rule:nonzero;"/>
    </g>
    <g transform="matrix(1,0,0,1,-1340,-840)">
        <path d="M1556.75,902.87L1550.04,902.87C1549.34,902.87 1548.33,902.75 1548.04,902.3C1547.75,901.85 1548.04,900.86 1548.04,900.11C1548.7,900.203 1549.37,900.253 1550.04,900.26C1550.91,900.327 1551.78,900.207 1552.6,899.91C1557.17,897.32 1555.94,900.94 1556.75,902.87Z" style="fill:rgb(71,98,178);fill-rule:nonzero;"/>
    </g>
    <g transform="matrix(1,0,0,1,-1340,-840)">
        <path d="M1570.75,912.11L1579.03,915.45C1575.83,918.69 1575.83,918.69 1570.75,912.11Z" style="fill:rgb(71,98,178);fill-rule:nonzero;"/>
    </g>
    <g transform="matrix(1,0,0,1,-1340,-840)">
        <path d="M1569.35,891.27L1574.27,895.43L1574.27,896.9L1567.83,896.9C1568.31,895.21 1568.76,893.53 1569.35,891.27Z" style="fill:rgb(71,98,178);fill-rule:nonzero;"/>
    </g>
    <g transform="matrix(1,0,0,1,-1340,-840)">
        <path d="M1463,1065.87C1463.26,1071.11 1463.54,1076.57 1463.83,1082.26C1459.83,1081.77 1457.12,1081.33 1454.33,1081.11C1450.91,1080.85 1448.27,1079.49 1448.43,1075.78C1448.59,1072.07 1449.26,1068.4 1454.13,1067.78C1457,1067.33 1459.91,1066.53 1463,1065.87Z" style="fill:rgb(71,98,178);fill-rule:nonzero;"/>
    </g>
    <g transform="matrix(1,0,0,1,-1340,-840)">
        <path d="M1551.7,1062.91C1551.8,1069.36 1549.08,1072.97 1544.1,1073.01C1539.12,1073.05 1536.55,1069.68 1536.53,1063.01C1536.53,1056.69 1539,1053.29 1543.78,1053.12C1545.73,1053.04 1547.35,1053.52 1548.61,1054.53C1550.57,1056.1 1551.64,1058.95 1551.7,1062.91Z" style="fill:white;fill-rule:nonzero;"/>
    </g>
    <g transform="matrix(1,0,0,1,-1340,-840)">
        <path d="M1586.76,1027.13C1585.88,1029.54 1585.48,1032.32 1584.01,1034.3C1581.01,1038.4 1573.93,1037.3 1572.27,1032.48C1571.35,1029.5 1571.07,1026.36 1571.46,1023.26C1571.92,1018.92 1574.64,1016.52 1579.28,1016.8C1583.92,1017.08 1585.53,1019.94 1586.04,1023.95C1586.17,1024.95 1586.16,1025.95 1586.21,1026.95L1586.76,1027.13Z" style="fill:white;fill-rule:nonzero;"/>
    </g>
    <g transform="matrix(1,0,0,1,-1340,-840)">
        <path d="M1517.77,1064.88L1517.77,1052.75C1520.64,1053.58 1523.49,1053.67 1525.1,1055.12C1526.18,1056.12 1526.37,1059.79 1525.4,1060.9C1523.85,1062.67 1521,1063.31 1517.77,1064.88Z" style="fill:white;fill-rule:nonzero;"/>
    </g>
    <g transform="matrix(1,0,0,1,-1340,-840)">
        <path d="M1535.62,1017.31C1537.18,1022.31 1538.26,1025.69 1539.45,1029.46L1531.11,1029.46C1532.6,1025.45 1533.91,1021.93 1535.62,1017.31Z" style="fill:white;fill-rule:nonzero;"/>
    </g>
    <g transform="matrix(1,0,0,1,-1340,-840)">
        <path d="M1553.38,1029L1553.38,1016.15C1556.45,1017.28 1559.38,1017.64 1561.04,1019.25C1562.04,1020.25 1562.04,1023.87 1560.96,1025.02C1559.37,1026.79 1556.54,1027.45 1553.38,1029Z" style="fill:white;fill-rule:nonzero;"/>
    </g>
    <g transform="matrix(1,0,0,1,-1340,-840)">
        <path d="M1497.87,1065L1497.87,1052.59C1500.78,1053.59 1503.77,1053.68 1505.17,1055.24C1506.29,1056.48 1506.38,1060.24 1505.32,1061.49C1503.87,1063.26 1500.88,1063.72 1497.87,1065Z" style="fill:white;fill-rule:nonzero;"/>
    </g>
</svg>
