<svg id="Calque_1" data-name="Calque 1" xmlns="http://www.w3.org/2000/svg" viewBox="0 0 2320.77 1025.95"><defs><style>.cls-1{fill:#ff214d;}.cls-2{isolation:isolate;}.cls-3{fill:#5176d2;}</style></defs><title>back</title><path class="cls-1" d="M487.94,1301.43l194.94-168.9c17.9-15.48,46.9-15.48,64.81,0s17.8,40.6,0,56.09l-116.9,101.19H732.22l181.51-157.28c17.9-15.48,46.9-15.48,64.81,0s17.8,40.6,0,56.09l-116.9,101.19,1335.13-30.39c25.28,0,37,40.55,37,62.45s-4.71,57.89-30,57.89L861.64,1369.12l116.9,101.2c17.8,15.48,17.8,40.59,0,56.08-9,7.74-20.76,11.61-32.46,11.61a49.48,49.48,0,0,1-32.35-11.61L732.22,1369.12H630.79l116.9,101.2c17.8,15.48,17.8,40.59,0,56.08a51,51,0,0,1-64.81,0L487.94,1357.51C470,1342,470,1316.91,487.94,1301.43Z" transform="translate(-149.23 -512.06)"/><g class="cls-2"><path class="cls-3" d="M345.12,512.15l-84.35,315h-23.3l-88.24-315h19.84L249,797.34l76.39-285.19Z" transform="translate(-149.23 -512.06)"/><path class="cls-3" d="M682.56,669.81c0,86.74-70.57,157.32-157.31,157.32S367.93,756.55,367.93,669.81,438.5,512.5,525.25,512.5,682.56,583.07,682.56,669.81Zm-19.11,0c0-76.21-62-138.21-138.2-138.21S387,593.6,387,669.81,449,808,525.25,808,663.45,746,663.45,669.81Z" transform="translate(-149.23 -512.06)"/><path class="cls-3" d="M705.43,827.1v-315h19.11v315Z" transform="translate(-149.23 -512.06)"/><path class="cls-3" d="M855.68,649.71l-4.94-4.4-5.17,6.32a84.19,84.19,0,0,1-64.07,29.46c-2.69,0-5.61-.26-8.12-.5l-7-.69V827.12h-19.1v-315l34.22,0A84.28,84.28,0,0,1,861.33,624l-1.47,4.28,3.55,2.79a109.13,109.13,0,0,1,41.71,86.21V827.13H886V717.29A90.68,90.68,0,0,0,855.68,649.71Zm-8.82-53.07a65.43,65.43,0,0,0-65.36-65.35H766.38V654.92l.45,5.58,5.44.79c.46.08.9.16,1.3.2a65.4,65.4,0,0,0,73.29-64.85Z" transform="translate(-149.23 -512.06)"/><path class="cls-3" d="M1081.82,512.31V808h97.51v19.11H1062.71V512.31Z" transform="translate(-149.23 -512.06)"/><path class="cls-3" d="M1352.79,744.27H1244.2L1222,827.15h-19.78L1286.6,512.2l21-.11,88.24,315.06H1376l-23.21-82.87Zm-103.47-19.11h98.12l-50.16-179Z" transform="translate(-149.23 -512.06)"/><path class="cls-3" d="M1553.65,669.62c0-86.83,70.65-157.48,157.49-157.48h9.55V569.2h-19.11V531.39l-7.13.86a138.44,138.44,0,0,0-121.69,137.37c0,74.15,58.65,134.86,132,138.2v19.12C1620.87,823.59,1553.65,754.31,1553.65,669.62Z" transform="translate(-149.23 -512.06)"/><path class="cls-3" d="M1894.12,744.27H1785.54l-22.21,82.88h-19.78l84.38-314.95,21-.11,88.24,315.06h-19.83l-23.22-82.87Zm-103.46-19.11h98.11l-50.15-179Z" transform="translate(-149.23 -512.06)"/><path class="cls-3" d="M2068.4,649.71l-4.94-4.4-5.17,6.32a84.19,84.19,0,0,1-64.07,29.46c-2.69,0-5.61-.26-8.13-.5l-7-.69V827.12H1960v-315l34.23,0A84.28,84.28,0,0,1,2074.05,624l-1.47,4.28,3.55,2.79a109.12,109.12,0,0,1,41.7,86.21V827.13h-19.1V717.29A90.68,90.68,0,0,0,2068.4,649.71Zm-8.82-53.07a65.43,65.43,0,0,0-65.36-65.35H1979.1V654.92l.45,5.58,5.44.79c.46.08.9.16,1.3.2a65.4,65.4,0,0,0,73.29-64.85Z" transform="translate(-149.23 -512.06)"/><path class="cls-3" d="M2326.86,512.06v19.11H2243.2v296h-19.1v-296h-83.66V512.06Z" transform="translate(-149.23 -512.06)"/><path class="cls-3" d="M2368.79,531.19v130h93.48v19.11h-93.48V808H2470v19.11H2349.69v-315H2470v19.11Z" transform="translate(-149.23 -512.06)"/></g></svg>