<?xml version="1.0" encoding="UTF-8" standalone="no"?>
<!DOCTYPE svg PUBLIC "-//W3C//DTD SVG 1.1//EN" "http://www.w3.org/Graphics/SVG/1.1/DTD/svg11.dtd">
<svg width="100%" height="100%" viewBox="0 0 200 200" version="1.1" xmlns="http://www.w3.org/2000/svg" xmlns:xlink="http://www.w3.org/1999/xlink" xml:space="preserve" xmlns:serif="http://www.serif.com/" style="fill-rule:evenodd;clip-rule:evenodd;stroke-linejoin:round;stroke-miterlimit:2;">
    <g transform="matrix(0.307608,0,0,0.307608,-3.74907,-23.9047)">
        <g transform="matrix(4.19971,0,0,4.39442,-198.084,350.486)">
            <ellipse cx="87.535" cy="37.67" rx="3.114" ry="3.027" style="fill:rgb(255,0,0);"/>
        </g>
        <g transform="matrix(4.29838,0,0,4.36052,-68.8691,404.557)">
            <ellipse cx="87.535" cy="37.67" rx="3.114" ry="3.027" style="fill:rgb(255,0,0);"/>
        </g>
        <g transform="matrix(3.47282,0,0,3.44111,87.2758,-24.8854)">
            <ellipse cx="87.535" cy="37.67" rx="3.114" ry="3.027" style="fill:rgb(255,0,0);"/>
        </g>
        <g transform="matrix(4.51294,0,0,4.33279,49.221,521.319)">
            <ellipse cx="87.535" cy="37.67" rx="3.114" ry="3.027" style="fill:rgb(255,0,0);"/>
        </g>
        <g transform="matrix(4.39737,0,0,4.31615,-35.4399,321.672)">
            <ellipse cx="87.535" cy="37.67" rx="3.114" ry="3.027" style="fill:rgb(255,0,0);"/>
        </g>
        <g transform="matrix(3.9062,0,0,3.73834,143.298,269.591)">
            <ellipse cx="87.535" cy="37.67" rx="3.114" ry="3.027" style="fill:rgb(255,0,0);"/>
        </g>
        <g transform="matrix(3.87518,0,0,3.87939,-43.4815,11.7616)">
            <ellipse cx="87.535" cy="37.67" rx="3.114" ry="3.027" style="fill:rgb(255,0,0);"/>
        </g>
        <g transform="matrix(3.98406,0,0,3.98652,-105.453,92.4103)">
            <ellipse cx="87.535" cy="37.67" rx="3.114" ry="3.027" style="fill:rgb(255,0,0);"/>
        </g>
    </g>
</svg>
