<?xml version="1.0" encoding="UTF-8" standalone="no"?>
<!DOCTYPE svg PUBLIC "-//W3C//DTD SVG 1.1//EN" "http://www.w3.org/Graphics/SVG/1.1/DTD/svg11.dtd">
<svg width="100%" height="100%" viewBox="0 0 200 200" version="1.1" xmlns="http://www.w3.org/2000/svg" xmlns:xlink="http://www.w3.org/1999/xlink" xml:space="preserve" xmlns:serif="http://www.serif.com/" style="fill-rule:evenodd;clip-rule:evenodd;stroke-linejoin:round;stroke-miterlimit:2;">
    <g transform="matrix(0.307608,0,0,0.307608,-3.74907,-23.9047)">
        <g transform="matrix(5.81009,0,0,5.90643,-322.615,298.843)">
            <ellipse cx="87.535" cy="37.67" rx="3.114" ry="3.027" style="fill:rgb(255,0,0);"/>
        </g>
        <g transform="matrix(5.73711,0,0,5.97338,-189.247,359.339)">
            <ellipse cx="87.535" cy="37.67" rx="3.114" ry="3.027" style="fill:rgb(255,0,0);"/>
        </g>
        <g transform="matrix(5.91364,0,0,5.72381,-121.084,-105.577)">
            <ellipse cx="87.535" cy="37.67" rx="3.114" ry="3.027" style="fill:rgb(255,0,0);"/>
        </g>
        <g transform="matrix(5.745,0,0,5.81755,-52.8424,470.877)">
            <ellipse cx="87.535" cy="37.67" rx="3.114" ry="3.027" style="fill:rgb(255,0,0);"/>
        </g>
        <g transform="matrix(5.9275,0,0,5.91641,-154.5,266.743)">
            <ellipse cx="87.535" cy="37.67" rx="3.114" ry="3.027" style="fill:rgb(255,0,0);"/>
        </g>
        <g transform="matrix(6.26573,0,0,6.51245,-61.8333,176.607)">
            <ellipse cx="87.535" cy="37.67" rx="3.114" ry="3.027" style="fill:rgb(255,0,0);"/>
        </g>
        <g transform="matrix(5.76571,0,0,5.68577,-202.888,-51.6368)">
            <ellipse cx="87.535" cy="37.67" rx="3.114" ry="3.027" style="fill:rgb(255,0,0);"/>
        </g>
        <g transform="matrix(5.80269,0,0,5.72381,-258.873,31.0592)">
            <ellipse cx="87.535" cy="37.67" rx="3.114" ry="3.027" style="fill:rgb(255,0,0);"/>
        </g>
    </g>
</svg>
