<?xml version="1.0" encoding="UTF-8" standalone="no"?>
<!DOCTYPE svg PUBLIC "-//W3C//DTD SVG 1.1//EN" "http://www.w3.org/Graphics/SVG/1.1/DTD/svg11.dtd">
<svg width="100%" height="100%" viewBox="0 0 200 200" version="1.1" xmlns="http://www.w3.org/2000/svg" xmlns:xlink="http://www.w3.org/1999/xlink" xml:space="preserve" xmlns:serif="http://www.serif.com/" style="fill-rule:evenodd;clip-rule:evenodd;stroke-linecap:round;stroke-linejoin:round;stroke-miterlimit:1.5;">
    <g transform="matrix(0.307608,0,0,0.307608,-3.74907,-23.9047)">
        <g transform="matrix(2.89759,0.885189,-0.870334,2.84896,121.409,52.93)">
            <path d="M68.71,95.065L29.521,158.849" style="fill:none;stroke:rgb(253,38,79);stroke-width:1.08px;"/>
        </g>
        <g transform="matrix(2.49267,1.1712,-1.21792,2.59209,414.919,-65.5711)">
            <path d="M68.71,95.065L29.014,159.942" style="fill:none;stroke:rgb(253,38,79);stroke-width:1.16px;"/>
        </g>
        <g transform="matrix(-2.21026,-1.03851,0.0371931,-0.0791582,307.47,210.389)">
            <path d="M58.239,-841.643L28.859,159.699" style="fill:none;stroke:rgb(253,38,79);stroke-width:1.88px;"/>
        </g>
        <g transform="matrix(-0.077087,1.97191,-1.87328,-0.0732315,426.12,190.255)">
            <path d="M69.486,91.822L83.371,153.031" style="fill:none;stroke:rgb(253,38,79);stroke-width:1.69px;"/>
        </g>
        <g transform="matrix(3.25089,0,0,3.25089,-29.1705,11.1721)">
            <text x="16.701px" y="169.299px" style="font-family:'MyriadArabic-Regular', 'Myriad Arabic';font-size:12px;fill:rgb(253,38,79);">Cali</text>
        </g>
        <g transform="matrix(3.25089,0,0,3.25089,-37.1449,-199.851)">
            <text x="16.701px" y="169.299px" style="font-family:'MyriadArabic-Regular', 'Myriad Arabic';font-size:12px;fill:rgb(253,38,79);">Meddelin</text>
        </g>
        <g transform="matrix(3.25089,0,0,3.25089,425.603,-287.119)">
            <text x="16.701px" y="169.299px" style="font-family:'MyriadArabic-Regular', 'Myriad Arabic';font-size:12px;fill:rgb(253,38,79);">Bogota</text>
        </g>
        <g transform="matrix(3.25089,0,0,3.25089,-31.2502,-328.263)">
            <text x="16.701px" y="169.299px" style="font-family:'MyriadArabic-Regular', 'Myriad Arabic';font-size:12px;fill:rgb(253,38,79);">Car<tspan x="28.753px " y="169.299px ">t</tspan>agène</text>
        </g>
        <g transform="matrix(-1.84977,-2.34945,2.55424,-2.01101,209.504,777.18)">
            <path d="M86.321,92.56L88.461,95.788L84.18,95.788L86.321,92.56Z" style="fill:rgb(253,38,79);"/>
        </g>
        <g transform="matrix(2.21299,2.38138,-2.38138,2.21299,273.941,-31.9007)">
            <path d="M86.321,92.56L88.461,95.788L84.18,95.788L86.321,92.56Z" style="fill:rgb(253,38,79);"/>
        </g>
        <g transform="matrix(0.623742,3.19049,-3.19049,0.623742,495.546,-13.789)">
            <path d="M86.321,92.56L88.461,95.788L84.18,95.788L86.321,92.56Z" style="fill:rgb(253,38,79);"/>
        </g>
        <g transform="matrix(1.31829,3.10744,-3.09098,1.31131,429.273,-224.722)">
            <path d="M86.321,92.56L88.461,95.788L84.18,95.788L86.321,92.56Z" style="fill:rgb(253,38,79);"/>
        </g>
    </g>
</svg>
