<?xml version="1.0" encoding="UTF-8" standalone="no"?>
<!DOCTYPE svg PUBLIC "-//W3C//DTD SVG 1.1//EN" "http://www.w3.org/Graphics/SVG/1.1/DTD/svg11.dtd">
<svg width="100%" height="100%" viewBox="0 0 200 200" version="1.1" xmlns="http://www.w3.org/2000/svg" xmlns:xlink="http://www.w3.org/1999/xlink" xml:space="preserve" xmlns:serif="http://www.serif.com/" style="fill-rule:evenodd;clip-rule:evenodd;stroke-linejoin:round;stroke-miterlimit:2;">
    <g transform="matrix(0.307608,0,0,0.307608,-3.74907,-23.9047)">
        <g transform="matrix(-1.84977,-2.34945,2.55424,-2.01101,209.504,777.18)">
            <path d="M86.321,92.56L88.461,95.788L84.18,95.788L86.321,92.56Z" style="fill:rgb(253,38,79);"/>
        </g>
        <g transform="matrix(2.21299,2.38138,-2.38138,2.21299,273.941,-31.9007)">
            <path d="M86.321,92.56L88.461,95.788L84.18,95.788L86.321,92.56Z" style="fill:rgb(253,38,79);"/>
        </g>
        <g transform="matrix(0.623742,3.19049,-3.19049,0.623742,498.084,-4.72243)">
            <path d="M86.321,92.56L88.461,95.788L84.18,95.788L86.321,92.56Z" style="fill:rgb(253,38,79);"/>
        </g>
        <g transform="matrix(-0.828141,3.27235,-3.25501,-0.823754,628.466,-39.8852)">
            <path d="M86.321,92.56L88.461,95.788L84.18,95.788L86.321,92.56Z" style="fill:rgb(253,38,79);"/>
        </g>
        <g transform="matrix(0.714344,0,0,0.693301,83.4141,109.076)">
            <g transform="matrix(3.72036,0,0,5.21417,-20.759,-110.501)">
                <rect x="85.638" y="84.196" width="32.196" height="9.41" style="fill:white;fill-opacity:0.5;"/>
            </g>
            <g transform="matrix(4.55088,0,0,4.689,-214.768,120.338)">
                <text x="113.524px" y="53.335px" style="font-family:'GiddyupStd', 'Giddyup Std', cursive;font-size:12px;fill:rgb(253,38,79);">Bogota</text>
            </g>
        </g>
        <g>
            <g transform="matrix(3.25089,0,0,3.25089,12.1878,77.7116)">
                <rect x="51.148" y="93.503" width="17.528" height="8.879" style="fill:white;fill-opacity:0.5;"/>
            </g>
            <g transform="matrix(3.25089,0,0,3.25089,-188.315,233.22)">
                <text x="113.524px" y="53.335px" style="font-family:'GiddyupStd', 'Giddyup Std', cursive;font-size:12px;fill:rgb(253,38,79);">Cal<tspan x="127px " y="53.335px ">i</tspan></text>
            </g>
        </g>
        <g>
            <g transform="matrix(5.52651,0,0,2.58227,-135.995,73.7033)">
                <rect x="51.148" y="93.503" width="17.528" height="8.879" style="fill:white;fill-opacity:0.5;"/>
            </g>
            <g transform="matrix(3.25089,0,0,3.25089,-237.798,164.266)">
                <text x="113.524px" y="53.335px" style="font-family:'GiddyupStd', 'Giddyup Std', cursive;font-size:12px;fill:rgb(253,38,79);">Meddel<tspan x="141.688px " y="53.335px ">i</tspan>n</text>
            </g>
            <g transform="matrix(3.25089,0,0,3.25089,-269.856,0.258089)">
                <text x="113.524px" y="53.335px" style="font-family:'GiddyupStd', 'Giddyup Std', cursive;font-size:12px;fill:rgb(253,38,79);">Car<tspan x="127.852px 130.612px " y="53.335px 53.335px ">th</tspan>agène</text>
            </g>
        </g>
    </g>
</svg>
