<?xml version="1.0" encoding="UTF-8" standalone="no"?>
<!DOCTYPE svg PUBLIC "-//W3C//DTD SVG 1.1//EN" "http://www.w3.org/Graphics/SVG/1.1/DTD/svg11.dtd">
<svg width="100%" height="100%" viewBox="0 0 200 200" version="1.1" xmlns="http://www.w3.org/2000/svg" xmlns:xlink="http://www.w3.org/1999/xlink" xml:space="preserve" xmlns:serif="http://www.serif.com/" style="fill-rule:evenodd;clip-rule:evenodd;stroke-linecap:round;stroke-linejoin:round;stroke-miterlimit:1.5;">
    <g transform="matrix(0.307608,0,0,0.307608,-3.74907,-23.9047)">
        <g transform="matrix(0.714344,0,0,0.693301,83.4141,109.076)">
            <g transform="matrix(4.46063,0,0,4.00744,-15.6003,-53.4223)">
                <g transform="matrix(16.3237,0,0,18.7212,113.524,57.7908)">
                    <path d="M0.391,-0.319C0.471,-0.346 0.499,-0.403 0.499,-0.448C0.499,-0.619 0.282,-0.634 0.206,-0.63C0.201,-0.698 0.177,-0.733 0.157,-0.733C0.144,-0.733 0.135,-0.723 0.135,-0.711C0.135,-0.705 0.136,-0.7 0.141,-0.695C0.155,-0.68 0.16,-0.65 0.161,-0.624C0.082,-0.608 0.04,-0.562 0.04,-0.512C0.04,-0.466 0.074,-0.429 0.138,-0.416C0.119,-0.342 0.101,-0.266 0.101,-0.193C0.101,-0.041 0.197,0.022 0.316,0.022C0.431,0.022 0.532,-0.039 0.532,-0.161C0.532,-0.217 0.5,-0.302 0.391,-0.319ZM0.316,-0.015C0.235,-0.015 0.146,-0.06 0.146,-0.195C0.146,-0.263 0.16,-0.331 0.18,-0.41C0.26,-0.409 0.303,-0.453 0.303,-0.506C0.303,-0.518 0.303,-0.542 0.28,-0.542C0.267,-0.542 0.259,-0.532 0.259,-0.521C0.259,-0.518 0.261,-0.508 0.261,-0.506C0.261,-0.464 0.214,-0.45 0.188,-0.45C0.198,-0.502 0.206,-0.549 0.207,-0.591C0.3,-0.596 0.384,-0.569 0.423,-0.53C0.444,-0.51 0.455,-0.484 0.455,-0.448C0.455,-0.405 0.416,-0.335 0.273,-0.333C0.261,-0.333 0.251,-0.323 0.251,-0.311C0.251,-0.298 0.261,-0.29 0.273,-0.291C0.41,-0.301 0.487,-0.247 0.487,-0.161C0.487,-0.062 0.398,-0.015 0.316,-0.015ZM0.085,-0.512C0.085,-0.54 0.109,-0.572 0.163,-0.584C0.161,-0.547 0.152,-0.497 0.143,-0.454C0.116,-0.46 0.085,-0.478 0.085,-0.512Z" style="fill:rgb(253,38,79);fill-rule:nonzero;"/>
                </g>
                <g transform="matrix(16.3237,0,0,18.7212,122.698,57.7908)">
                    <path d="M0.213,-0.348C0.149,-0.348 0.115,-0.298 0.115,-0.25C0.115,-0.204 0.145,-0.166 0.203,-0.166C0.228,-0.166 0.23,-0.182 0.23,-0.188C0.23,-0.2 0.22,-0.21 0.207,-0.21C0.19,-0.21 0.16,-0.21 0.16,-0.25C0.16,-0.274 0.173,-0.306 0.211,-0.306C0.259,-0.306 0.275,-0.252 0.275,-0.212C0.275,-0.127 0.229,-0.032 0.157,-0.032C0.106,-0.032 0.085,-0.093 0.085,-0.145C0.085,-0.166 0.088,-0.194 0.094,-0.209C0.095,-0.212 0.096,-0.215 0.096,-0.219C0.096,-0.23 0.087,-0.241 0.075,-0.241C0.066,-0.241 0.057,-0.234 0.054,-0.225C0.044,-0.198 0.04,-0.172 0.04,-0.144C0.04,-0.051 0.086,0.01 0.155,0.01C0.257,0.01 0.32,-0.105 0.32,-0.212C0.32,-0.292 0.279,-0.348 0.213,-0.348Z" style="fill:rgb(253,38,79);fill-rule:nonzero;"/>
                </g>
                <g transform="matrix(16.3237,0,0,18.7212,128.264,57.7908)">
                    <path d="M0.195,-0.3C0.242,-0.3 0.255,-0.239 0.255,-0.208C0.255,-0.195 0.263,-0.185 0.275,-0.185C0.288,-0.185 0.298,-0.195 0.298,-0.208C0.298,-0.287 0.263,-0.341 0.195,-0.341C0.099,-0.341 0.032,-0.224 0.032,-0.119C0.032,-0.036 0.079,0.013 0.146,0.013C0.15,0.013 0.155,0.013 0.16,0.012C0.164,0.012 0.169,0.011 0.173,0.01C0.183,0.026 0.192,0.038 0.209,0.055C0.233,0.08 0.247,0.104 0.247,0.134C0.247,0.225 0.156,0.271 0.085,0.271C0.02,0.271 -0.023,0.243 -0.023,0.192C-0.023,0.153 0.004,0.124 0.038,0.124C0.046,0.124 0.058,0.128 0.065,0.139C0.068,0.144 0.077,0.146 0.082,0.146C0.093,0.146 0.102,0.138 0.102,0.126C0.102,0.101 0.076,0.082 0.04,0.082C-0.02,0.082 -0.068,0.13 -0.068,0.192C-0.068,0.269 -0.006,0.312 0.085,0.312C0.188,0.312 0.292,0.245 0.292,0.134C0.292,0.093 0.27,0.054 0.239,0.026C0.231,0.019 0.222,0.009 0.214,-0.002C0.258,-0.026 0.28,-0.065 0.28,-0.102C0.28,-0.139 0.259,-0.169 0.223,-0.169C0.176,-0.169 0.147,-0.12 0.147,-0.074C0.147,-0.059 0.15,-0.04 0.157,-0.027C0.136,-0.026 0.115,-0.031 0.101,-0.045C0.085,-0.06 0.077,-0.086 0.077,-0.119C0.077,-0.201 0.127,-0.3 0.195,-0.3ZM0.189,-0.073C0.189,-0.101 0.205,-0.127 0.221,-0.127C0.234,-0.127 0.238,-0.113 0.238,-0.102C0.238,-0.079 0.222,-0.049 0.196,-0.036C0.191,-0.048 0.189,-0.062 0.189,-0.073Z" style="fill:rgb(253,38,79);fill-rule:nonzero;"/>
                </g>
                <g transform="matrix(16.3237,0,0,18.7212,133.504,57.7908)">
                    <path d="M0.213,-0.348C0.149,-0.348 0.115,-0.298 0.115,-0.25C0.115,-0.204 0.145,-0.166 0.203,-0.166C0.228,-0.166 0.23,-0.182 0.23,-0.188C0.23,-0.2 0.22,-0.21 0.207,-0.21C0.19,-0.21 0.16,-0.21 0.16,-0.25C0.16,-0.274 0.173,-0.306 0.211,-0.306C0.259,-0.306 0.275,-0.252 0.275,-0.212C0.275,-0.127 0.229,-0.032 0.157,-0.032C0.106,-0.032 0.085,-0.093 0.085,-0.145C0.085,-0.166 0.088,-0.194 0.094,-0.209C0.095,-0.212 0.096,-0.215 0.096,-0.219C0.096,-0.23 0.087,-0.241 0.075,-0.241C0.066,-0.241 0.057,-0.234 0.054,-0.225C0.044,-0.198 0.04,-0.172 0.04,-0.144C0.04,-0.051 0.086,0.01 0.155,0.01C0.257,0.01 0.32,-0.105 0.32,-0.212C0.32,-0.292 0.279,-0.348 0.213,-0.348Z" style="fill:rgb(253,38,79);fill-rule:nonzero;"/>
                </g>
                <g transform="matrix(16.3237,0,0,18.7212,139.07,57.7908)">
                    <path d="M0.168,-0.013C0.168,-0.024 0.159,-0.034 0.148,-0.034C0.138,-0.036 0.109,-0.041 0.109,-0.12C0.109,-0.171 0.118,-0.234 0.136,-0.298C0.155,-0.297 0.189,-0.295 0.208,-0.295C0.219,-0.295 0.227,-0.303 0.227,-0.315C0.227,-0.326 0.216,-0.334 0.205,-0.336C0.178,-0.337 0.158,-0.338 0.144,-0.338C0.149,-0.36 0.162,-0.413 0.172,-0.443C0.173,-0.445 0.174,-0.45 0.174,-0.454C0.174,-0.466 0.164,-0.474 0.151,-0.474C0.142,-0.473 0.134,-0.467 0.131,-0.458C0.12,-0.418 0.108,-0.372 0.1,-0.339C0.064,-0.338 0.022,-0.337 0.022,-0.309C0.022,-0.298 0.029,-0.292 0.036,-0.292C0.05,-0.292 0.061,-0.297 0.09,-0.297C0.071,-0.221 0.065,-0.165 0.065,-0.117C0.065,-0.04 0.089,0.001 0.139,0.009C0.14,0.009 0.145,0.01 0.146,0.01C0.158,0.009 0.168,-0.001 0.168,-0.013Z" style="fill:rgb(253,38,79);fill-rule:nonzero;"/>
                </g>
                <g transform="matrix(16.3237,0,0,18.7212,142.498,57.7908)">
                    <path d="M0.216,-0.346C0.106,-0.346 0.034,-0.201 0.034,-0.097C0.034,-0.022 0.075,0.008 0.115,0.008C0.187,0.008 0.219,-0.059 0.219,-0.076C0.219,-0.088 0.211,-0.098 0.198,-0.098C0.19,-0.098 0.182,-0.093 0.179,-0.085C0.169,-0.058 0.149,-0.034 0.122,-0.034C0.096,-0.034 0.079,-0.06 0.079,-0.097C0.079,-0.188 0.136,-0.304 0.212,-0.304C0.238,-0.304 0.264,-0.286 0.264,-0.238C0.264,-0.203 0.257,-0.164 0.251,-0.127C0.246,-0.091 0.24,-0.063 0.24,-0.042C0.24,-0.022 0.246,0.006 0.268,0.006C0.28,0.006 0.291,-0.004 0.291,-0.015C0.291,-0.02 0.289,-0.023 0.287,-0.027C0.286,-0.03 0.285,-0.034 0.285,-0.04C0.285,-0.06 0.291,-0.094 0.295,-0.12C0.302,-0.158 0.308,-0.202 0.308,-0.24C0.308,-0.309 0.273,-0.346 0.216,-0.346Z" style="fill:rgb(253,38,79);fill-rule:nonzero;"/>
                </g>
            </g>
            <g transform="matrix(4.55088,0,0,4.689,-99.7087,-45.24)">
                <path d="M86.341,93.583L129.754,48.371" style="fill:none;stroke:rgb(253,38,79);stroke-width:0.23px;"/>
            </g>
        </g>
        <g transform="matrix(1,0,0,1,-135.673,40.4163)">
            <g transform="matrix(3.25089,0,0,3.25089,12.1878,77.7116)">
                <rect x="51.148" y="93.503" width="17.528" height="8.879" style="fill:white;fill-opacity:0.5;"/>
            </g>
            <g transform="matrix(2.60258,0,0,3.04736,-114.716,242.456)">
                <g transform="matrix(19.9857,0,0,17.0686,113.524,56.6952)">
                    <path d="M0.368,-0.396C0.397,-0.367 0.433,-0.35 0.468,-0.35C0.536,-0.35 0.572,-0.398 0.572,-0.454C0.572,-0.539 0.5,-0.623 0.372,-0.63C0.394,-0.671 0.43,-0.685 0.466,-0.685C0.472,-0.685 0.496,-0.681 0.501,-0.681C0.513,-0.681 0.523,-0.688 0.523,-0.701C0.523,-0.726 0.487,-0.728 0.466,-0.728C0.404,-0.728 0.347,-0.693 0.321,-0.629C0.153,-0.612 0.039,-0.462 0.039,-0.287C0.039,-0.116 0.142,0.014 0.319,0.014C0.487,0.014 0.556,-0.09 0.556,-0.106C0.556,-0.119 0.546,-0.129 0.535,-0.129C0.528,-0.129 0.52,-0.125 0.516,-0.119C0.477,-0.062 0.408,-0.029 0.319,-0.029C0.167,-0.029 0.083,-0.144 0.083,-0.287C0.083,-0.428 0.169,-0.559 0.309,-0.585C0.308,-0.577 0.307,-0.568 0.307,-0.559C0.307,-0.494 0.328,-0.435 0.368,-0.396ZM0.468,-0.393C0.421,-0.393 0.352,-0.451 0.352,-0.559C0.352,-0.57 0.353,-0.58 0.355,-0.589C0.464,-0.586 0.526,-0.521 0.526,-0.454C0.526,-0.436 0.521,-0.393 0.468,-0.393Z" style="fill:rgb(253,38,79);fill-rule:nonzero;"/>
                </g>
                <g transform="matrix(19.9857,0,0,17.0686,125.535,56.6952)">
                    <path d="M0.216,-0.346C0.106,-0.346 0.034,-0.201 0.034,-0.097C0.034,-0.022 0.075,0.008 0.115,0.008C0.187,0.008 0.219,-0.059 0.219,-0.076C0.219,-0.088 0.211,-0.098 0.198,-0.098C0.19,-0.098 0.182,-0.093 0.179,-0.085C0.169,-0.058 0.149,-0.034 0.122,-0.034C0.096,-0.034 0.079,-0.06 0.079,-0.097C0.079,-0.188 0.136,-0.304 0.212,-0.304C0.238,-0.304 0.264,-0.286 0.264,-0.238C0.264,-0.203 0.257,-0.164 0.251,-0.127C0.246,-0.091 0.24,-0.063 0.24,-0.042C0.24,-0.022 0.246,0.006 0.268,0.006C0.28,0.006 0.291,-0.004 0.291,-0.015C0.291,-0.02 0.289,-0.023 0.287,-0.027C0.286,-0.03 0.285,-0.034 0.285,-0.04C0.285,-0.06 0.291,-0.094 0.295,-0.12C0.302,-0.158 0.308,-0.202 0.308,-0.24C0.308,-0.309 0.273,-0.346 0.216,-0.346Z" style="fill:rgb(253,38,79);fill-rule:nonzero;"/>
                </g>
                <g transform="matrix(19.9857,0,0,17.0686,132.45,56.6952)">
                    <path d="M0.139,-0.619C0.131,-0.616 0.125,-0.608 0.125,-0.598C0.125,-0.596 0.126,-0.593 0.127,-0.59C0.13,-0.585 0.131,-0.572 0.131,-0.552C0.131,-0.511 0.117,-0.46 0.095,-0.369C0.076,-0.292 0.046,-0.148 0.046,-0.068C0.046,-0.04 0.048,0.004 0.076,0.004C0.088,0.004 0.098,-0.005 0.098,-0.018C0.098,-0.022 0.097,-0.025 0.095,-0.028C0.094,-0.031 0.091,-0.04 0.091,-0.068C0.091,-0.148 0.122,-0.292 0.144,-0.382C0.158,-0.44 0.175,-0.505 0.175,-0.552C0.175,-0.584 0.175,-0.621 0.148,-0.621C0.145,-0.621 0.141,-0.62 0.139,-0.619Z" style="fill:rgb(253,38,79);fill-rule:nonzero;"/>
                </g>
                <g transform="matrix(19.9857,0,0,17.0686,135.968,56.6952)">
                    <path d="M0.119,-0.455L0.089,-0.488L0.094,-0.442L0.045,-0.414L0.095,-0.41L0.094,-0.352L0.122,-0.407L0.196,-0.395L0.135,-0.434L0.175,-0.462L0.119,-0.455ZM0.112,-0.332C0.1,-0.335 0.087,-0.328 0.085,-0.316C0.055,-0.197 0.04,-0.023 0.04,-0.01C0.04,0.003 0.05,0.013 0.063,0.013C0.075,0.013 0.084,0.004 0.085,-0.008C0.091,-0.103 0.11,-0.233 0.128,-0.305C0.129,-0.307 0.129,-0.309 0.129,-0.31C0.129,-0.32 0.122,-0.329 0.112,-0.332Z" style="fill:rgb(253,38,79);fill-rule:nonzero;"/>
                </g>
            </g>
        </g>
        <g transform="matrix(1,0,0,1,-81.1372,4.92025)">
            <g transform="matrix(5.52651,0,0,3.48151,-135.995,-10.3781)">
                <rect x="51.148" y="93.503" width="17.528" height="8.879" style="fill:white;fill-opacity:0.5;"/>
            </g>
            <g transform="matrix(3.80933,0,0,3.04736,-336.998,170.427)">
                <g transform="matrix(13.6544,0,0,17.0686,113.524,56.6952)">
                    <path d="M0.111,-0.714C0.099,-0.714 0.088,-0.705 0.088,-0.692C0.088,-0.681 0.097,-0.673 0.107,-0.671C0.158,-0.661 0.193,-0.62 0.213,-0.545C0.099,-0.443 0.02,-0.238 0.02,-0.116C0.02,-0.029 0.06,0.014 0.111,0.014C0.214,0.014 0.278,-0.165 0.278,-0.354C0.278,-0.412 0.274,-0.48 0.262,-0.531C0.297,-0.564 0.336,-0.584 0.376,-0.584C0.409,-0.584 0.436,-0.571 0.457,-0.55C0.478,-0.527 0.493,-0.498 0.501,-0.462C0.42,-0.354 0.363,-0.195 0.363,-0.093C0.363,-0.05 0.371,-0.022 0.387,-0.005C0.398,0.004 0.412,0.01 0.428,0.01C0.518,0.01 0.565,-0.164 0.565,-0.323C0.565,-0.374 0.559,-0.421 0.549,-0.453C0.564,-0.474 0.631,-0.567 0.702,-0.567C0.791,-0.567 0.814,-0.453 0.814,-0.363C0.814,-0.239 0.778,-0.098 0.73,-0.03C0.728,-0.026 0.727,-0.022 0.727,-0.017C0.727,-0.004 0.736,0.005 0.748,0.005C0.755,0.005 0.763,0.002 0.767,-0.004C0.82,-0.081 0.859,-0.23 0.859,-0.363C0.859,-0.436 0.847,-0.518 0.797,-0.57C0.772,-0.596 0.74,-0.608 0.704,-0.608C0.638,-0.608 0.578,-0.559 0.533,-0.504C0.524,-0.538 0.483,-0.626 0.379,-0.626C0.332,-0.626 0.289,-0.607 0.25,-0.578C0.227,-0.647 0.187,-0.702 0.116,-0.714L0.111,-0.714ZM0.233,-0.354C0.233,-0.182 0.177,-0.027 0.112,-0.027C0.065,-0.027 0.064,-0.103 0.064,-0.116C0.064,-0.227 0.133,-0.394 0.224,-0.5C0.229,-0.457 0.233,-0.41 0.233,-0.354ZM0.52,-0.313C0.518,-0.154 0.471,-0.03 0.429,-0.03C0.409,-0.03 0.407,-0.079 0.407,-0.093C0.407,-0.175 0.45,-0.301 0.514,-0.409C0.519,-0.376 0.52,-0.346 0.52,-0.313Z" style="fill:rgb(253,38,79);fill-rule:nonzero;"/>
                </g>
                <g transform="matrix(13.6544,0,0,17.0686,125.744,56.6952)">
                    <path d="M0.144,-0.188C0.131,-0.187 0.122,-0.177 0.122,-0.166C0.122,-0.153 0.132,-0.145 0.144,-0.145C0.203,-0.145 0.286,-0.184 0.286,-0.263C0.286,-0.303 0.262,-0.34 0.202,-0.34C0.123,-0.34 0.035,-0.252 0.035,-0.126C0.035,-0.041 0.084,0.01 0.16,0.01C0.221,0.01 0.269,-0.03 0.269,-0.049C0.269,-0.062 0.261,-0.072 0.249,-0.072C0.242,-0.072 0.237,-0.069 0.233,-0.064C0.216,-0.043 0.189,-0.031 0.163,-0.031C0.091,-0.031 0.08,-0.092 0.08,-0.126C0.08,-0.233 0.151,-0.297 0.201,-0.297C0.227,-0.297 0.241,-0.283 0.241,-0.263C0.241,-0.218 0.191,-0.189 0.144,-0.188Z" style="fill:rgb(253,38,79);fill-rule:nonzero;"/>
                </g>
                <g transform="matrix(13.6544,0,0,17.0686,129.813,56.6952)">
                    <path d="M0.151,0.008C0.181,0.008 0.207,-0.004 0.229,-0.026C0.297,-0.094 0.32,-0.252 0.322,-0.38C0.336,-0.377 0.349,-0.376 0.361,-0.376C0.368,-0.376 0.379,-0.386 0.379,-0.397C0.379,-0.409 0.372,-0.415 0.36,-0.417C0.347,-0.418 0.334,-0.42 0.323,-0.422C0.324,-0.443 0.32,-0.559 0.268,-0.609C0.251,-0.626 0.23,-0.634 0.21,-0.634C0.159,-0.634 0.129,-0.587 0.129,-0.543C0.129,-0.471 0.194,-0.409 0.278,-0.387C0.276,-0.205 0.236,-0.033 0.152,-0.033C0.111,-0.033 0.084,-0.08 0.084,-0.148C0.084,-0.222 0.123,-0.297 0.175,-0.297C0.19,-0.297 0.203,-0.29 0.208,-0.282C0.212,-0.275 0.22,-0.271 0.227,-0.271C0.239,-0.271 0.249,-0.281 0.249,-0.293C0.249,-0.312 0.217,-0.342 0.175,-0.342C0.092,-0.342 0.04,-0.241 0.04,-0.148C0.04,-0.052 0.089,0.008 0.151,0.008ZM0.208,-0.592C0.234,-0.592 0.279,-0.551 0.279,-0.431C0.219,-0.447 0.174,-0.494 0.174,-0.544C0.174,-0.564 0.185,-0.592 0.208,-0.592Z" style="fill:rgb(253,38,79);fill-rule:nonzero;"/>
                </g>
                <g transform="matrix(13.6544,0,0,17.0686,134.456,56.6952)">
                    <path d="M0.151,0.008C0.181,0.008 0.207,-0.004 0.229,-0.026C0.297,-0.094 0.32,-0.252 0.322,-0.38C0.336,-0.377 0.349,-0.376 0.361,-0.376C0.368,-0.376 0.379,-0.386 0.379,-0.397C0.379,-0.409 0.372,-0.415 0.36,-0.417C0.347,-0.418 0.334,-0.42 0.323,-0.422C0.324,-0.443 0.32,-0.559 0.268,-0.609C0.251,-0.626 0.23,-0.634 0.21,-0.634C0.159,-0.634 0.129,-0.587 0.129,-0.543C0.129,-0.471 0.194,-0.409 0.278,-0.387C0.276,-0.205 0.236,-0.033 0.152,-0.033C0.111,-0.033 0.084,-0.08 0.084,-0.148C0.084,-0.222 0.123,-0.297 0.175,-0.297C0.19,-0.297 0.203,-0.29 0.208,-0.282C0.212,-0.275 0.22,-0.271 0.227,-0.271C0.239,-0.271 0.249,-0.281 0.249,-0.293C0.249,-0.312 0.217,-0.342 0.175,-0.342C0.092,-0.342 0.04,-0.241 0.04,-0.148C0.04,-0.052 0.089,0.008 0.151,0.008ZM0.208,-0.592C0.234,-0.592 0.279,-0.551 0.279,-0.431C0.219,-0.447 0.174,-0.494 0.174,-0.544C0.174,-0.564 0.185,-0.592 0.208,-0.592Z" style="fill:rgb(253,38,79);fill-rule:nonzero;"/>
                </g>
                <g transform="matrix(13.6544,0,0,17.0686,139.098,56.6952)">
                    <path d="M0.144,-0.188C0.131,-0.187 0.122,-0.177 0.122,-0.166C0.122,-0.153 0.132,-0.145 0.144,-0.145C0.203,-0.145 0.286,-0.184 0.286,-0.263C0.286,-0.303 0.262,-0.34 0.202,-0.34C0.123,-0.34 0.035,-0.252 0.035,-0.126C0.035,-0.041 0.084,0.01 0.16,0.01C0.221,0.01 0.269,-0.03 0.269,-0.049C0.269,-0.062 0.261,-0.072 0.249,-0.072C0.242,-0.072 0.237,-0.069 0.233,-0.064C0.216,-0.043 0.189,-0.031 0.163,-0.031C0.091,-0.031 0.08,-0.092 0.08,-0.126C0.08,-0.233 0.151,-0.297 0.201,-0.297C0.227,-0.297 0.241,-0.283 0.241,-0.263C0.241,-0.218 0.191,-0.189 0.144,-0.188Z" style="fill:rgb(253,38,79);fill-rule:nonzero;"/>
                </g>
                <g transform="matrix(13.6544,0,0,17.0686,143.167,56.6952)">
                    <path d="M0.139,-0.619C0.131,-0.616 0.125,-0.608 0.125,-0.598C0.125,-0.596 0.126,-0.593 0.127,-0.59C0.13,-0.585 0.131,-0.572 0.131,-0.552C0.131,-0.511 0.117,-0.46 0.095,-0.369C0.076,-0.292 0.046,-0.148 0.046,-0.068C0.046,-0.04 0.048,0.004 0.076,0.004C0.088,0.004 0.098,-0.005 0.098,-0.018C0.098,-0.022 0.097,-0.025 0.095,-0.028C0.094,-0.031 0.091,-0.04 0.091,-0.068C0.091,-0.148 0.122,-0.292 0.144,-0.382C0.158,-0.44 0.175,-0.505 0.175,-0.552C0.175,-0.584 0.175,-0.621 0.148,-0.621C0.145,-0.621 0.141,-0.62 0.139,-0.619Z" style="fill:rgb(253,38,79);fill-rule:nonzero;"/>
                </g>
                <g transform="matrix(13.6544,0,0,17.0686,145.571,56.6952)">
                    <path d="M0.119,-0.455L0.089,-0.488L0.094,-0.442L0.045,-0.414L0.095,-0.41L0.094,-0.352L0.122,-0.407L0.196,-0.395L0.135,-0.434L0.175,-0.462L0.119,-0.455ZM0.112,-0.332C0.1,-0.335 0.087,-0.328 0.085,-0.316C0.055,-0.197 0.04,-0.023 0.04,-0.01C0.04,0.003 0.05,0.013 0.063,0.013C0.075,0.013 0.084,0.004 0.085,-0.008C0.091,-0.103 0.11,-0.233 0.128,-0.305C0.129,-0.307 0.129,-0.309 0.129,-0.31C0.129,-0.32 0.122,-0.329 0.112,-0.332Z" style="fill:rgb(253,38,79);fill-rule:nonzero;"/>
                </g>
                <g transform="matrix(13.6544,0,0,17.0686,147.755,56.6952)">
                    <path d="M0.23,-0.338C0.185,-0.338 0.146,-0.306 0.119,-0.244C0.123,-0.304 0.096,-0.341 0.076,-0.341C0.064,-0.341 0.054,-0.331 0.054,-0.32C0.054,-0.314 0.056,-0.309 0.059,-0.304C0.072,-0.291 0.076,-0.274 0.077,-0.244C0.076,-0.21 0.067,-0.166 0.056,-0.121C0.052,-0.105 0.034,-0.032 0.034,-0.02C0.034,-0.007 0.042,0.003 0.055,0.003C0.066,0.003 0.074,-0.004 0.076,-0.014C0.108,-0.179 0.172,-0.292 0.226,-0.292C0.252,-0.292 0.262,-0.254 0.262,-0.201C0.262,-0.136 0.248,-0.06 0.24,-0.025C0.239,-0.023 0.239,-0.022 0.239,-0.021C0.239,-0.008 0.249,0.002 0.262,0.002C0.265,0.002 0.281,0.002 0.284,-0.018C0.291,-0.052 0.307,-0.131 0.307,-0.201C0.307,-0.324 0.253,-0.338 0.23,-0.338Z" style="fill:rgb(253,38,79);fill-rule:nonzero;"/>
                </g>
            </g>
            <g transform="matrix(4.45308,0,0,3.04736,-409.335,6.56548)">
                <g transform="matrix(11.6805,0,0,17.0686,113.524,56.6952)">
                    <path d="M0.368,-0.396C0.397,-0.367 0.433,-0.35 0.468,-0.35C0.536,-0.35 0.572,-0.398 0.572,-0.454C0.572,-0.539 0.5,-0.623 0.372,-0.63C0.394,-0.671 0.43,-0.685 0.466,-0.685C0.472,-0.685 0.496,-0.681 0.501,-0.681C0.513,-0.681 0.523,-0.688 0.523,-0.701C0.523,-0.726 0.487,-0.728 0.466,-0.728C0.404,-0.728 0.347,-0.693 0.321,-0.629C0.153,-0.612 0.039,-0.462 0.039,-0.287C0.039,-0.116 0.142,0.014 0.319,0.014C0.487,0.014 0.556,-0.09 0.556,-0.106C0.556,-0.119 0.546,-0.129 0.535,-0.129C0.528,-0.129 0.52,-0.125 0.516,-0.119C0.477,-0.062 0.408,-0.029 0.319,-0.029C0.167,-0.029 0.083,-0.144 0.083,-0.287C0.083,-0.428 0.169,-0.559 0.309,-0.585C0.308,-0.577 0.307,-0.568 0.307,-0.559C0.307,-0.494 0.328,-0.435 0.368,-0.396ZM0.468,-0.393C0.421,-0.393 0.352,-0.451 0.352,-0.559C0.352,-0.57 0.353,-0.58 0.355,-0.589C0.464,-0.586 0.526,-0.521 0.526,-0.454C0.526,-0.436 0.521,-0.393 0.468,-0.393Z" style="fill:rgb(253,38,79);fill-rule:nonzero;"/>
                </g>
                <g transform="matrix(11.6805,0,0,17.0686,120.544,56.6952)">
                    <path d="M0.216,-0.346C0.106,-0.346 0.034,-0.201 0.034,-0.097C0.034,-0.022 0.075,0.008 0.115,0.008C0.187,0.008 0.219,-0.059 0.219,-0.076C0.219,-0.088 0.211,-0.098 0.198,-0.098C0.19,-0.098 0.182,-0.093 0.179,-0.085C0.169,-0.058 0.149,-0.034 0.122,-0.034C0.096,-0.034 0.079,-0.06 0.079,-0.097C0.079,-0.188 0.136,-0.304 0.212,-0.304C0.238,-0.304 0.264,-0.286 0.264,-0.238C0.264,-0.203 0.257,-0.164 0.251,-0.127C0.246,-0.091 0.24,-0.063 0.24,-0.042C0.24,-0.022 0.246,0.006 0.268,0.006C0.28,0.006 0.291,-0.004 0.291,-0.015C0.291,-0.02 0.289,-0.023 0.287,-0.027C0.286,-0.03 0.285,-0.034 0.285,-0.04C0.285,-0.06 0.291,-0.094 0.295,-0.12C0.302,-0.158 0.308,-0.202 0.308,-0.24C0.308,-0.309 0.273,-0.346 0.216,-0.346Z" style="fill:rgb(253,38,79);fill-rule:nonzero;"/>
                </g>
                <g transform="matrix(11.6805,0,0,17.0686,124.585,56.6952)">
                    <path d="M0.088,-0.044C0.111,-0.172 0.131,-0.294 0.235,-0.3C0.247,-0.301 0.256,-0.308 0.256,-0.32C0.256,-0.333 0.245,-0.342 0.232,-0.342C0.182,-0.342 0.128,-0.312 0.106,-0.246C0.108,-0.296 0.08,-0.33 0.061,-0.33C0.05,-0.33 0.04,-0.32 0.04,-0.308C0.04,-0.302 0.041,-0.296 0.046,-0.292C0.059,-0.279 0.068,-0.262 0.068,-0.218C0.068,-0.185 0.04,-0.021 0.04,-0.014C0.04,-0.002 0.048,0.008 0.06,0.008C0.071,0.008 0.08,0.001 0.082,-0.011L0.088,-0.044Z" style="fill:rgb(253,38,79);fill-rule:nonzero;"/>
                </g>
                <g transform="matrix(11.6805,0,0,17.0686,127.47,56.6952)">
                    <path d="M0.168,-0.013C0.168,-0.024 0.159,-0.034 0.148,-0.034C0.138,-0.036 0.109,-0.041 0.109,-0.12C0.109,-0.171 0.118,-0.234 0.136,-0.298C0.155,-0.297 0.189,-0.295 0.208,-0.295C0.219,-0.295 0.227,-0.303 0.227,-0.315C0.227,-0.326 0.216,-0.334 0.205,-0.336C0.178,-0.337 0.158,-0.338 0.144,-0.338C0.149,-0.36 0.162,-0.413 0.172,-0.443C0.173,-0.445 0.174,-0.45 0.174,-0.454C0.174,-0.466 0.164,-0.474 0.151,-0.474C0.142,-0.473 0.134,-0.467 0.131,-0.458C0.12,-0.418 0.108,-0.372 0.1,-0.339C0.064,-0.338 0.022,-0.337 0.022,-0.309C0.022,-0.298 0.029,-0.292 0.036,-0.292C0.05,-0.292 0.061,-0.297 0.09,-0.297C0.071,-0.221 0.065,-0.165 0.065,-0.117C0.065,-0.04 0.089,0.001 0.139,0.009C0.14,0.009 0.145,0.01 0.146,0.01C0.158,0.009 0.168,-0.001 0.168,-0.013Z" style="fill:rgb(253,38,79);fill-rule:nonzero;"/>
                </g>
                <g transform="matrix(11.6805,0,0,17.0686,130.157,56.6952)">
                    <path d="M0.079,0.004C0.092,0.004 0.102,-0.006 0.1,-0.018C0.086,-0.129 0.171,-0.296 0.236,-0.296C0.261,-0.296 0.274,-0.27 0.274,-0.194C0.274,-0.13 0.26,-0.062 0.252,-0.031C0.252,-0.029 0.251,-0.027 0.251,-0.025C0.251,-0.014 0.261,-0.003 0.274,-0.003C0.284,-0.003 0.292,-0.01 0.295,-0.02C0.298,-0.029 0.319,-0.111 0.319,-0.194C0.319,-0.237 0.318,-0.342 0.239,-0.342C0.185,-0.342 0.124,-0.281 0.094,-0.181C0.106,-0.277 0.122,-0.348 0.131,-0.384C0.231,-0.409 0.334,-0.484 0.334,-0.565C0.334,-0.606 0.309,-0.632 0.266,-0.632C0.189,-0.632 0.127,-0.519 0.096,-0.42C0.085,-0.418 0.071,-0.417 0.058,-0.417L0.039,-0.417C0.028,-0.419 0.018,-0.409 0.018,-0.397C0.018,-0.374 0.039,-0.375 0.057,-0.375C0.066,-0.375 0.077,-0.375 0.084,-0.376C0.074,-0.334 0.051,-0.206 0.051,-0.096C0.051,-0.063 0.053,-0.044 0.058,-0.014C0.06,-0.004 0.068,0.004 0.079,0.004ZM0.265,-0.591C0.283,-0.591 0.29,-0.58 0.29,-0.565C0.29,-0.516 0.223,-0.458 0.145,-0.431C0.176,-0.525 0.229,-0.591 0.265,-0.591Z" style="fill:rgb(253,38,79);fill-rule:nonzero;"/>
                </g>
                <g transform="matrix(11.6805,0,0,17.0686,134.373,56.6952)">
                    <path d="M0.216,-0.346C0.106,-0.346 0.034,-0.201 0.034,-0.097C0.034,-0.022 0.075,0.008 0.115,0.008C0.187,0.008 0.219,-0.059 0.219,-0.076C0.219,-0.088 0.211,-0.098 0.198,-0.098C0.19,-0.098 0.182,-0.093 0.179,-0.085C0.169,-0.058 0.149,-0.034 0.122,-0.034C0.096,-0.034 0.079,-0.06 0.079,-0.097C0.079,-0.188 0.136,-0.304 0.212,-0.304C0.238,-0.304 0.264,-0.286 0.264,-0.238C0.264,-0.203 0.257,-0.164 0.251,-0.127C0.246,-0.091 0.24,-0.063 0.24,-0.042C0.24,-0.022 0.246,0.006 0.268,0.006C0.28,0.006 0.291,-0.004 0.291,-0.015C0.291,-0.02 0.289,-0.023 0.287,-0.027C0.286,-0.03 0.285,-0.034 0.285,-0.04C0.285,-0.06 0.291,-0.094 0.295,-0.12C0.302,-0.158 0.308,-0.202 0.308,-0.24C0.308,-0.309 0.273,-0.346 0.216,-0.346Z" style="fill:rgb(253,38,79);fill-rule:nonzero;"/>
                </g>
                <g transform="matrix(11.6805,0,0,17.0686,138.415,56.6952)">
                    <path d="M0.195,-0.3C0.242,-0.3 0.255,-0.239 0.255,-0.208C0.255,-0.195 0.263,-0.185 0.275,-0.185C0.288,-0.185 0.298,-0.195 0.298,-0.208C0.298,-0.287 0.263,-0.341 0.195,-0.341C0.099,-0.341 0.032,-0.224 0.032,-0.119C0.032,-0.036 0.079,0.013 0.146,0.013C0.15,0.013 0.155,0.013 0.16,0.012C0.164,0.012 0.169,0.011 0.173,0.01C0.183,0.026 0.192,0.038 0.209,0.055C0.233,0.08 0.247,0.104 0.247,0.134C0.247,0.225 0.156,0.271 0.085,0.271C0.02,0.271 -0.023,0.243 -0.023,0.192C-0.023,0.153 0.004,0.124 0.038,0.124C0.046,0.124 0.058,0.128 0.065,0.139C0.068,0.144 0.077,0.146 0.082,0.146C0.093,0.146 0.102,0.138 0.102,0.126C0.102,0.101 0.076,0.082 0.04,0.082C-0.02,0.082 -0.068,0.13 -0.068,0.192C-0.068,0.269 -0.006,0.312 0.085,0.312C0.188,0.312 0.292,0.245 0.292,0.134C0.292,0.093 0.27,0.054 0.239,0.026C0.231,0.019 0.222,0.009 0.214,-0.002C0.258,-0.026 0.28,-0.065 0.28,-0.102C0.28,-0.139 0.259,-0.169 0.223,-0.169C0.176,-0.169 0.147,-0.12 0.147,-0.074C0.147,-0.059 0.15,-0.04 0.157,-0.027C0.136,-0.026 0.115,-0.031 0.101,-0.045C0.085,-0.06 0.077,-0.086 0.077,-0.119C0.077,-0.201 0.127,-0.3 0.195,-0.3ZM0.189,-0.073C0.189,-0.101 0.205,-0.127 0.221,-0.127C0.234,-0.127 0.238,-0.113 0.238,-0.102C0.238,-0.079 0.222,-0.049 0.196,-0.036C0.191,-0.048 0.189,-0.062 0.189,-0.073Z" style="fill:rgb(253,38,79);fill-rule:nonzero;"/>
                </g>
                <g transform="matrix(11.6805,0,0,17.0686,142.164,56.6952)">
                    <path d="M0.144,-0.188C0.131,-0.187 0.122,-0.177 0.122,-0.166C0.122,-0.153 0.132,-0.145 0.144,-0.145C0.203,-0.145 0.286,-0.184 0.286,-0.263C0.286,-0.303 0.262,-0.34 0.202,-0.34C0.123,-0.34 0.035,-0.252 0.035,-0.126C0.035,-0.041 0.084,0.01 0.16,0.01C0.221,0.01 0.269,-0.03 0.269,-0.049C0.269,-0.062 0.261,-0.072 0.249,-0.072C0.242,-0.072 0.237,-0.069 0.233,-0.064C0.216,-0.043 0.189,-0.031 0.163,-0.031C0.091,-0.031 0.08,-0.092 0.08,-0.126C0.08,-0.233 0.151,-0.297 0.201,-0.297C0.227,-0.297 0.241,-0.283 0.241,-0.263C0.241,-0.218 0.191,-0.189 0.144,-0.188ZM0.246,-0.411C0.246,-0.418 0.243,-0.424 0.238,-0.428C0.205,-0.454 0.172,-0.479 0.148,-0.5C0.143,-0.504 0.133,-0.513 0.124,-0.52C0.12,-0.521 0.115,-0.523 0.112,-0.523C0.102,-0.523 0.094,-0.517 0.094,-0.506C0.094,-0.496 0.098,-0.487 0.114,-0.475C0.141,-0.455 0.189,-0.416 0.213,-0.397C0.22,-0.392 0.226,-0.391 0.231,-0.391C0.239,-0.391 0.246,-0.399 0.246,-0.411Z" style="fill:rgb(253,38,79);fill-rule:nonzero;"/>
                </g>
                <g transform="matrix(11.6805,0,0,17.0686,145.645,56.6952)">
                    <path d="M0.23,-0.338C0.185,-0.338 0.146,-0.306 0.119,-0.244C0.123,-0.304 0.096,-0.341 0.076,-0.341C0.064,-0.341 0.054,-0.331 0.054,-0.32C0.054,-0.314 0.056,-0.309 0.059,-0.304C0.072,-0.291 0.076,-0.274 0.077,-0.244C0.076,-0.21 0.067,-0.166 0.056,-0.121C0.052,-0.105 0.034,-0.032 0.034,-0.02C0.034,-0.007 0.042,0.003 0.055,0.003C0.066,0.003 0.074,-0.004 0.076,-0.014C0.108,-0.179 0.172,-0.292 0.226,-0.292C0.252,-0.292 0.262,-0.254 0.262,-0.201C0.262,-0.136 0.248,-0.06 0.24,-0.025C0.239,-0.023 0.239,-0.022 0.239,-0.021C0.239,-0.008 0.249,0.002 0.262,0.002C0.265,0.002 0.281,0.002 0.284,-0.018C0.291,-0.052 0.307,-0.131 0.307,-0.201C0.307,-0.324 0.253,-0.338 0.23,-0.338Z" style="fill:rgb(253,38,79);fill-rule:nonzero;"/>
                </g>
                <g transform="matrix(11.6805,0,0,17.0686,149.733,56.6952)">
                    <path d="M0.144,-0.188C0.131,-0.187 0.122,-0.177 0.122,-0.166C0.122,-0.153 0.132,-0.145 0.144,-0.145C0.203,-0.145 0.286,-0.184 0.286,-0.263C0.286,-0.303 0.262,-0.34 0.202,-0.34C0.123,-0.34 0.035,-0.252 0.035,-0.126C0.035,-0.041 0.084,0.01 0.16,0.01C0.221,0.01 0.269,-0.03 0.269,-0.049C0.269,-0.062 0.261,-0.072 0.249,-0.072C0.242,-0.072 0.237,-0.069 0.233,-0.064C0.216,-0.043 0.189,-0.031 0.163,-0.031C0.091,-0.031 0.08,-0.092 0.08,-0.126C0.08,-0.233 0.151,-0.297 0.201,-0.297C0.227,-0.297 0.241,-0.283 0.241,-0.263C0.241,-0.218 0.191,-0.189 0.144,-0.188Z" style="fill:rgb(253,38,79);fill-rule:nonzero;"/>
                </g>
            </g>
        </g>
        <g transform="matrix(3.36836,-0.758134,0.737275,3.27569,-74.718,128.029)">
            <path d="M36.963,106.565L69.936,93.592" style="fill:none;stroke:rgb(253,38,79);stroke-width:0.22px;"/>
        </g>
        <g transform="matrix(3.15226,0,0,3.25089,26.3991,79.9758)">
            <path d="M44.351,81.34L73.54,77.196" style="fill:none;stroke:rgb(253,38,79);stroke-width:0.24px;"/>
        </g>
        <g transform="matrix(3.25089,0,0,3.25089,12.1878,77.7116)">
            <path d="M56.242,28.908L73.72,26.565" style="fill:none;stroke:rgb(253,38,79);stroke-width:0.23px;"/>
        </g>
        <g transform="matrix(3.25089,0,0,3.25089,8.96088,76.8538)">
            <path d="M67.517,93.265L68.609,94.519L67.517,95.774L66.425,94.519L67.517,93.265Z" style="fill:rgb(253,38,79);stroke:rgb(253,38,79);stroke-width:0.23px;"/>
        </g>
        <g transform="matrix(3.25089,0,0,3.25089,40.5944,23.8734)">
            <path d="M67.517,93.265L68.609,94.519L67.517,95.774L66.425,94.519L67.517,93.265Z" style="fill:rgb(253,38,79);stroke:rgb(253,38,79);stroke-width:0.23px;"/>
        </g>
        <g transform="matrix(3.25089,0,0,3.25089,71.4002,77.0398)">
            <path d="M67.517,93.265L68.609,94.519L67.517,95.774L66.425,94.519L67.517,93.265Z" style="fill:rgb(253,38,79);stroke:rgb(253,38,79);stroke-width:0.23px;"/>
        </g>
        <g transform="matrix(3.25089,0,0,3.25089,29.6858,-144.367)">
            <path d="M67.517,93.265L68.609,94.519L67.517,95.774L66.425,94.519L67.517,93.265Z" style="fill:rgb(253,38,79);stroke:rgb(253,38,79);stroke-width:0.23px;"/>
        </g>
    </g>
</svg>
