<?xml version="1.0" encoding="UTF-8" standalone="no"?>
<!DOCTYPE svg PUBLIC "-//W3C//DTD SVG 1.1//EN" "http://www.w3.org/Graphics/SVG/1.1/DTD/svg11.dtd">
<svg width="100%" height="100%" viewBox="0 0 200 200" version="1.1" xmlns="http://www.w3.org/2000/svg" xmlns:xlink="http://www.w3.org/1999/xlink" xml:space="preserve" xmlns:serif="http://www.serif.com/" style="fill-rule:evenodd;clip-rule:evenodd;stroke-linejoin:round;stroke-miterlimit:2;">
    <g>
        <g>
            <g transform="matrix(16,0,0,16,1.04048,83.2384)">
                <path d="M0.111,-0.714C0.099,-0.714 0.088,-0.705 0.088,-0.692C0.088,-0.681 0.097,-0.673 0.107,-0.671C0.158,-0.661 0.193,-0.62 0.213,-0.545C0.099,-0.443 0.02,-0.238 0.02,-0.116C0.02,-0.029 0.06,0.014 0.111,0.014C0.214,0.014 0.278,-0.165 0.278,-0.354C0.278,-0.412 0.274,-0.48 0.262,-0.531C0.297,-0.564 0.336,-0.584 0.376,-0.584C0.409,-0.584 0.436,-0.571 0.457,-0.55C0.478,-0.527 0.493,-0.498 0.501,-0.462C0.42,-0.354 0.363,-0.195 0.363,-0.093C0.363,-0.05 0.371,-0.022 0.387,-0.005C0.398,0.004 0.412,0.01 0.428,0.01C0.518,0.01 0.565,-0.164 0.565,-0.323C0.565,-0.374 0.559,-0.421 0.549,-0.453C0.564,-0.474 0.631,-0.567 0.702,-0.567C0.791,-0.567 0.814,-0.453 0.814,-0.363C0.814,-0.239 0.778,-0.098 0.73,-0.03C0.728,-0.026 0.727,-0.022 0.727,-0.017C0.727,-0.004 0.736,0.005 0.748,0.005C0.755,0.005 0.763,0.002 0.767,-0.004C0.82,-0.081 0.859,-0.23 0.859,-0.363C0.859,-0.436 0.847,-0.518 0.797,-0.57C0.772,-0.596 0.74,-0.608 0.704,-0.608C0.638,-0.608 0.578,-0.559 0.533,-0.504C0.524,-0.538 0.483,-0.626 0.379,-0.626C0.332,-0.626 0.289,-0.607 0.25,-0.578C0.227,-0.647 0.187,-0.702 0.116,-0.714L0.111,-0.714ZM0.233,-0.354C0.233,-0.182 0.177,-0.027 0.112,-0.027C0.065,-0.027 0.064,-0.103 0.064,-0.116C0.064,-0.227 0.133,-0.394 0.224,-0.5C0.229,-0.457 0.233,-0.41 0.233,-0.354ZM0.52,-0.313C0.518,-0.154 0.471,-0.03 0.429,-0.03C0.409,-0.03 0.407,-0.079 0.407,-0.093C0.407,-0.175 0.45,-0.301 0.514,-0.409C0.519,-0.376 0.52,-0.346 0.52,-0.313Z" style="fill:rgb(253,38,79);fill-rule:nonzero;"/>
            </g>
            <g transform="matrix(16,0,0,16,15.3605,83.2384)">
                <path d="M0.144,-0.188C0.131,-0.187 0.122,-0.177 0.122,-0.166C0.122,-0.153 0.132,-0.145 0.144,-0.145C0.203,-0.145 0.286,-0.184 0.286,-0.263C0.286,-0.303 0.262,-0.34 0.202,-0.34C0.123,-0.34 0.035,-0.252 0.035,-0.126C0.035,-0.041 0.084,0.01 0.16,0.01C0.221,0.01 0.269,-0.03 0.269,-0.049C0.269,-0.062 0.261,-0.072 0.249,-0.072C0.242,-0.072 0.237,-0.069 0.233,-0.064C0.216,-0.043 0.189,-0.031 0.163,-0.031C0.091,-0.031 0.08,-0.092 0.08,-0.126C0.08,-0.233 0.151,-0.297 0.201,-0.297C0.227,-0.297 0.241,-0.283 0.241,-0.263C0.241,-0.218 0.191,-0.189 0.144,-0.188Z" style="fill:rgb(253,38,79);fill-rule:nonzero;"/>
            </g>
            <g transform="matrix(16,0,0,16,20.1285,83.2384)">
                <path d="M0.151,0.008C0.181,0.008 0.207,-0.004 0.229,-0.026C0.297,-0.094 0.32,-0.252 0.322,-0.38C0.336,-0.377 0.349,-0.376 0.361,-0.376C0.368,-0.376 0.379,-0.386 0.379,-0.397C0.379,-0.409 0.372,-0.415 0.36,-0.417C0.347,-0.418 0.334,-0.42 0.323,-0.422C0.324,-0.443 0.32,-0.559 0.268,-0.609C0.251,-0.626 0.23,-0.634 0.21,-0.634C0.159,-0.634 0.129,-0.587 0.129,-0.543C0.129,-0.471 0.194,-0.409 0.278,-0.387C0.276,-0.205 0.236,-0.033 0.152,-0.033C0.111,-0.033 0.084,-0.08 0.084,-0.148C0.084,-0.222 0.123,-0.297 0.175,-0.297C0.19,-0.297 0.203,-0.29 0.208,-0.282C0.212,-0.275 0.22,-0.271 0.227,-0.271C0.239,-0.271 0.249,-0.281 0.249,-0.293C0.249,-0.312 0.217,-0.342 0.175,-0.342C0.092,-0.342 0.04,-0.241 0.04,-0.148C0.04,-0.052 0.089,0.008 0.151,0.008ZM0.208,-0.592C0.234,-0.592 0.279,-0.551 0.279,-0.431C0.219,-0.447 0.174,-0.494 0.174,-0.544C0.174,-0.564 0.185,-0.592 0.208,-0.592Z" style="fill:rgb(253,38,79);fill-rule:nonzero;"/>
            </g>
            <g transform="matrix(16,0,0,16,25.5685,83.2384)">
                <path d="M0.144,-0.188C0.131,-0.187 0.122,-0.177 0.122,-0.166C0.122,-0.153 0.132,-0.145 0.144,-0.145C0.203,-0.145 0.286,-0.184 0.286,-0.263C0.286,-0.303 0.262,-0.34 0.202,-0.34C0.123,-0.34 0.035,-0.252 0.035,-0.126C0.035,-0.041 0.084,0.01 0.16,0.01C0.221,0.01 0.269,-0.03 0.269,-0.049C0.269,-0.062 0.261,-0.072 0.249,-0.072C0.242,-0.072 0.237,-0.069 0.233,-0.064C0.216,-0.043 0.189,-0.031 0.163,-0.031C0.091,-0.031 0.08,-0.092 0.08,-0.126C0.08,-0.233 0.151,-0.297 0.201,-0.297C0.227,-0.297 0.241,-0.283 0.241,-0.263C0.241,-0.218 0.191,-0.189 0.144,-0.188Z" style="fill:rgb(253,38,79);fill-rule:nonzero;"/>
            </g>
            <g transform="matrix(16,0,0,16,30.3365,83.2384)">
                <path d="M0.139,-0.619C0.131,-0.616 0.125,-0.608 0.125,-0.598C0.125,-0.596 0.126,-0.593 0.127,-0.59C0.13,-0.585 0.131,-0.572 0.131,-0.552C0.131,-0.511 0.117,-0.46 0.095,-0.369C0.076,-0.292 0.046,-0.148 0.046,-0.068C0.046,-0.04 0.048,0.004 0.076,0.004C0.088,0.004 0.098,-0.005 0.098,-0.018C0.098,-0.022 0.097,-0.025 0.095,-0.028C0.094,-0.031 0.091,-0.04 0.091,-0.068C0.091,-0.148 0.122,-0.292 0.144,-0.382C0.158,-0.44 0.175,-0.505 0.175,-0.552C0.175,-0.584 0.175,-0.621 0.148,-0.621C0.145,-0.621 0.141,-0.62 0.139,-0.619Z" style="fill:rgb(253,38,79);fill-rule:nonzero;"/>
            </g>
            <g transform="matrix(16,0,0,16,32.8325,83.2384)">
                <path d="M0.139,-0.619C0.131,-0.616 0.125,-0.608 0.125,-0.598C0.125,-0.596 0.126,-0.593 0.127,-0.59C0.13,-0.585 0.131,-0.572 0.131,-0.552C0.131,-0.511 0.117,-0.46 0.095,-0.369C0.076,-0.292 0.046,-0.148 0.046,-0.068C0.046,-0.04 0.048,0.004 0.076,0.004C0.088,0.004 0.098,-0.005 0.098,-0.018C0.098,-0.022 0.097,-0.025 0.095,-0.028C0.094,-0.031 0.091,-0.04 0.091,-0.068C0.091,-0.148 0.122,-0.292 0.144,-0.382C0.158,-0.44 0.175,-0.505 0.175,-0.552C0.175,-0.584 0.175,-0.621 0.148,-0.621C0.145,-0.621 0.141,-0.62 0.139,-0.619Z" style="fill:rgb(253,38,79);fill-rule:nonzero;"/>
            </g>
            <g transform="matrix(16,0,0,16,35.6485,83.2384)">
                <path d="M0.119,-0.455L0.089,-0.488L0.094,-0.442L0.045,-0.414L0.095,-0.41L0.094,-0.352L0.122,-0.407L0.196,-0.395L0.135,-0.434L0.175,-0.462L0.119,-0.455ZM0.112,-0.332C0.1,-0.335 0.087,-0.328 0.085,-0.316C0.055,-0.197 0.04,-0.023 0.04,-0.01C0.04,0.003 0.05,0.013 0.063,0.013C0.075,0.013 0.084,0.004 0.085,-0.008C0.091,-0.103 0.11,-0.233 0.128,-0.305C0.129,-0.307 0.129,-0.309 0.129,-0.31C0.129,-0.32 0.122,-0.329 0.112,-0.332Z" style="fill:rgb(253,38,79);fill-rule:nonzero;"/>
            </g>
            <g transform="matrix(16,0,0,16,38.2085,83.2384)">
                <path d="M0.23,-0.338C0.185,-0.338 0.146,-0.306 0.119,-0.244C0.123,-0.304 0.096,-0.341 0.076,-0.341C0.064,-0.341 0.054,-0.331 0.054,-0.32C0.054,-0.314 0.056,-0.309 0.059,-0.304C0.072,-0.291 0.076,-0.274 0.077,-0.244C0.076,-0.21 0.067,-0.166 0.056,-0.121C0.052,-0.105 0.034,-0.032 0.034,-0.02C0.034,-0.007 0.042,0.003 0.055,0.003C0.066,0.003 0.074,-0.004 0.076,-0.014C0.108,-0.179 0.172,-0.292 0.226,-0.292C0.252,-0.292 0.262,-0.254 0.262,-0.201C0.262,-0.136 0.248,-0.06 0.24,-0.025C0.239,-0.023 0.239,-0.022 0.239,-0.021C0.239,-0.008 0.249,0.002 0.262,0.002C0.265,0.002 0.281,0.002 0.284,-0.018C0.291,-0.052 0.307,-0.131 0.307,-0.201C0.307,-0.324 0.253,-0.338 0.23,-0.338Z" style="fill:rgb(253,38,79);fill-rule:nonzero;"/>
            </g>
        </g>
    </g>
</svg>
