<?xml version="1.0" encoding="UTF-8" standalone="no"?>
<!DOCTYPE svg PUBLIC "-//W3C//DTD SVG 1.1//EN" "http://www.w3.org/Graphics/SVG/1.1/DTD/svg11.dtd">
<svg width="100%" height="100%" viewBox="0 0 200 200" version="1.1" xmlns="http://www.w3.org/2000/svg" xmlns:xlink="http://www.w3.org/1999/xlink" xml:space="preserve" xmlns:serif="http://www.serif.com/" style="fill-rule:evenodd;clip-rule:evenodd;stroke-linecap:round;stroke-linejoin:round;stroke-miterlimit:1.5;">
    <g transform="matrix(0.307608,0,0,0.307608,-3.74907,-23.9047)">
        <g transform="matrix(2.89759,0.885189,-0.870334,2.84896,121.409,52.93)">
            <path d="M68.71,95.065L29.521,158.849" style="fill:none;stroke:rgb(253,38,79);stroke-width:1.08px;"/>
        </g>
        <g transform="matrix(2.49267,1.1712,-1.21792,2.59209,414.919,-65.5711)">
            <path d="M68.71,95.065L29.014,159.942" style="fill:none;stroke:rgb(253,38,79);stroke-width:1.16px;"/>
        </g>
        <g transform="matrix(-2.21026,-1.03851,0.0371931,-0.0791582,307.47,210.389)">
            <path d="M58.239,-841.643L28.859,159.699" style="fill:none;stroke:rgb(253,38,79);stroke-width:1.88px;"/>
        </g>
        <g transform="matrix(-0.077087,1.97191,-1.87328,-0.0732315,426.12,190.255)">
            <path d="M69.486,91.822L83.371,153.031" style="fill:none;stroke:rgb(253,38,79);stroke-width:1.69px;"/>
        </g>
        <g transform="matrix(3.25089,0,0,3.25089,-29.1705,11.1721)">
            <g transform="matrix(12,0,0,12,16.7012,169.299)">
                <path d="M0.026,-0.236C0.026,-0.079 0.128,0.008 0.263,0.008C0.322,0.008 0.368,-0.004 0.391,-0.015L0.378,-0.065C0.353,-0.053 0.314,-0.045 0.276,-0.045C0.159,-0.045 0.091,-0.121 0.091,-0.239C0.091,-0.365 0.166,-0.437 0.279,-0.437C0.319,-0.437 0.353,-0.429 0.376,-0.417L0.391,-0.468C0.376,-0.476 0.337,-0.489 0.277,-0.489C0.128,-0.489 0.026,-0.387 0.026,-0.236Z" style="fill:rgb(253,38,79);fill-rule:nonzero;"/>
            </g>
            <g transform="matrix(12,0,0,12,21.6126,169.299)">
                <path d="M0.025,-0.091C0.025,-0.041 0.061,0.008 0.131,0.008C0.18,0.008 0.217,-0.017 0.236,-0.044L0.238,-0.044L0.244,0L0.3,0C0.296,-0.024 0.295,-0.053 0.295,-0.083L0.295,-0.211C0.295,-0.281 0.269,-0.354 0.164,-0.354C0.121,-0.354 0.079,-0.341 0.049,-0.323L0.064,-0.281C0.089,-0.297 0.122,-0.307 0.154,-0.307C0.224,-0.307 0.233,-0.256 0.233,-0.227L0.233,-0.219C0.099,-0.221 0.025,-0.175 0.025,-0.091ZM0.088,-0.099C0.088,-0.166 0.166,-0.177 0.234,-0.176L0.234,-0.116C0.234,-0.11 0.233,-0.103 0.231,-0.096C0.221,-0.067 0.193,-0.039 0.147,-0.039C0.115,-0.039 0.088,-0.057 0.088,-0.099Z" style="fill:rgb(253,38,79);fill-rule:nonzero;"/>
            </g>
            <g transform="matrix(12,0,0,12,25.744,169.299)">
                <rect x="0.052" y="-0.507" width="0.062" height="0.507" style="fill:rgb(253,38,79);fill-rule:nonzero;"/>
            </g>
            <g transform="matrix(12,0,0,12,27.7583,169.299)">
                <path d="M0.052,0L0.114,0L0.114,-0.346L0.052,-0.346L0.052,0ZM0.082,-0.404C0.107,-0.404 0.123,-0.421 0.122,-0.443C0.122,-0.465 0.107,-0.482 0.084,-0.482C0.061,-0.482 0.044,-0.464 0.044,-0.443C0.044,-0.421 0.059,-0.404 0.082,-0.404Z" style="fill:rgb(253,38,79);fill-rule:nonzero;"/>
            </g>
        </g>
        <g transform="matrix(5.30322,0,0,3.25089,-71.4212,-199.851)">
            <g transform="matrix(7.35604,0,0,12,16.7012,169.299)">
                <path d="M0.041,0L0.101,0L0.114,-0.206C0.118,-0.279 0.121,-0.359 0.123,-0.419L0.124,-0.419C0.138,-0.362 0.156,-0.3 0.18,-0.232L0.256,-0.003L0.306,-0.003L0.389,-0.234C0.412,-0.298 0.434,-0.363 0.451,-0.419L0.453,-0.419C0.452,-0.359 0.456,-0.278 0.461,-0.211L0.471,0L0.533,0L0.503,-0.481L0.424,-0.481L0.338,-0.249C0.316,-0.188 0.299,-0.131 0.287,-0.083L0.284,-0.083C0.272,-0.133 0.256,-0.189 0.236,-0.248L0.154,-0.481L0.075,-0.481L0.041,0Z" style="fill:rgb(253,38,79);fill-rule:nonzero;"/>
            </g>
            <g transform="matrix(7.35604,0,0,12,20.9519,169.299)">
                <path d="M0.027,-0.166C0.027,-0.063 0.091,0.008 0.197,0.008C0.251,0.008 0.291,-0.004 0.312,-0.014L0.301,-0.059C0.278,-0.049 0.251,-0.041 0.205,-0.041C0.142,-0.041 0.089,-0.076 0.087,-0.161L0.329,-0.161C0.331,-0.169 0.332,-0.177 0.332,-0.191C0.332,-0.254 0.302,-0.354 0.19,-0.354C0.089,-0.354 0.027,-0.271 0.027,-0.166ZM0.088,-0.206C0.093,-0.25 0.121,-0.308 0.184,-0.308C0.255,-0.308 0.272,-0.246 0.271,-0.206L0.088,-0.206Z" style="fill:rgb(253,38,79);fill-rule:nonzero;"/>
            </g>
            <g transform="matrix(7.35604,0,0,12,23.5843,169.299)">
                <path d="M0.027,-0.168C0.027,-0.063 0.091,0.008 0.176,0.008C0.231,0.008 0.274,-0.021 0.292,-0.059L0.294,-0.059L0.297,0L0.353,0C0.351,-0.024 0.35,-0.058 0.35,-0.089L0.35,-0.507L0.288,-0.507L0.288,-0.301L0.286,-0.301C0.271,-0.329 0.235,-0.354 0.182,-0.354C0.098,-0.354 0.026,-0.283 0.027,-0.168ZM0.091,-0.171C0.091,-0.246 0.129,-0.304 0.194,-0.304C0.241,-0.304 0.276,-0.271 0.285,-0.232C0.287,-0.223 0.288,-0.213 0.288,-0.205L0.288,-0.145C0.288,-0.135 0.287,-0.126 0.285,-0.118C0.273,-0.071 0.235,-0.042 0.193,-0.042C0.125,-0.042 0.091,-0.101 0.091,-0.171Z" style="fill:rgb(253,38,79);fill-rule:nonzero;"/>
            </g>
            <g transform="matrix(7.35604,0,0,12,26.5477,169.299)">
                <path d="M0.027,-0.168C0.027,-0.063 0.091,0.008 0.176,0.008C0.231,0.008 0.274,-0.021 0.292,-0.059L0.294,-0.059L0.297,0L0.353,0C0.351,-0.024 0.35,-0.058 0.35,-0.089L0.35,-0.507L0.288,-0.507L0.288,-0.301L0.286,-0.301C0.271,-0.329 0.235,-0.354 0.182,-0.354C0.098,-0.354 0.026,-0.283 0.027,-0.168ZM0.091,-0.171C0.091,-0.246 0.129,-0.304 0.194,-0.304C0.241,-0.304 0.276,-0.271 0.285,-0.232C0.287,-0.223 0.288,-0.213 0.288,-0.205L0.288,-0.145C0.288,-0.135 0.287,-0.126 0.285,-0.118C0.273,-0.071 0.235,-0.042 0.193,-0.042C0.125,-0.042 0.091,-0.101 0.091,-0.171Z" style="fill:rgb(253,38,79);fill-rule:nonzero;"/>
            </g>
            <g transform="matrix(7.35604,0,0,12,29.5112,169.299)">
                <path d="M0.027,-0.166C0.027,-0.063 0.091,0.008 0.197,0.008C0.251,0.008 0.291,-0.004 0.312,-0.014L0.301,-0.059C0.278,-0.049 0.251,-0.041 0.205,-0.041C0.142,-0.041 0.089,-0.076 0.087,-0.161L0.329,-0.161C0.331,-0.169 0.332,-0.177 0.332,-0.191C0.332,-0.254 0.302,-0.354 0.19,-0.354C0.089,-0.354 0.027,-0.271 0.027,-0.166ZM0.088,-0.206C0.093,-0.25 0.121,-0.308 0.184,-0.308C0.255,-0.308 0.272,-0.246 0.271,-0.206L0.088,-0.206Z" style="fill:rgb(253,38,79);fill-rule:nonzero;"/>
            </g>
            <g transform="matrix(7.35604,0,0,12,32.1436,169.299)">
                <rect x="0.052" y="-0.507" width="0.062" height="0.507" style="fill:rgb(253,38,79);fill-rule:nonzero;"/>
            </g>
            <g transform="matrix(7.35604,0,0,12,33.3784,169.299)">
                <path d="M0.052,0L0.114,0L0.114,-0.346L0.052,-0.346L0.052,0ZM0.082,-0.404C0.107,-0.404 0.123,-0.421 0.122,-0.443C0.122,-0.465 0.107,-0.482 0.084,-0.482C0.061,-0.482 0.044,-0.464 0.044,-0.443C0.044,-0.421 0.059,-0.404 0.082,-0.404Z" style="fill:rgb(253,38,79);fill-rule:nonzero;"/>
            </g>
            <g transform="matrix(7.35604,0,0,12,34.6079,169.299)">
                <path d="M0.052,0L0.114,0L0.114,-0.208C0.114,-0.219 0.116,-0.229 0.119,-0.237C0.131,-0.273 0.162,-0.301 0.204,-0.301C0.262,-0.301 0.284,-0.255 0.284,-0.199L0.284,0L0.346,0L0.346,-0.206C0.346,-0.324 0.271,-0.354 0.224,-0.354C0.167,-0.354 0.127,-0.321 0.11,-0.289L0.108,-0.289L0.105,-0.346L0.049,-0.346C0.051,-0.316 0.052,-0.288 0.052,-0.252L0.052,0Z" style="fill:rgb(253,38,79);fill-rule:nonzero;"/>
            </g>
        </g>
        <g transform="matrix(4.17033,0,0,3.25089,410.247,-287.119)">
            <g transform="matrix(9.35433,0,0,12,16.7012,169.299)">
                <path d="M0.054,-0.001C0.075,0.001 0.107,0.004 0.151,0.004C0.229,0.004 0.284,-0.01 0.316,-0.041C0.341,-0.064 0.358,-0.096 0.358,-0.137C0.358,-0.209 0.304,-0.246 0.259,-0.257L0.259,-0.259C0.309,-0.277 0.34,-0.319 0.34,-0.364C0.34,-0.403 0.325,-0.431 0.299,-0.45C0.27,-0.474 0.23,-0.485 0.167,-0.485C0.125,-0.485 0.081,-0.481 0.054,-0.475L0.054,-0.001ZM0.116,-0.277L0.116,-0.433C0.126,-0.436 0.143,-0.437 0.171,-0.437C0.234,-0.437 0.276,-0.415 0.276,-0.359C0.276,-0.312 0.238,-0.277 0.173,-0.277L0.116,-0.277ZM0.116,-0.047L0.116,-0.231L0.168,-0.231C0.236,-0.231 0.293,-0.204 0.293,-0.138C0.293,-0.068 0.233,-0.044 0.169,-0.044C0.146,-0.044 0.129,-0.045 0.116,-0.047Z" style="fill:rgb(253,38,79);fill-rule:nonzero;"/>
            </g>
            <g transform="matrix(9.35433,0,0,12,20.3494,169.299)">
                <path d="M0.027,-0.171C0.027,-0.06 0.1,0.008 0.191,0.008C0.271,0.008 0.365,-0.045 0.365,-0.173C0.365,-0.284 0.296,-0.354 0.199,-0.354C0.106,-0.354 0.027,-0.287 0.027,-0.171ZM0.091,-0.171C0.091,-0.233 0.119,-0.306 0.196,-0.306C0.273,-0.306 0.301,-0.232 0.301,-0.172C0.301,-0.102 0.264,-0.039 0.196,-0.039C0.126,-0.039 0.091,-0.103 0.091,-0.171Z" style="fill:rgb(253,38,79);fill-rule:nonzero;"/>
            </g>
            <g transform="matrix(9.35433,0,0,12,24.0176,169.299)">
                <path d="M0.072,0.073L0.056,0.121C0.085,0.139 0.13,0.149 0.172,0.149C0.216,0.149 0.264,0.139 0.298,0.108C0.331,0.078 0.347,0.03 0.347,-0.05L0.347,-0.251C0.347,-0.293 0.349,-0.321 0.35,-0.346L0.295,-0.346L0.292,-0.294L0.291,-0.294C0.276,-0.322 0.243,-0.354 0.183,-0.354C0.104,-0.354 0.027,-0.287 0.027,-0.17C0.027,-0.074 0.088,-0.001 0.174,-0.001C0.227,-0.001 0.266,-0.027 0.284,-0.059L0.286,-0.059L0.286,-0.021C0.286,0.066 0.239,0.101 0.174,0.101C0.131,0.101 0.096,0.087 0.072,0.073ZM0.091,-0.174C0.091,-0.254 0.134,-0.304 0.193,-0.304C0.239,-0.304 0.27,-0.274 0.281,-0.238C0.284,-0.229 0.285,-0.22 0.285,-0.209L0.285,-0.147C0.285,-0.136 0.284,-0.124 0.28,-0.114C0.266,-0.074 0.231,-0.049 0.193,-0.049C0.125,-0.049 0.091,-0.106 0.091,-0.174Z" style="fill:rgb(253,38,79);fill-rule:nonzero;"/>
            </g>
            <g transform="matrix(9.35433,0,0,12,27.7526,169.299)">
                <path d="M0.027,-0.171C0.027,-0.06 0.1,0.008 0.191,0.008C0.271,0.008 0.365,-0.045 0.365,-0.173C0.365,-0.284 0.296,-0.354 0.199,-0.354C0.106,-0.354 0.027,-0.287 0.027,-0.171ZM0.091,-0.171C0.091,-0.233 0.119,-0.306 0.196,-0.306C0.273,-0.306 0.301,-0.232 0.301,-0.172C0.301,-0.102 0.264,-0.039 0.196,-0.039C0.126,-0.039 0.091,-0.103 0.091,-0.171Z" style="fill:rgb(253,38,79);fill-rule:nonzero;"/>
            </g>
            <g transform="matrix(9.35433,0,0,12,31.4209,169.299)">
                <path d="M0.09,-0.019C0.105,-0.001 0.129,0.008 0.159,0.008C0.183,0.008 0.202,0.004 0.214,-0.001L0.211,-0.049C0.203,-0.046 0.191,-0.044 0.175,-0.044C0.14,-0.044 0.128,-0.069 0.128,-0.111L0.128,-0.298L0.218,-0.298L0.218,-0.346L0.128,-0.346L0.128,-0.445L0.066,-0.429L0.066,-0.346L0.012,-0.346L0.012,-0.298L0.066,-0.298L0.066,-0.109C0.066,-0.069 0.073,-0.039 0.09,-0.019Z" style="fill:rgb(253,38,79);fill-rule:nonzero;"/>
            </g>
            <g transform="matrix(9.35433,0,0,12,33.6325,169.299)">
                <path d="M0.025,-0.091C0.025,-0.041 0.061,0.008 0.131,0.008C0.18,0.008 0.217,-0.017 0.236,-0.044L0.238,-0.044L0.244,0L0.3,0C0.296,-0.024 0.295,-0.053 0.295,-0.083L0.295,-0.211C0.295,-0.281 0.269,-0.354 0.164,-0.354C0.121,-0.354 0.079,-0.341 0.049,-0.323L0.064,-0.281C0.089,-0.297 0.122,-0.307 0.154,-0.307C0.224,-0.307 0.233,-0.256 0.233,-0.227L0.233,-0.219C0.099,-0.221 0.025,-0.175 0.025,-0.091ZM0.088,-0.099C0.088,-0.166 0.166,-0.177 0.234,-0.176L0.234,-0.116C0.234,-0.11 0.233,-0.103 0.231,-0.096C0.221,-0.067 0.193,-0.039 0.147,-0.039C0.115,-0.039 0.088,-0.057 0.088,-0.099Z" style="fill:rgb(253,38,79);fill-rule:nonzero;"/>
            </g>
        </g>
        <g transform="matrix(6.32528,0,0,2.84453,-82.5961,-261.939)">
            <g transform="matrix(6.16742,0,0,13.7143,16.7012,170.169)">
                <path d="M0.026,-0.236C0.026,-0.079 0.128,0.008 0.263,0.008C0.322,0.008 0.368,-0.004 0.391,-0.015L0.378,-0.065C0.353,-0.053 0.314,-0.045 0.276,-0.045C0.159,-0.045 0.091,-0.121 0.091,-0.239C0.091,-0.365 0.166,-0.437 0.279,-0.437C0.319,-0.437 0.353,-0.429 0.376,-0.417L0.391,-0.468C0.376,-0.476 0.337,-0.489 0.277,-0.489C0.128,-0.489 0.026,-0.387 0.026,-0.236Z" style="fill:rgb(253,38,79);fill-rule:nonzero;"/>
            </g>
            <g transform="matrix(6.16742,0,0,13.7143,19.2254,170.169)">
                <path d="M0.025,-0.091C0.025,-0.041 0.061,0.008 0.131,0.008C0.18,0.008 0.217,-0.017 0.236,-0.044L0.238,-0.044L0.244,0L0.3,0C0.296,-0.024 0.295,-0.053 0.295,-0.083L0.295,-0.211C0.295,-0.281 0.269,-0.354 0.164,-0.354C0.121,-0.354 0.079,-0.341 0.049,-0.323L0.064,-0.281C0.089,-0.297 0.122,-0.307 0.154,-0.307C0.224,-0.307 0.233,-0.256 0.233,-0.227L0.233,-0.219C0.099,-0.221 0.025,-0.175 0.025,-0.091ZM0.088,-0.099C0.088,-0.166 0.166,-0.177 0.234,-0.176L0.234,-0.116C0.234,-0.11 0.233,-0.103 0.231,-0.096C0.221,-0.067 0.193,-0.039 0.147,-0.039C0.115,-0.039 0.088,-0.057 0.088,-0.099Z" style="fill:rgb(253,38,79);fill-rule:nonzero;"/>
            </g>
            <g transform="matrix(6.16742,0,0,13.7143,21.3488,170.169)">
                <path d="M0.051,0L0.114,0L0.114,-0.184C0.114,-0.194 0.115,-0.205 0.117,-0.214C0.126,-0.261 0.157,-0.294 0.201,-0.294C0.21,-0.294 0.216,-0.294 0.223,-0.292L0.223,-0.351C0.217,-0.353 0.212,-0.354 0.205,-0.354C0.163,-0.354 0.125,-0.324 0.109,-0.277L0.106,-0.277L0.104,-0.346L0.049,-0.346C0.051,-0.313 0.051,-0.279 0.051,-0.238L0.051,0Z" style="fill:rgb(253,38,79);fill-rule:nonzero;"/>
            </g>
            <g transform="matrix(6.16742,0,0,13.7143,22.895,170.169)">
                <path d="M0.09,-0.019C0.105,-0.001 0.129,0.008 0.159,0.008C0.183,0.008 0.202,0.004 0.214,-0.001L0.211,-0.049C0.203,-0.046 0.191,-0.044 0.175,-0.044C0.14,-0.044 0.128,-0.069 0.128,-0.111L0.128,-0.298L0.218,-0.298L0.218,-0.346L0.128,-0.346L0.128,-0.445L0.066,-0.429L0.066,-0.346L0.012,-0.346L0.012,-0.298L0.066,-0.298L0.066,-0.109C0.066,-0.069 0.073,-0.039 0.09,-0.019Z" style="fill:rgb(253,38,79);fill-rule:nonzero;"/>
            </g>
            <g transform="matrix(6.16742,0,0,13.7143,24.3532,170.169)">
                <path d="M0.025,-0.091C0.025,-0.041 0.061,0.008 0.131,0.008C0.18,0.008 0.217,-0.017 0.236,-0.044L0.238,-0.044L0.244,0L0.3,0C0.296,-0.024 0.295,-0.053 0.295,-0.083L0.295,-0.211C0.295,-0.281 0.269,-0.354 0.164,-0.354C0.121,-0.354 0.079,-0.341 0.049,-0.323L0.064,-0.281C0.089,-0.297 0.122,-0.307 0.154,-0.307C0.224,-0.307 0.233,-0.256 0.233,-0.227L0.233,-0.219C0.099,-0.221 0.025,-0.175 0.025,-0.091ZM0.088,-0.099C0.088,-0.166 0.166,-0.177 0.234,-0.176L0.234,-0.116C0.234,-0.11 0.233,-0.103 0.231,-0.096C0.221,-0.067 0.193,-0.039 0.147,-0.039C0.115,-0.039 0.088,-0.057 0.088,-0.099Z" style="fill:rgb(253,38,79);fill-rule:nonzero;"/>
            </g>
            <g transform="matrix(6.16742,0,0,13.7143,26.4765,170.169)">
                <path d="M0.072,0.073L0.056,0.121C0.085,0.139 0.13,0.149 0.172,0.149C0.216,0.149 0.264,0.139 0.298,0.108C0.331,0.078 0.347,0.03 0.347,-0.05L0.347,-0.251C0.347,-0.293 0.349,-0.321 0.35,-0.346L0.295,-0.346L0.292,-0.294L0.291,-0.294C0.276,-0.322 0.243,-0.354 0.183,-0.354C0.104,-0.354 0.027,-0.287 0.027,-0.17C0.027,-0.074 0.088,-0.001 0.174,-0.001C0.227,-0.001 0.266,-0.027 0.284,-0.059L0.286,-0.059L0.286,-0.021C0.286,0.066 0.239,0.101 0.174,0.101C0.131,0.101 0.096,0.087 0.072,0.073ZM0.091,-0.174C0.091,-0.254 0.134,-0.304 0.193,-0.304C0.239,-0.304 0.27,-0.274 0.281,-0.238C0.284,-0.229 0.285,-0.22 0.285,-0.209L0.285,-0.147C0.285,-0.136 0.284,-0.124 0.28,-0.114C0.266,-0.074 0.231,-0.049 0.193,-0.049C0.125,-0.049 0.091,-0.106 0.091,-0.174Z" style="fill:rgb(253,38,79);fill-rule:nonzero;"/>
            </g>
            <g transform="matrix(6.16742,0,0,13.7143,28.9391,170.169)">
                <path d="M0.027,-0.166C0.027,-0.063 0.091,0.008 0.197,0.008C0.251,0.008 0.291,-0.004 0.312,-0.014L0.301,-0.059C0.278,-0.049 0.251,-0.041 0.205,-0.041C0.142,-0.041 0.089,-0.076 0.087,-0.161L0.329,-0.161C0.331,-0.169 0.332,-0.177 0.332,-0.191C0.332,-0.254 0.302,-0.354 0.19,-0.354C0.089,-0.354 0.027,-0.271 0.027,-0.166ZM0.088,-0.206C0.093,-0.25 0.121,-0.308 0.184,-0.308C0.255,-0.308 0.272,-0.246 0.271,-0.206L0.088,-0.206ZM0.18,-0.393L0.231,-0.393L0.163,-0.495L0.094,-0.495L0.18,-0.393Z" style="fill:rgb(253,38,79);fill-rule:nonzero;"/>
            </g>
            <g transform="matrix(6.16742,0,0,13.7143,31.1462,170.169)">
                <path d="M0.052,0L0.114,0L0.114,-0.208C0.114,-0.219 0.116,-0.229 0.119,-0.237C0.131,-0.273 0.162,-0.301 0.204,-0.301C0.262,-0.301 0.284,-0.255 0.284,-0.199L0.284,0L0.346,0L0.346,-0.206C0.346,-0.324 0.271,-0.354 0.224,-0.354C0.167,-0.354 0.127,-0.321 0.11,-0.289L0.108,-0.289L0.105,-0.346L0.049,-0.346C0.051,-0.316 0.052,-0.288 0.052,-0.252L0.052,0Z" style="fill:rgb(253,38,79);fill-rule:nonzero;"/>
            </g>
            <g transform="matrix(6.16742,0,0,13.7143,33.5911,170.169)">
                <path d="M0.027,-0.166C0.027,-0.063 0.091,0.008 0.197,0.008C0.251,0.008 0.291,-0.004 0.312,-0.014L0.301,-0.059C0.278,-0.049 0.251,-0.041 0.205,-0.041C0.142,-0.041 0.089,-0.076 0.087,-0.161L0.329,-0.161C0.331,-0.169 0.332,-0.177 0.332,-0.191C0.332,-0.254 0.302,-0.354 0.19,-0.354C0.089,-0.354 0.027,-0.271 0.027,-0.166ZM0.088,-0.206C0.093,-0.25 0.121,-0.308 0.184,-0.308C0.255,-0.308 0.272,-0.246 0.271,-0.206L0.088,-0.206Z" style="fill:rgb(253,38,79);fill-rule:nonzero;"/>
            </g>
        </g>
        <g transform="matrix(-1.84977,-2.34945,2.55424,-2.01101,209.504,777.18)">
            <path d="M86.321,92.56L88.461,95.788L84.18,95.788L86.321,92.56Z" style="fill:rgb(253,38,79);"/>
        </g>
        <g transform="matrix(2.21299,2.38138,-2.38138,2.21299,273.941,-31.9007)">
            <path d="M86.321,92.56L88.461,95.788L84.18,95.788L86.321,92.56Z" style="fill:rgb(253,38,79);"/>
        </g>
        <g transform="matrix(0.623742,3.19049,-3.19049,0.623742,495.546,-13.789)">
            <path d="M86.321,92.56L88.461,95.788L84.18,95.788L86.321,92.56Z" style="fill:rgb(253,38,79);"/>
        </g>
        <g transform="matrix(1.31829,3.10744,-3.09098,1.31131,429.273,-224.722)">
            <path d="M86.321,92.56L88.461,95.788L84.18,95.788L86.321,92.56Z" style="fill:rgb(253,38,79);"/>
        </g>
    </g>
</svg>
