<svg id="Calque_1" data-name="Calque 1" xmlns="http://www.w3.org/2000/svg" viewBox="0 0 2311.2 1157.04"><defs><style>.cls-1{isolation:isolate;}.cls-2{fill:#fff;}</style></defs><title>enterwebsite</title><g class="cls-1"><path class="cls-2" d="M387.94,680.35c0-86.84,70.64-157.48,157.48-157.48H555v57.06H535.87V542.12l-7.14.86A138.44,138.44,0,0,0,407,680.35c0,74.15,58.65,134.86,132,138.19v19.12C455.16,834.32,387.94,765,387.94,680.35Z" transform="translate(-338.09 -522.81)"/><path class="cls-2" d="M892.47,680.54c0,86.74-70.57,157.31-157.32,157.31S577.84,767.28,577.84,680.54s70.57-157.32,157.31-157.32S892.47,593.79,892.47,680.54Zm-19.11,0c0-76.21-62-138.21-138.21-138.21s-138.21,62-138.21,138.21,62,138.21,138.21,138.21S873.36,756.74,873.36,680.54Z" transform="translate(-338.09 -522.81)"/><path class="cls-2" d="M995.36,623.69l-60.92-60.92V837.85h-19.1v-315h19.1v12.88l60.92,60.92,61.12-61.1v-12.7h19.1v315h-19.1V562.58Z" transform="translate(-338.09 -522.81)"/><path class="cls-2" d="M1178.51,623.69l-60.92-60.92V837.85h-19.1v-315h19.1v12.88l60.92,60.92,61.12-61.1v-12.7h19.1v315h-19.1V562.58Z" transform="translate(-338.09 -522.81)"/><path class="cls-2" d="M1300.74,541.92v130h93.48V691h-93.48V818.75H1402v19.1H1281.63v-315H1402v19.11Z" transform="translate(-338.09 -522.81)"/><path class="cls-2" d="M1565.87,837.85V823.2l-122-243V837.85h-19.11v-315h19.11v14.77l122,243V522.87H1585v315Z" transform="translate(-338.09 -522.81)"/><path class="cls-2" d="M1607.88,680.35c0-86.84,70.65-157.48,157.48-157.48h9.56v57.06h-19.11V542.12l-7.13.86A138.43,138.43,0,0,0,1627,680.35c0,74.15,58.64,134.86,132,138.19v19.12C1675.1,834.32,1607.88,765,1607.88,680.35Z" transform="translate(-338.09 -522.81)"/><path class="cls-2" d="M1816.89,541.92v130h93.47V691h-93.47V818.75H1918.1v19.1H1797.78v-315H1918.1v19.11Z" transform="translate(-338.09 -522.81)"/><path class="cls-2" d="M2138.15,542.33H1940.88V523.22h217.73v23.45L1961.37,818.75h197.24v19.1H1940.88V814.46Z" transform="translate(-338.09 -522.81)"/><path class="cls-2" d="M2335.28,523V818.77h97.5v19.1H2316.17V523Z" transform="translate(-338.09 -522.81)"/><path class="cls-2" d="M2606.24,755H2497.65l-22.2,82.87h-19.78l84.38-314.94,21-.11,88.24,315.06h-19.83L2606.24,755Zm-103.47-19.11h98.12l-50.15-179Z" transform="translate(-338.09 -522.81)"/></g><g class="cls-1"><path class="cls-2" d="M583.83,972.87l-84.36,315H476.18l-88.24-315h19.84l79.89,285.2,76.38-285.2Z" transform="translate(-338.09 -522.81)"/><path class="cls-2" d="M606.63,1287.82v-315h19.11v315Z" transform="translate(-338.09 -522.81)"/><path class="cls-2" d="M815.64,1050.19H795.77a63.91,63.91,0,1,0-63.59,70.28,83.71,83.71,0,1,1-83.47,90.07h19.88a63.91,63.91,0,1,0,63.6-70.27,83.71,83.71,0,1,1,83.45-90.08Z" transform="translate(-338.09 -522.81)"/><path class="cls-2" d="M838.82,1287.82v-315h19.11v315Z" transform="translate(-338.09 -522.81)"/><path class="cls-2" d="M1067.09,972.79V991.9H983.43v296h-19.1v-296H880.67V972.79Z" transform="translate(-338.09 -522.81)"/><path class="cls-2" d="M1109,991.92v130h93.48V1141H1109v127.73h101.22v19.1H1089.92v-315h120.32v19.11Z" transform="translate(-338.09 -522.81)"/></g><path class="cls-2" d="M2588.67,1392.17l-251.29-205.38c-23.09-18.82-60.47-18.82-83.55,0s-22.95,49.37,0,68.2l150.7,123H2273.77l-234-191.25c-23.09-18.82-60.47-18.82-83.55,0s-23,49.37,0,68.2l150.7,123-1721.14-37c-32.59,0-47.71,49.3-47.71,75.93s6.07,70.4,38.66,70.4l1730.19-12.94-150.7,123.06c-23,18.82-23,49.36,0,68.19,11.54,9.42,26.75,14.12,41.84,14.12s30.16-4.7,41.71-14.12l234-191.25h130.76l-150.7,123.06c-22.95,18.82-22.95,49.36,0,68.19,11.54,9.42,26.62,14.12,41.84,14.12s30.16-4.7,41.71-14.12l251.29-205.37C2611.75,1441.53,2611.75,1411,2588.67,1392.17Z" transform="translate(-338.09 -522.81)"/></svg>