<svg id="Calque_1" data-name="Calque 1" xmlns="http://www.w3.org/2000/svg" viewBox="0 0 2575.46 1029.89"><defs><style>.cls-1{fill:#ff214d;}.cls-2{isolation:isolate;}.cls-3{fill:#5176d2;}</style></defs><title>follow</title><path class="cls-1" d="M2126.62,1305.39l-155.13-168.9c-14.24-15.48-37.32-15.48-51.57,0s-14.17,40.61,0,56.09l93,101.19h-80.72l-144.45-157.28c-14.25-15.48-37.32-15.48-51.57,0s-14.17,40.61,0,56.09l93,101.19L766.73,1263.38c-20.12,0-29.45,40.55-29.45,62.45s3.75,57.89,23.86,57.89l1068.1-10.64-93,101.2c-14.17,15.48-14.17,40.59,0,56.08a34.44,34.44,0,0,0,51.57,0l144.45-157.28H2013l-93,101.2c-14.17,15.48-14.17,40.59,0,56.08a34.44,34.44,0,0,0,51.57,0l155.13-168.89C2140.87,1346,2140.87,1320.87,2126.62,1305.39Z" transform="translate(-149.23 -512.08)"/><g class="cls-2"><path class="cls-3" d="M345.12,512.15l-84.35,315h-23.3l-88.24-315h19.84L249,797.34l76.39-285.19Z" transform="translate(-149.23 -512.08)"/><path class="cls-3" d="M682.56,669.81c0,86.74-70.57,157.32-157.31,157.32S367.93,756.55,367.93,669.81,438.5,512.5,525.25,512.5,682.56,583.07,682.56,669.81Zm-19.11,0c0-76.21-62-138.21-138.2-138.21S387,593.6,387,669.81,449,808,525.25,808,663.45,746,663.45,669.81Z" transform="translate(-149.23 -512.08)"/><path class="cls-3" d="M705.43,827.1v-315h19.11v315Z" transform="translate(-149.23 -512.08)"/><path class="cls-3" d="M855.68,649.71l-4.94-4.4-5.17,6.32a84.19,84.19,0,0,1-64.07,29.46c-2.69,0-5.61-.26-8.12-.5l-7-.69V827.12h-19.1v-315l34.22,0A84.28,84.28,0,0,1,861.33,624l-1.47,4.28,3.55,2.79a109.13,109.13,0,0,1,41.71,86.21V827.13H886V717.29A90.68,90.68,0,0,0,855.68,649.71Zm-8.82-53.07a65.43,65.43,0,0,0-65.36-65.35H766.38V654.92l.45,5.58,5.44.79c.46.08.9.16,1.3.2a65.4,65.4,0,0,0,73.29-64.85Z" transform="translate(-149.23 -512.08)"/><path class="cls-3" d="M1081.82,512.31V808h97.51v19.11H1062.71V512.31Z" transform="translate(-149.23 -512.08)"/><path class="cls-3" d="M1352.79,744.27H1244.2L1222,827.15h-19.78L1286.6,512.2l21-.11,88.24,315.06H1376l-23.21-82.87Zm-103.47-19.11h98.12l-50.16-179Z" transform="translate(-149.23 -512.08)"/><path class="cls-3" d="M1704.77,512.24v19.13c-73.36,3.34-132,64.06-132,138.23a138.41,138.41,0,0,0,121.69,137.33l7.13.87V680.38h-54V661.27h73.08V827h-9.55c-86.84,0-157.49-70.63-157.49-157.45C1553.65,584.89,1620.87,515.59,1704.77,512.24Z" transform="translate(-149.23 -512.08)"/><path class="cls-3" d="M1894.12,744.27H1785.54l-22.21,82.88h-19.78l84.38-314.95,21-.11,88.24,315.06h-19.83l-23.22-82.87Zm-103.46-19.11h98.11l-50.15-179Z" transform="translate(-149.23 -512.08)"/><path class="cls-3" d="M1979.1,512.31V808h97.51v19.11H1960V512.31Z" transform="translate(-149.23 -512.08)"/><path class="cls-3" d="M2118.6,512.31V808h97.51v19.11H2099.49V512.31Z" transform="translate(-149.23 -512.08)"/><path class="cls-3" d="M2258.1,531.19v130h93.47v19.11H2258.1V808h101.21v19.11H2239v-315h120.32v19.11Z" transform="translate(-149.23 -512.08)"/><path class="cls-3" d="M2490.49,649.71l-4.93-4.4-5.18,6.32a84.17,84.17,0,0,1-64.06,29.46c-2.7,0-5.61-.26-8.13-.5l-7-.69V827.12h-19.11v-315l34.23,0A84.26,84.26,0,0,1,2496.14,624l-1.46,4.28,3.54,2.79a109.1,109.1,0,0,1,41.71,86.21V827.13h-19.11V717.29A90.64,90.64,0,0,0,2490.49,649.71Zm-8.82-53.07a65.43,65.43,0,0,0-65.35-65.35H2401.2V654.92l.45,5.58,5.44.79c.45.08.9.16,1.29.2a65.4,65.4,0,0,0,73.29-64.85Z" transform="translate(-149.23 -512.08)"/><path class="cls-3" d="M2562.53,827.1v-315h19.11v315Z" transform="translate(-149.23 -512.08)"/><path class="cls-3" d="M2623.48,531.19v130H2717v19.11h-93.48V808H2724.7v19.11H2604.38v-315H2724.7v19.11Z" transform="translate(-149.23 -512.08)"/></g></svg>