<?xml version="1.0" encoding="UTF-8" standalone="no"?>
<!DOCTYPE svg PUBLIC "-//W3C//DTD SVG 1.1//EN" "http://www.w3.org/Graphics/SVG/1.1/DTD/svg11.dtd">
<svg width="100%" height="100%" viewBox="0 0 320 320" version="1.1" xmlns="http://www.w3.org/2000/svg" xmlns:xlink="http://www.w3.org/1999/xlink" xml:space="preserve" xmlns:serif="http://www.serif.com/" style="fill-rule:evenodd;clip-rule:evenodd;stroke-linejoin:round;stroke-miterlimit:2;">
    <ellipse cx="158.949" cy="161.269" rx="144.932" ry="152.365" style="fill:rgb(71,98,178);"/>
    <g id="tools-and-utensils--1-" serif:id="tools-and-utensils (1)" transform="matrix(0.381159,0,0,0.381159,163.627,161.729)">
        <g transform="matrix(1,0,0,1,-256.046,-256.046)">
            <path d="M312.453,199.601C306.387,193.499 299.661,188.09 292.4,183.473C273.168,171.158 250.81,164.614 227.973,164.614C196.276,164.555 165.867,177.149 143.493,199.601L34.949,308.23C12.613,330.609 0.059,360.93 0.039,392.548C-0.003,458.528 53.449,512.049 119.429,512.091C151.077,512.201 181.458,499.667 203.824,477.275L293.424,387.675C295.052,386.061 295.961,383.859 295.948,381.567C295.921,376.854 292.078,373.056 287.365,373.083L283.952,373.083C265.232,373.149 246.679,369.554 229.339,362.502C226.144,361.187 222.472,361.929 220.038,364.379L155.611,428.891C135.605,448.897 103.169,448.897 83.163,428.891C63.157,408.885 63.157,376.449 83.163,356.443L192.134,247.558C212.124,227.593 244.507,227.593 264.497,247.558C277.969,260.237 298.983,260.237 312.454,247.558C318.25,241.757 321.764,234.063 322.353,225.883C322.976,216.108 319.371,206.535 312.453,199.601Z" style="fill:rgb(242,242,242);fill-rule:nonzero;"/>
            <path d="M477.061,34.993C430.404,-11.664 354.758,-11.664 308.101,34.993L218.586,124.422C216.128,126.892 215.419,130.607 216.794,133.809C218.153,137.02 221.329,139.081 224.815,139.014L227.972,139.014C246.67,138.98 265.193,142.603 282.5,149.681C285.695,150.996 289.367,150.254 291.801,147.804L356.057,83.633C376.063,63.627 408.499,63.627 428.505,83.633C448.511,103.639 448.511,136.075 428.505,156.081L348.462,236.038L347.779,236.806L319.79,264.625C299.8,284.59 267.417,284.59 247.427,264.625C233.955,251.946 212.941,251.946 199.47,264.625C193.637,270.47 190.12,278.231 189.571,286.47C188.947,296.245 192.552,305.818 199.47,312.753C209.347,322.672 220.903,330.761 233.603,336.646C235.395,337.499 237.187,338.182 238.979,338.95C240.771,339.718 242.648,340.315 244.44,340.998C246.232,341.681 248.109,342.278 249.901,342.79L254.936,344.155C258.349,345.008 261.763,345.691 265.261,346.288C269.475,346.914 273.719,347.313 277.976,347.483L284.461,347.483L289.581,346.886C291.458,346.801 293.421,346.374 295.64,346.374L298.541,346.374L304.429,345.521L307.16,345.009L312.109,343.985L313.048,343.985C334.009,338.72 353.149,327.867 368.429,312.582L477.058,203.953C523.718,157.296 523.718,81.65 477.061,34.993Z" style="fill:rgb(242,242,242);fill-rule:nonzero;"/>
        </g>
    </g>
</svg>
