<?xml version="1.0" encoding="UTF-8" standalone="no"?>
<!DOCTYPE svg PUBLIC "-//W3C//DTD SVG 1.1//EN" "http://www.w3.org/Graphics/SVG/1.1/DTD/svg11.dtd">
<svg width="100%" height="100%" viewBox="0 0 200 100" version="1.1" xmlns="http://www.w3.org/2000/svg" xmlns:xlink="http://www.w3.org/1999/xlink" xml:space="preserve" xmlns:serif="http://www.serif.com/" style="fill-rule:evenodd;clip-rule:evenodd;stroke-linejoin:round;stroke-miterlimit:2;">
    <g transform="matrix(1,0,0,1,8.44828,8.96552)">
        <text x="17.414px" y="45.624px" style="font-family:'IcelandLight', 'Iceland';font-size:52px;fill:rgb(77,115,210);">SUIVANT</text>
    </g>
    <g transform="matrix(0.874367,0,0,0.714418,-759.917,-594.215)">
        <path d="M1066.48,938.33L1047.32,919.165C1045.56,917.408 1042.71,917.408 1040.95,919.165C1039.2,920.922 1039.2,923.772 1040.95,925.529L1052.44,937.011L1042.47,937.011L1024.63,919.165C1022.87,917.408 1020.02,917.408 1018.26,919.165C1016.51,920.922 1016.51,923.772 1018.26,925.529L1029.75,937.011L898.521,933.563C896.036,933.563 894.883,938.164 894.883,940.649C894.883,943.135 895.346,947.218 897.831,947.218L1029.75,946.011L1018.26,957.494C1016.51,959.25 1016.51,962.1 1018.26,963.857C1019.14,964.736 1020.3,965.175 1021.45,965.175C1022.6,965.175 1023.75,964.736 1024.63,963.857L1042.47,946.011L1052.44,946.011L1040.95,957.494C1039.2,959.25 1039.2,962.1 1040.95,963.857C1041.83,964.736 1042.98,965.175 1044.14,965.175C1045.29,965.175 1046.44,964.736 1047.32,963.857L1066.48,944.693C1068.24,942.936 1068.24,940.086 1066.48,938.33Z" style="fill:rgb(77,115,210);fill-rule:nonzero;"/>
    </g>
</svg>
