<svg id="Calque_1" data-name="Calque 1" xmlns="http://www.w3.org/2000/svg" viewBox="0 0 2267.89 1157.15"><defs><style>.cls-1{isolation:isolate;}.cls-2{fill:#4d73d2;}</style></defs><title>next</title><g class="cls-1"><path class="cls-2" d="M677.69,656.91H643.24A110.77,110.77,0,1,0,533,778.72c80,0,145.09,65.09,145.09,145.1S613,1068.92,533,1068.92c-76.28,0-139-59.2-144.67-134.06H422.8A110.78,110.78,0,1,0,533,813C453,813,387.94,748,387.94,668S453,522.85,533,522.85C609.32,522.85,672,582,677.69,656.91Z" transform="translate(-338.09 -522.7)"/><path class="cls-2" d="M717.87,797.33V522.7H751V797.33c0,104.56,66.38,196.62,165.2,229.09l14.48,4.77V522.7h33.12l.23,546-14.77-.18C815.13,1047.33,717.87,933.39,717.87,797.33Z" transform="translate(-338.09 -522.7)"/><path class="cls-2" d="M1003.35,1068.81v-546h33.12v546Z" transform="translate(-338.09 -522.7)"/><path class="cls-2" d="M1415.42,522.89l-146.21,546h-40.39l-152.94-546h34.39l138.47,494.35,132.4-494.35Z" transform="translate(-338.09 -522.7)"/><path class="cls-2" d="M1716,925.24H1527.73l-38.49,143.65H1455L1601.22,523l36.39-.2,153,546.12h-34.38L1716,925.25ZM1536.6,892.12h170.07L1619.74,581.8Z" transform="translate(-338.09 -522.7)"/><path class="cls-2" d="M2074.77,1068.86v-25.39L1863.24,622.28v446.58h-33.12v-546h33.12v25.59l211.53,421.18V522.89h33.12v546Z" transform="translate(-338.09 -522.7)"/><path class="cls-2" d="M2470.72,522.75v33.12h-145v513h-33.12v-513h-145V522.75Z" transform="translate(-338.09 -522.7)"/></g><path class="cls-2" d="M2588.67,1392.17l-251.29-205.38c-23.09-18.82-60.47-18.82-83.55,0s-22.95,49.37,0,68.2l150.7,123H2273.77l-234-191.25c-23.09-18.82-60.47-18.82-83.55,0s-23,49.37,0,68.2l150.7,123-1721.14-37c-32.59,0-47.71,49.3-47.71,75.93s6.07,70.4,38.66,70.4l1730.19-12.94-150.7,123.06c-23,18.82-23,49.36,0,68.19,11.54,9.42,26.75,14.12,41.84,14.12s30.16-4.7,41.71-14.12l234-191.25h130.76l-150.7,123.06c-22.95,18.82-22.95,49.36,0,68.19,11.54,9.42,26.62,14.12,41.84,14.12s30.16-4.7,41.71-14.12l251.29-205.37C2611.75,1441.53,2611.75,1411,2588.67,1392.17Z" transform="translate(-338.09 -522.7)"/></svg>