<?xml version="1.0" encoding="UTF-8" standalone="no"?>
<!DOCTYPE svg PUBLIC "-//W3C//DTD SVG 1.1//EN" "http://www.w3.org/Graphics/SVG/1.1/DTD/svg11.dtd">
<svg width="100%" height="100%" viewBox="0 0 320 320" version="1.1" xmlns="http://www.w3.org/2000/svg" xmlns:xlink="http://www.w3.org/1999/xlink" xml:space="preserve" xmlns:serif="http://www.serif.com/" style="fill-rule:evenodd;clip-rule:evenodd;stroke-linejoin:round;stroke-miterlimit:2;">
    <g transform="matrix(0.494367,0,0,0.515579,53.2569,210.624)">
        <path d="M155.78,85.741C154.426,85.386 152.698,85.172 151.039,85.172C142.966,85.172 138.735,90.747 138.735,96.992L138.735,120.964L122.4,120.964L122.4,71.088L138.255,71.088L138.255,80.558L138.445,80.558C140.85,74.218 146.424,70.853 153.438,70.853C154.182,70.853 154.961,70.887 155.774,70.975L155.78,85.741Z" style="fill:rgb(26,26,26);fill-rule:nonzero;"/>
    </g>
    <g transform="matrix(0.494367,0,0,0.515579,53.2569,210.624)">
        <path d="M18.115,98.231C18.503,106.415 23.57,109.043 31.265,109.043C36.719,109.043 42.368,107.096 42.368,101.933C42.368,95.797 32.433,94.627 22.401,91.805C12.465,88.978 2.044,84.498 2.044,71.737C2.044,56.543 17.337,50.603 30.386,50.603C45.404,50.603 58.148,57.323 58.246,73.004L40.129,73.004C40.42,66.675 34.816,64.627 28.927,64.627C25.031,64.627 20.163,65.992 20.163,70.569C20.163,75.712 30.194,76.9 40.322,79.725C50.356,82.55 60.486,87.226 60.486,99.791C60.486,117.421 45.484,123.069 30.193,123.069C14.219,123.069 0.096,116.057 0,98.231L18.115,98.231Z" style="fill:rgb(26,26,26);fill-rule:nonzero;"/>
    </g>
    <g transform="matrix(0.494367,0,0,0.515579,53.2569,210.624)">
        <path d="M114.769,120.964L98.911,120.964L98.911,114.14L98.72,114.14C95.645,119.234 89.302,122.251 83.537,122.405C69.19,122.791 65.083,114.14 65.083,101.071L65.083,71.088L81.422,71.088L81.422,100.015C81.422,106.646 84.304,108.953 89.492,108.953C93.05,108.953 98.432,106.646 98.432,97.803L98.432,71.088L114.769,71.088L114.769,120.964Z" style="fill:rgb(26,26,26);fill-rule:nonzero;"/>
    </g>
    <g transform="matrix(0.494367,0,0,0.515579,53.2569,210.624)">
        <path d="M193.422,120.964L174.585,120.964L157.942,71.088L174.972,71.088L184.099,104.05L184.291,104.05L193.519,71.088L210.146,71.088L193.422,120.964Z" style="fill:rgb(26,26,26);fill-rule:nonzero;"/>
    </g>
    <g transform="matrix(0.494367,0,0,0.515579,53.2569,210.624)">
        <path d="M229.607,64.841L213.266,64.841L213.266,52.347L229.607,52.347L229.607,64.841ZM213.266,71.088L229.607,71.088L229.607,120.964L213.266,120.964L213.266,71.088Z" style="fill:rgb(26,26,26);fill-rule:nonzero;"/>
    </g>
    <g transform="matrix(0.494367,0,0,0.515579,53.2569,210.624)">
        <path d="M268.188,120.964L249.355,120.964L232.73,71.088L249.74,71.088L258.871,104.05L259.062,104.05L268.286,71.088L284.912,71.088L268.188,120.964Z" style="fill:rgb(26,26,26);fill-rule:nonzero;"/>
    </g>
    <g transform="matrix(0.494367,0,0,0.515579,53.2569,210.624)">
        <path d="M300.069,86.464C300.473,82.19 303.721,80.218 308.241,80.218C311.964,80.218 316.119,81.549 316.119,85.22C316.119,88.295 314.58,89.442 311.794,90.021C300.455,92.327 282.771,91.078 282.771,107.318C282.771,117.601 290.266,122.405 299.781,122.405C305.74,122.405 311.986,120.675 316.214,116.256C316.404,117.89 316.597,119.427 317.175,120.964L333.604,120.964C331.689,117.023 331.689,112.412 331.689,108.181L331.689,86.368C331.689,72.242 320.25,69.645 308.431,69.645C302.763,69.645 296.993,70.607 292.574,73.105C288.152,75.7 285.08,79.929 284.789,86.464L300.069,86.464ZM299.107,106.646C299.107,102.704 302.184,101.167 305.835,100.305C309.39,99.342 313.621,99.053 315.925,97.613C316.306,107.895 313.544,112.315 305.931,112.315C302.28,112.315 299.107,110.682 299.107,106.646Z" style="fill:rgb(26,26,26);fill-rule:nonzero;"/>
    </g>
    <g transform="matrix(0.494367,0,0,0.515579,53.2569,210.624)">
        <path d="M339.068,52.347L355.408,52.347L355.408,120.964L339.068,120.964L339.068,92.353L339.068,71.301L339.068,52.347Z" style="fill:rgb(26,26,26);fill-rule:nonzero;"/>
    </g>
    <g transform="matrix(0.494367,0,0,0.515579,39.8088,84.9373)">
        <path d="M410.824,322.94C411.087,322.965 411.274,322.711 411.615,323.01C411.921,323.497 412.064,324.038 412.283,324.66C412.372,324.936 411.192,327.602 410.824,327.757C410.584,327.78 410.337,327.803 410.1,327.824C409.241,327.369 409.404,324.563 409.964,323.67C410.183,323.336 410.563,323.219 410.824,322.94Z" style="fill:rgb(26,26,26);fill-rule:nonzero;"/>
    </g>
    <g transform="matrix(0.494367,0,0,0.515579,39.8088,84.9373)">
        <path d="M420.278,330.227C421.323,330.207 421.802,330.383 422.424,330.639C422.51,331.225 422.733,331.672 422.424,332.096C421.247,333.208 420.045,332.93 418.966,331.814L418.966,331.12C419.202,330.96 419.248,330.676 419.452,330.502C419.723,330.423 419.997,330.326 420.278,330.227Z" style="fill:rgb(26,26,26);fill-rule:nonzero;"/>
    </g>
    <g transform="matrix(0.494367,0,0,0.515579,39.8088,84.9373)">
        <path d="M414.652,335.741C415.061,335.44 415.32,335.881 415.657,335.954C416.276,336.807 416.965,337.789 416.511,338.956C415.221,340.652 412.921,337.854 413.513,336.807C413.714,336.294 414.256,336.073 414.652,335.741Z" style="fill:rgb(26,26,26);fill-rule:nonzero;"/>
    </g>
    <g transform="matrix(0.494367,0,0,0.515579,39.8088,84.9373)">
        <path d="M406.208,346.869C407.162,348.016 406.166,348.72 405.271,349.547C404.366,349.653 404.09,349.425 403.645,348.929C403.596,348.023 403.774,347.21 404.299,346.713C404.756,346.433 405.654,346.466 406.208,346.869Z" style="fill:rgb(26,26,26);fill-rule:nonzero;"/>
    </g>
    <g transform="matrix(0.494367,0,0,0.515579,39.8088,84.9373)">
        <path d="M397.189,350.386C397.694,350.645 398.004,350.774 397.984,351.578C397.826,351.855 397.806,352.275 397.587,352.498C397.199,352.89 395.416,353.516 394.884,353.227C394.426,353.029 393.672,351.783 393.963,351.309C394.911,350.076 395.861,351.036 397.189,350.386Z" style="fill:rgb(26,26,26);fill-rule:nonzero;"/>
    </g>
    <g transform="matrix(0.494367,0,0,0.515579,39.8088,84.9373)">
        <path d="M359.282,363.429C359.811,363.513 360.692,363.602 360.933,364.187C361.511,364.915 361.126,366.765 359.882,366.815C359.076,367.311 357.737,366.72 357.549,366.068C357.375,365.799 357.19,365.086 357.395,364.717C357.645,364.099 358.404,363.949 358.829,363.505C358.978,363.481 359.127,363.459 359.282,363.429Z" style="fill:rgb(26,26,26);fill-rule:nonzero;"/>
    </g>
    <g transform="matrix(0.494367,0,0,0.515579,-53.9506,37.0367)">
        <path d="M373.726,351.51C373.482,350.691 373.438,350.39 373.291,349.124C373.244,348.694 373.373,348.505 373.8,348.156C374.233,347.796 374.568,348.138 374.941,347.887C376.368,348.186 376.931,349.282 378.45,348.112L378.955,348.112C380.84,347.503 381.216,348.569 382.553,348.998C383.098,349.173 384.059,349.307 384.456,348.934C384.87,348.54 385.12,347.97 385.583,347.607C386.104,347.21 386.809,347.415 387.297,346.917C388.285,345.886 387.325,344.17 388.049,343.191C388.489,342.587 388.909,341.423 389.371,341.042C389.522,341.017 389.672,340.998 389.817,340.978C390.397,340.631 390.939,340.019 391.458,339.588C391.565,339.5 393.571,338.69 393.729,338.642C393.897,338.66 394.073,338.689 394.239,338.706C395.007,338.501 397.087,337.513 397.96,337.944C399.212,338.035 399.386,339.5 399.916,340.347C400.141,340.701 400.723,340.868 400.994,341.231C401.472,341.27 401.962,341.315 402.439,341.357C402.883,341.231 403.301,341.216 403.745,341.088C404.381,341.254 405.091,341.659 406.106,341.357C406.166,341.017 406.236,340.686 406.293,340.347C406.241,340.101 405.894,339.664 405.977,339.271C406.519,336.673 407.344,333.951 409.191,332.454C409.727,331.585 410.022,329.664 409.389,329.487C407.536,329.105 407.465,330.801 406.42,331.694C406.149,331.928 405.73,331.874 405.413,332.077C405.083,332.279 404.711,332.823 404.27,332.96C404.131,332.938 403.979,332.913 403.833,332.896C403.264,333.096 402.391,333.515 401.813,333.213C401.298,333.178 401.088,332.787 400.799,332.516C399.865,331.636 399.925,330.763 399.602,329.111C399.621,328.855 399.648,328.609 399.661,328.357C399.457,327.908 399.239,327.47 399.034,327.024L399.034,326.464C399.043,325.615 401.024,324.658 401.498,324.06C401.548,323.997 402.175,323.539 402.175,323.494C403.668,322.859 404.946,321.625 405.977,320.459C406.367,320.022 406.846,318.598 406.991,317.931L406.991,316.865C407.138,316.307 407.444,315.678 407.559,315.023L407.559,313.578C407.644,313.429 407.727,313.279 407.811,313.134C407.78,312.586 407.59,311.913 407.559,311.367C407.622,311.158 407.681,310.946 407.747,310.735C407.644,310.276 407.535,309.812 407.428,309.353C407.984,306.431 408.539,304.806 410.149,302.778C410.492,302.256 411.397,301.667 411.846,301.076C412.443,300.299 412.597,299.669 413.556,299.244C413.784,298.647 414.426,297.341 414.129,296.404C413.976,295.945 413.509,295.475 413.308,295.016C413.117,294.562 413.13,294.243 412.671,294.069C412.654,292.982 412.71,292.298 412.48,291.296C412.404,290.935 412.675,290.369 412.611,290.022C412.552,289.71 412.319,289.041 412.358,288.769C412.466,287.98 413.13,287.798 413.308,287.25C413.705,286.039 413.441,284.665 413.815,283.584C413.755,283.434 413.556,283.285 413.625,283.02C413.777,282.32 415.911,279.667 416.271,279.324C416.115,279.207 416.673,278.252 416.654,277.997C416.586,277.113 417.475,274.724 417.913,273.802C418.203,273.206 418.6,272.135 419.171,271.782C419.743,271.428 419.581,269.537 420.224,268.998C420.149,268.831 420.105,268.354 420.234,268.224C420.364,268.094 421.004,267.254 421.266,266.502C421.593,265.557 422.252,264.694 422.782,263.792C422.885,263.817 423.606,263.362 423.792,263.289C423.608,262.249 424.338,262.019 424.801,261.205C424.903,260.864 425.011,260.532 425.116,260.191C425.448,259.791 425.791,259.392 426.124,258.994C426.811,257.889 426.868,256.622 427.579,255.554C427.861,255.12 427.663,254.283 427.89,253.719C428.28,252.784 428.594,253.359 428.95,252.433C429.224,251.708 429.248,250.925 429.64,250.162C430.168,249.142 431.588,248.671 432.042,247.57C432.233,247.118 432.03,246.465 432.104,245.993C432.151,245.706 432.469,245.411 432.54,245.239C432.612,245.066 432.54,244.567 432.54,244.225C432.714,243.977 432.945,243.678 433.047,243.47C433.151,243.262 433.174,242.792 433.237,242.46C433.613,241.735 434.358,241.064 434.69,240.251C435.351,238.622 434.764,238.666 435.302,236.959C435.741,235.595 437.018,233.738 438.342,233.269C438.751,233.087 438.926,232.274 438.76,231.941C438.653,230.544 438.355,229.837 438.708,227.792C438.986,226.233 439.47,224.519 440.295,223.44C440.62,223.013 441.252,222.686 441.426,222.12L441.426,220.98C441.606,220.276 441.782,219.267 441.87,218.516C441.87,218.094 442.268,215.933 442.268,215.508C442.584,215.047 441.321,214.581 441.633,214.119C442.081,213.11 440.85,210.595 440.779,210.082C440.201,205.895 441.122,200.197 440.434,199.296C440.151,198.915 440.197,198.456 439.997,197.962C439.739,197.546 439.494,197.124 439.23,196.708C438.656,195.242 438.167,193.685 437.914,192.037C437.686,190.617 438.557,189.45 438.286,188.18C438.114,187.366 438.585,185.008 438.283,184.4C438.241,184.176 438.2,183.94 438.153,183.71C437.988,183.539 437.815,183.372 437.653,183.201C437.267,182.134 437.929,181.058 437.552,179.985C437.495,179.627 437.735,179.545 437.806,179.355C437.867,178.869 437.666,176.107 437.735,175.632C437.958,174.934 438.708,173.572 438.62,173.29C438.533,173.006 438.408,172.575 438.302,172.219C437.988,170.807 438.176,169.845 437.858,168.3C437.796,167.968 437.735,167.63 437.666,167.292C437.827,166.243 437.85,165.456 438.174,164.579C438.458,163.807 438.454,163.196 438.62,162.245C438.681,161.833 438.368,161.524 438.302,161.23C438.319,161.042 438.341,160.85 438.366,160.664C438.167,159.827 439.233,159.207 438.877,158.579C438.739,158.337 439.036,156.54 439.028,156.12C439.016,155.636 438.966,155.051 439.088,154.663C439.234,154.224 439.472,150.887 439.349,150.468C439.097,149.648 439.206,148.449 438.965,147.527C438.926,147.026 438.884,146.524 438.839,146.018C438.71,145.93 438.788,145.848 438.66,145.765C438.348,145.293 438.26,144.75 438.085,144.121C437.911,143.529 437.485,142.704 437.316,141.975C436.821,139.742 436.567,138.056 435.774,136.103C435.402,135.201 435.002,134.078 434.588,133.075C434.215,132.178 434.149,131.254 433.699,130.485C433.393,129.963 433.039,129.701 432.715,129.222C432.632,128.882 432.532,128.415 432.463,128.212C432.395,128.01 432.004,127.623 431.768,127.328C431.33,126.528 431.312,125.542 431.01,124.741C430.789,124.172 430.372,123.531 430.189,122.91C429.936,122.03 429.977,121.552 429.682,120.447C429.6,120.12 429.198,119.935 429.052,119.686C429.03,119.524 429.01,119.35 428.987,119.183C428.805,118.653 428.433,118.06 428.232,117.607C428.171,117.249 428.105,116.893 428.045,116.535C427.875,116.365 427.71,116.194 427.539,116.028C427.245,115.516 427.362,114.861 427.093,114.26C426.883,113.787 426.413,113.341 426.211,112.741C426.193,112.305 425.864,111.862 425.85,111.418C425.609,109.709 424.617,108.889 424.174,107.426C423.346,106.548 423.155,105.102 422.614,103.881C422.42,103.209 422.334,102.431 422.147,101.757C421.997,101.631 421.854,101.504 421.7,101.38C421.551,100.998 421.512,100.623 421.363,100.243C421.149,100.045 421.194,100.014 420.958,99.865C420.594,99.644 420.77,99.136 420.438,98.917C419.78,98.479 420.565,98.082 420.1,97.464C419.607,96.811 418.607,94.92 418.878,93.688C418.977,93.245 418.015,92.747 418.158,92.365C418.201,92.026 418.091,91.691 418.13,91.353C418.422,90.891 417.656,90.428 417.951,89.966C418.456,88.832 418.758,87.553 419.534,86.684C419.719,86.596 420.179,86.576 420.301,86.428C420.423,86.28 420.518,85.722 420.73,85.469C421.172,85.152 422.34,85.088 422.667,84.773C422.891,84.588 424.898,84.573 426.315,84.689C426.792,84.724 426.829,84.906 427.432,85.088C427.598,85.196 427.77,85.304 427.938,85.406C428.085,85.406 427.974,85.615 428.125,85.615C428.712,85.89 430.093,87.52 430.462,88.14C431.122,89.235 431.792,90.648 432.42,91.737C432.528,92.346 433.096,92.96 433.203,93.569C433.411,94.159 433.922,94.526 434.091,95.126C434.175,95.425 434.051,95.907 434.222,96.269C434.441,96.757 434.816,97.306 434.975,97.908C435.226,98.843 436.236,100.004 436.521,100.998C436.75,101.782 436.851,102.295 437.144,103.092C437.391,103.76 438.052,104.469 438.452,105.042C439.266,106.203 439.937,107.588 440.349,108.956C440.541,109.313 440.188,109.669 440.378,110.029C440.649,111.111 441.833,112.762 442.483,113.818C442.868,114.45 443.618,114.742 443.999,115.459C446.009,119.257 445.167,119.659 445.494,119.998C445.823,120.335 445.748,120.939 446.121,121.705C446.506,122.477 447.778,123.184 448.195,123.911C448.418,124.308 448.162,124.201 448.395,124.749C448.553,125.051 448.58,125.238 448.854,125.364C449.088,125.784 449.317,126.206 449.55,126.625C450.052,127.432 450.533,129.063 451.207,129.725C451.846,130.346 451.07,130.674 451.77,131.241C452.229,131.62 451.963,132.549 452.463,132.888C452.953,133.218 453.324,133.824 453.822,134.156C454.292,134.432 454.48,134.628 454.655,135.207C454.881,135.915 455.114,135.731 455.606,136.213C455.952,136.404 456.284,136.531 456.553,136.592C456.807,136.696 457.058,136.805 457.313,136.908C457.685,136.991 457.843,137.078 458.064,137.022C460.47,136.365 461.043,136.926 462.59,135.215C462.991,134.768 463.893,132.778 463.878,132.17C463.838,131.873 464.027,131.347 463.987,131.051C463.982,130.767 464.459,130.5 464.341,130.104C464.222,129.699 464.307,129.783 464.054,129.532C463.716,129.214 463.772,127.632 463.759,127.128C463.683,124.125 462.928,122.959 463.451,120.69C463.641,119.843 463.401,119.667 463.165,119.238C462.944,118.831 462.655,116.135 462.446,115.651C462.215,115.31 462.215,114.974 461.981,114.636C461.852,114.29 462.319,113.735 462.258,113.503C461.903,112.022 462.172,110.967 461.864,109.4C461.321,106.626 460.669,103.82 460.815,100.749C460.831,100.428 461.059,100.119 461.086,99.799C460.881,99.124 460.457,98.376 460.283,97.589C459.801,95.301 459.345,92.149 459.771,89.636C459.912,88.846 459.491,86.842 459.074,86.446C458.655,86.082 458.899,84.436 458.978,83.83C459.11,83.554 459.035,83.281 459.16,83.006C459.387,82.326 459.19,80.899 459.035,80.353C458.787,79.525 458.481,78.477 458.148,77.703C457.685,76.655 457.906,75.634 457.531,74.419C457.163,73.232 457.971,72.215 457.567,70.885C457.335,70.401 457.301,69.92 457.072,69.432C456.712,68.249 457.026,67.103 456.78,65.956C456.797,65.372 456.625,64.776 456.643,64.193C456.526,63.678 456.153,62.36 456.357,61.667C456.641,60.704 455.75,59.016 456.15,57.374C456.45,56.124 456.813,55.07 457.252,54.063C457.498,53.51 458.959,53.014 459.286,52.482C459.503,52.128 459.545,51.667 459.851,51.41C460.664,50.743 463.707,50.075 464.827,50.253C466.125,50.461 467.347,50.873 467.928,51.262C468.312,51.515 468.916,51.706 469.165,52.078C469.309,52.301 469.266,52.505 469.479,52.651C469.985,52.988 470.769,53.266 471.056,53.786C471.261,54.15 471.204,54.58 471.374,54.924C471.639,55.439 471.737,56.184 472.002,56.68C472.382,57.938 472.755,59.2 473.135,60.467C473.328,60.933 473.539,63.512 473.349,64.316C473.217,64.87 473.257,66.51 473.396,67.221C473.634,68.514 474.486,70.159 474.823,71.514C475.2,73.039 474.426,74.019 474.844,75.618C475.36,77.576 475.295,80.155 475.944,82.314C476.023,82.577 476.304,82.858 476.383,83.067C476.485,83.656 476.198,84.248 476.304,84.834C476.469,85.406 476.403,86.026 476.624,86.543C476.734,87.257 476.734,87.974 476.844,88.689C476.966,89.126 477.225,89.418 477.349,89.887C477.576,90.745 476.97,91.01 477.158,91.904C477.392,92.581 477.621,93.253 477.855,93.928C477.876,94.372 477.896,94.813 477.917,95.253C477.998,95.423 478.272,95.788 478.314,96.042C478.397,96.554 478.1,97.211 478.254,97.782C479.038,100.649 479.797,103.052 479.266,105.99C479.149,106.644 479.893,107.502 479.583,108.197C479.637,108.514 479.76,108.411 479.834,108.576C479.817,108.747 479.79,108.912 479.772,109.082C479.93,109.884 479.95,110.767 480.154,111.545C480.254,111.672 480.356,111.794 480.465,111.923C480.596,112.31 480.415,112.879 480.614,113.375C481.03,114.409 480.944,115.549 481.213,116.786C481.188,117.163 481.518,119.885 481.502,120.265C481.786,121.25 482.235,125.16 482.458,126.342C482.458,126.745 482.83,127.142 482.83,127.54C483.146,128.661 483.209,129.732 483.795,130.646C484.006,131.133 484.963,131.127 484.895,131.641C485.581,132.281 485.284,132.819 487.071,132.944C487.304,132.884 488.353,133.433 488.589,133.373C489.207,133.43 489.555,133.184 490.193,133C492.808,132.255 492.571,131.725 493.464,130.307C493.999,129.441 494.778,127.173 494.909,126.094C494.868,125.772 495.481,123.599 495.463,123.283C495.316,120.386 497.299,117.079 497.053,114.971C496.842,113.156 497.917,110.511 498.132,108.83C498.156,108.197 498.076,107.564 498.097,106.933C498.166,106.247 499.235,103.851 499.566,101.947C499.524,101.631 499.48,101.316 499.435,100.998C499.421,99.887 499.321,98.179 499.524,97.401C499.85,96.192 500.499,95.155 500.848,94.053C501.194,92.971 500.93,91.667 501.19,90.645C501.403,89.836 501.917,88.846 502.01,88.053C501.983,87.7 501.961,87.341 501.946,86.984C502.283,85.5 502.027,84.09 502.48,82.628C502.636,82.103 502.195,81.77 502.349,81.236C502.553,80.902 502.666,80.567 502.879,80.226C502.917,79.893 502.957,79.555 503.006,79.219C503.192,78.735 503.582,78.247 503.773,77.763C504.122,76.334 504.745,74.11 504.641,72.79C504.598,72.601 504.453,72.41 504.412,72.223C504.517,71.543 504.369,70.552 504.553,69.952C504.481,69.697 504.743,68.732 504.866,68.499C505.027,67.915 504.907,67.275 505.161,66.665C505.778,65.164 506.013,63.717 506.68,62.235C507.204,61.104 506.28,59.986 506.99,58.379C507.346,57.582 507.708,54.273 507.901,53.354C508.147,52.23 508.817,50.339 508.656,49.375C508.591,49.143 509.186,47.939 509.164,47.583C509.826,45.384 512.695,42.748 516.82,42.044C517.379,41.95 518.07,41.883 518.557,42.16C518.925,42.32 519.524,42.559 519.828,42.77C520.242,43.23 520.504,42.629 520.827,42.885C521.143,42.993 521.456,43.096 521.771,43.201C522.193,43.445 522.599,44.446 522.976,44.757C523.287,44.88 523.727,45.043 523.917,45.138C524.107,45.232 524.462,45.897 524.575,46.034C525.066,46.615 525.108,47.734 525.393,48.543C525.561,49.007 525.848,49.508 526.015,50.059C526.378,51.252 524.947,55.964 524.758,57.029C524.607,57.83 525.152,58.776 524.905,59.645C524.273,60.953 525.042,62.257 524.414,63.561C523.877,64.259 523.989,64.769 523.609,65.644C523.193,66.604 523.715,67.676 523.378,68.676C523.14,69.424 523.906,70.102 523.685,70.696C523.388,71.524 523.346,72.524 522.974,73.346C522.807,73.715 522.418,74.159 522.283,74.544C522.021,75.295 522.049,76.24 521.817,76.884C522.523,78.946 521.682,82.398 521.078,83.889C520.856,84.436 520.387,85.164 520.485,85.972C520.588,86.838 520.184,88.053 520.44,88.881C520.524,89.154 520.638,90.047 520.551,90.456C520.143,92.366 520.413,93.939 519.61,95.448C519.77,95.699 519.577,96.579 519.453,96.898C519.052,97.917 518.693,99.452 518.382,100.428C518.518,100.871 518.594,102.746 518.416,103.271C518.258,103.733 518.011,104.446 518.123,105.106C518.411,106.871 517.164,109.975 517.091,111.996C517.024,113.989 516.57,115.244 516.263,116.268C515.914,117.431 516.276,119.192 516.059,120.472C515.648,122.908 515.223,122.63 515.547,125.119C515.667,125.981 514.985,126.723 514.882,127.265C514.804,127.647 514.961,129.875 514.985,129.978C515.104,130.55 514.655,131.611 514.873,132.059C515.042,132.414 514.84,133.558 515.18,133.935C515.56,134.298 516.127,135.392 516.296,136.144C516.373,136.48 517.063,136.557 517.459,136.734C518.107,137.254 519.164,137.205 519.924,137.521C520.716,137.853 522.421,137.503 523.125,136.453C523.336,136.3 524.263,136.008 524.481,135.864C524.857,135.578 524.956,134.831 525.225,134.618C525.646,134.092 526.251,133.555 526.568,133.324C527.103,132.547 526.769,131.636 527.526,131.114C528.33,130.569 528.5,130.423 528.913,129.632C529.357,128.781 529.744,128.323 530.065,127.279C530.344,126.395 530.331,125.84 530.788,125.134C531.099,124.66 531.935,123.841 532.09,123.428C532.272,123.134 532.469,122.842 532.655,122.545C532.949,121.715 533.299,120.805 533.77,120.146C534.322,119.392 534.577,118.695 535.034,117.94C535.407,117.32 534.995,116.517 535.438,115.98C536.046,115.25 537.39,111.761 538.169,111.197C538.723,110.802 539.063,109.899 539.403,109.299C539.92,108.385 541.85,104.752 542.022,103.551C542.101,103.003 542.846,100.94 543.045,100.457C543.101,100.097 543.565,99.739 543.628,99.382C544.285,97.794 545.7,96.761 546.519,95.407C546.99,94.632 546.634,94.09 546.897,93.073C547.026,92.815 548.25,89.803 548.379,89.554C548.733,88.557 550.133,86.957 550.216,85.971C550.367,84.185 551.601,83.211 552.731,81.951C553.454,81.135 553.334,80.314 553.76,79.152C554.803,76.319 557.219,72.913 559.756,72.344C560.506,72.175 561.549,71.194 564.15,71.262C564.8,71.279 565.923,71.471 566.434,71.847C566.661,72.002 566.709,71.896 567.005,72.022C567.333,72.161 567.726,72.395 568.141,72.538C568.527,72.666 568.667,73.113 568.964,73.293C569.768,73.791 570.098,74.074 570.424,75.09C570.654,75.797 571.555,76.345 571.749,77.131C572,78.122 572.218,79.078 572.021,79.787C571.856,80.363 572.195,80.803 572.083,81.36C571.865,82.473 571.655,83.732 571.21,84.707C571.014,85.137 571.26,85.662 571.014,86.161C570.844,86.538 570.546,87.046 570.346,87.487C570.084,88.051 569.441,89.372 569.284,90.055C569.302,90.291 568.855,90.523 568.878,90.754C568.754,91.088 568.106,91.408 568.039,91.764C567.785,93.106 566.258,96.455 565.889,97.426C565.706,97.924 565.175,98.313 564.945,98.748C564.841,99.066 565.273,99.382 565.169,99.701C564.966,100.003 564.634,100.656 564.269,100.895C564.123,101.091 563.974,101.277 563.827,101.469C563.345,101.844 563.787,102.493 563.548,102.661C563.097,102.948 563.24,103.028 562.784,103.673C561.651,105.286 559.655,112.229 558.862,113.988C558.303,115.24 557.098,115.843 556.567,116.888C556.351,117.306 555.993,118.016 555.93,118.406C555.978,118.594 556.018,118.784 556.062,118.976C556.155,119.563 554.118,124.23 553.839,124.635C553.644,124.916 553.497,125.014 553.332,125.208C552.983,125.775 551.913,129.174 551.592,129.744C551.401,130.084 551.079,131.064 550.75,131.67C550.282,132.54 550.45,132.885 549.863,133.718C549.343,134.443 548.704,134.79 548.268,135.612C548.25,135.82 548.231,136.034 548.206,136.246C548.06,136.535 547.911,136.833 547.763,137.125C547.763,137.505 547.461,137.884 547.461,138.266C547.304,138.849 546.908,139.425 546.77,140.093C546.787,140.431 546.808,140.767 546.83,141.107C546.686,141.673 545.645,142.254 545.487,142.83C545.438,143.068 544.767,143.712 544.785,144.139C544.462,145.155 544.151,146.242 543.783,147.229C543.542,147.844 543.623,148.37 543.434,149.128C543.434,149.439 542.969,149.755 542.969,150.07C542.818,150.751 540.895,152.799 540.853,153.155C540.795,153.634 541.147,153.709 540.829,154.876C540.532,155.969 540.627,156.963 540.057,158.1C539.417,159.395 538.594,160.225 537.89,161.452C537.458,162.203 537.564,163.5 537.128,164.219C536.251,165.698 536.271,166.434 535.658,167.535C535.05,168.625 535.529,169.515 534.958,170.718C534.273,172.087 534.154,173.069 533.326,173.606C532.916,173.867 532.926,174.507 532.784,175.007C532.661,175.429 532.674,175.709 532.7,175.83C532.778,176.208 532.473,177.186 532.231,178.031C531.889,179.208 531.319,179.641 530.743,180.588C530.136,181.564 531.149,182.442 530.543,183.362C530.249,183.799 530.483,184.232 530.001,184.511C529.645,184.846 529.629,185.496 529.583,185.755C529.588,186.641 529.549,186.923 529.502,187.594C529.443,188.373 529.786,188.557 529.444,190.399C529.347,190.909 529.72,191.401 529.823,191.723C529.955,192.117 530.658,192.463 530.386,192.998C530.258,193.362 530.594,193.593 530.842,193.773C532.532,194.116 531.525,194.724 532.591,195.377C532.887,195.508 533.181,195.633 533.477,195.76C533.77,196.056 534.064,195.554 534.358,195.848C535.463,196.416 534.588,196.246 536.14,196.456C536.814,196.413 536.875,195.906 537.542,196C538.518,196.261 539.331,195.747 540.391,195.561C541.947,195.285 542.133,194.981 542.904,194.631C543.351,194.434 543.685,194.443 544.044,194.188C544.194,194.002 544.331,193.657 544.635,193.624C544.941,193.591 548.228,192.309 550.188,191.224C550.328,191.147 551.083,191.078 551.65,191.078C552.195,190.893 552.726,190.417 553.09,190.032C553.759,189.319 554.333,188.933 555.266,188.445C555.415,188.356 557.481,187.799 557.868,187.722C558.67,187.639 559.354,187.078 560.151,187.001C561.361,186.524 561.069,185.815 561.538,185.601C562.517,185.489 562.991,185.49 563.384,184.741C563.609,184.332 564.755,184.705 564.914,184.584C565.394,184.331 567.508,184.146 569.005,183.289C569.357,183.088 569.333,182.529 569.906,182.355C570.739,182.1 571.612,181.72 572.722,181.487C573.373,181.349 574.207,181.379 574.707,181.066C575.694,180.452 576.239,181.448 577.598,181.021C577.895,180.93 578.538,181.04 578.793,180.878C579.493,180.461 581.504,181.179 582.333,181.553C582.392,181.581 582.631,181.704 582.912,181.892C583.446,182.253 584.129,181.569 584.618,181.971C584.896,182.189 585.017,182.572 585.308,182.789C585.308,183.111 586.392,183.73 586.77,183.978C587.015,184.144 587.606,185.297 587.863,185.582C588.257,186.039 588.279,186.042 588.398,186.749C589.315,192.179 586.699,193.221 585.124,194.656C584.797,194.952 584.326,194.996 583.92,195.162C583.483,195.623 583.034,196.088 582.6,196.55C581.984,196.964 581.715,196.952 581.271,197.561C579.338,197.361 576.94,199.83 575.208,200.701C573.535,201.539 572.238,203.427 569.887,203.917C567.647,204.385 567.409,206.438 565.415,206.953C563.522,207.444 560.565,209.308 559.877,210.53C559.338,211.488 555.922,213.135 555.805,213.328C555.69,213.52 554.08,214.178 553.214,214.59C552.149,214.863 551.521,215.635 550.866,216.07C550.688,216.149 550.239,216.285 550.117,216.557C549.96,217.455 548.718,216.611 548.378,217.75C547.802,219.675 546.385,218.99 545,220.062C544.38,220.537 543.447,221.479 542.764,221.951C542.286,222.271 541.688,222.025 541.186,222.391C541.145,222.495 541.099,222.597 541.061,222.699C540.618,223.087 540.006,223.16 539.483,223.462C538.79,223.863 538.333,224.911 537.334,225.355C535.592,226.134 534,226.488 532.443,227.617C531.702,228.16 531.637,229.188 530.865,229.68C530.063,230.188 528.705,230.427 528.133,231.141C527.724,231.655 526.761,231.797 526.376,232.231C525.759,232.91 525.101,233.412 524.643,233.775C524.453,233.956 524.388,233.81 524.197,234C523.767,234.168 523.572,233.932 523.219,234.155C522.424,234.669 521.997,236.237 520.995,236.562C520.36,236.603 519.724,236.649 519.099,236.687C518.375,236.848 517.903,237.238 517.594,237.469C517.327,237.672 516.138,239.3 514.765,239.141C513.021,239.812 511.833,240.865 510.341,242.563C509.992,242.957 509.487,243.279 509.301,243.682C509.158,243.991 509.329,244.26 509.232,244.499C508.992,245.168 507.397,246.478 507.206,246.607C506.907,246.975 506.818,247.518 506.446,247.807C506.134,247.97 505.818,248.143 505.502,248.316C505.438,248.417 504.557,248.886 504.174,249.161C503.583,249.597 502.923,250.269 502.211,250.577C501.436,250.727 499.782,256.498 499.255,256.861C499.186,257.266 499.335,257.895 499.131,258.314C498.962,258.481 498.791,258.648 498.621,258.816C498.427,259.131 497.544,259.61 497.449,259.825C497.324,260.478 497.208,261.411 497.07,261.786C496.93,262.161 496.354,262.878 496.189,263.424C496.03,263.959 495.588,263.903 495.532,264.332C495.478,264.765 494.868,267.003 494.647,267.428C494.042,268.602 492.352,269.907 492.125,270.704C492,271.135 492.125,271.761 492.125,272.281C492.042,272.712 491.721,273.442 491.499,273.926C491.205,274.57 490.452,274.903 489.982,275.378C489.226,276.139 489.035,277.107 488.546,278.094C488.486,278.346 488.261,278.6 488.202,278.85C487.9,279.315 487.783,279.862 487.652,280.049C487.464,280.319 487.371,281.301 487.492,281.776C487.621,282.286 488.113,282.692 488.341,282.908C489.599,282.536 490.996,284.021 492.546,283.963L495.009,283.963C495.277,283.84 495.539,283.66 495.713,283.631C496.129,283.562 497.06,283.829 497.403,283.963C497.894,283.743 499.206,284.064 499.68,284.153C500.083,284.234 500.444,284.043 500.684,284.03C500.993,284.013 501.793,284.153 502.012,284.218C502.566,284.173 503.324,283.994 503.654,284.09C503.977,284.185 504.251,284.472 504.555,284.53C504.76,284.569 505.026,284.492 505.238,284.468C505.572,284.569 506.18,284.907 506.435,284.914C507.098,284.934 507.918,284.914 508.9,284.914C509.618,285.067 510.256,285.546 510.976,285.738C512.094,286.017 512.948,285.937 513.978,285.821C514.237,285.792 514.577,285.903 514.896,285.987C515.193,286.034 516.429,285.844 516.729,285.86C517.068,285.762 517.538,285.752 518.116,285.668C518.555,285.715 518.997,285.752 519.44,285.797C520.387,285.967 521.573,285.599 522.161,285.355C523.387,284.838 524.55,284.003 525.817,283.52C527.453,282.898 528.918,282.801 530.175,281.879C531.031,281.26 532.143,278.78 532.817,277.779C533.547,276.723 535.249,276.555 536.048,275.567C536.388,275.152 536.435,274.576 536.74,274.118C537.066,273.634 537.568,273.115 537.94,272.663C538.333,272.177 538.479,271.483 538.954,271.084C539.799,270.365 541.897,269.755 543.305,270.137C543.854,270.278 544.974,270.925 545.643,270.647C546.344,270.348 547.197,269.817 547.851,269.38C548.205,269.151 548.45,268.681 548.861,268.499C549.671,268.129 550.516,268.19 551.386,267.864C552.157,267.576 553.123,266.361 553.851,265.91C554.149,265.82 554.44,265.737 554.737,265.658C555.063,265.454 555.417,265.199 555.815,264.959C557.626,263.878 558.842,262.157 561.242,261.615C562.146,261.411 564.037,261.458 564.714,261.736C565.43,262.036 566.659,262.757 566.924,262.497C567.686,261.753 570.122,260.549 571.471,260.73C571.848,260.782 572.191,260.687 572.478,260.82C573.041,261.102 573.986,261.275 574.496,261.267C574.658,261.264 575.24,260.959 575.328,260.7C575.43,260.392 575.42,259.868 575.259,259.623C574.64,258.831 572.974,258.928 571.98,258.49C571.501,258.286 571.324,257.958 571.026,257.575C570.131,256.417 568.93,255.704 568.626,253.911C568.293,251.956 570.158,248.192 571.149,247.408C571.964,246.769 572.763,246.437 573.548,245.896C573.742,245.703 573.931,245.512 574.119,245.329C574.476,245.262 574.833,245.199 575.195,245.138C575.488,245.044 575.662,244.728 575.887,244.629C576.219,244.483 578.256,244.902 578.409,245.01C579.379,245.67 579.172,246.422 579.676,247.213C579.683,247.658 579.762,247.838 579.928,248.076C579.967,248.047 580.33,248.027 580.371,248.009C581.23,247.799 580.461,246.209 580.878,245.512C581.596,244.326 582.643,243.603 583.334,242.417C583.942,241.394 584.241,240.34 584.916,239.388C585.996,237.875 588.25,237.565 589.782,236.483C590.366,235.852 590.936,235.202 591.546,234.591C591.665,234.475 592.684,234.423 593.247,234.338C594.02,234.121 594.826,233.648 595.459,233.265C595.694,233.182 595.928,233.097 596.156,233.011C596.562,232.611 596.529,231.874 596.915,231.436C597.545,230.707 598.151,229.849 598.426,228.779C598.616,228.047 598.417,227.06 598.678,226.133C599.049,224.842 599.978,223.863 600.381,222.658C600.831,221.342 599.645,220.077 599.949,218.615C600.351,216.585 601.99,215.981 602.595,214.454C603.278,213.056 601.543,210.752 602.156,209.142C602.384,208.556 602.826,207.814 603.035,207.188C603.082,206.98 603.121,206.77 603.162,206.555C603.432,206.089 604.017,205.683 604.297,205.234C604.406,205.062 604.495,204.51 604.617,204.345C605.613,203.017 608.186,201.951 607.022,200.562C605.917,199.235 607.125,197.67 606.761,196.652C606.202,195.063 605.333,194.279 604.617,192.996C604.186,192.222 603.818,191.272 603.542,190.399C603.523,190.17 603.496,189.936 603.476,189.711C603.132,189.06 604.529,188.329 604.245,187.557C603.981,186.86 603.516,186.357 603.306,185.482C603.136,184.822 601.692,180.365 601.967,179.736C602.357,178.813 602.693,178.567 602.914,177.209C602.996,176.671 602.492,174.201 602.281,173.612C601.852,172.417 601.994,171.356 601.646,170.193C601.267,168.933 600.044,166.969 600.259,166.752C600.49,166.52 600.872,165.82 600.697,165.464C600.621,164.25 599.097,163.244 599.501,161.36C599.6,160.895 599.817,159.775 600.069,159.335C600.766,158.139 602.089,157.293 602.41,155.743C602.636,154.618 601.745,152.859 601.456,151.823C601.198,150.896 601.692,149.687 601.838,149.043C601.838,148.521 601.797,147.963 601.913,147.62C602.016,147.313 602.128,146.881 602.281,146.586C602.3,146.309 602.328,146.039 602.343,145.765C602.716,145.02 603.612,144.559 603.918,143.742C604.172,143.076 603.851,141.884 604.047,141.09C604.297,140.651 604.551,140.207 604.805,139.763C605.071,138.969 605.276,138.411 605.434,137.619C605.642,136.64 605.252,135.862 605.121,135.158C604.866,133.76 604.815,132.064 604.551,130.675C604.224,128.926 605.843,127.094 605.566,125.688C605.388,124.834 604.913,124.125 604.739,123.354C604.45,122.053 604.449,119.988 604.297,118.3C604.476,116.701 604.093,114.589 604.678,112.872C604.959,112.046 605.896,111.387 606.132,110.469C606.458,109.191 605.999,107.895 605.813,106.681C605.566,105.049 606,103.167 605.318,101.834C604.717,100.67 604.917,98.487 604.512,97.274C604.294,96.625 604.928,96.28 604.76,95.572C604.522,94.548 604.495,93.276 604.253,92.224C604.241,91.381 604.349,90.151 604.195,89.699C604.097,89.415 603.815,89.235 603.628,89.004C603.341,88.537 602.818,87.365 602.679,86.855C602.486,86.11 601.864,84.807 601.98,84.081C602.121,83.29 602.666,81.787 602.429,80.797C601.997,79.017 601.02,77.106 600.537,75.3C600.434,74.919 600.537,73.999 600.537,73.346C600.583,71.684 600.494,69.808 599.966,68.487C599.401,67.062 598.708,65.647 597.379,65.013C597.045,64.856 596.727,64.336 596.115,64.633C595.911,64.657 594.727,65.49 594.594,65.644C593.477,65.641 592.524,65.497 592.578,64.569C592.651,63.585 593.307,63.252 593.524,62.419C593.878,61.092 592.842,59.759 592.578,58.825C592.431,58.3 592.412,56.422 592.512,55.857C592.554,55.436 592.598,55.016 592.641,54.595C592.492,54.04 591.935,53.9 591.626,53.522C590.813,52.502 589.609,51.331 588.408,50.742C588.075,50.577 587.05,50.736 586.639,50.806C586.071,50.908 585.463,50.631 585.065,50.681C584.266,50.78 583.282,51.221 582.407,50.994C581.178,50.672 580.751,49.587 579.256,49.735C577.749,51.226 577.659,53.003 575.533,54.028C574.615,54.471 573.482,54.18 572.815,53.774C570.517,52.374 570.417,50.337 569.718,47.586C569.55,46.913 569.599,45.424 569.4,44.998C568.871,43.819 567.969,42.794 567.573,41.398C567.162,39.935 567.495,37.365 566.756,37.043C562.146,36.025 562.128,40.343 558.485,39.821C555.182,39.345 555.395,37.147 553.912,34.958C553.28,34.012 551.892,33.329 551.575,32.116C551.274,30.95 551.057,28.743 551.132,27.634C551.198,27.279 551.26,26.915 551.33,26.564C551.188,25.372 549.607,24.257 550.443,23.469C550.786,23.124 551.404,22.863 551.624,22.537C552.116,21.79 552.056,19.928 552.143,18.882C552.211,18.072 553.871,17.104 554.641,17.017C554.708,17.037 556.463,17.451 556.274,18.578C556.082,19.699 555.98,20.573 555.616,20.888C555.502,21.013 555.42,21.396 555.526,21.557C555.637,21.683 555.799,21.88 556.062,21.894C556.394,21.905 557.104,21.111 557.501,20.445C557.981,19.634 559.436,18.953 559.967,18.707C560.809,18.315 562.737,19.003 563.315,18.459C563.655,18.379 563.598,18.244 563.759,18.019C563.694,17.428 563.609,15.76 562.929,15.078C562.821,15.053 562.146,14.092 561.994,13.832C561.68,13.27 560.762,13.068 560.437,12.542C560.231,12.585 560.016,12.629 559.813,12.672C558.842,12.692 557.495,14.425 557.11,15.13C556.817,15.197 556.46,15.264 556.244,15.292C556.154,15.305 554.87,14.845 553.508,15.295C553.057,15.613 552.267,16.082 551.551,16.618C550,17.788 549.843,19.312 546.97,18.227C545.864,17.805 545.143,16.269 543.747,16.205C542.665,16.157 541.969,17.035 541.163,17.406C539.834,18.011 538.958,17.186 538.002,16.834C537.633,16.7 537.403,16.832 537.117,16.648C535.612,15.638 536.384,14.226 535.732,12.542C535.56,12.104 535.431,11.47 534.788,11.469C531.721,11.591 531.934,12.728 530.236,13.934C529.903,14.058 529.566,14.188 529.228,14.311C528.394,14.212 528.334,13.684 527.837,13.304C527.485,13.02 527.109,12.911 526.703,12.672C525.983,12.24 525.643,11.137 524.93,10.649C524.296,10.213 523.435,10.026 522.473,10.016C522.195,10.059 521.922,10.104 521.656,10.143C520.352,9.877 519.578,9.074 518.682,8.374C517.495,8.349 517.474,9.212 517.039,9.889C516.914,9.934 516.792,9.976 516.659,10.016C516.162,9.965 515.679,9.686 515.338,9.45C514.861,7.181 512.076,3.353 509.842,2.883C508.638,2.629 508.008,3.326 507.194,3.517C506.123,3.763 505.082,2.52 503.654,3.197C502.712,3.649 502.682,5.227 501.889,5.852C500.907,6.622 499.495,6.837 498.478,7.557C497.976,7.912 497.328,8.346 496.839,8.754C496.482,9.113 496.12,9.473 495.762,9.829C495.181,9.976 494.59,10.124 493.993,10.269C493.419,10.616 493.352,11.417 492.667,11.722C491.992,12.131 491.125,11.526 490.778,11.154C490.62,10.986 490.62,9.796 490.395,9.388C489.8,8.293 486.041,7.855 484.587,7.428C483.859,7.217 483.241,7.388 482.633,7.114C481.665,6.673 481.327,5.203 480.735,4.46C480.524,4.196 480.471,3.761 479.986,3.771C478.272,3.626 476.958,3.83 475.752,3.074C474.667,2.399 472.746,-0.015 470.828,0.485C469.299,0.883 467.856,2.046 466.466,2.631C465.669,2.82 464.192,3.101 464.064,3.197C463.757,3.433 463.476,3.704 463.19,3.957C462.954,4.043 462.727,4.126 462.489,4.21C462.02,4.605 461.795,5.343 461.356,5.789C460.872,6.286 460.205,6.484 459.648,6.923C459.527,7.133 459.395,7.348 459.268,7.557C458.993,7.816 458.601,7.71 458.258,7.935C456.765,8.902 455.419,10.353 453.781,11.154C452.935,11.565 452.01,11.425 451.125,11.722C450.589,11.903 449.818,11.716 449.417,12.355C449.083,13 448.409,14.171 447.717,14.437C446.93,14.739 445.549,14.829 445.065,15.446C443.943,16.907 443.223,18.659 442.096,20.12C440.85,21.729 438.932,22.709 437.674,24.355C437.417,24.52 437.17,24.688 436.922,24.853C436.47,25.494 436.195,27.734 435.719,28.139C434.618,29.068 433.24,29.566 431.991,30.347C431.274,30.805 430.673,31.574 429.971,32.053C429.403,32.444 428.704,32.605 428.333,33.19C427.564,34.395 428.324,36.391 427.575,37.418C426.889,38.366 425.248,38.881 424.229,39.504C424.104,39.674 423.973,39.842 423.85,40.01C423.659,40.032 423.475,40.052 423.29,40.072C422.075,40.74 421.402,42.036 420.629,43.161C420.418,43.396 420.073,43.642 420,43.857C419.383,45.645 420.812,46.379 421.196,47.458C421.238,47.88 421.283,48.305 421.323,48.721C421.379,48.969 421.544,49.36 421.448,49.735C421.347,50.144 420.966,50.418 420.752,50.742C419.397,50.812 418.125,49.176 417.738,50.451C417.503,51.661 418.274,53.185 418.228,53.206C418.786,55.227 418.187,59.137 416.843,60.526C416.484,60.758 416.125,60.997 415.768,61.227C415.472,61.562 415.184,61.896 414.88,62.235C414.266,62.622 413.751,62.768 413.308,63.307C413.033,63.86 413.005,64.684 412.736,65.456C412.566,65.664 412.364,65.855 412.231,66.085C411.999,66.483 411.98,67.087 411.723,67.665C411.575,67.814 411.424,67.958 411.283,68.105C411.223,68.198 410.337,69.92 410.337,69.999C410.362,70.085 410.372,70.166 410.401,70.252C410.196,70.69 409.625,71.275 409.453,71.766C409.249,72.343 409.317,73.047 409.006,73.534C408.504,74.329 407.888,74.995 407.371,75.811C407.162,76.128 406.598,76.261 406.42,76.632C406.231,77.034 406.357,77.297 406.236,77.763C406.133,78.14 405.799,78.327 405.66,78.65C405.274,79.563 405.445,80.426 404.528,80.797C403.973,81.14 402.682,81.127 402.126,80.797C400.35,80.803 399.554,83.652 398.465,84.522C398.258,84.585 398.046,84.648 397.834,84.713C396.503,85.536 395.304,86.566 393.663,86.984C392.089,87.384 389.669,87.587 388.743,88.497C388.208,89.03 388.049,89.889 387.73,90.645C387.647,90.848 387.311,91.034 387.219,91.213C387.021,91.667 387.196,92.185 386.974,92.73C386.42,94.104 386.162,95.319 385.344,96.386C385.327,96.386 385.186,96.559 385.141,96.582C384.483,96.929 382.849,98.714 382.553,99.358C382.131,100.291 382.147,101.366 381.606,102.142C381.044,102.936 379.922,103.624 379.458,104.469C379.269,104.811 379.331,105.049 379.14,105.419C378.892,105.67 378.601,105.89 378.408,106.194C378.284,106.392 378.243,107.067 378.135,107.316C377.981,107.671 377.535,107.91 377.312,108.197C376.735,108.978 376.527,109.91 375.991,110.72C375.813,110.982 375.341,111.34 375.234,111.607C375.082,111.971 375.085,112.289 374.851,112.685C374.352,113.529 373.685,114.17 373.084,114.887C372.959,115.144 372.833,115.399 372.706,115.651C372.224,116.092 371.076,116.295 371,117.099C369.892,116.948 368.48,119.191 368.289,120.135C368.2,120.577 368.445,122.722 368.289,122.724C367.368,122.738 367.785,123.695 367.335,124.172C367.242,124.272 367.183,124.084 367.087,124.172L366.451,125.117C366.288,125.421 366.38,125.688 366.203,125.942C365.699,126.661 364.958,127.297 364.56,128.151C364.108,129.136 364.034,130.825 363.422,131.365C363.422,131.434 363.657,131.54 363.678,131.56C363.298,131.963 362.706,132.213 362.416,132.695C361.982,133.407 361.929,134.541 361.276,135.031C361.187,135.141 361.109,134.971 361.088,134.971C360.751,135.137 360.933,135.352 360.705,135.596C360.579,135.633 360.455,135.684 360.333,135.722C360.136,135.977 360.212,136.374 360.012,136.604C359.922,136.716 359.326,137.437 359.26,137.489C359.143,137.578 359.023,137.511 358.939,137.619C358.811,137.845 358.69,138.078 358.559,138.313C357.945,138.762 357.269,138.767 356.479,139.068C356.359,139.12 354.122,140.622 354.077,140.651C353.877,140.781 353.888,141.117 353.763,141.434C353.639,141.434 353.448,141.597 353.321,141.597C353.343,141.805 353.36,142.018 353.388,142.229C353.337,142.529 353.4,142.467 353.131,142.54C353.165,144.569 352.103,144.664 350.859,145.387C350.64,145.512 350.442,145.913 350.226,146.084C348.825,147.136 346.997,148.427 345.11,147.592C345,147.72 344.901,147.762 344.798,147.908C344.521,147.851 344.375,147.855 344.292,147.653C344.084,147.744 343.997,147.971 343.851,148.037C343.294,148.274 341.676,148.029 340.88,147.846C340.333,147.717 339.654,147.199 338.994,146.962C338.654,146.881 338.323,146.794 337.983,146.709C337.811,146.595 337.652,146.241 337.473,146.138C336.78,145.754 336.136,145.608 335.451,145.198C334.903,144.86 334.54,144.072 333.935,143.742C332.3,142.838 329.525,142.959 328.634,141.597C326.235,142.216 325.211,140.497 323.393,139.574C322.597,139.171 320.65,139.686 320.108,139.83C319.627,139.956 318.425,139.83 317.585,139.83C317.396,139.929 317.207,140.039 317.013,140.147C316.602,140.231 316.054,140.222 315.565,140.461C315.372,140.607 315.189,140.75 314.995,140.903C314.57,141.033 314.045,140.9 313.67,141.217C313.009,141.189 312.734,141.359 312.598,141.85C310.918,141.513 309.269,142.708 307.798,142.54C307.398,142.562 307,142.584 306.594,142.606C306.51,142.553 306.368,142.277 306.218,142.229C306.005,142.249 305.797,142.269 305.588,142.292C305.143,142.19 304.704,142.079 304.259,141.975C303.618,142.008 303.662,142.297 303.315,142.54C301.968,142.734 300.618,142.921 299.277,143.111C297.568,142.921 295.556,142.547 293.78,142.04C292.975,141.805 291.562,141.188 290.562,141.346C289.294,141.54 287.938,142.386 287.278,143.491C287.084,143.812 288.242,145.275 288.037,146.138C287.691,147.597 287.188,149.725 286.834,150.121C286.734,150.235 286.585,150.289 286.455,150.371C286.144,150.673 285.871,151.217 285.758,151.702C285.458,151.763 285.019,151.749 284.815,151.886C284.574,152.059 284.249,152.419 284.121,152.711C282.505,153.1 280.688,152.323 279.949,151.383C279.529,150.837 279.173,149.76 278.5,149.491C278,149.235 277.574,149.649 277.237,149.742C276.522,149.764 275.801,149.727 275.088,149.808C274.924,149.826 274.837,150.116 274.841,150.184C274.872,150.826 275.113,151.054 275.215,151.572C275.32,152.056 275.084,153.913 274.904,153.904C273.832,153.847 272.131,153.928 271.181,154.351C269.703,155.002 268.592,156.485 267.647,157.695C267.291,158.148 266.663,158.361 266.189,158.707C265.833,158.972 265.703,159.348 265.429,159.716C265.104,160.149 264.447,160.418 264.039,160.794C263.471,161.326 263.381,162.369 262.907,162.997C262.664,163.32 262.142,163.498 261.834,163.759C261.625,164.031 261.407,164.306 261.2,164.579L260.881,164.579C260.631,164.802 260.536,165.251 260.255,165.464C260.023,165.634 259.635,165.551 259.375,165.714C259.182,165.944 258.995,166.178 258.799,166.408C258.551,166.454 258.297,166.493 258.043,166.537C256.864,167.108 255.495,167.605 254.317,168.241C253.612,168.624 253.36,169.584 252.804,170.134C253.078,171.451 252.833,172.464 251.792,173.169C251.632,173.277 251.691,174.06 251.666,174.309C251.616,174.78 251.206,174.876 250.909,175.124C250.128,175.102 248.777,174.983 248.383,174.491C247.665,174.569 246.196,176.158 245.862,176.699C245.747,176.886 245.645,177.163 245.544,177.396C245.26,177.642 244.769,177.541 244.531,177.838C244.511,177.964 244.494,178.09 244.468,178.218C244.188,178.622 243.425,179.057 243.019,179.351C242.864,179.565 242.726,179.774 242.578,179.981C241.824,180.604 241.224,181.314 240.495,181.938L240.495,182.192C239.754,182.326 238.137,184.646 237.401,185.161C237.209,185.225 237.018,185.292 236.833,185.353C236.53,185.666 236.391,186.131 236.071,186.42C235.819,186.57 235.565,186.718 235.315,186.864C235.109,187.203 234.894,187.538 234.687,187.881C233.3,188.801 232.02,190.214 231.019,191.537C230.8,191.832 229.583,192.884 229.256,193.119C229.106,193.185 228.958,193.245 228.813,193.306C228.655,193.512 228.711,193.756 228.56,193.938C228.374,194.043 228.179,194.15 227.992,194.257C227.261,194.778 226.707,196.226 225.717,196.399C225.673,196.588 225.717,197.169 225.591,197.404C225.363,197.612 225.132,197.823 224.895,198.036C224.721,198.408 224.803,198.742 224.579,199.045C224.437,199.128 224.289,199.212 224.142,199.299C223.893,199.727 224.018,200.255 223.885,200.626C223.671,201.205 223.082,201.752 222.874,202.334C222.853,202.619 222.834,202.916 222.811,203.214C222.662,203.578 222.415,204.193 222.305,204.658L222.305,205.234C222.238,205.371 222.015,205.578 221.995,205.801C221.896,206.642 222.079,207.653 221.553,208.456C221.319,208.798 220.829,209.19 220.606,209.529C220.432,209.783 220.571,210.071 220.415,210.347C220.292,210.412 220.162,210.471 220.036,210.537C219.831,210.776 219.57,211.317 219.468,211.611C218.839,213.383 219.699,214.96 219.97,216.535C220.085,217.167 219.117,221.3 218.771,221.894C217.873,223.446 216.675,224.591 215.174,225.563C214.608,225.924 214.168,226.835 213.594,227.14C212.382,227.789 211.281,228.623 210.818,229.98C210.363,231.32 211.436,235.277 211.765,236.673C211.927,237.36 211.131,239.388 211.01,240.082C210.823,241.127 211.653,242.336 211.641,243.369C211.626,244.356 210.872,245.05 210.63,245.769L210.63,246.709C210.481,247.245 210.333,247.767 210.181,248.296C210.039,248.689 209.606,248.87 209.368,249.176C209.24,249.41 209.112,249.64 208.986,249.873C207.933,250.828 205.862,249.877 205.134,249.176C203.602,249.244 202.799,250.37 201.79,251.011C201.101,251.441 199.877,251.076 199.708,252.083C199.725,252.48 199.783,252.847 199.962,253.089C200.013,253.262 199.986,253.085 200.086,253.216C200.207,253.301 200.191,253.356 200.273,253.468C200.55,253.818 201.151,253.842 201.594,254.041C202.017,254.313 202.44,254.58 202.862,254.856C203.833,255.164 204.741,255.086 205.388,255.679C205.73,255.999 206.84,258.188 206.587,259.024C206.435,259.523 206.053,260.527 206.208,261.047C206.599,262.329 208.581,262.72 209.112,264.137C209.567,265.36 208.781,266.592 209.052,267.486C209.153,267.833 209.074,268.387 209.24,269.062C209.342,269.294 209.448,269.527 209.555,269.755C209.534,269.992 209.51,270.222 209.497,270.452C210.228,272.702 209.913,275.03 208.922,276.959C208.476,277.832 208.93,279.324 208.542,280.113C208.882,280.919 209.606,281.689 210.055,282.382C210.514,283.082 210.632,283.68 211.133,284.404C211.263,284.594 211.66,284.687 211.765,284.914C212.089,285.571 212.291,286.684 212.713,287.438C212.862,287.711 213.263,287.839 213.406,288.069L213.406,288.769C213.572,288.93 213.742,289.102 213.91,289.267C214.044,289.554 214.064,290.075 214.292,290.471C214.565,290.958 215.141,291.194 215.491,291.603C215.937,292.144 216.173,292.877 216.497,293.373C217.447,294.826 216.833,298.459 215.491,299.244C215.27,300.373 216.097,301.223 216.816,301.584C217.169,301.759 217.474,301.616 217.763,301.834C218.223,302.175 218.982,303.935 219.152,304.612C219.415,305.672 218.999,306.538 218.771,307.326C218.641,307.787 218.843,308.316 218.649,308.839C218.437,309.397 217.83,310.053 217.887,310.796C217.224,311.127 217.044,311.629 216.497,311.997C215.889,312.416 215.184,312.456 214.479,312.819C214.159,313.095 213.679,313.125 213.529,313.641C213.367,314.925 215.072,315.189 216.186,315.98C216.359,316.167 216.521,316.353 216.689,316.547C216.916,316.684 217.279,316.751 217.385,316.991C217.361,317.09 217.337,317.195 217.32,317.303C217.509,317.606 217.938,318.049 218.079,318.376L218.079,318.82C218.306,319.351 218.854,319.927 219.088,320.459C219.203,320.727 219.197,321.143 219.373,321.388C219.481,321.541 219.851,322.092 220.003,322.214C220.303,322.44 221.025,322.61 221.224,322.919C221.532,323.434 221.662,324.184 222.055,324.595C222.276,324.831 222.8,325.017 222.969,325.305C223.081,325.623 223.343,326.012 223.447,326.329C224.126,327.226 225.815,327.831 225.869,329.279C225.893,329.581 226.41,329.283 226.447,329.583C226.457,330.092 227.152,330.465 227.255,331.181C228.487,331.48 228.792,332.093 229.385,332.993C229.574,333.06 229.848,333.119 230.035,333.185C230.427,333.402 230.198,333.743 230.492,334.001C231.062,334.511 232.625,335.409 233.007,335.999C233.343,336.515 234.109,337.719 234.386,338.257C234.952,338.466 236.301,339.452 236.869,339.664C237.187,339.852 237.994,340.663 238.23,340.918C238.417,341.048 238.609,341.174 238.796,341.305C239.114,341.247 239.487,341.069 239.487,341.116C239.529,341.089 239.77,340.702 239.931,340.607C239.931,340.607 240.134,339.525 240.42,339.063C240.907,338.298 241.714,337.377 242.17,336.616C242.525,336.019 242.667,335.334 243.131,334.721C243.755,333.902 244.765,333.609 245.333,332.709C245.571,332.339 245.492,331.73 245.628,331.323C245.715,331.079 246.026,330.934 246.132,330.729C246.184,330.43 246.237,330.138 246.288,329.834C246.482,329.643 246.667,329.45 246.854,329.248C246.964,328.952 247.071,328.674 247.174,328.388C247.618,327.803 248.575,327.328 249.002,326.659C249.834,325.328 249.674,323.33 250.418,321.906C251.009,320.775 250.527,320.429 251.765,320.219C252.13,320.095 251.765,319.499 252.266,319.513C252.494,319.435 252.713,319.102 252.726,318.603C252.844,317.354 253.542,314.858 253.878,313.313C254.176,311.926 254.703,310.901 255.545,309.967C255.865,309.607 256.417,309.315 256.657,308.842C256.717,308.502 256.778,308.17 256.833,307.839C257.101,307.245 257.411,306.383 257.601,305.733C257.668,305.358 257.738,304.99 257.797,304.62C258.147,304.261 257.108,303.651 257.453,303.294C258,302.476 257.303,300.067 257.324,299.602C257.458,295.823 259.763,290.961 259.302,290.03C259.116,289.653 259.221,289.254 259.121,288.789C258.954,288.386 258.571,287.975 258.411,287.566C258.127,286.186 258.709,284.736 258.736,283.247C258.76,281.959 259.168,281.064 259.125,279.906C259.096,279.159 259.125,278.732 258.948,278.148C258.945,277.945 259.332,277.73 259.331,277.522C259.206,277.347 259.083,277.173 258.962,276.997C258.793,275.995 259.54,275.15 259.374,274.145C259.375,273.819 259.599,273.781 259.695,273.627C259.825,273.207 259.954,272.791 260.086,272.373C260.387,271.798 259.594,271.134 259.829,270.451C259.784,270.118 259.441,269.786 259.403,269.456C259.345,268.164 260.588,267.346 260.549,265.933C260.542,265.627 260.229,265.315 260.299,265.012C260.486,264.228 260.747,263.424 261.167,262.7C261.536,262.068 261.502,261.631 261.795,260.82C261.917,260.467 262.075,260.146 262.058,259.877C262.105,259.715 262.152,259.543 262.205,259.387C262.159,258.62 262.319,257.981 262.105,257.372C262.022,257.136 262.048,255.537 262.101,255.164C262.168,254.737 262.818,254.292 262.983,253.966C263.18,253.606 263.501,251.117 263.432,250.728C263.296,249.974 263.706,247.503 263.625,246.654C263.668,246.207 263.238,245.057 263.324,244.613C263.238,244.503 263.547,243.377 263.547,242.792C263.54,242.238 263.279,241.422 263.316,240.754C263.435,238.712 262.943,237.329 262.739,235.454C262.643,234.585 262.401,233.475 262.296,232.506C262.194,231.644 262.348,231.436 262.155,230.669C262.019,230.141 261.883,229.741 261.721,229.252C261.729,228.936 261.13,227.7 260.997,227.386C260.82,226.59 261.353,225.739 261.286,224.972C261.242,224.429 261.075,224.355 261.068,223.775C261.062,222.954 260.299,222.176 260.318,221.154C260.325,220.854 259.726,220.016 259.752,219.065C259.795,218.741 259.906,218.601 259.937,218.281C259.842,218.092 259.655,217.723 259.551,217.536C259.422,217.021 259.449,216.481 259.372,215.896C259.305,215.44 259.096,215.219 259.071,214.65C259.167,214.272 259.125,213.891 259.217,213.5C259.314,212.782 258.285,211.556 258.549,210.191C258.814,208.827 257.396,207.505 257.502,206.673C257.613,205.843 257.439,204.401 257.407,204.072C257.376,203.745 257.361,203.125 257.23,202.794C257.049,202.33 257.083,201.35 256.657,200.681C256.581,200.559 256.157,197.951 256.297,197.632C256.462,197.26 256.105,196.586 256.323,196.294C256.448,196.012 256.432,195.695 256.551,195.417C256.914,195.092 256.548,194.552 256.914,194.231C257.63,193.378 257.43,192.704 258.311,192.145C258.497,192.117 258.677,191.992 258.859,191.964C259.096,191.797 259.952,191.429 260.199,191.268C260.653,191.103 261.121,191.277 261.51,190.995C262.81,191.437 263.508,190.84 264.7,191.289C265.101,191.439 265.792,192.347 266.267,192.652C266.382,192.785 266.508,192.921 266.625,193.051C266.751,193.088 266.88,193.123 267.007,193.161C267.442,193.542 267.901,195.19 268.067,195.814C268.365,196.917 268.789,198.305 269.063,199.394C269.007,199.936 269.011,200.488 268.954,201.039C268.988,201.6 269.805,202.134 269.838,202.691C269.813,203.104 269.75,203.353 269.803,203.705C269.877,204.179 270.06,204.747 270.05,205.299C270.035,206.163 270.506,206.126 270.506,207.056C270.506,207.788 271.255,208.04 271.31,208.793C271.359,209.43 271.039,210.421 271.25,211.016C271.664,212.214 271.996,212.99 272.012,214.265C272.089,214.62 272.963,215.623 273.035,215.975C273.001,216.976 272.81,217.982 273.115,219.052C273.291,219.689 274.102,220.123 274.25,220.835C274.35,221.31 274.256,222.493 274.072,223.018C274.374,223.582 274.747,223.839 274.878,224.591C275.022,225.349 275.194,225.803 275.37,226.531C275.461,226.93 275.519,227.703 275.726,227.878C275.818,228.3 275.692,228.732 275.786,229.152C276.02,229.965 276.983,233.314 277.4,234.051C277.794,234.747 277.28,234.836 277.737,235.493C278.043,235.936 277.891,236.529 278.235,236.945C278.577,237.35 278.561,237.517 278.905,237.925C279.246,238.278 279.525,238.423 279.502,238.963C279.479,239.624 280.493,239.591 280.917,239.995C281.153,240.258 281.555,240.101 281.953,240.206C282.46,240.447 282.657,240.394 282.953,240.42C283.458,240.394 283.507,240.438 283.699,240.362C286.648,239.227 285.655,239.2 286.75,237.95C287.37,237.243 287.536,236.958 287.644,236.418C287.667,236.151 287.687,235.888 287.71,235.622C287.763,235.37 288.031,235.187 288.004,234.817C287.983,234.442 288.203,234.001 288.315,233.562C288.99,230.9 289.27,227.715 290.245,225.875C290.606,225.188 290.206,224.98 290.099,224.553C290,224.149 290.819,222.681 290.698,222.335C290.664,222.005 290.391,221.527 290.391,221.31C290.39,220.028 291.24,219.132 291.336,217.698C291.509,215.179 292.557,212.575 292.868,210.116C292.958,209.847 293.05,209.58 293.143,209.309C293.124,208.682 292.703,207.925 292.735,207.209C292.849,205.117 293.742,202.169 294.695,200.094C294.999,199.441 294.751,197.501 294.481,197.063C294.564,197.044 295.372,195.171 295.583,194.666C295.752,194.459 296.062,193.86 296.235,193.651C296.584,193.115 295.896,191.45 295.884,190.945C295.864,190.167 296.795,188.65 296.686,187.902C296.53,186.892 296.804,186.393 296.759,185.252C296.712,184.146 298.149,181.248 298.197,180.196C298.35,179.695 298.167,179.188 298.32,178.687C298.336,178.214 297.936,176.251 298.27,175.696C298.887,174.679 298.906,173.208 299.5,172.159C300.1,171.101 300.548,170.348 301.074,169.635C301.394,169.201 302.515,169.023 302.922,168.638C303.189,168.38 303.841,167.991 304.164,167.839C305.022,167.451 307.412,167.822 308.432,167.843C309.51,167.865 310.92,168.765 311.333,169.236C311.608,169.544 312,169.832 312.123,170.209C312.196,170.431 312.116,170.598 312.265,170.776C312.625,171.185 313.471,171.604 313.603,172.121C313.694,172.483 313.552,173.415 313.619,173.75C313.73,174.257 313.852,174.749 313.964,175.24C314.004,176.417 313.5,177.395 313.533,178.574C313.595,179.022 313.271,181.325 312.917,181.977C312.678,182.425 312.602,183.739 312.558,184.386C312.465,185.562 312.206,186.381 312.181,187.631C312.165,189.036 311.958,189.729 311.949,191.208C311.942,193.019 310.934,195.26 310.995,197.272C311.001,197.516 310.717,197.823 310.741,198.024C310.694,198.551 310.311,198.997 310.262,199.531C310.276,200.067 309.934,200.608 310.001,201.103C309.934,201.749 310.475,202.39 310.401,203.035C310.411,203.444 310.559,203.751 310.556,204.187C310.556,204.979 309.542,205.069 309.494,205.89C309.538,206.526 309.587,207.163 309.628,207.798C309.546,208.186 309.46,208.57 309.38,208.959C309.404,209.123 309.579,209.365 309.553,209.592C309.512,210.054 308.786,210.715 308.786,211.248C308.799,213.907 309.338,215.991 307.85,218.599C307.524,219.171 307.944,220.051 307.506,220.582C307.485,220.872 307.717,220.809 307.741,220.966C307.686,221.111 307.624,221.249 307.574,221.393C307.528,222.123 307.24,222.889 307.229,223.605C307.291,223.739 307.348,223.874 307.409,224.004C307.438,224.372 307.038,224.845 307.094,225.322C307.216,226.342 306.954,227.434 306.899,228.546C306.797,228.868 306.389,229.19 306.285,229.516C306.312,230.429 305.981,232.665 306.018,233.258C306.055,233.848 305.916,234.688 305.926,235.284C305.935,235.878 305.672,237.157 305.626,237.329C305.645,238.371 306.239,238.796 306.204,239.35C306.167,239.9 306.862,240.637 306.954,241.106C307.226,241.512 307.213,241.919 307.559,241.913C308.081,241.904 308.232,242.436 308.912,242.292C309.12,242.248 309.898,243.015 310.112,243C310.417,243.082 310.756,242.704 311.124,242.84C311.397,242.943 311.98,242.396 312.444,242.402C313.337,242.413 313.784,241.523 314.421,240.594C314.527,240.442 315.245,239.974 315.445,239.304C315.644,238.633 316.345,237.409 316.509,236.869C316.525,236.581 317.667,233.101 317.681,232.816C318.247,231.098 319.036,229.096 319.775,227.5C320.458,226.017 320.539,223.942 320.995,222.495C321.109,221.942 321.089,221.082 321.242,220.831C322.013,219.563 323.231,218.327 323.815,216.698C323.83,216.416 324.07,216.13 324.08,215.844C324.238,214.859 324.344,213.355 324.647,212.701C325.121,211.688 324.821,210.869 325.307,209.951C325.774,209.052 325.398,207.875 325.788,207.015C326.096,206.335 326.999,205.551 327.209,204.867C327.237,204.551 327.458,204.231 327.498,203.917C328.022,202.659 328.168,201.474 328.788,200.252C329.046,199.741 328.713,199.379 328.946,199.015C329.132,198.72 329.416,198.487 329.658,198.222C329.746,197.932 329.598,197.637 329.691,197.351C329.931,196.956 330.793,196.552 331.036,196.153C331.567,194.951 331.636,192.983 331.75,191.803C331.74,191.632 331.732,191.458 331.723,191.287C331.918,190.701 332.055,189.853 332.306,189.35C332.282,189.111 332.895,188.3 333.041,188.119C333.27,187.623 333.366,186.254 333.684,185.755C334.466,184.527 334.642,183.352 335.462,182.147C336.093,181.231 335.248,180.169 336.119,178.864C336.556,178.214 336.39,177.278 336.704,176.501C337.091,175.547 337.885,174.301 337.885,173.427C337.862,173.212 338.805,172.234 338.84,171.917C339.765,170.079 342.744,167.275 346.117,168.001C346.616,168.109 348.256,167.848 348.643,168.162C348.94,168.365 349.384,168.418 349.689,168.593C349.96,168.751 350.194,168.893 350.477,169.161C350.644,169.316 350.875,169.403 351.138,169.544C351.466,169.825 351.606,170.679 351.928,170.972C352.18,171.201 352.626,171.423 352.884,171.583C353,171.688 353.248,172.336 353.329,172.474C353.675,173.065 353.471,174.059 353.603,174.815C353.682,175.249 353.647,175.766 353.707,176.279C353.844,177.383 352.515,179.374 352.187,180.284C351.928,180.967 352.292,181.811 351.943,182.54C351.185,183.592 352.354,184.816 351.529,185.819C350.976,186.492 351.036,187.592 350.565,188.307C350.051,189.091 349.308,189.981 348.864,190.813C348.534,191.438 349.332,192.26 349.045,192.75C348.657,193.434 348.26,194.271 347.804,194.935C347.6,195.23 347.731,195.561 347.549,195.886C347.205,196.503 346.992,197.327 346.688,197.856C346.992,199.786 346.003,202.758 345.262,203.877C344.97,204.319 344.309,204.867 344.267,205.598C344.224,206.38 343.914,207.386 344.012,208.155C344.05,208.411 344.242,209.256 344.108,209.604C343.448,211.225 342.981,212.447 342.021,213.644C341.916,213.777 341.735,214.619 341.577,214.882C341.071,215.721 340.92,217.086 340.495,217.902C340.544,218.31 340.566,219.892 340.33,220.328C340.123,220.71 339.729,221.357 339.724,221.959C339.706,223.557 338.718,225.84 338.34,227.608C337.973,229.358 336.472,230.863 336.044,231.718C335.556,232.688 336.208,232.558 335.824,233.649C335.086,235.735 334.101,238.704 334.007,240.95C333.974,241.727 333.247,242.138 333.069,242.603C332.927,242.973 333.069,243.664 333.072,243.758C333.088,244.278 332.802,245.594 332.905,245.913C332.958,246.281 332.529,246.893 332.588,247.388C332.655,247.744 332.73,247.879 332.833,248.057C333,248.397 332.852,248.563 332.927,249.067C332.968,249.394 333.499,249.688 333.819,249.903C334.31,250.46 334.869,250.663 335.378,251.197C335.594,251.419 336.637,251.475 337.248,251.485C337.86,251.497 338.462,251.746 339.309,250.955C340.155,250.155 340.142,250.701 340.659,250.376C341.173,250.052 341.148,249.489 341.599,249.082C341.911,248.852 342.413,248.577 342.729,248.42C343.321,247.815 344.241,245.968 344.996,245.625C345.784,245.267 345.967,245.224 346.457,244.592C346.98,243.912 347.284,243.695 347.726,242.826C348.115,242.09 348.185,241.597 348.696,241.047C349.042,240.675 350.105,240.086 350.31,239.746C350.514,239.512 350.732,239.287 350.938,239.053C351.328,238.369 351.009,237.982 351.526,237.475C352.128,236.895 352.855,235.997 353.369,235.396C353.815,234.872 354.329,233.732 354.805,233.329C355.453,232.783 355.344,232.543 356.124,232.168C356.668,231.908 356.265,231.179 356.661,230.701C356.928,230.373 358.365,228.645 359.896,226.748C360.241,226.318 360.457,225.676 360.798,225.244C361.491,224.372 362.289,223.726 362.816,223.018C363.439,222.183 363.876,221.543 363.958,221.292C364.116,220.82 364.346,220.441 364.597,220.046C364.708,219.736 365.186,219.431 365.301,219.122C366.117,217.826 367.094,217.731 368.031,216.661C368.563,216.055 368.444,215.096 368.807,214.426C368.925,214.208 369.338,214.019 369.487,213.819C369.955,212.994 371.134,212.345 371.511,211.567C372.123,210.298 373.32,209.109 374.276,207.555C374.786,206.725 375.199,207.137 375.753,206.179C377.109,203.84 379.083,201.309 381.325,200.954C382.007,200.847 383.011,199.792 386.387,200.62C386.952,200.758 387.614,201.01 388.008,201.421C388.182,201.59 388.404,201.701 388.651,201.856C388.919,202.031 389.062,202.103 389.404,202.291C389.727,202.464 389.781,202.881 390.011,203.084C390.649,203.649 391.087,204.008 391.219,204.953C391.312,205.611 391.711,206.234 391.759,206.959C391.83,207.872 391.931,208.673 391.648,209.271C391.414,209.752 391.646,210.194 391.46,210.669C391.096,211.615 390.279,212.649 389.738,213.444C389.5,213.792 389.457,214.294 389.157,214.695C388.953,214.999 388.35,215.438 388.106,215.798C387.784,216.255 387.182,216.677 386.934,217.253C386.912,217.464 386.901,217.67 386.878,217.876C386.714,218.154 386.556,218.432 386.39,218.709C386.008,219.618 385.81,220.365 385.334,221.16C385.094,221.572 384.76,221.88 384.489,222.229C384.344,222.496 383.836,222.732 383.698,223.001C383.469,223.232 382.76,223.65 382.402,223.804C382.239,223.951 382.081,224.094 381.922,224.243C381.648,224.535 382.127,225.205 381.648,225.463C381.243,225.7 380.689,226.418 380.137,227.012C379.705,227.479 379.078,229.428 377.883,231.364C377.476,232.025 376.641,232.386 376.215,233.091C374.418,236.053 372.613,239.114 372.111,239.852C371.427,240.872 370.39,241.2 369.763,242.044C369.507,242.377 368.682,243.963 368.571,244.299C368.583,244.47 368.3,244.884 367.791,245.543C367.744,245.723 367.203,246.104 367.15,246.285C366.977,246.522 366.791,246.759 366.62,246.996C366.566,247.33 366.505,247.663 366.444,247.999C366.218,248.489 365.778,248.936 365.554,249.503C365.521,249.802 364.829,249.828 364.792,250.126C364.577,250.607 363.621,251.33 363.396,251.811C363.345,252.187 362.497,252.371 362.447,252.753C362.006,253.598 361.398,254.509 360.916,255.321C360.612,255.829 360.201,256.298 359.919,256.938C359.636,257.702 358.208,258.948 357.999,259.779C357.835,260.73 355.561,263.56 354.879,264.474C354.113,265.514 353.55,265.767 352.742,266.736C352.249,267.334 352.471,268.493 351.971,269.063C350.974,270.23 351.722,271.076 350.339,271.686C350.124,271.781 349.044,273.677 348.353,274.646C347.542,275.75 348.187,275.991 347.372,276.338C346.97,276.504 346.804,277.059 346.721,277.523C346.479,279.015 345.422,279.337 345.103,280.651C344.954,281.288 344.673,281.828 344.382,282.422C344.278,282.644 343.584,282.953 343.433,283.271C343.333,283.49 342.864,284.06 342.895,284.364C342.799,285.534 342.794,286.029 341.871,286.344C341.252,287.666 341.399,288.379 340.812,289.946C340.654,290.385 341.101,291.756 340.879,292.149C340.652,292.541 341.771,293.876 341.973,294.415C342.083,294.698 342.416,294.733 342.268,295.047C342.174,295.327 342.507,294.931 343.352,295.674C343.588,295.836 343.425,295.995 343.667,296.151C344.029,296.333 344.134,296.143 345.473,296.564C346.073,296.633 348.217,296.484 348.814,296.549C349.633,296.935 350.221,295.695 351.187,295.581C352.878,295.376 352.564,295.431 353.273,295.161C353.682,295.006 357.833,292.981 359.119,292.766C359.626,292.798 360.961,292.673 361.463,292.704C361.959,292.568 362.016,291.93 362.326,291.571C362.541,291.32 362.849,291.217 363.637,290.703C363.802,290.595 364.293,290.915 364.889,290.738C365.578,290.534 367.836,289.171 368.619,288.881C369.395,288.592 371.349,289.084 371.699,288.41C371.962,287.909 372.706,287.487 372.965,287.425C374.857,287.219 374.256,286.821 375.881,286.511C377.252,286.18 377.225,286.269 378.25,285.75C378.822,285.452 380.557,285.985 381.084,285.667C381.859,285.122 383.797,284.979 384.325,285.146C385.44,285.552 386.763,285.018 388.579,286.047C388.875,286.214 388.852,286.173 389.1,286.34C389.586,286.658 390.194,286.479 390.631,286.836C390.88,287.034 391.021,287.468 391.281,287.66C391.444,287.846 392.235,288.205 392.577,288.421C392.796,288.568 393.028,289.729 393.264,289.982C393.624,290.385 393.543,290.49 393.676,291.114C394.358,294.256 392.295,296.604 391.8,296.953C391.443,297.113 390.925,297.538 390.566,297.69C390.179,298.106 389.784,298.217 389.395,298.639C388.852,299.011 388.47,299.323 388.215,299.37C386.459,299.563 384.567,301.503 383.021,302.297C381.524,303.061 379.848,303.276 378.319,303.997C376.466,304.867 375.651,305.924 373.953,306.918C372.444,307.796 370.269,308.285 369.29,309.684C368.954,309.723 368.326,309.825 368.326,309.916C367.556,310.304 366.423,310.23 365.658,310.608C364.7,310.862 359.954,313.441 359.248,313.918C359.083,313.981 359.074,314.038 358.949,314.124C358.685,314.316 358.573,315.069 357.662,315.612C355.915,316.664 355.373,316.343 353.986,317.072C353.369,317.4 352.851,317.939 352.172,318.251C351.707,318.456 351.852,319.196 351.123,319.417C350.742,319.533 348.934,319.638 348.095,320.104C347.3,320.542 345.358,322.051 344.41,322.289C342.753,322.708 340.467,324.327 338.919,325.079C338.18,325.44 337.586,327.064 336.79,327.273C335.694,327.561 335.384,328.02 333.139,329.43C331.909,330.205 330.542,330.033 329.889,330.338C329.027,330.741 328.07,332.625 327.174,332.615C324.825,332.673 325.469,334.115 322.384,334.486C321.44,334.572 320.666,335.331 319.967,336.716C319.857,336.937 318.829,337.641 318.65,337.791C317.428,338.82 316.462,339.698 316.09,339.893C315.619,340.204 314.225,340.789 313.847,340.98C313.261,341.269 312.595,341.682 311.918,341.842C311.214,341.854 309.836,342.542 309.483,342.935C309.207,343.241 308.331,344.442 308.162,344.563C307.937,344.806 307.069,345.022 306.965,345.268C306.733,345.82 301.168,352.326 301.083,352.755C300.995,353.188 300.546,353.858 300.546,353.858C299.737,355.486 296.771,357.626 296.667,359.198C296.814,360.267 298.37,360.78 298.821,361.232C299.267,361.682 301.447,361.487 302.206,361.602C302.628,361.672 302.981,361.473 303.361,361.621C303.819,361.799 304.427,362.203 304.826,362.374C305.261,362.57 307.551,361.847 308.175,362C308.518,362.084 308.79,362.469 309.061,362.57C309.162,362.605 309.332,362.351 309.561,362.439C310.222,362.7 311.086,363.1 311.777,362.824C312.734,362.661 313.401,361.439 314.114,360.927C315.129,360.208 316.979,360.256 317.323,360.433C317.667,360.609 318.049,361.027 318.276,361.182C318.504,361.339 319.016,361.628 319.285,361.494C320.233,361.345 320.417,360.371 320.995,359.86C321.208,359.753 321.417,359.648 321.624,359.545C322.793,359.622 324.371,359.805 325.414,359.415C326.219,359.117 327.122,358.432 327.876,358.094C328.049,358.023 328.413,358.146 328.764,358.025C329.588,357.736 331.749,356.805 332.045,356.826C332.742,356.602 333.636,355.944 334.315,355.624C335.147,355.241 339.349,355.214 340.123,355.436C340.429,355.521 340.656,355.87 340.88,356.005C341.55,356.414 342.218,356.505 342.905,356.895C343.1,357.001 343.221,357.393 343.41,357.522C345.106,358.688 346.534,359.35 346.06,362.298C346.008,362.614 346.696,363.158 346.817,363.144C347.654,363.09 348.794,361.561 349.341,361.058C349.66,360.885 349.976,360.718 350.289,360.551C350.59,360.298 350.614,359.85 350.859,359.545C351.053,359.306 352.438,358.072 352.814,357.645C353.152,357.46 353.486,357.273 353.826,357.078C353.867,356.946 353.912,356.826 353.95,356.7C354.119,356.47 354.911,356.015 355.152,355.879L355.657,355.879C358.403,354.992 360.095,356.971 361.781,358.147C362.326,358.535 363.413,359.419 364.56,359.102C365.513,358.834 366.826,357.193 367.533,356.51C367.793,356.256 368.828,356.141 369.295,355.879C369.793,355.603 370.167,355.023 370.679,354.683C370.907,354.531 370.903,354.276 371.061,354.047C371.375,353.594 372.877,352.722 373.474,352.868C374.019,352.977 375.08,353.526 375.422,353.988C375.768,354.449 376.285,355.22 376.496,355.753C376.697,356.279 376.551,356.651 376.936,356.946C377.833,357.667 379.522,357.402 379.964,356.318C380.19,355.896 379.964,355.575 379.905,355.122C379.295,354.866 378.368,354.126 378.008,353.606C377.655,353.093 377.601,352.522 377.19,352.092C376.919,351.918 376.252,351.109 375.829,351.113C375.419,351.468 373.944,352.245 373.726,351.51Z" style="fill:rgb(26,26,26);fill-rule:nonzero;"/>
    </g>
</svg>
