<?xml version="1.0" encoding="UTF-8" standalone="no"?>
<!DOCTYPE svg PUBLIC "-//W3C//DTD SVG 1.1//EN" "http://www.w3.org/Graphics/SVG/1.1/DTD/svg11.dtd">
<svg width="100%" height="100%" viewBox="0 0 2800 2800" version="1.1" xmlns="http://www.w3.org/2000/svg" xmlns:xlink="http://www.w3.org/1999/xlink" xml:space="preserve" xmlns:serif="http://www.serif.com/" style="fill-rule:evenodd;clip-rule:evenodd;stroke-linejoin:round;stroke-miterlimit:2;">
    <g transform="matrix(1.30029,0,0,1.50211,-482.714,-989.084)">
        <g>
            <g transform="matrix(1,0,0,1,198.573,-193.73)">
                <path d="M895.1,1926.4C826.6,1810.6 771.7,1687.2 717.1,1564.4C702.6,1531.7 687.3,1499.2 673.6,1466.1C660.9,1435.4 649.7,1404.1 638.2,1372.9C631.2,1353.9 624.3,1334.7 616.8,1315.7C616.9,1313.9 616.1,1312.1 614.9,1310.8C600.4,1274.4 583.9,1238.7 562,1206.4C562.9,1205.4 563.4,1204.1 563.4,1202.8C563.3,1196.5 562.4,1190.3 561.2,1184.2C576.9,1166.5 592.9,1149.1 606.3,1129.5C610.4,1123.5 600.7,1117.9 596.6,1123.8C583.5,1142.9 567.9,1160 552.6,1177.3L551.9,1177.3C549.3,1160 544.7,1142.3 549.5,1125.6C551.5,1118.6 540.7,1115.7 538.7,1122.6C533.7,1140 537.9,1157.9 540.5,1175.6C528.3,1159.8 516.3,1143.8 503.1,1128.8C498.3,1123.3 490.4,1131.3 495.2,1136.7C507.9,1151.2 519.6,1166.7 531.4,1181.9C531.2,1182.5 531,1183.2 531,1183.9C530.9,1189.4 529.7,1194.9 531.2,1200.4C531.3,1200.7 531.4,1200.9 531.5,1201.2C530.3,1202.9 529.1,1204.6 528,1206.3C526.8,1207.9 525.5,1209.5 524.3,1211.1C523.7,1211.9 523.4,1212.7 523.3,1213.5C491.7,1262.4 471.7,1318.6 451.8,1372.8C440.3,1404 429.1,1435.3 416.4,1466C402.7,1499.1 387.4,1531.6 372.9,1564.3C338.4,1641.9 303.8,1719.8 265.7,1795.8C264.8,1796.7 264.2,1797.9 264,1799.1C242.4,1842.1 219.6,1884.6 195,1926.1C194.4,1926.5 193.8,1927.1 193.2,1927.7C188.7,1933.3 196.6,1941.3 201.1,1935.6C201.1,1935.5 201.2,1935.5 201.2,1935.5C201.6,1935.4 201.9,1935.4 202.4,1935.4C204.3,1935.3 206.2,1935.7 208.1,1936C214.1,1937.1 220,1938.9 225.8,1940.6C237.3,1944.1 248.6,1947.7 260.4,1950C299.5,1957.5 338.7,1965 378.3,1969.4C416.5,1973.6 455.1,1974.2 493.5,1975.7C532.2,1977.3 570.9,1978.3 609.6,1978.1C660.8,1977.8 712.1,1975 762.7,1967C784.5,1963.6 806.5,1960.6 828.2,1956.7C850,1952.8 871.9,1947.4 891.3,1936.5C892.8,1935.7 893.6,1934.5 893.9,1933.3C895.8,1931.8 896.8,1929.1 895.1,1926.4ZM809.9,1792.1C810.1,1792.5 810.3,1792.9 810.5,1793.3C810.1,1793.4 809.7,1793.5 809.3,1793.5C809.6,1793.1 809.8,1792.6 809.9,1792.1ZM806.4,1785C791.9,1774.9 776.6,1766.6 759.3,1764.4C767.1,1754.7 773.8,1744.2 782.3,1735.1C790.2,1751.8 798.2,1768.4 806.4,1785ZM651.7,1757.2C668.8,1755.5 685.9,1753.2 703,1750C699.8,1754.3 696.5,1758.6 693,1762.7C689.2,1767.1 681.9,1772 681.9,1778.3C681.9,1781 683.7,1782.7 686,1783.7C701.2,1790 713.8,1800.9 727.9,1809.3C718.3,1811.9 708.8,1814.6 699.1,1816.7C691.1,1818.5 683.1,1820.1 675,1821.5C661.6,1809 650.4,1794.8 633.2,1788.7C639.7,1780.4 647.1,1772.8 652.4,1763.6C653.9,1761.1 653.2,1758.7 651.7,1757.2ZM696.1,1776.1C704.3,1767.1 711.8,1757.4 718.6,1747.4C718.7,1747.2 718.9,1747 719,1746.7C735.8,1742.9 752.3,1738.1 768.8,1733.6C760.2,1744.1 753,1755.7 743.5,1765.5C740.2,1768.9 742.5,1775.3 747.5,1775.1C768.1,1774.3 785.1,1783.6 801.5,1795.1C786.7,1797.8 771.7,1799.7 756.8,1802.4C752,1803.3 747.3,1804.3 742.6,1805.4C742.1,1804.6 741.4,1803.8 740.3,1803.2C724.8,1795.4 711.5,1784 696.1,1776.1ZM689.4,1529.5C691.5,1534.1 693.5,1538.7 695.6,1543.4C687.8,1539.9 680.1,1536 672.3,1532.5C667.2,1530.2 661.2,1527 655.1,1525.4C664.7,1523.1 674.2,1520.2 683.6,1516.5C685.5,1520.8 687.5,1525.2 689.4,1529.5ZM487.5,1541.7C497.6,1553.1 509,1563.2 520.9,1572.6C500,1572.2 479.2,1571.2 458.5,1569C467.5,1559.3 477.8,1550.8 487.5,1541.7ZM450.4,1561.3C442.5,1551.5 437.3,1539.8 430.5,1529.2C445.9,1532.8 461.5,1534.8 477.3,1535.9C468.2,1544.2 458.7,1552.2 450.4,1561.3ZM498,1536.7C513.8,1537 529.7,1536.4 545.6,1535.7C552,1535.4 558.3,1535.2 564.7,1534.9L532.2,1567.4C520.1,1558 508.4,1547.9 498,1536.7ZM569.6,1545.9C577.2,1555.7 586.1,1564.7 595.9,1572.3C580.7,1572.9 565.4,1572.9 550.3,1572.9L542.6,1572.9L569.6,1545.9ZM575,1534.5C595.2,1533.6 615.3,1532.4 635.2,1529.3C630.5,1533.4 626.6,1539.1 623.5,1543.5C618.1,1551.1 613.8,1560 607.9,1567.3C595.3,1558.4 583.9,1546.9 575,1534.5ZM628.9,1555.5C633,1549.2 639.1,1537.4 647,1535.3C648.7,1534.9 653,1536.7 655.1,1537.4C659.9,1539.1 664.6,1541.2 669.3,1543.3C676.3,1546.5 683.2,1550 690.3,1553.1C667.7,1563.4 643.7,1568.3 619.2,1570.6C622.7,1565.8 625.7,1560.5 628.9,1555.5ZM537.5,1212.2C539.1,1210.2 540.7,1208.2 542.3,1206.2C544.4,1206.4 546.4,1206.5 548.5,1206.7C571.6,1239.4 588.7,1275.9 603.6,1313.2C586.1,1322.7 565.6,1323.8 546,1323C525.4,1322.2 505.1,1318.8 484.5,1317.2C499,1280.7 515.5,1244.6 537.5,1212.2ZM480.3,1328.1C480.7,1328.2 481.1,1328.3 481.5,1328.3C522,1331.1 569.9,1344 607.7,1323.8C611.4,1333.2 614.9,1342.7 618.5,1352.2C596.6,1364.4 568.2,1366.3 543.8,1366.5C520.5,1366.8 491.5,1365.5 471.1,1352.3C474.2,1344.2 477.2,1336.1 480.3,1328.1ZM436.4,1445.8C447.1,1418.4 456.9,1390.7 467.1,1363.1C488.5,1376.2 518.1,1377.7 542.2,1377.8C568.4,1377.8 598.8,1375.4 622.5,1362.8C632.7,1390.5 642.6,1418.3 653.4,1445.8C661.4,1466.2 670.1,1486.3 679,1506.3C637.1,1522.5 592.2,1522.2 547.9,1524.4C500.9,1526.7 453.4,1527.3 408.6,1511.1C418.3,1489.4 427.8,1467.8 436.4,1445.8ZM400.4,1529.5C401.6,1526.7 402.9,1524 404.1,1521.2C409.2,1523.1 414.3,1524.7 419.4,1526.2C410.9,1531.7 402.5,1537.5 394.2,1543.3C396.3,1538.8 398.3,1534.1 400.4,1529.5ZM422.5,1537.6C428.5,1547.3 433.6,1557.6 440.5,1566.7C424.9,1564.4 409.4,1561.4 394,1557.2C403.4,1550.6 412.9,1544 422.5,1537.6ZM305.4,1739.4C306.9,1743.8 310.5,1748.6 312.2,1751.6C315,1756.4 317.9,1761.6 321.4,1766.3C307.1,1770.9 293.8,1780 281.6,1788.5C289.7,1772.2 297.6,1755.8 305.4,1739.4ZM431.8,1759.8C439.7,1771 448.6,1781.4 457,1792.2C450.6,1794.2 444.5,1797 438.7,1800C431.4,1803.7 422.3,1809 418.5,1816.8C393.7,1814.3 368.8,1812.4 344,1809.9C359.7,1802.4 375.3,1789.6 393,1791.3C397.4,1791.7 399.8,1786.2 397.8,1782.8C391.8,1772.4 381.8,1763.3 377.3,1752C395.2,1753.5 413,1755.1 430.8,1756.4C430.7,1757.5 431,1758.7 431.8,1759.8ZM382.7,1780.4C365.8,1783.1 351.1,1795.6 335.3,1801.5C332,1802.7 331,1805.9 331.7,1808.6C316.1,1806.9 300,1804.7 285.1,1799.8C299.6,1789.6 315.7,1778 333.3,1774.9C337.4,1774.2 338.8,1768.2 335.8,1765.5C330.6,1760.9 326.9,1754.2 323.4,1748.3C321.7,1745.5 320.1,1742.7 318.6,1739.9C324.4,1743.1 331.1,1745.1 337.3,1746.6C346.4,1748.8 355.8,1750.1 365.1,1751C368,1762.2 375.9,1771.1 382.7,1780.4ZM231.6,1930.8C225.5,1928.9 219.3,1927 213.1,1925.7C221.7,1919.5 230.1,1913.2 238.2,1906.4C243.6,1917.8 250.5,1928.2 258.5,1937.9C249.6,1935.9 240.6,1933.6 231.6,1930.8ZM292.1,1944.7C286.2,1943.6 280.4,1942.5 274.6,1941.3C283.3,1930.8 292.7,1920.8 304,1913.1C313,1926.6 321,1941.2 333.2,1952C319.5,1949.8 305.8,1947.3 292.1,1944.7ZM375.9,1958C366.2,1956.9 356.6,1955.6 347,1954.2C354.8,1944.1 364,1934.9 373.8,1926.8C376.4,1924.7 379.3,1921 382.5,1919.7C384.4,1919 389.7,1923.8 390.9,1924.9C401.1,1934.5 403.2,1954.7 416.5,1961.1C402.9,1960.4 389.4,1959.4 375.9,1958ZM466.1,1839.8C461,1854.2 455,1868.2 448.9,1882.2C439.1,1904.8 428.8,1927.4 420.7,1950.7C418.6,1949.3 417.1,1946.5 415.9,1944.6C413.2,1940.3 411,1935.7 408.6,1931.3C403.8,1922.3 398.2,1915 389,1910.2C380.2,1905.6 373.8,1912 367.3,1917.5C357.7,1925.7 348.8,1934.3 340.8,1944C327.8,1933.1 320.1,1916.3 310.4,1902.7C308.6,1900.2 305.5,1899 302.7,1900.7C289.2,1908.8 278.1,1919.9 268,1931.8C259,1921.1 251.2,1909.6 246.1,1896.5C245.2,1894.1 243.4,1892.4 240.7,1892.4C234.3,1892.4 228.3,1900.2 223.6,1904C221.9,1905.4 220.1,1906.7 218.3,1908.1C237.3,1874.9 255.2,1841.1 272.5,1807C301.1,1819 334.3,1820.4 364.6,1823.5C384.7,1825.6 404.9,1827 425,1829C439.4,1830.4 453.7,1832.4 468,1834.3C467.4,1836.1 466.8,1838 466.1,1839.8ZM479.6,1796.2C476.9,1805.3 474.3,1814.5 471.5,1823.5C467.9,1823 464.3,1822.5 460.7,1822C450.8,1820.5 440.9,1819.3 430.9,1818.2C434.5,1814.5 440.7,1811.7 444.3,1809.8C451,1806.2 458.9,1802.4 466.6,1801.4C470.3,1800.9 474.3,1796.8 471.4,1792.9C462.5,1780.8 452.6,1769.5 443.8,1757.4C454.9,1758.1 466,1758.7 477.1,1759C481.7,1759.1 486.2,1759.3 490.8,1759.4C487,1771.6 483.3,1783.9 479.6,1796.2ZM590.3,1728.2C583.8,1712.5 576.8,1697 570.2,1681.3C564.8,1668.5 560.1,1655.7 555.4,1642.6C551.9,1632.8 547.8,1622.8 540.9,1614.9C540.4,1611.5 537,1609.5 534,1609.9C529.7,1609.7 525.7,1614.9 529,1618.8C520.1,1662.7 507.2,1705.6 494.2,1748.4C470.6,1747.8 446.9,1746.9 423.4,1745C409.1,1743.9 394.9,1742.1 380.7,1741C367.7,1740 354.6,1738.8 341.9,1736C333.2,1734.1 323.2,1731.4 317.2,1724.2C316.1,1722.9 314.8,1722.3 313.6,1722.3C337.9,1670.5 361.1,1618.2 384.3,1565.9C384.6,1566.1 385,1566.2 385.4,1566.3C439.1,1582 494.9,1583.9 550.5,1584C602.4,1584.1 655.8,1583.7 703,1559.6C726.8,1613.2 750.6,1667 775.5,1720.1C758.3,1724.6 741.4,1729.6 724.1,1733.9C704.4,1738.7 684.3,1742.2 664.2,1744.7C642.4,1747.4 620.4,1748.8 598.4,1749.4C595.8,1742.4 593.2,1735.3 590.3,1728.2ZM607.5,1776.4C605.6,1771 603.8,1765.7 602,1760.3C615.6,1759.9 629.2,1759.1 642.7,1758C636.1,1769.3 626.4,1778.4 619,1789.1C617.1,1791.9 618.9,1796.7 622.4,1797.4C639.4,1800.6 649.9,1812.3 661.3,1823.7C650,1825.4 638.6,1826.7 627.2,1827.8C620.2,1810.8 613.5,1793.7 607.5,1776.4ZM691.5,1963.9C696.8,1955 702,1946.1 706,1936.6C720.4,1939.2 732.7,1949.4 744.5,1958C726.9,1960.4 709.3,1962.5 691.5,1963.9ZM702.5,1924.9C699.9,1924.7 697.9,1926.8 697.1,1929C692.5,1941.3 685.4,1952.4 678.6,1963.6C666,1920.8 648.4,1879.8 631.5,1838.5C661.6,1835.6 691.5,1830.6 721,1823C737,1818.9 752.6,1814.4 768.9,1811.7C784.6,1809.1 800.3,1807.1 815.8,1803.7C832.8,1837.6 850.6,1871.1 869.4,1904.1C869.1,1903.9 868.8,1903.6 868.5,1903.4C862.1,1898.9 854.5,1894.6 846.5,1896.8C838.9,1898.9 834.3,1907 831,1913.5C827.5,1920.5 825,1928.1 821.1,1935C804.8,1929.7 789.2,1921.8 775.3,1911.9C772.8,1910.1 769.1,1911.5 767.6,1913.9C761,1925 755.5,1936.6 750.2,1948.3C735.4,1937.9 721.1,1926.6 702.5,1924.9ZM791.5,1951.2C780.6,1952.8 769.7,1954.4 758.9,1956C763.7,1945.5 768.6,1935 774.3,1924.8C788.7,1934.4 804.7,1941.9 821.2,1946.8C811.2,1948.5 801.2,1949.8 791.5,1951.2ZM827.4,1945.8C827.8,1945.4 828.2,1945 828.5,1944.6C832.6,1938.5 835.2,1931.6 838.1,1924.9C840.6,1919.2 843.3,1911.6 848.8,1908.1C853.6,1905.1 862,1912.6 865.5,1915.2C871.3,1919.5 876.6,1924.4 882.3,1928.8C865.2,1937.5 846.4,1942.3 827.4,1945.8ZM492.8,1354.5C485.6,1354.5 485.6,1343.3 492.8,1343.3C500,1343.3 500.1,1354.5 492.8,1354.5ZM525.3,1357C518.1,1357 518.1,1345.8 525.3,1345.8C532.5,1345.7 532.5,1357 525.3,1357ZM553.3,1352.6L553.3,1351.4C553.3,1348.3 555.9,1345.8 558.9,1345.8C562,1345.8 564.5,1348.4 564.5,1351.4L564.5,1352.6C564.5,1355.7 561.9,1358.2 558.9,1358.2C555.9,1358.2 553.3,1355.7 553.3,1352.6ZM592.7,1340.8C599.9,1340.8 599.9,1352 592.7,1352C585.4,1352 585.4,1340.8 592.7,1340.8Z" style="fill:rgb(77,114,209);fill-rule:nonzero;"/>
            </g>
            <path d="M1828.1,2117C1769.2,2017.5 1718.9,1913.1 1671,1807.8C1671.3,1805.7 1670.2,1803.6 1668.4,1802.2C1651.6,1765.1 1635,1727.9 1618.5,1690.7C1601.4,1652.2 1583.4,1613.9 1567.2,1575C1552.2,1538.8 1539,1502 1525.5,1465.2C1501.2,1399.2 1476.8,1330.6 1437.4,1271.8C1440.3,1270.8 1442.5,1268 1441.2,1264.2C1440.4,1262 1439.7,1259.8 1439.2,1257.5C1440.2,1256.7 1440.9,1255.6 1441.2,1254C1442.8,1246.1 1441,1240 1437.2,1235.7C1437.3,1235.5 1437.5,1235.2 1437.6,1235C1444.5,1220.8 1456.8,1209.5 1464.9,1196C1468.3,1190.4 1472,1183.1 1470.5,1176.3C1469.2,1170.6 1464,1166 1458.1,1165.6C1447.8,1165 1439.4,1175.1 1433.2,1183.5C1436.2,1152.8 1436.8,1096.4 1403.6,1105.7C1401.6,1106.3 1399.3,1108.1 1399,1110.3C1395.5,1132.3 1397.1,1154.2 1397.7,1176.2C1386.9,1160.3 1373.8,1147.1 1359.1,1159.6C1345.8,1170.9 1358.9,1190.8 1366.7,1200.9C1375.7,1212.6 1386.5,1224 1398.6,1232.9C1393,1237.3 1390.4,1244.4 1394.1,1254C1394.5,1255.1 1395.1,1256 1395.9,1256.6C1395,1259.2 1394.6,1262.3 1394.9,1265.9C1395,1267 1395.3,1268 1395.8,1268.9C1395.7,1269 1395.7,1269.1 1395.6,1269.2C1394.1,1271.1 1392.7,1272.9 1391.2,1274.8C1390.5,1275.7 1390.1,1276.7 1390,1277.6C1352.8,1335.1 1329.2,1401.3 1305.8,1465.2C1292.3,1501.9 1279.1,1538.8 1264.1,1575C1248,1613.9 1230,1652.2 1212.8,1690.7C1148.5,1835.2 1084,1980.4 1003.4,2116.7C1002.6,2117.2 1001.9,2117.8 1001.3,2118.6C996,2125.2 1005.3,2134.6 1010.7,2128C1010.7,2127.9 1010.8,2127.9 1010.8,2127.9C1011.3,2127.8 1011.6,2127.8 1012.2,2127.8C1014.5,2127.7 1016.7,2128.1 1018.9,2128.5C1026,2129.8 1032.9,2131.9 1039.7,2134C1053.3,2138.1 1066.6,2142.4 1080.5,2145C1126.6,2153.8 1172.7,2162.7 1219.3,2167.8C1264.2,2172.7 1309.8,2173.4 1355,2175.3C1400.6,2177.1 1446.1,2178.4 1491.7,2178.1C1552,2177.7 1612.4,2174.4 1672,2165C1697.7,2161 1723.5,2157.4 1749.2,2152.9C1774.8,2148.3 1800.7,2141.9 1823.5,2129.1C1825.2,2128.1 1826.2,2126.8 1826.6,2125.3C1828.9,2123.3 1830,2120.3 1828.1,2117ZM1768.3,2037.5C1748.7,2047.4 1727,2051.6 1705.5,2055.2C1685,2058.6 1665.6,2066.2 1645.2,2069.9C1650.2,2060.5 1654.7,2051 1658.6,2041.4C1660.4,2037.1 1656,2033.3 1652.2,2033C1644,2032.4 1636.1,2031 1628.3,2028.8C1640.1,2027.3 1651.8,2024.3 1662.5,2022.2C1691.6,2016.5 1718.9,2006.3 1746.6,1996C1753.7,2010 1761,2023.8 1768.3,2037.5ZM1740.6,1984.3C1715.4,1993.8 1690.1,2003.7 1663.6,2008.6C1653.3,2010.5 1643,2012.7 1632.7,2014.3C1622.7,2015.9 1611.2,2017.7 1601.3,2014.9C1599.4,2014.4 1597.8,2014.6 1596.5,2015.4C1581.5,2007.1 1567.6,1996.4 1554.6,1984.6C1558,1981.3 1560.7,1977.1 1563.3,1973.1C1571.6,1976.1 1578.5,1981.8 1585.1,1987.7C1589,1991.2 1594.1,1988.9 1595.9,1985.4C1599,1985.2 1601.7,1983.1 1601.3,1979.1C1601.1,1976.9 1604.1,1972.5 1607.1,1968.5C1613.4,1974.2 1620.6,1978.5 1629.2,1980.5C1630.5,1980.8 1631.7,1980.7 1632.7,1980.4C1635.4,1980.5 1638.2,1979.1 1639.3,1975.8C1640.5,1972.2 1642.6,1969 1644.7,1965.8C1649.4,1970 1654.5,1973.6 1659.9,1976.8C1662.5,1978.4 1665.7,1977.8 1667.9,1975.8C1673.7,1970.6 1678.4,1964.5 1682.4,1957.9C1689.9,1963.9 1699.6,1967.4 1707.9,1971.9C1711.3,1973.7 1714.8,1972.5 1716.9,1969.5C1720.4,1964.7 1723.2,1959.5 1725.7,1954.2C1730.6,1964.5 1735.6,1974.4 1740.6,1984.3ZM1685.4,1870.8C1696,1893.5 1706.8,1916.1 1717.8,1938.6C1717.7,1938.8 1717.6,1939.1 1717.5,1939.3C1715.2,1945.9 1712.4,1952.2 1708.8,1958.1C1700.6,1954.5 1691,1950.8 1686.5,1943.6C1684.1,1939.8 1677.3,1938.9 1675.1,1943.6C1671.8,1950.8 1667.6,1957.3 1662.2,1963C1657.1,1959.6 1652.4,1955.7 1648.2,1951C1645.3,1947.7 1639.9,1948.9 1637.8,1952.3C1634.8,1957.2 1631.4,1961.8 1628.8,1966.8C1621.7,1964.3 1616.1,1959.7 1610.9,1953.9C1607.9,1950.6 1602.8,1951.9 1600.5,1955.2C1597.2,1960 1590.9,1966.9 1588.6,1973.5C1580.7,1967 1572.1,1961.2 1561.9,1959C1558.9,1958.3 1556.1,1959.5 1554.4,1962C1552.2,1965.2 1548.6,1973 1545,1975.8C1532.3,1963.4 1520.6,1950.2 1510,1937.6C1499.9,1925.6 1490.3,1913.1 1481.1,1900.4C1498.8,1899.8 1516.4,1896.3 1534,1895.1C1555.5,1893.6 1576.9,1896.3 1598.4,1893.3C1619.1,1890.5 1639.8,1884.7 1659.7,1878.3C1667.2,1875.9 1675.1,1874.3 1682.5,1871.7C1683.7,1871.6 1684.6,1871.2 1685.4,1870.8ZM1679.4,1857.9C1679,1858.4 1678.7,1858.9 1678.5,1859.5C1677.2,1860.1 1675.7,1860.3 1674.4,1860.7C1671.5,1861.5 1668.6,1862.1 1665.8,1862.8C1657.3,1864.9 1649.1,1868.3 1640.5,1870.4C1621.2,1875.3 1602.9,1880 1583.1,1881.8C1565.1,1883.5 1547,1880.9 1528.9,1882.5C1510,1884.3 1491,1888 1471.9,1887.4C1462.2,1873.5 1452.9,1859.3 1443.9,1845C1486.5,1840 1529.5,1836.7 1572.3,1834.2C1589,1833.2 1605.8,1832 1622.3,1829.4C1635.4,1827.3 1649.1,1824 1660.7,1817.2C1666.9,1830.8 1673.2,1844.4 1679.4,1857.9ZM1434.3,1205.4C1440.1,1196.5 1446.6,1184.7 1456.2,1179.3C1457.4,1178.6 1457.9,1178.3 1457.6,1180.2C1456.6,1186 1452.4,1191.5 1449.2,1196.2C1441.9,1206.9 1432,1216.6 1426.3,1228.4C1426.2,1228.6 1426.2,1228.7 1426.1,1228.9C1424.2,1228.3 1422.2,1227.9 1420.2,1227.7C1425.3,1220.6 1429.6,1212.7 1434.3,1205.4ZM1406,1246.7C1405.8,1242.2 1409.5,1240.3 1415.3,1240.1C1419.9,1240 1425.7,1241.6 1427.8,1245.5C1420.5,1244.3 1412.4,1244.2 1406,1246.7ZM1426.9,1262.5L1408.3,1262.5C1408.7,1259.7 1410.3,1258.1 1414.3,1257.6C1418.2,1257.1 1422.2,1257.7 1426.1,1258.6C1426.2,1259.9 1426.5,1261.2 1426.9,1262.5ZM1411.2,1118.5C1425.9,1123.3 1420.3,1185 1418.7,1194.6C1418.2,1197.6 1419.6,1199.9 1421.5,1201.4C1420.3,1203.4 1419.1,1205.4 1417.9,1207.3C1415.8,1205.1 1413.4,1201.5 1410.8,1197.2C1411,1196.6 1411.1,1196.1 1411.1,1195.4C1411.8,1169.8 1408,1144 1411.2,1118.5ZM1381.4,1198C1377.1,1193 1361.6,1176 1368.6,1169C1376.3,1161.3 1403.4,1211.2 1408.6,1216.7C1409.3,1217.4 1410,1217.9 1410.7,1218.2C1409.7,1219.5 1408.7,1220.8 1407.6,1222C1407.4,1222.2 1407.2,1222.5 1407.1,1222.7C1397.5,1215.9 1389.1,1206.9 1381.4,1198ZM1338.4,1415.8C1344.1,1418.6 1352.3,1418.7 1357.7,1419.1C1370,1420.1 1382.3,1420 1394.6,1420.2C1408.4,1420.3 1422.1,1421.3 1435.9,1420.7C1454.7,1419.8 1473.5,1417 1492,1413.2C1494.4,1419.3 1496.7,1425.4 1499,1431.6C1444,1437.7 1386.3,1446.2 1331.8,1433.1C1334,1427.3 1336.2,1421.6 1338.4,1415.8ZM1325.3,1450.7C1325.9,1449 1326.6,1447.2 1327.2,1445.5C1384.8,1459.7 1445.7,1450.5 1503.8,1444.2C1504.6,1446.3 1505.4,1448.5 1506.2,1450.6C1507,1452.8 1507.9,1455.1 1508.7,1457.3C1476.3,1466.9 1442.6,1462.9 1409.3,1462.9C1380.7,1463 1349.7,1468.6 1322,1459.4C1323.1,1456.6 1324.2,1453.6 1325.3,1450.7ZM1317.4,1471.9C1346.4,1482 1379.2,1476.6 1409.2,1476.3C1444.1,1476 1479.2,1480.2 1513.1,1469.9C1515.2,1475.7 1517.3,1481.5 1519.5,1487.3C1510,1503 1499.6,1518 1490.9,1534.2C1479.3,1522 1469.2,1508.4 1456.1,1497.5C1453.1,1495 1449.7,1495 1446.7,1497.5C1433.8,1508.4 1428.6,1524.6 1418.6,1537.6C1406.5,1524.7 1398.3,1508.4 1383.2,1498.5C1380,1496.4 1376.1,1498 1374.1,1500.9C1364.5,1514.8 1351.4,1527 1337.9,1537.3C1330,1527.7 1321.6,1518.6 1314,1508.7C1313.5,1508.1 1313,1507.6 1312.4,1507.2C1311.7,1505.7 1311.2,1504.1 1310.7,1502.4C1310.2,1500.4 1309,1499.1 1307.5,1498.4C1311,1489.5 1314.2,1480.7 1317.4,1471.9ZM1288,1551C1292.7,1539 1297.2,1526.9 1301.7,1514.9C1302.4,1516.3 1303.1,1517.8 1303.8,1519.2C1304.7,1521 1306.5,1522.1 1308.5,1522.3C1316,1531.4 1324.1,1540.1 1331.3,1549.5C1333.3,1552.1 1337.2,1554.2 1340.3,1551.9C1355.4,1541 1370,1528.2 1381.4,1513.3C1394.3,1524.2 1401.9,1540.6 1414.5,1551.8C1417.1,1554.2 1421.3,1554.5 1423.9,1551.8C1435.4,1539.8 1440.6,1523.1 1451.8,1511C1464.8,1523.1 1475.2,1537.6 1488.1,1549.8C1491,1552.6 1496.6,1552.4 1498.5,1548.5C1506.2,1532.6 1516,1517.9 1525.4,1502.9C1531.3,1519 1537.3,1535 1543.5,1551C1546.6,1558.9 1549.8,1566.8 1553,1574.6C1545.2,1566.6 1537.8,1558.2 1531.7,1548.7C1529,1544.5 1523,1544.4 1520.3,1548.7C1515.8,1556 1511.4,1563.4 1506.6,1570.6C1503.9,1574.6 1501.1,1578.5 1497.9,1582.2C1496.5,1583.8 1495,1585.4 1493.4,1586.8C1492.9,1587.2 1492.5,1587.3 1492.4,1587.4C1489.7,1586.5 1487.1,1583.7 1485.1,1581.9C1481,1578.2 1477.3,1574 1473.6,1569.9C1468,1563.5 1462.8,1556.8 1457.3,1550.3C1455.3,1548 1451.8,1548 1449.3,1549.3C1440.5,1553.9 1434.7,1563.9 1429.4,1571.9C1426.2,1576.8 1423.1,1581.7 1419.6,1586.4C1418.2,1588.3 1416.6,1590 1415,1591.7C1414.2,1592.5 1412.9,1592.9 1412.8,1593.2C1410.8,1592 1408.1,1588.8 1406.7,1587.2C1403.1,1583.2 1399.9,1578.8 1396.7,1574.4C1391.3,1567 1386.3,1558.9 1380,1552.3C1377.4,1549.6 1373.3,1549.9 1370.6,1552.3C1357.6,1564 1349.2,1580.5 1336.1,1591.9C1326.4,1579.6 1319.5,1565.3 1309.5,1553.3C1307.7,1551.1 1303.8,1550.7 1301.5,1552.3C1293.3,1557.7 1286.2,1565 1279.6,1572.4C1282.3,1565.2 1285.2,1558.2 1288,1551ZM1245.5,1649.7C1250.7,1638 1255.9,1626.4 1261.1,1614.7C1312.7,1622.6 1364.6,1628.1 1416.9,1628.4C1468.4,1628.7 1518.3,1622 1568.3,1610.1C1574.1,1623.3 1580.1,1636.5 1585.9,1649.8C1591.6,1662.7 1597.4,1675.7 1603.1,1688.6C1589.4,1692.5 1575.8,1697 1562,1700.8C1546,1705.2 1529.7,1707.5 1513.2,1709.1C1481.1,1712.2 1448.8,1711.8 1416.7,1710.5C1384.7,1709.2 1352.5,1707.5 1320.7,1704.1C1288.9,1700.7 1257.2,1696.1 1225.2,1695.5C1232,1680.2 1238.8,1664.9 1245.5,1649.7ZM1046.8,2122.2C1039.2,2119.9 1031.6,2117.5 1023.9,2116C1024.7,2115.6 1025.4,2115.1 1026.1,2114.3C1033.4,2105.8 1042.8,2099.9 1051.4,2093C1056.9,2104.7 1063.4,2116 1067.9,2128.1C1060.9,2126.3 1053.8,2124.4 1046.8,2122.2ZM1118,2138.6C1107,2136.5 1096.1,2134.4 1085.4,2132.1C1094.9,2121.7 1103.5,2110.2 1113.9,2100.6C1118.5,2115.1 1125.4,2129.3 1134.3,2141.6C1128.8,2140.6 1123.4,2139.6 1118,2138.6ZM1148.3,2144.1C1159,2134.7 1169.2,2124.5 1180.6,2116.1C1183.1,2121.5 1186.6,2126.6 1190,2131.3C1195.5,2139.1 1201.6,2146.6 1208.5,2153.2C1188.3,2150.8 1168.3,2147.6 1148.3,2144.1ZM1219.1,2154.4C1228.1,2143.6 1235.8,2131.9 1245.9,2122.1C1254.6,2133.5 1262.9,2145.2 1269.2,2158.1C1252.4,2157.3 1235.7,2156.2 1219.1,2154.4ZM1293.8,2157.6C1293.5,2158.2 1293.3,2158.7 1293.2,2159.3C1289.9,2159.2 1286.5,2159 1283.2,2158.9C1290,2148.5 1297.4,2138.5 1305.6,2129.2C1302.2,2138.8 1298.4,2148.4 1293.8,2157.6ZM1322.7,2069.8C1309.2,2068.4 1295.9,2067.1 1282.7,2066.2C1264.4,2064.9 1246.2,2064.2 1227.9,2062.7C1209.1,2061.1 1190.8,2057.9 1172.3,2054C1153.6,2050 1134.8,2046.7 1116,2043.4C1099.3,2040.5 1083.8,2033.5 1067.5,2029.3C1073.8,2017.4 1080.1,2005.4 1086.2,1993.4C1087.5,1994 1089,1994.1 1090.8,1993.5C1095,1992 1103.2,1996.9 1107.1,1998.6C1114,2001.5 1120.6,2003.8 1127.8,2005.7C1150.3,2011.4 1173.1,2015 1195.8,2019.6C1240.4,2028.8 1284.3,2037.9 1330.1,2037.9C1330.3,2037.9 1330.5,2037.9 1330.7,2037.8C1328,2048.4 1325.4,2059.1 1322.7,2069.8ZM1341.6,1995.3C1338.8,2005.4 1336.2,2015.5 1333.7,2025.6C1332.7,2025 1331.6,2024.6 1330.1,2024.6C1307.3,2024.6 1285,2022.9 1262.5,2019.2C1239.5,2015.5 1216.9,2009.6 1193.9,2005.8C1171.1,2002 1148.4,1997.3 1126.1,1991.6C1118.9,1989.7 1112.2,1986.5 1105.3,1983.7C1101.7,1982.2 1097.3,1980.5 1093,1980.1C1096.9,1972.3 1100.9,1964.5 1104.7,1956.7C1105.8,1956.7 1106.9,1956.4 1108,1955.6C1112.5,1952.8 1116.3,1949.2 1120,1945.5C1123,1951.7 1126.4,1957.7 1129.3,1964C1131.1,1967.9 1136.9,1968.1 1139.7,1965.3C1144.8,1960.3 1150,1955.5 1155.2,1950.6C1159.7,1955.7 1164,1960.9 1167.5,1966.9C1169.2,1969.7 1173.7,1971.5 1176.5,1969.3C1181.7,1965.3 1186.1,1960.5 1190.9,1956.1C1195.5,1963.2 1201.4,1969.6 1207.7,1975.1C1208.1,1975.5 1208.6,1975.8 1209.1,1976.1C1211.3,1979 1215.7,1980.4 1219,1977.1C1224.3,1971.9 1230.1,1967.2 1235.8,1962.4C1238.8,1968.7 1242.4,1974.6 1246.9,1980.1C1248.2,1981.8 1250.5,1982.3 1252.5,1981.9C1254.1,1982.5 1255.9,1982.4 1257.8,1981.1C1264.2,1976.8 1270.4,1972.2 1276,1967.1C1280.2,1974.2 1286,1980.9 1291.9,1986C1294.5,1988.3 1297.7,1988.1 1300,1986.6C1301.1,1986.4 1302.2,1985.9 1303.2,1985C1308.7,1980.3 1313.9,1975.3 1318.8,1970C1323.8,1977.2 1329.9,1983.7 1336,1989.9C1338,1992 1340.5,1992.2 1342.5,1991.5C1342.3,1992.7 1341.9,1994 1341.6,1995.3ZM1345.7,1980.7C1345.6,1980.6 1345.6,1980.5 1345.5,1980.5C1338.2,1973.1 1331.1,1965.4 1326,1956.4C1324.7,1954.1 1322.7,1953.2 1320.7,1953.2C1318.7,1952.5 1316.4,1952.9 1314.6,1955.1C1309.2,1961.3 1303.4,1967.2 1297.3,1972.8C1292,1967.5 1286.8,1960.8 1284.5,1954.1C1283,1949.7 1277,1947.3 1273.4,1951.2C1267.6,1957.6 1261.1,1962.9 1254.1,1967.8C1250.8,1963.2 1248.1,1958 1246,1952.8C1248.9,1947 1240.8,1939.9 1235.3,1945.3C1228.7,1951.7 1221.4,1957.3 1214.5,1963.5C1208.1,1957.5 1202.4,1950.7 1198.6,1942.8C1197.2,1939.8 1192.3,1938.4 1189.6,1940.4C1184.3,1944.5 1179.8,1949.5 1174.8,1954C1170.4,1947.9 1165.3,1942.3 1160.3,1936.6C1157.9,1933.9 1153.4,1934.2 1150.9,1936.6C1146.3,1941.1 1141.6,1945.5 1136.9,1949.9C1133.9,1944.3 1130.8,1938.7 1128.7,1932.7C1127,1928.1 1122.1,1926.5 1118.2,1929.3C1128.2,1908.7 1138,1888 1147.7,1867.3C1179.2,1882.5 1215.6,1883.7 1249.7,1888.3C1271.1,1891.2 1292.8,1891.9 1314.4,1894C1333.1,1895.8 1351.1,1901.4 1369.9,1897.9C1362.3,1925.5 1353.7,1953 1345.7,1980.7ZM1373,1886C1371.6,1884.9 1369.7,1884.3 1367.5,1884.7C1350,1888.3 1331.7,1882.7 1314.4,1880.5C1293.4,1877.9 1272.1,1877.8 1251.1,1875C1218.7,1870.6 1183.2,1869.8 1153.3,1855.1C1159.2,1842.4 1165.1,1829.6 1170.9,1816.8C1190.8,1821.2 1209.5,1829.9 1229.7,1833.4C1252.1,1837.2 1275.2,1838.5 1297.7,1840.9C1326.1,1843.9 1354.5,1847 1382.9,1847.8C1379.7,1860.5 1376.4,1873.2 1373,1886ZM1400.6,1784.7C1398,1785.6 1396.1,1787.8 1396.5,1790.9C1396.5,1791.2 1396.5,1791.5 1396.6,1791.8C1393.3,1806.1 1389.8,1820.3 1386.3,1834.6C1357.7,1834 1329.2,1831 1300.6,1828C1278.2,1825.6 1255.5,1823.9 1233.2,1820.7C1213.7,1817.9 1195.6,1809.2 1176.4,1804.6C1184.4,1786.9 1192.4,1769.1 1200.3,1751.3C1200.5,1751.4 1200.7,1751.4 1200.8,1751.5C1234.6,1762.2 1270.5,1763.9 1305.6,1766.8C1344.9,1770 1383.8,1773.7 1423.2,1772.9C1459.4,1772.1 1495.1,1766.9 1531,1762.7C1563.3,1759 1597,1755.7 1627.5,1743.7C1636.7,1764.2 1645.8,1784.8 1655.1,1805.2C1644.4,1812 1630.8,1814.6 1618.7,1816.7C1602.8,1819.4 1586.5,1820.3 1570.4,1821.2C1527,1823.7 1483.6,1827.2 1440.4,1832.3C1439,1832.5 1437.5,1832.6 1436.1,1832.8C1426.8,1817.7 1417.7,1802.6 1408.7,1787.4C1406.9,1783.9 1403.4,1783.5 1400.6,1784.7ZM1428.4,1846.6C1428.7,1846.6 1429.1,1846.5 1429.4,1846.5C1451.6,1881.9 1475.2,1916.5 1502.2,1948.6C1538.1,1991.4 1585.1,2036.7 1642.7,2045.1C1622.2,2091.1 1588.3,2136.4 1544,2161C1492.9,2061.5 1462.2,1953.2 1428.4,1846.6ZM1581.3,2161.7C1576.4,2162 1571.6,2162.3 1566.7,2162.6C1574.8,2156.9 1582.6,2150.6 1589.9,2143.7C1593.2,2146.1 1596.7,2148.3 1600.3,2150.4C1603.1,2152 1605.9,2153.5 1608.8,2155.1C1610.2,2155.8 1611.5,2156.6 1612.9,2157.3C1612,2156.8 1612.8,2156.8 1613.4,2158C1613.5,2158.3 1613.7,2158.6 1613.9,2158.8C1603.1,2160 1592.2,2161 1581.3,2161.7ZM1625.1,2157.5C1631.7,2148.6 1637.1,2139 1642.6,2129.4C1652,2136.9 1661.5,2144.2 1671.1,2151.4C1655.7,2153.6 1640.4,2155.7 1625.1,2157.5ZM1706.1,2146.3C1698,2147.5 1689.9,2148.7 1681.9,2149.8C1689,2139 1694.9,2127.5 1700.8,2115.9C1715.5,2121.9 1728.7,2131.2 1741.1,2141.1C1729.3,2143 1717.6,2144.6 1706.1,2146.3ZM1752.8,2139C1752.8,2138.9 1752.8,2138.9 1752.9,2138.8C1756.3,2124.6 1760.1,2110.5 1764.8,2096.7C1770.6,2099.9 1776.4,2103.2 1782.2,2106.5C1789.1,2110.6 1798.7,2115.1 1803.5,2121.7C1804,2122.4 1804.6,2122.9 1805.2,2123.4C1788.6,2130.9 1770.8,2135.6 1752.8,2139ZM1183.1,1850.7C1174.6,1850.7 1174.6,1837.5 1183.1,1837.5C1191.6,1837.4 1191.6,1850.7 1183.1,1850.7ZM1215.4,1855.6C1206.9,1855.6 1206.9,1842.4 1215.4,1842.4C1223.9,1842.3 1223.9,1855.6 1215.4,1855.6ZM1254.6,1862.4C1246.1,1862.4 1246.1,1849.2 1254.6,1849.2C1263.1,1849.2 1263.1,1862.4 1254.6,1862.4ZM1297,1861.7C1297,1858.1 1300,1855.1 1303.6,1855.1C1307.2,1855.1 1310.2,1858.1 1310.2,1861.7L1310.2,1862.7C1310.2,1866.3 1307.2,1869.3 1303.6,1869.3C1300,1869.3 1297,1866.3 1297,1862.7L1297,1861.7ZM1343,1868.5L1343,1866.5C1343,1862.9 1346,1859.9 1349.6,1859.9C1353.2,1859.9 1356.2,1862.9 1356.2,1866.5L1356.2,1868.5C1356.2,1872.1 1353.2,1875.1 1349.6,1875.1C1346,1875.2 1343,1872.2 1343,1868.5ZM1492.4,1864.6C1492.4,1868.2 1489.4,1871.2 1485.8,1871.2L1483.8,1871.2C1480.2,1871.2 1477.2,1868.2 1477.2,1864.6C1477.2,1861 1480.2,1858 1483.8,1858L1485.8,1858C1489.4,1858 1492.4,1861 1492.4,1864.6ZM1533.8,1868.3C1525.3,1868.3 1525.3,1855.1 1533.8,1855.1C1542.4,1855.1 1542.4,1868.3 1533.8,1868.3ZM1591.4,1851.1C1593.9,1853.6 1593.9,1857.9 1591.4,1860.5C1588.9,1863 1584.6,1863 1582,1860.5C1581.7,1860.2 1581.3,1859.8 1581,1859.5C1578.5,1857 1578.5,1852.7 1581,1850.1C1583.5,1847.6 1587.8,1847.6 1590.4,1850.1C1590.8,1850.5 1591.1,1850.8 1591.4,1851.1ZM1649.7,1849.7C1647.2,1847.2 1647.2,1842.9 1649.7,1840.3C1652.2,1837.8 1656.5,1837.8 1659.1,1840.3C1659.4,1840.6 1659.8,1841 1660.1,1841.3C1662.6,1843.8 1662.6,1848.1 1660.1,1850.7C1657.6,1853.2 1653.3,1853.2 1650.7,1850.7C1650.3,1850.4 1650,1850 1649.7,1849.7ZM1331.3,1504.1C1331.3,1501.2 1333.3,1498.7 1335.9,1497.8C1337,1497 1338.4,1496.5 1339.8,1496.5C1343.2,1496.5 1346.7,1499.5 1346.4,1503.1C1346.2,1505.7 1345.1,1508.4 1342.6,1509.6C1341,1510.3 1339.6,1510.6 1337.8,1510.7C1334.3,1510.7 1331.3,1507.7 1331.3,1504.1ZM1420.2,1495.5C1428.7,1495.5 1428.7,1508.7 1420.2,1508.7C1411.6,1508.7 1411.6,1495.5 1420.2,1495.5ZM1484.1,1495.2L1484.1,1494.2C1484.1,1490.6 1487.1,1487.6 1490.7,1487.6C1494.3,1487.6 1497.3,1490.6 1497.3,1494.2L1497.3,1495.2C1497.3,1498.8 1494.3,1501.8 1490.7,1501.8C1487.1,1501.9 1484.1,1498.8 1484.1,1495.2Z" style="fill:rgb(77,114,209);fill-rule:nonzero;"/>
            <g transform="matrix(1,0,0,1,-108.973,-86.6941)">
                <path d="M2607.5,1926.4C2591.7,1899.7 2576.7,1872.6 2562.1,1845.2C2562.2,1845 2562.3,1844.9 2562.4,1844.7C2564.5,1840.4 2560.9,1836.4 2557.3,1836.2C2510.8,1747.5 2470.1,1655.8 2429.4,1564.4C2415.8,1533.8 2401.6,1503.4 2388.6,1472.6C2388.4,1472 2388.2,1471.4 2387.8,1470.8C2387.1,1469.2 2386.5,1467.7 2385.8,1466.1C2373.1,1435.4 2361.9,1404.1 2350.4,1372.9C2329.5,1316 2308.5,1256.9 2274.1,1206.5C2275,1205.5 2275.5,1204.2 2275.5,1202.9C2275.4,1196.6 2274.5,1190.4 2273.3,1184.3C2289,1166.6 2305,1149.2 2318.4,1129.6C2322.5,1123.6 2312.8,1118 2308.7,1123.9C2295.6,1143 2280,1160.1 2264.7,1177.4L2264,1177.4C2261.4,1160.1 2256.8,1142.4 2261.6,1125.7C2263.6,1118.7 2252.8,1115.8 2250.8,1122.7C2245.8,1140.1 2250,1158 2252.6,1175.7C2240.4,1159.9 2228.4,1143.9 2215.2,1128.9C2210.4,1123.4 2202.5,1131.4 2207.3,1136.8C2220,1151.3 2231.7,1166.8 2243.5,1182C2243.3,1182.6 2243.1,1183.3 2243.1,1184C2243,1189.5 2241.8,1195 2243.3,1200.5C2243.4,1200.8 2243.5,1201 2243.6,1201.3C2242.4,1203 2241.2,1204.7 2240.1,1206.4C2238.9,1208 2237.6,1209.6 2236.4,1211.2C2235.8,1212 2235.5,1212.8 2235.4,1213.6C2203.8,1262.5 2183.8,1318.7 2163.9,1372.9C2152.4,1404.1 2141.2,1435.4 2128.5,1466.1C2114.8,1499.2 2099.5,1531.7 2085,1564.4C2082.3,1570.6 2079.5,1576.8 2076.7,1582.9C2074.7,1584.1 2073.3,1586.2 2074.1,1588.7C2023.1,1703.3 1971,1818 1907.1,1926.1C1906.5,1926.5 1905.9,1927.1 1905.3,1927.7C1900.8,1933.3 1908.7,1941.3 1913.2,1935.6C1913.2,1935.5 1913.3,1935.5 1913.3,1935.5C1913.7,1935.4 1914,1935.4 1914.5,1935.4C1916.4,1935.3 1918.3,1935.7 1920.2,1936C1926.2,1937.1 1932.1,1938.9 1937.9,1940.6C1949.4,1944.1 1960.7,1947.7 1972.5,1950C2011.6,1957.5 2050.8,1965 2090.4,1969.4C2104.7,1971 2119.1,1972 2133.5,1972.8C2135.6,1974.8 2139.2,1975.2 2141.5,1973.2C2162.9,1974.3 2184.3,1974.8 2205.7,1975.7C2244.4,1977.3 2283.1,1978.3 2321.8,1978.1C2373,1977.8 2424.3,1975 2474.9,1967C2496.7,1963.6 2518.7,1960.6 2540.4,1956.7C2562.2,1952.8 2584.1,1947.4 2603.5,1936.5C2605,1935.7 2605.8,1934.5 2606.1,1933.3C2608.1,1931.8 2609.1,1929.1 2607.5,1926.4ZM2148.7,1445.8C2159.7,1417.6 2169.8,1389 2180.4,1360.6C2199.3,1309.7 2219.1,1257.5 2249.8,1212.3C2251.4,1210.3 2253,1208.3 2254.6,1206.3C2256.7,1206.5 2258.7,1206.6 2260.8,1206.8C2293.7,1253.2 2314.4,1307.6 2334,1360.6C2344.5,1389 2354.7,1417.6 2365.7,1445.8C2368.9,1454.1 2372.3,1462.3 2375.7,1470.4C2334.5,1488.4 2290.5,1491.9 2245.9,1493.6C2225.9,1494.3 2205.9,1494.4 2186,1492.7C2169.4,1491.3 2151.2,1488.7 2136.8,1479.6C2136.2,1479.2 2135.6,1479 2135,1478.8C2139.8,1467.9 2144.4,1456.9 2148.7,1445.8ZM2112.7,1529.5C2118.7,1516 2124.8,1502.5 2130.7,1488.9C2130.9,1489 2131,1489.1 2131.2,1489.3C2146,1498.6 2164,1501.5 2181,1503.4C2202,1505.8 2223.2,1505.6 2244.3,1504.9C2291,1503.3 2336.9,1499.3 2380.1,1480.7C2387.2,1497.1 2394.5,1513.3 2401.7,1529.6C2409.7,1547.6 2417.7,1565.5 2425.6,1583.5C2396.6,1603 2363.8,1612.9 2329.1,1615.9C2317.73,1616.91 2306.3,1617.36 2294.84,1617.44C2272.32,1617.61 2249.7,1616.39 2227.3,1615.4C2203.3,1614.4 2179.2,1614.5 2155.3,1612C2133,1609.7 2105.9,1605.7 2088.9,1589.6C2088.2,1588.9 2087.5,1588.2 2086.8,1587.4C2095.6,1568.2 2104.1,1548.8 2112.7,1529.5ZM2162.4,1899.5C2151.8,1919.5 2141.3,1939.8 2134.3,1961.4C2118.9,1960.6 2103.5,1959.6 2088.2,1958C2060.1,1954.9 2032.2,1950 2004.5,1944.8C1983.9,1941 1964,1937 1944,1930.9C1936.5,1928.6 1928.9,1926.2 1921.1,1925L1921,1925C1935.2,1900.8 1948.8,1876.2 1961.9,1851.4C1962.4,1851.8 1963,1852.1 1963.7,1852.4C2029.1,1875.3 2097.6,1886.9 2166.5,1891.8C2165.1,1894.3 2163.7,1896.9 2162.4,1899.5ZM2194.3,1829.2C2187.8,1847 2180.2,1864 2171.9,1880.8C2102.3,1876.3 2032.9,1864.6 1966.9,1841.5C1983.8,1809.3 1999.9,1776.7 2015.5,1743.9C2015.6,1744 2015.8,1744 2015.9,1744.1C2024.7,1746.6 2032.7,1750.8 2040.9,1754.7C2049.4,1758.8 2058.1,1762.2 2067,1765C2085,1770.8 2103.6,1774.3 2122,1778.6C2150,1785.2 2178.7,1788.5 2207.5,1789.4C2203.5,1802.8 2199.1,1816.1 2194.3,1829.2ZM2220.2,1750.3C2217.1,1759.7 2214.1,1769.1 2211.2,1778.5C2198.6,1778.1 2186,1777.3 2173.5,1776C2155,1774.1 2136.9,1770.5 2118.7,1766.5C2100.3,1762.4 2081.8,1758.4 2063.9,1752.2C2049,1747.1 2035.6,1738.4 2020.5,1733.8C2027.2,1719.6 2033.9,1705.3 2040.4,1691C2073.3,1704.8 2108.3,1711.9 2143.3,1718C2162.1,1721.3 2180.9,1724.4 2199.9,1725.7C2209.7,1726.4 2219.5,1726.6 2229.3,1726.6C2226.1,1734.4 2222.9,1742.2 2220.2,1750.3ZM2234,1715.2C2216.2,1715.3 2198.5,1714.7 2180.8,1712.6C2162.1,1710.4 2143.4,1706.7 2124.9,1703.1C2106.9,1699.6 2089,1695.5 2071.4,1690.2C2062.5,1687.5 2053.7,1684.4 2045.1,1680.7C2046.9,1676.8 2048.7,1672.8 2050.5,1668.9C2080.4,1683 2114.6,1688.6 2146.9,1694.1C2177.4,1699.3 2208.3,1701.3 2239.1,1701.5C2237.5,1706.2 2235.8,1710.7 2234,1715.2ZM2261.9,1690.2C2260,1686.1 2258.1,1682.1 2256.2,1678C2254.4,1674.2 2250.4,1674.5 2248,1676.7C2246.4,1677.1 2245.1,1678.4 2244.7,1680.6C2244.1,1683.9 2243.4,1687.2 2242.5,1690.4C2211.5,1690.4 2180.4,1688.4 2149.8,1683.3C2118.2,1678.1 2084.2,1672.7 2055,1658.7C2064.1,1638.6 2073.1,1618.5 2082.1,1598.3C2095.8,1611.1 2115.4,1616.7 2133.5,1620.1C2158.7,1624.8 2184.5,1625.5 2210.1,1626.1C2272.7,1627.6 2339.5,1636.1 2398.7,1610.9C2409.7,1606.2 2420.2,1600.5 2430.2,1593.8C2438.1,1611.5 2446,1629.2 2454,1646.9C2443.5,1656.4 2430,1661.5 2416.7,1665.7C2402,1670.3 2387,1674.5 2372.1,1678.2C2336.5,1686.9 2299.3,1689.2 2262.7,1690.1C2262.5,1690.2 2262.2,1690.2 2261.9,1690.2ZM2267.1,1701.3C2304,1700.3 2341.4,1697.3 2377.3,1688.6C2392.7,1684.8 2408.3,1680.4 2423.4,1675.5C2436.1,1671.4 2448.5,1666 2458.9,1657.7C2460.5,1661.2 2462.1,1664.7 2463.6,1668.1C2443.3,1686.1 2415.7,1694.8 2389.7,1700.8C2360.4,1707.6 2330.6,1710.3 2300.7,1712.3C2291.4,1712.9 2282.2,1713.5 2272.9,1714C2271,1709.7 2269,1705.5 2267.1,1701.3ZM2278,1725C2305,1723.6 2332.1,1721.7 2358.8,1717.8C2388.1,1713.6 2417.5,1706.9 2444.3,1694C2452.9,1689.8 2461.1,1684.7 2468.4,1678.7C2475.8,1695 2483.3,1711.2 2491,1727.4C2479.6,1736.4 2464.1,1740 2450.2,1743.2C2433.4,1747.1 2416.5,1750.9 2399.7,1754.6C2366.9,1761.8 2333.7,1769.1 2300.3,1773.6C2292.9,1757.4 2285.5,1741.2 2278,1725ZM2325.4,1827.9C2318.6,1813.3 2311.8,1798.7 2305.1,1784.1C2354.3,1777.2 2403,1765.3 2451.4,1754.4C2466.7,1751 2482.8,1746.8 2495.8,1737.6C2512.6,1773.1 2530,1808.3 2548.2,1843C2543.4,1845.7 2536.1,1847.5 2532.1,1848.7C2520.7,1852.2 2509,1854.8 2497.4,1857.4C2467.8,1863.9 2438.6,1871.5 2408.5,1875.7C2390.2,1878.2 2371.8,1879.8 2353.4,1880.8C2343.7,1863.5 2333.9,1846.1 2325.4,1827.9ZM2503.8,1951.2C2470.1,1956.1 2436.7,1961.4 2402.7,1964C2402.5,1963.1 2402.1,1962.3 2401.3,1961.5C2385.5,1944.1 2376.4,1921.8 2365.1,1901.5C2363.3,1898.2 2361.4,1894.9 2359.5,1891.6C2380.8,1890.2 2402.1,1888.2 2423.3,1884.9C2451.6,1880.5 2479.2,1873.1 2507.1,1866.8C2518.6,1864.2 2530.1,1861.4 2541.3,1857.6C2544.8,1856.4 2549.3,1854.9 2553.3,1852.9C2566.8,1878.3 2580.8,1903.5 2595.4,1928.3C2567.6,1943 2534.6,1946.8 2503.8,1951.2ZM2116.7,1566C2121,1564.9 2128,1564.1 2130.8,1560.3C2131.5,1559.3 2132.4,1558.6 2133.4,1558.1C2133.6,1557.6 2133.9,1557.2 2134.1,1556.7C2135.9,1552.8 2138,1548.7 2139.5,1544.4C2136.9,1545.4 2134.1,1546.2 2131.3,1546.9C2124.3,1548.7 2121.3,1537.8 2128.3,1536.1C2133,1534.9 2138.8,1534 2141.6,1529.5C2143,1527.2 2145.2,1526.6 2147.3,1527C2150.3,1526.7 2153.6,1528.5 2153.8,1532.4C2154,1538.6 2158.2,1545.2 2164.7,1546.1C2167.7,1546.5 2169.4,1550.3 2168.6,1553C2167.7,1556.2 2164.7,1557.4 2161.7,1556.9C2156.8,1556.2 2152.6,1553.5 2149.4,1549.8C2148.2,1553 2146.8,1556.1 2145.4,1559.2C2144.6,1560.9 2143.8,1562.5 2143,1564.1C2143.2,1569 2146,1573.3 2150.2,1575.8C2156.4,1579.6 2150.7,1589.3 2144.5,1585.5C2141.1,1583.4 2138.2,1580.7 2136.1,1577.5C2134.6,1580.3 2133,1583.2 2131.4,1586C2127.9,1592.3 2118.1,1586.7 2121.7,1580.3C2122.6,1578.8 2123.4,1577.3 2124.3,1575.7C2122.8,1576.1 2121.3,1576.5 2119.8,1576.9C2112.7,1578.6 2109.7,1567.8 2116.7,1566ZM2197.2,1578.4C2201,1576.2 2207.6,1573.6 2209.2,1569.1C2209.6,1568 2210.3,1567 2211.1,1566.2C2211.2,1565.7 2211.3,1565.2 2211.4,1564.7C2212.1,1560.5 2213,1555.9 2213.3,1551.4C2211.1,1553.1 2208.6,1554.6 2206.1,1556C2199.8,1559.6 2194,1550 2200.3,1546.4C2204.5,1544 2209.9,1541.5 2211.3,1536.5C2212,1533.9 2214,1532.7 2216.1,1532.5C2218.9,1531.4 2222.6,1532.2 2223.8,1535.9C2225.7,1541.9 2231.5,1547 2238,1546.2C2241,1545.8 2243.6,1549 2243.6,1551.8C2243.6,1555.1 2241,1557 2238,1557.4C2233.1,1558.1 2228.3,1556.6 2224.2,1553.9C2223.9,1557.3 2223.4,1560.7 2222.9,1564C2222.6,1565.8 2222.3,1567.6 2222,1569.4C2223.5,1574.1 2227.4,1577.4 2232.1,1578.7C2239.1,1580.6 2236.3,1591.5 2229.3,1589.6C2225.4,1588.5 2222,1586.7 2219,1584.2C2218.3,1587.4 2217.5,1590.5 2216.8,1593.7C2215.1,1600.7 2204.2,1597.9 2205.9,1590.9C2206.3,1589.2 2206.7,1587.5 2207.1,1585.8C2205.8,1586.6 2204.4,1587.4 2203.1,1588.2C2196.8,1591.6 2191,1582 2197.2,1578.4ZM2345,1553C2344.3,1550.3 2345.9,1546.5 2348.9,1546.1C2355.4,1545.2 2359.6,1538.6 2359.8,1532.4C2359.9,1528.5 2363.2,1526.7 2366.3,1527C2368.3,1526.6 2370.6,1527.3 2372,1529.5C2374.8,1533.9 2380.6,1534.9 2385.3,1536.1C2392.3,1537.9 2389.3,1548.7 2382.3,1546.9C2379.5,1546.2 2376.7,1545.4 2374.1,1544.4C2375.6,1548.7 2377.7,1552.8 2379.5,1556.7C2379.7,1557.2 2379.9,1557.6 2380.2,1558.1C2381.2,1558.6 2382.1,1559.4 2382.8,1560.3C2385.6,1564.2 2392.6,1565 2396.9,1566C2403.9,1567.7 2400.9,1578.6 2393.9,1576.8C2392.4,1576.4 2390.9,1576 2389.4,1575.6C2390.2,1577.1 2391.1,1578.7 2392,1580.2C2395.6,1586.5 2385.8,1592.2 2382.3,1585.9C2380.7,1583.1 2379.1,1580.2 2377.6,1577.4C2375.5,1580.6 2372.6,1583.3 2369.2,1585.4C2363,1589.2 2357.4,1579.5 2363.5,1575.7C2367.6,1573.2 2370.5,1568.9 2370.7,1564C2369.9,1562.4 2369.1,1560.7 2368.3,1559.1C2366.9,1556.1 2365.5,1552.9 2364.3,1549.7C2361.1,1553.4 2356.9,1556.1 2352,1556.8C2348.9,1557.3 2345.9,1556.2 2345,1553ZM2270,1551.8C2270,1549 2272.6,1545.8 2275.6,1546.2C2282.1,1547.1 2287.9,1541.9 2289.8,1535.9C2291,1532.2 2294.7,1531.4 2297.5,1532.5C2299.6,1532.7 2301.5,1533.9 2302.3,1536.5C2303.8,1541.5 2309.1,1544 2313.3,1546.4C2319.6,1550 2313.8,1559.6 2307.5,1556C2305,1554.6 2302.5,1553.1 2300.3,1551.4C2300.6,1555.9 2301.5,1560.5 2302.2,1564.7C2302.3,1565.2 2302.4,1565.7 2302.5,1566.2C2303.3,1566.9 2304,1567.9 2304.4,1569.1C2306.1,1573.6 2312.6,1576.3 2316.4,1578.4C2322.7,1582 2316.9,1591.6 2310.6,1588C2309.2,1587.2 2307.9,1586.4 2306.6,1585.6C2307,1587.3 2307.4,1589 2307.8,1590.7C2309.5,1597.7 2298.6,1600.6 2296.9,1593.5C2296.1,1590.4 2295.4,1587.2 2294.7,1584C2291.8,1586.5 2288.3,1588.4 2284.4,1589.4C2277.4,1591.4 2274.6,1580.5 2281.6,1578.5C2286.3,1577.2 2290.2,1573.9 2291.7,1569.2C2291.4,1567.4 2291,1565.6 2290.8,1563.8C2290.3,1560.5 2289.8,1557.1 2289.5,1553.7C2285.4,1556.4 2280.7,1557.9 2275.7,1557.2C2272.5,1557.1 2270,1555.2 2270,1551.8ZM2237.4,1270.4C2242.8,1264.9 2247.1,1258.2 2253.5,1253.7C2254.6,1252.9 2256,1252.7 2257.3,1253C2259.1,1252.9 2260.9,1253.7 2262.1,1255.7C2265.5,1261.6 2269.6,1267.9 2275.1,1272C2277.5,1273.8 2278.8,1276.8 2277.1,1279.7C2275.7,1282.1 2271.9,1283.6 2269.4,1281.7C2263.9,1277.6 2259.4,1272.3 2255.6,1266.5C2252,1270.2 2248.9,1274.7 2245.4,1278.3C2240.3,1283.6 2232.3,1275.6 2237.4,1270.4ZM2236.6,1304.5C2241.3,1299.1 2246.5,1294 2250.7,1288.2C2251.6,1286.9 2252.9,1286 2254.3,1285.6C2256,1285.1 2257.9,1285.4 2259.5,1287.1C2265,1292.7 2270.2,1298.6 2276.1,1303.7C2281.6,1308.5 2273.6,1316.4 2268.2,1311.6C2263.9,1307.8 2259.9,1303.6 2255.9,1299.5C2252.2,1303.9 2248.3,1308.1 2244.5,1312.5C2239.8,1318 2231.9,1310 2236.6,1304.5ZM2277.2,1348.8C2275.8,1351.2 2272,1352.7 2269.5,1350.8C2264,1346.7 2259.5,1341.4 2255.7,1335.6C2252.1,1339.3 2249,1343.8 2245.5,1347.4C2240.4,1352.6 2232.5,1344.6 2237.6,1339.5C2243,1334 2247.3,1327.3 2253.7,1322.8C2254.8,1322 2256.2,1321.8 2257.5,1322.1C2259.3,1322 2261.1,1322.8 2262.3,1324.8C2265.7,1330.7 2269.8,1337 2275.3,1341.1C2277.7,1342.9 2278.9,1345.9 2277.2,1348.8ZM2268.4,1380.7C2264.1,1376.9 2260.1,1372.7 2256.1,1368.6C2252.4,1373 2248.5,1377.2 2244.7,1381.6C2240,1387.1 2232,1379.1 2236.8,1373.7C2241.5,1368.3 2246.7,1363.2 2250.9,1357.4C2251.8,1356.1 2253.1,1355.2 2254.5,1354.8C2256.2,1354.3 2258.1,1354.6 2259.7,1356.3C2265.2,1361.9 2270.4,1367.8 2276.3,1372.9C2281.8,1377.5 2273.9,1385.4 2268.4,1380.7ZM2277,1414.5C2275.6,1416.9 2271.8,1418.4 2269.3,1416.5C2263.8,1412.4 2259.3,1407.1 2255.5,1401.3C2251.9,1405 2248.8,1409.5 2245.3,1413.1C2240.2,1418.3 2232.3,1410.3 2237.4,1405.2C2242.8,1399.7 2247.1,1393 2253.5,1388.5C2254.6,1387.7 2256,1387.5 2257.3,1387.8C2259.1,1387.7 2260.9,1388.5 2262.1,1390.5C2265.5,1396.4 2269.6,1402.7 2275.1,1406.8C2277.4,1408.7 2278.7,1411.7 2277,1414.5ZM2236.6,1439.3C2241.3,1433.9 2246.5,1428.8 2250.7,1423C2251.6,1421.7 2252.9,1420.8 2254.3,1420.4C2256,1419.9 2257.9,1420.2 2259.5,1421.9C2265,1427.5 2270.2,1433.4 2276.1,1438.5C2281.6,1443.3 2273.6,1451.2 2268.2,1446.4C2263.9,1442.6 2259.9,1438.4 2255.9,1434.3C2252.2,1438.7 2248.3,1442.9 2244.5,1447.3C2239.8,1452.8 2231.9,1444.8 2236.6,1439.3ZM2277.2,1483.6C2275.8,1486 2272,1487.5 2269.5,1485.6C2264,1481.5 2259.5,1476.2 2255.7,1470.4C2252.1,1474.1 2249,1478.6 2245.5,1482.2C2240.4,1487.4 2232.5,1479.4 2237.6,1474.3C2243,1468.8 2247.3,1462.1 2253.7,1457.6C2254.8,1456.8 2256.2,1456.6 2257.5,1456.9C2259.3,1456.8 2261.1,1457.6 2262.3,1459.6C2265.7,1465.5 2269.8,1471.8 2275.3,1475.9C2277.7,1477.7 2278.9,1480.7 2277.2,1483.6ZM2025.5,1796.2C2016.9,1801.8 2006.9,1809.8 2003,1819.5C2001.9,1822.1 2003,1824.2 2004.7,1825.3C2005.4,1828 2008,1830.5 2011.5,1829.8C2014.4,1829.2 2018.1,1831.1 2020.7,1832.1C2024.6,1833.5 2028.5,1835 2032.6,1835.7C2036.1,1836.2 2039.8,1834.3 2039.7,1830.3C2039.5,1819.8 2036.6,1809.7 2033.7,1799.7C2032.8,1796.3 2028.7,1794.2 2025.5,1796.2ZM2088,1811.6C2086.9,1808.3 2082.7,1806.4 2079.6,1808.6C2071.3,1814.5 2061.5,1823 2058,1832.8C2057,1835.5 2058.1,1837.5 2060,1838.5C2060.8,1841.2 2063.5,1843.5 2067,1842.7C2069.9,1842 2073.6,1843.7 2076.3,1844.6C2080.3,1845.8 2084.2,1847.2 2088.4,1847.7C2091.9,1848.1 2095.5,1846 2095.3,1842C2094.7,1831.5 2091.4,1821.4 2088,1811.6ZM2120.5,1849.5C2121.6,1852.1 2124.5,1854.1 2127.9,1852.8C2130.7,1851.8 2134.6,1853.1 2137.4,1853.6C2141.5,1854.4 2145.5,1855.3 2149.7,1855.3C2153.2,1855.3 2156.6,1852.8 2155.9,1848.8C2154,1838.5 2149.6,1828.9 2145.1,1819.5C2143.6,1816.4 2139.2,1815 2136.4,1817.5C2128.8,1824.3 2120.2,1833.9 2117.8,1844.1C2117.2,1846.8 2118.5,1848.7 2120.5,1849.5ZM2479.4,1835.6C2483.5,1835 2487.4,1833.4 2491.3,1832C2493.9,1831.1 2497.6,1829.2 2500.5,1829.7C2504.1,1830.4 2506.6,1828 2507.3,1825.2C2509.1,1824.1 2510.1,1822 2509,1819.4C2505.1,1809.7 2495,1801.6 2486.5,1796.1C2483.4,1794.1 2479.2,1796.1 2478.2,1799.5C2475.2,1809.5 2472.4,1819.7 2472.2,1830.1C2472.2,1834.2 2476,1836.2 2479.4,1835.6ZM2423.7,1847.6C2427.9,1847.1 2431.8,1845.8 2435.8,1844.5C2438.5,1843.7 2442.2,1841.9 2445.1,1842.6C2448.6,1843.4 2451.3,1841.1 2452.1,1838.4C2453.9,1837.4 2455,1835.4 2454.1,1832.7C2450.6,1822.9 2440.8,1814.4 2432.5,1808.5C2429.5,1806.4 2425.3,1808.2 2424.1,1811.5C2420.7,1821.3 2417.5,1831.4 2416.8,1841.8C2416.6,1845.9 2420.2,1848 2423.7,1847.6ZM2375.7,1817.5C2372.9,1815 2368.5,1816.4 2367,1819.5C2362.5,1828.9 2358.1,1838.5 2356.2,1848.8C2355.5,1852.7 2358.8,1855.2 2362.4,1855.3C2366.6,1855.3 2370.6,1854.4 2374.7,1853.6C2377.5,1853.1 2381.4,1851.8 2384.2,1852.8C2387.6,1854 2390.5,1852.1 2391.6,1849.5C2393.5,1848.7 2394.9,1846.8 2394.2,1844.1C2392,1833.9 2383.3,1824.3 2375.7,1817.5ZM2404.3,1917.4L2404.3,1918C2404.3,1921.1 2401.7,1923.6 2398.7,1923.6C2395.6,1923.6 2393.1,1921 2393.1,1918L2393.1,1917.4C2393.1,1914.3 2395.7,1911.8 2398.7,1911.8C2401.7,1911.8 2404.3,1914.3 2404.3,1917.4ZM2444.4,1937.1C2446.6,1939.3 2446.6,1942.9 2444.4,1945C2442.2,1947.2 2438.6,1947.2 2436.5,1945C2436.3,1944.8 2436.1,1944.6 2435.9,1944.4C2433.7,1942.2 2433.7,1938.6 2435.9,1936.5C2438.1,1934.3 2441.7,1934.3 2443.8,1936.5C2444,1936.7 2444.2,1936.9 2444.4,1937.1ZM2445.7,1902.2C2446.7,1903.2 2447.3,1904.7 2447.3,1906.2C2447.3,1907.7 2446.7,1909.1 2445.7,1910.2C2444.7,1911.2 2443.1,1912 2441.7,1911.8C2440.4,1911.7 2439.2,1911.5 2438.1,1910.8C2437.5,1910.4 2437,1910 2436.5,1909.6C2434.3,1907.5 2434.4,1903.8 2436.5,1901.7C2438.4,1899.8 2441.5,1899.6 2443.6,1901.1C2444.4,1901.2 2445,1901.5 2445.7,1902.2ZM2488.5,1938.6C2481.3,1938.6 2481.3,1927.4 2488.5,1927.4C2495.7,1927.4 2495.7,1938.6 2488.5,1938.6ZM2482.9,1916.7C2475.7,1916.7 2475.7,1905.5 2482.9,1905.5C2490.1,1905.5 2490.1,1916.7 2482.9,1916.7ZM2509.3,1879.7C2510.3,1880.7 2510.9,1882.2 2510.9,1883.7C2510.9,1885.2 2510.3,1886.6 2509.3,1887.7C2508.3,1888.7 2506.7,1889.5 2505.3,1889.3C2503.8,1889.2 2503.4,1889 2502.2,1888.5C2502.1,1888.5 2502.1,1888.5 2502,1888.4C2501.1,1888.2 2500.3,1887.8 2499.5,1887C2498.5,1886 2497.9,1884.5 2497.9,1883C2497.9,1881.5 2498.5,1880.1 2499.5,1879C2500.5,1878 2502.1,1877.2 2503.5,1877.4C2505,1877.5 2505.4,1877.7 2506.7,1878.2C2506.8,1878.2 2506.8,1878.2 2506.9,1878.3C2507.7,1878.6 2508.6,1879 2509.3,1879.7ZM2529.1,1916.7L2529.1,1917.3C2529.1,1920.4 2526.5,1922.9 2523.5,1922.9C2520.5,1922.9 2517.9,1920.3 2517.9,1917.3L2517.9,1916.7C2517.9,1913.6 2520.5,1911.1 2523.5,1911.1C2526.5,1911.1 2529.1,1913.7 2529.1,1916.7ZM2567.7,1917.4C2574.9,1917.4 2574.9,1928.6 2567.7,1928.6C2560.5,1928.6 2560.5,1917.4 2567.7,1917.4ZM2548,1885.9C2550.2,1888.1 2550.2,1891.7 2548,1893.8C2545.8,1896 2542.2,1896 2540.1,1893.8C2540.1,1893.8 2540,1893.8 2540,1893.7C2539.4,1893.4 2538.8,1893.1 2538.2,1892.5C2537.2,1891.5 2536.6,1890 2536.6,1888.5C2536.6,1887 2537.2,1885.6 2538.2,1884.5C2539.2,1883.5 2540.8,1882.7 2542.2,1882.9C2543.5,1883 2544.8,1883.2 2545.9,1884C2546.6,1884.7 2547.3,1885.3 2548,1885.9ZM1951.8,1913.6L1951.8,1914.8C1951.8,1917.9 1949.2,1920.4 1946.2,1920.4C1943.1,1920.4 1940.6,1917.8 1940.6,1914.8L1940.6,1913.6C1940.6,1910.5 1943.2,1908 1946.2,1908C1949.3,1908 1951.8,1910.6 1951.8,1913.6ZM1973.4,1908.2C1971.2,1906 1971.2,1902.4 1973.4,1900.3C1975.6,1898.1 1979.2,1898.1 1981.3,1900.3C1981.5,1900.5 1981.7,1900.7 1981.9,1900.9C1984.1,1903.1 1984.1,1906.7 1981.9,1908.8C1979.7,1911 1976.1,1911 1974,1908.8C1973.9,1908.7 1973.6,1908.4 1973.4,1908.2ZM1978,1866.2C1985.2,1866.2 1985.2,1877.4 1978,1877.4C1970.8,1877.4 1970.8,1866.2 1978,1866.2ZM2020.5,1887.4C2027.7,1887.4 2027.7,1898.6 2020.5,1898.6C2013.2,1898.6 2013.2,1887.4 2020.5,1887.4ZM2003.6,1921.7C2010.8,1921.7 2010.8,1932.9 2003.6,1932.9C1996.4,1932.9 1996.4,1921.7 2003.6,1921.7ZM2049.8,1932.3C2057,1932.3 2057,1943.5 2049.8,1943.5C2042.6,1943.5 2042.6,1932.3 2049.8,1932.3ZM2036.1,1916.1C2036.1,1913 2038.7,1910.5 2041.7,1910.5L2043.6,1910.5C2046.7,1910.5 2049.2,1913.1 2049.2,1916.1C2049.2,1919.1 2046.6,1921.7 2043.6,1921.7L2041.7,1921.7C2038.6,1921.7 2036.1,1919.2 2036.1,1916.1ZM2069.3,1893.9C2070,1892.6 2071.3,1891.7 2072.7,1891.3C2074.2,1890.9 2075.7,1891.2 2077,1891.9C2078.9,1892.9 2080.5,1894.5 2081.5,1896.4C2082.2,1897.8 2082.5,1899.2 2082.1,1900.7C2081.7,1902.1 2080.8,1903.3 2079.5,1904.1C2077,1905.6 2073.2,1904.8 2071.8,1902.1C2071.7,1902 2071.7,1901.9 2071.6,1901.8C2071.5,1901.7 2071.4,1901.7 2071.3,1901.6C2068.6,1900.2 2067.8,1896.5 2069.3,1893.9ZM2087.2,1924.9C2094.4,1924.9 2094.4,1936.1 2087.2,1936.1C2080,1936.1 2080,1924.9 2087.2,1924.9ZM2130.1,1910.1C2129.1,1909.1 2128.5,1907.6 2128.5,1906.1C2128.5,1904.6 2129.1,1903.2 2130.1,1902.1C2131.1,1901.1 2132.7,1900.3 2134.1,1900.5C2135.1,1900.6 2136.4,1900.7 2137.3,1901.4C2137.5,1901.5 2137.6,1901.6 2137.8,1901.7C2138.3,1901.9 2138.9,1902.3 2139.3,1902.7C2140.3,1903.8 2140.9,1905.2 2140.9,1906.7C2140.9,1908.2 2140.3,1909.6 2139.3,1910.7C2138.3,1911.7 2136.7,1912.5 2135.3,1912.3C2134.3,1912.2 2133,1912.1 2132.1,1911.4C2131.9,1911.3 2131.8,1911.2 2131.6,1911.1C2131.1,1910.9 2130.5,1910.6 2130.1,1910.1ZM2113.2,1950.7C2112.2,1949.7 2111.6,1948.2 2111.6,1946.7C2111.6,1945.2 2112.2,1943.8 2113.2,1942.7C2113.4,1942.5 2113.7,1942.3 2113.9,1942.1C2114.1,1941.9 2114.2,1941.6 2114.5,1941.4C2115.5,1940.4 2117,1939.8 2118.5,1939.8C2120,1939.8 2121.4,1940.4 2122.5,1941.4C2123.5,1942.4 2124.3,1944 2124.1,1945.4C2123.9,1947.1 2123.4,1949.2 2122,1950.3C2121.5,1950.7 2121,1951.2 2120.4,1951.4C2119.1,1952 2118.7,1952.1 2117.2,1952.2C2115.8,1952.4 2114.2,1951.6 2113.2,1950.7ZM2047.3,1714.7C2049.5,1716.9 2049.5,1720.5 2047.3,1722.6C2045.1,1724.8 2041.5,1724.8 2039.4,1722.6C2039.1,1722.3 2038.8,1722 2038.6,1721.8C2036.4,1719.6 2036.4,1716 2038.6,1713.9C2040.8,1711.7 2044.4,1711.7 2046.5,1713.9C2046.8,1714.2 2047,1714.5 2047.3,1714.7ZM2101.4,1735.4C2101.4,1738.5 2098.8,1741 2095.8,1741C2094,1741 2092.4,1740.5 2091.1,1739.2C2089.8,1737.9 2089.4,1736.3 2089.4,1734.5C2089.4,1731.4 2092,1728.9 2095,1728.9C2096.7,1728.9 2098.3,1729.7 2099.3,1731C2100.5,1732.1 2101.4,1733.6 2101.4,1735.4ZM2152.2,1739.7C2154.4,1741.9 2154.4,1745.5 2152.2,1747.6C2150,1749.8 2146.4,1749.8 2144.3,1747.6C2144,1747.3 2143.7,1747 2143.5,1746.8C2141.3,1744.6 2141.3,1741 2143.5,1738.9C2145.7,1736.7 2149.3,1736.7 2151.4,1738.9C2151.6,1739.2 2151.9,1739.4 2152.2,1739.7ZM2196.4,1743.1C2199.5,1743.1 2202,1745.7 2202,1748.7L2202,1749.5C2202,1752.6 2199.4,1755.1 2196.4,1755.1C2193.4,1755.1 2190.8,1752.5 2190.8,1749.5L2190.8,1748.7C2190.8,1745.6 2193.4,1743.1 2196.4,1743.1ZM2318.5,1746.2C2318.5,1749.3 2315.9,1751.8 2312.9,1751.8L2311.2,1751.8C2308.1,1751.8 2305.6,1749.2 2305.6,1746.2C2305.6,1743.2 2308.2,1740.6 2311.2,1740.6L2312.9,1740.6C2316,1740.6 2318.5,1743.1 2318.5,1746.2ZM2362.6,1740.4C2362.6,1743.5 2360,1746 2357,1746L2355.3,1746C2352.2,1746 2349.7,1743.4 2349.7,1740.4C2349.7,1737.3 2352.3,1734.8 2355.3,1734.8L2357,1734.8C2360.1,1734.7 2362.6,1737.3 2362.6,1740.4ZM2401.1,1736.8L2399.4,1736.8C2396.3,1736.8 2393.8,1734.2 2393.8,1731.2C2393.8,1728.2 2396.4,1725.6 2399.4,1725.6L2401.1,1725.6C2404.2,1725.6 2406.7,1728.2 2406.7,1731.2C2406.7,1734.2 2404.2,1736.8 2401.1,1736.8ZM2448.8,1714.6C2448.6,1711.5 2451.5,1709 2454.4,1709C2455.9,1709 2457.3,1709.6 2458.4,1710.6C2458.9,1711.1 2459.3,1711.7 2459.5,1712.3C2459.7,1712.5 2459.8,1712.7 2460,1712.9C2460.7,1714.1 2460.8,1714.9 2460.9,1716.3C2461.1,1719.4 2458.2,1721.9 2455.3,1721.9C2453.8,1721.9 2452.4,1721.3 2451.3,1720.3C2450.8,1719.8 2450.4,1719.2 2450.2,1718.6C2450,1718.4 2449.9,1718.2 2449.7,1718C2449,1716.7 2448.9,1715.9 2448.8,1714.6Z" style="fill:rgb(77,114,209);fill-rule:nonzero;"/>
            </g>
        </g>
    </g>
</svg>
