<svg id="Calque_1" data-name="Calque 1" xmlns="http://www.w3.org/2000/svg" viewBox="0 0 1848.74 1017.9"><defs><style>.cls-1{isolation:isolate;}.cls-2{fill:#4d72d1;}</style></defs><title>title</title><g class="cls-1"><path class="cls-2" d="M612.9,313.93h62.4v24.45H588.44V124.66H612.9Z" transform="translate(-588.44 -124.48)"/><path class="cls-2" d="M792.84,124.48l.09,213.92L781,338.25A107,107,0,0,1,689.81,232V124.48h24.46V232a82.64,82.64,0,0,0,54.12,77.85V124.48Z" transform="translate(-588.44 -124.48)"/><path class="cls-2" d="M807.61,124.51H939.15V149H885.6V338.38H861.15V149H807.61Z" transform="translate(-588.44 -124.48)"/><path class="cls-2" d="M953.62,124.51h131.54V149h-53.54V338.38h-24.46V149H953.62Z" transform="translate(-588.44 -124.48)"/><path class="cls-2" d="M1099.63,124.51h89.24V149h-64.78v71h59.82V244.4h-59.82v69.51h64.78v24.46h-89.24Z" transform="translate(-588.44 -124.48)"/><path class="cls-2" d="M1322.68,184.23v2h-24.9v-2A34.79,34.79,0,1,0,1263,219a59.69,59.69,0,1,1-59.68,59.69v-2h24.9v2A34.79,34.79,0,1,0,1263,243.91a59.69,59.69,0,1,1,59.69-59.68Z" transform="translate(-588.44 -124.48)"/></g><g class="cls-1"><path class="cls-2" d="M679.6,470.78l68.23,243.61H718.91L702,654H633.46l-16.18,60.41H588.44l65.23-243.47ZM667,528.94l-26,97.18h53.26Z" transform="translate(-588.44 -124.48)"/><path class="cls-2" d="M881.59,470.77l.09,243.63-13.58-.17c-60.31-9.34-103.85-60.23-103.85-121V470.77H792.1V593.22a94.15,94.15,0,0,0,61.64,88.67V470.77Z" transform="translate(-588.44 -124.48)"/><path class="cls-2" d="M898.4,470.79h149.81v27.86h-61V714.38H959.38V498.65h-61Z" transform="translate(-588.44 -124.48)"/><path class="cls-2" d="M1308,592.74a121.63,121.63,0,1,1-121.63-121.63A121.76,121.76,0,0,1,1308,592.74Zm-27.85,0a93.78,93.78,0,1,0-93.78,93.78A93.88,93.88,0,0,0,1280.1,592.74Z" transform="translate(-588.44 -124.48)"/><path class="cls-2" d="M1446.22,470.85h13.93v55.52h-27.86V499.74a93.88,93.88,0,0,0,13.93,186.73h2.32v27.86h-2.32a121.74,121.74,0,1,1,0-243.48Z" transform="translate(-588.44 -124.48)"/><path class="cls-2" d="M1565.38,470.79h27.86V714.31h-27.86V609h-60.87V714.31h-27.86V470.79h27.86V581.1h60.87Z" transform="translate(-588.44 -124.48)"/><path class="cls-2" d="M1609.82,470.79h149.81v27.86h-61V714.38H1670.8V498.65h-61Z" transform="translate(-588.44 -124.48)"/><path class="cls-2" d="M2019.37,592.74a121.63,121.63,0,1,1-121.63-121.63A121.76,121.76,0,0,1,2019.37,592.74Zm-27.85,0a93.78,93.78,0,1,0-93.78,93.78A93.88,93.88,0,0,0,1991.52,592.74Z" transform="translate(-588.44 -124.48)"/><path class="cls-2" d="M2138.76,470.85h27.86V714.37h-27.86v-16l-75-149.38V714.37h-27.86V470.85h27.86v16.08l75,149.38Z" transform="translate(-588.44 -124.48)"/><path class="cls-2" d="M2183.15,470.8h101.64v27.86H2211v80.82h68.13v27.86H2211v79.18h73.78v27.85H2183.15Z" transform="translate(-588.44 -124.48)"/><path class="cls-2" d="M2437.18,538.81v2.32h-28.36v-2.32a39.62,39.62,0,1,0-39.61,39.62,68,68,0,1,1-68,68v-2.32h28.36v2.32a39.62,39.62,0,1,0,39.62-39.62,68,68,0,1,1,68-68Z" transform="translate(-588.44 -124.48)"/></g><g class="cls-1"><path class="cls-2" d="M733,1000.54c0,78.19-63.64,141.82-141.86,141.82h-2.69v-32.28h2.69c2,0,4-.1,5.91-.24V860.14l15.64.19C682.55,871.16,733,930.11,733,1000.54ZM629.31,897.81v205.33a109.51,109.51,0,0,0,0-205.33Z" transform="translate(-588.44 -124.48)"/><path class="cls-2" d="M752.22,860.19H870v32.27H784.49V986.1h78.94v32.27H784.49v91.73H870v32.27H752.22Z" transform="translate(-588.44 -124.48)"/><path class="cls-2" d="M1144.07,860.24h16.13v64.32h-32.27V893.71a108.77,108.77,0,0,0,16.14,216.34h2.69v32.27h-2.69c-77.78,0-141.06-63.26-141.06-141S1066.29,860.24,1144.07,860.24Z" transform="translate(-588.44 -124.48)"/><path class="cls-2" d="M1461.16,1001.46c0,77.7-63.22,140.91-140.92,140.91s-140.91-63.21-140.91-140.91,63.21-140.92,140.91-140.92S1461.16,923.75,1461.16,1001.46Zm-32.28,0a108.64,108.64,0,1,0-108.64,108.64A108.76,108.76,0,0,0,1428.88,1001.46Z" transform="translate(-588.44 -124.48)"/><path class="cls-2" d="M1512.56,1110.12h82.33v32.27H1480.28v-282h32.28Z" transform="translate(-588.44 -124.48)"/><path class="cls-2" d="M1895.87,1001.46c0,77.7-63.21,140.91-140.91,140.91S1614,1079.16,1614,1001.46,1677.25,860.54,1755,860.54,1895.87,923.75,1895.87,1001.46Zm-32.27,0A108.65,108.65,0,1,0,1755,1110.1,108.77,108.77,0,0,0,1863.6,1001.46Z" transform="translate(-588.44 -124.48)"/><path class="cls-2" d="M2034.18,860.25h32.28v282.12h-32.28v-221l-43.53,43.54-43.38-43.38v220.89H1915V860.25h32.27v15.6l43.38,43.38,43.53-43.54Z" transform="translate(-588.44 -124.48)"/><path class="cls-2" d="M2235.11,1041.41a101,101,0,0,1-100.87,100.88l-19,.06h-29.59V860.22l37,0a79.34,79.34,0,0,1,75.71,103.22A100.12,100.12,0,0,1,2235.11,1041.41Zm-65.4-101.78a47.17,47.17,0,0,0-47.12-47.11h-4.71v48h16.36a100.74,100.74,0,0,1,27.52,3.82c2.32.66,4.73,1.45,7.31,2.42A43.52,43.52,0,0,0,2169.71,939.63Zm33.13,101.78a68.59,68.59,0,0,0-68.6-68.64h-16.36V1110h16.36A68.68,68.68,0,0,0,2202.84,1041.41Z" transform="translate(-588.44 -124.48)"/><path class="cls-2" d="M2254.33,1142.35V860.22h32.27v282.13Z" transform="translate(-588.44 -124.48)"/><path class="cls-2" d="M2305.63,860.19h117.74v32.27H2337.9V986.1h78.93v32.27H2337.9v91.73h85.47v32.27H2305.63Z" transform="translate(-588.44 -124.48)"/></g></svg>